<?xml version="1.0" standalone="no"?>
<!DOCTYPE svg PUBLIC "-//W3C//DTD SVG 1.1//EN" "http://www.w3.org/Graphics/SVG/1.1/DTD/svg11.dtd" >
<svg xmlns="http://www.w3.org/2000/svg">
<metadata></metadata>
<defs>
<font id="pf_agora_slab_pro_mediumRg" horiz-adv-x="1259" >
<font-face units-per-em="2048" ascent="1536" descent="-512" />
<missing-glyph horiz-adv-x="619" />
<glyph horiz-adv-x="2048" />
<glyph horiz-adv-x="2048" />
<glyph unicode="&#xd;" horiz-adv-x="2048" />
<glyph unicode=" "  horiz-adv-x="619" />
<glyph unicode="&#x09;" horiz-adv-x="619" />
<glyph unicode="&#xa0;" horiz-adv-x="619" />
<glyph unicode="!" horiz-adv-x="544" d="M385 1534l-4 -622l-24 -517h-162l-24 517l-8 622h222zM274 239q59 0 97.5 -38t38.5 -94q0 -55 -39.5 -94.5t-96.5 -39.5q-61 0 -99.5 39.5t-38.5 94.5t39.5 93.5t98.5 38.5z" />
<glyph unicode="&#x22;" horiz-adv-x="680" d="M429 1023l-34 482h199l-33 -482h-132zM132 1023l-36 482h203l-38 -482h-129z" />
<glyph unicode="#" horiz-adv-x="1217" d="M943 885l-75 -335h169l-16 -121h-180l-94 -429h-138l94 429h-289l-96 -429h-138l96 429h-165l18 121h174l74 335h-178l18 119h189l87 381h136l-88 -381h291l88 381h136l-86 -381h157l-16 -119h-168zM441 550h291l73 335h-290z" />
<glyph unicode="$" d="M657 1610h88v-144q70 -4 143.5 -23t136.5 -56v-296h-151v178q-31 13 -61.5 20.5t-67.5 12.5v-485q70 -26 139 -55.5t122.5 -73.5t87 -107.5t33.5 -155.5q0 -180 -106.5 -279.5t-275.5 -126.5v-184h-88v1775zM585 -165h-85v178q-90 8 -173.5 29t-169.5 71v301h152v-178 q59 -26 101 -36t90 -16v519q-71 21 -132 52t-107 74t-73.5 101.5t-27.5 138.5q0 165 93.5 264.5t246.5 128.5v148h85v-1775zM933 421q0 83 -52.5 130t-135.5 78v-436q81 17 134.5 71t53.5 157zM349 1089q0 -85 42.5 -126t108.5 -68v395q-63 -17 -107 -65t-44 -136z" />
<glyph unicode="%" horiz-adv-x="1861" d="M780 1016q0 -83 -18.5 -161.5t-61.5 -141t-113 -100.5t-175 -38q-113 0 -186 36.5t-114 98t-56.5 140.5t-15.5 164q0 80 15.5 161t57.5 145.5t115 106t188 41.5q117 0 188 -43t110.5 -108.5t52.5 -145.5t13 -155zM598 1014q0 46 -4 102.5t-23 104.5t-55 79.5t-100 31.5 q-65 0 -104.5 -30.5t-59.5 -77.5t-26.5 -104t-6.5 -108q0 -63 7.5 -119t28.5 -97.5t59.5 -66t101.5 -24.5q57 0 92.5 28t55 72t27 98.5t7.5 110.5zM675 -46h-146l663 1589h144zM1819 437q0 -84 -18.5 -163t-61.5 -141t-113 -100.5t-175 -38.5q-113 0 -186 36.5t-114.5 98 t-56.5 141t-15 164.5q0 80 15 160.5t57.5 145.5t115 106t188.5 41q117 0 188 -42.5t110 -108t52.5 -145.5t13.5 -154zM1637 434q0 46 -4 102t-23 104t-55.5 79.5t-99.5 31.5q-65 0 -104.5 -30.5t-59.5 -77.5t-26.5 -103.5t-6.5 -108.5q0 -63 7.5 -118.5t28.5 -97.5t59 -66 t102 -24q57 0 92.5 27.5t55 71.5t27 99t7.5 111z" />
<glyph unicode="&#x26;" horiz-adv-x="1649" d="M587 -29q-104 0 -195 28t-158 81.5t-106.5 134t-39.5 188.5q0 279 357 471q-63 86 -90 156t-27 141q0 56 19 114t59.5 104t104.5 75t153 29q95 0 160 -29t105.5 -72.5t58.5 -96.5t18 -101q0 -63 -23 -114.5t-65 -96.5t-96.5 -84.5t-116.5 -76.5q48 -68 104.5 -141.5 t117.5 -147.5q39 -46 77.5 -91t80.5 -89q77 77 133.5 172.5t74.5 212.5h-176v157h512v-157h-150q-17 -144 -88.5 -271.5t-178.5 -232.5q77 -70 160 -127t162 -90l-83 -146q-40 15 -88 42.5t-99.5 61.5t-103 72.5t-93.5 77.5q-105 -75 -229.5 -114.5t-250.5 -39.5zM756 458 q-56 71 -111 141t-104 133q-104 -57 -175 -133t-71 -185q0 -71 25 -123t65 -87t96 -52.5t119 -17.5q84 0 170.5 28t167.5 83q-50 52 -94 106.5t-88 106.5zM523 1181q0 -50 26 -105t69 -118q42 21 80 44t66.5 52t46 62.5t17.5 77.5q0 68 -42.5 108.5t-118.5 40.5 q-40 0 -67.5 -16t-44 -40t-24.5 -52.5t-8 -53.5z" />
<glyph unicode="'" horiz-adv-x="466" d="M167 1023l-35 482h203l-36 -482h-132z" />
<glyph unicode="(" horiz-adv-x="667" d="M134 621q0 171 34.5 318.5t86.5 267t111 209t109 146.5l102 -63q-27 -40 -67.5 -114t-77.5 -185t-65 -254.5t-28 -320.5q0 -197 28 -351.5t65 -268.5t78.5 -191t68.5 -117l-104 -69q-48 54 -107 145t-112 215.5t-87.5 283t-34.5 349.5z" />
<glyph unicode=")" horiz-adv-x="671" d="M519 621q0 -191 -35 -347.5t-87 -282t-112.5 -216.5t-109.5 -147l-98 69q27 40 67 117t78.5 191t66 268t27.5 352q0 177 -27.5 321.5t-66 254.5t-79 185.5t-66.5 112.5l101 63q48 -57 108.5 -146.5t111.5 -209t86 -267t35 -318.5z" />
<glyph unicode="*" horiz-adv-x="882" d="M498 1267q54 29 111.5 59.5t113.5 60.5q33 -46 45 -93t18 -100q-65 -8 -129.5 -17t-130.5 -16l187 -174q-66 -75 -161 -121l-111 236l-108 -234q-48 21 -87 49t-77 70l186 176l-252 33q8 57 22.5 104.5t41.5 93.5q54 -33 110 -65t114 -62l-52 249q27 7 53 8t55 1 q27 0 51.5 -1t49.5 -8q-13 -61 -25.5 -124.5t-24.5 -124.5z" />
<glyph unicode="+" d="M721 583v-370h-156v370h-358v151h358v357h156v-357h358v-151h-358z" />
<glyph unicode="," horiz-adv-x="508" d="M107 123q0 52 39.5 93t102.5 41q71 0 110.5 -48.5t39.5 -116.5q0 -101 -63.5 -207t-175.5 -178l-62 72q53 52 81 106t34 113q-59 4 -82.5 41.5t-23.5 83.5z" />
<glyph unicode="-" horiz-adv-x="826" d="M123 493v180h580v-180h-580z" />
<glyph unicode="." horiz-adv-x="506" d="M393 121q0 -59 -42 -100.5t-98 -41.5q-59 0 -102.5 41t-43.5 101q0 59 43 100.5t99 41.5q59 0 101.5 -41.5t42.5 -100.5z" />
<glyph unicode="/" horiz-adv-x="763" d="M186 -65h-159l563 1606h159z" />
<glyph unicode="0" d="M1188 723q0 -138 -27.5 -270.5t-92 -237t-171 -167.5t-264.5 -63q-173 0 -283.5 62t-173.5 164.5t-86 235t-23 272.5q0 130 25 264t88 243.5t172.5 180t283.5 70.5q175 0 283.5 -72.5t167.5 -183t80 -243t21 -255.5zM953 719q0 86 -9 187.5t-40.5 189t-95 147 t-172.5 59.5q-112 0 -177.5 -57t-100 -145t-45 -190.5t-10.5 -194.5q0 -117 12.5 -218.5t49 -177.5t101.5 -119t170 -43q96 0 158.5 50t97.5 128.5t48 179.5t13 204z" />
<glyph unicode="1" d="M215 165h314v1079q-7 0 -59 -7.5t-111.5 -16t-111.5 -16.5t-57 -8l-27 132l387 129h209v-1292h301v-165h-845v165z" />
<glyph unicode="2" d="M1045 1065q0 -88 -33 -173t-85.5 -167.5t-121.5 -160t-141 -148.5t-142 -135t-127 -116l527 -2v186h184v-349h-1018v149q65 59 145.5 129.5t160 146t154.5 155t132.5 161t93 159t35.5 150.5q0 125 -74 182.5t-204 57.5q-55 0 -149.5 -20.5t-218.5 -94.5l-77 142 q135 96 261 128t220 32q105 0 194.5 -26.5t151.5 -78t97 -128.5t35 -179z" />
<glyph unicode="3" d="M1054 1457l33 -129l-449 -447q100 -5 188 -29t153.5 -73t103 -126.5t37.5 -188.5q0 -123 -45 -213.5t-122 -150.5t-178.5 -89.5t-213.5 -29.5q-114 0 -234 20t-224 72l54 159q121 -37 206.5 -51t155.5 -14q169 0 266.5 72t97.5 223q0 132 -95.5 200t-287.5 68 q-29 0 -55.5 -2.5t-57.5 -6.5l-34 125q48 51 105 107.5t116 116t116 116t107 104.5h-456v-192h-181v359h894z" />
<glyph unicode="4" d="M979 1457v-882h213v-163h-213v-247h154v-165h-524v165h150v247h-692v149q73 96 163 212t183 236t183 236t163 212h220zM747 1171q-111 -149 -232.5 -299.5t-234.5 -296.5h481l-2 596h-12z" />
<glyph unicode="5" d="M559 759q-57 0 -119.5 -15.5t-121.5 -42.5l-125 75l48 681h815v-326h-182v162h-445l-28 -406q38 15 88 27.5t138 12.5q98 0 188 -27.5t159 -83t111 -142.5t42 -205q0 -123 -45 -214.5t-121 -153t-175.5 -91t-208.5 -29.5q-112 0 -238 19t-232 75l56 161q123 -37 209 -51 t157 -14q164 0 263.5 70t99.5 228q0 72 -26.5 127t-72.5 91t-106.5 54t-127.5 18z" />
<glyph unicode="6" d="M349 813q83 44 168 72.5t188 28.5q88 0 168 -26.5t141.5 -81.5t98.5 -140t37 -204q0 -113 -38 -202t-106 -150.5t-162.5 -93t-205.5 -31.5q-153 0 -255.5 52.5t-164 144.5t-86.5 214.5t-25 264.5q0 176 35.5 325t108.5 259t188 171t276 61q116 0 198 -18.5t126 -38.5 l-44 -162q-81 31 -150 38.5t-120 7.5q-111 0 -184.5 -53t-117.5 -128t-63 -158.5t-23 -142.5zM655 747q-73 0 -128.5 -15t-94.5 -32.5t-62 -35.5t-31 -20v-44q0 -65 10.5 -143t42 -144t90.5 -111t158 -45q140 0 212 83.5t72 215.5q0 63 -12.5 117t-44.5 92t-83.5 60 t-128.5 22z" />
<glyph unicode="7" d="M173 1076v381h923v-155l-590 -1302h-221q144 326 290 646t293 647h-508v-217h-187z" />
<glyph unicode="8" d="M397 1104q0 -50 24 -85t67 -65t99.5 -55t122.5 -56q101 73 140 132.5t39 120.5q0 35 -14 72t-43.5 68t-79 52t-116.5 21q-66 0 -112.5 -22t-73.5 -53t-40 -67t-13 -63zM623 155q70 0 124.5 20t92.5 55t58 80t20 98q0 54 -26 97t-75.5 79.5t-121.5 69t-166 71.5 q-57 -37 -95.5 -78.5t-60.5 -84.5t-31 -84t-9 -81q0 -98 72.5 -170t217.5 -72zM1106 1117q0 -40 -8.5 -81t-31.5 -86t-63.5 -91t-103.5 -94q52 -27 97 -62.5t79 -81.5t53.5 -103.5t19.5 -124.5q0 -88 -37 -163t-106.5 -129.5t-168 -86t-218.5 -31.5q-252 0 -387 107 t-135 282q0 53 13.5 112.5t43 116t79.5 110.5t128 98q-99 59 -146 126t-47 171q0 82 34.5 151t98.5 119t150.5 78.5t191.5 28.5q79 0 162 -19.5t150 -63t109.5 -114t42.5 -169.5z" />
<glyph unicode="9" d="M895 646q-82 -48 -169.5 -75t-188.5 -27q-90 0 -171 26t-141 80.5t-96.5 140t-36.5 204.5q0 114 38.5 203.5t106.5 151t162 94.5t206 33q150 0 252.5 -53.5t164 -145.5t86.5 -216t25 -265q0 -175 -35 -323t-109.5 -256.5t-188.5 -169.5t-274 -61q-118 0 -201.5 17 t-140.5 36l44 157q90 -25 163 -33.5t124 -8.5q111 0 185 54t118.5 129.5t63.5 159t23 142.5zM587 710q71 0 126.5 15t95.5 33t63 34.5t29 20.5v46q0 63 -10 139t-40.5 141.5t-91 110.5t-159.5 45q-140 0 -212 -80t-72 -211q0 -63 12.5 -117.5t45 -93.5t84.5 -61t129 -22z " />
<glyph unicode=":" horiz-adv-x="498" d="M393 121q0 -59 -42 -100.5t-98 -41.5q-59 0 -102.5 41t-43.5 101q0 59 43 100.5t99 41.5q59 0 101.5 -41.5t42.5 -100.5zM393 789q0 -61 -42 -103t-98 -42q-59 0 -102.5 42t-43.5 103q0 56 43 98t99 42q59 0 101.5 -42t42.5 -98z" />
<glyph unicode=";" horiz-adv-x="498" d="M393 789q0 -61 -42 -103t-98 -42q-59 0 -102.5 42t-43.5 103q0 56 43 98t99 42q59 0 101.5 -42t42.5 -98zM109 123q0 52 38.5 93t101.5 41q73 0 112.5 -48.5t39.5 -116.5q0 -101 -63.5 -207t-177.5 -178l-59 72q52 52 80 106t34 113q-59 4 -82.5 41.5t-23.5 83.5z" />
<glyph unicode="&#x3c;" d="M1096 134l-916 456v125l916 456v-176l-719 -342l719 -346v-173z" />
<glyph unicode="=" d="M178 751v150h903v-150h-903zM178 418v147h903v-147h-903z" />
<glyph unicode="&#x3e;" d="M180 307l719 346l-719 342v176l916 -456v-125l-916 -456v173z" />
<glyph unicode="?" horiz-adv-x="1016" d="M515 1547q201 0 318.5 -81t117.5 -224q0 -75 -34 -139t-84.5 -122.5t-109.5 -112t-109.5 -108.5t-84.5 -110.5t-34 -118.5q0 -31 3.5 -64t7.5 -74l-184 -16q-11 56 -16 104t-5 80q0 67 22 124.5t58.5 109t88 102t111.5 107.5q57 54 90.5 99t33.5 106q0 84 -62 120 t-158 36q-51 0 -106 -7.5t-111 -25.5v-190h-176v330q113 40 225 57.5t198 17.5zM585 103q0 -53 -39.5 -88.5t-93.5 -35.5q-57 0 -96.5 35.5t-39.5 88.5q0 54 38.5 92.5t94.5 38.5q57 0 96.5 -38.5t39.5 -92.5z" />
<glyph unicode="@" horiz-adv-x="1965" d="M1019 1520q179 0 323 -51t244.5 -146.5t153 -229t52.5 -296.5q-2 -109 -34.5 -193.5t-89 -141t-127.5 -85t-147 -28.5q-35 0 -72.5 6.5t-71 23t-61.5 41.5t-41 63q-50 -53 -127.5 -87t-159.5 -34q-72 0 -118 24t-71.5 57.5t-35 74.5t-9.5 74q0 87 45 135.5t117 72.5 t160 31.5t173 14.5v49q0 92 -32 125.5t-124 33.5q-116 0 -241 -40l-33 113q71 31 151.5 47t162.5 16q125 0 201.5 -59.5t76.5 -206.5v-330q0 -55 34 -89t104 -34q35 0 77 17.5t76.5 56t57.5 99.5t23 147q0 140 -45 253t-126.5 192t-200 120.5t-265.5 41.5 q-149 0 -280.5 -50.5t-229 -139t-154 -210.5t-56.5 -262q0 -144 50 -265.5t139 -211.5t210.5 -141t263.5 -51q59 0 127 10.5t151 35.5q11 -26 20 -52t20 -55q-66 -28 -150.5 -43t-165.5 -15q-182 0 -329.5 58.5t-252 163t-161 248t-56.5 312.5q0 171 67 316.5t183 251 t271 164t333 58.5zM1122 751q-52 -6 -109 -9.5t-103.5 -15t-75.5 -38.5t-29 -77q0 -61 29 -94.5t99 -33.5q92 0 189 82v186z" />
<glyph unicode="A" horiz-adv-x="1526" d="M1117 167q-17 57 -39 126t-39 121h-564q-15 -46 -37 -116t-39 -131h149v-167h-504v167h123l454 1336h299q107 -326 221.5 -668t221.5 -668h123v-167h-513v167h144zM989 581q-44 149 -90 294.5t-94 295.5q-9 33 -19 65.5t-21 65.5h-4l-42 -134q-19 -58 -43.5 -134 t-51 -156.5t-50.5 -158t-41 -138.5h456z" />
<glyph unicode="B" horiz-adv-x="1419" d="M96 1332v169h688q253 0 375.5 -102t122.5 -288q0 -34 -6.5 -76t-28.5 -87t-61.5 -88t-104.5 -74v-2q72 -21 119 -61.5t75.5 -91t40.5 -106.5t12 -109q0 -96 -35 -172.5t-96.5 -130.5t-142.5 -83.5t-176 -29.5h-790v167h153v1165h-145zM1081 429q0 53 -18 100.5t-52 83 t-86.5 57.5t-122.5 22h-317v-525h317q75 0 127.5 21t86.5 56.5t49.5 84t15.5 100.5zM1039 1094q0 104 -63.5 171t-206.5 67h-284v-473h284q132 0 201 65t69 170z" />
<glyph unicode="C" horiz-adv-x="1298" d="M362 747q0 -132 22 -236.5t75.5 -179t144 -114t228.5 -39.5q29 0 72 2t91 8.5t98.5 15.5t94.5 22l39 -171q-44 -18 -97.5 -31t-112.5 -23t-119.5 -15t-115.5 -5q-190 0 -319.5 57.5t-207 160t-112 242.5t-34.5 304q0 125 30 264t106.5 254t210.5 191t341 76 q123 0 219.5 -17.5t171.5 -44.5v-381h-176v230q-50 13 -104.5 18.5t-102.5 5.5q-119 0 -202.5 -42.5t-137 -120.5t-78.5 -187.5t-25 -243.5z" />
<glyph unicode="D" horiz-adv-x="1516" d="M92 0v169h153v1161h-144v173h666q191 0 314.5 -60.5t196 -163t101 -237.5t28.5 -286q0 -153 -32 -290.5t-107.5 -241t-201 -164t-315.5 -60.5h-659zM491 1330v-1161h232q55 0 129.5 16t141 75.5t114 173.5t47.5 309q0 196 -43 314t-106 178t-138 77.5t-136 17.5h-241z " />
<glyph unicode="E" horiz-adv-x="1330" d="M92 0v171h149v1161h-145v169h1138v-392h-178v223h-573v-471l531 11v-173l-531 9v-537h602v230h180v-401h-1173z" />
<glyph unicode="F" horiz-adv-x="1286" d="M92 0v169h149v1163h-145v169h1140v-392h-180v223h-573v-471l531 11v-173l-531 9v-539h207v-169h-598z" />
<glyph unicode="G" horiz-adv-x="1439" d="M826 1530q123 0 226 -17.5t177 -44.5v-374h-175v219q-44 11 -103 18.5t-116 7.5q-126 0 -214 -43t-146.5 -119.5t-85.5 -186t-27 -243.5q0 -125 20.5 -230t70 -180.5t133 -118.5t209.5 -43q52 0 123 7.5t119 24.5v420h-217v164h547v-164h-109v-572q-118 -38 -240.5 -56 t-237.5 -18q-188 0 -316.5 57.5t-207 160t-113 242.5t-34.5 304q0 125 30 263t109.5 254t219 192t358.5 76z" />
<glyph unicode="H" horiz-adv-x="1618" d="M1002 0v169h135v534h-660v-534h138v-169h-525v169h146v1163h-146v169h525v-169h-138v-466h660v466h-135v169h525v-169h-147v-1163h147v-169h-525z" />
<glyph unicode="I" horiz-adv-x="834" d="M153 0v169h142v1163h-142v171h529v-171h-145v-1163h145v-169h-529z" />
<glyph unicode="J" horiz-adv-x="860" d="M142 1503h603v-171h-168l-2 -1014q0 -147 -36.5 -261t-107.5 -199.5t-176.5 -147t-243.5 -101.5l-63 157q118 63 193.5 121t118.5 123t58 140.5t15 173.5v1008h-191v171z" />
<glyph unicode="K" horiz-adv-x="1485" d="M822 912l499 -743h128v-169h-537l-2 169h138l-400 596l-175 -167v-431h138v-167h-519v167h144v1172h-144v162h521v-162h-140v-524l548 521h-138v165h520v-165h-128z" />
<glyph unicode="L" horiz-adv-x="1294" d="M92 0v169h149v1163h-145v169h546v-169h-157v-1163h611v268h179v-437h-1183z" />
<glyph unicode="M" horiz-adv-x="1993" d="M1004 439q26 56 51.5 117.5t48.5 118.5l235 539l125 287h451v-169h-136v-1165h136v-167h-512v167h134v992h-5l-88 -206q-35 -81 -69 -162t-71 -162q-50 -109 -97.5 -217.5t-95.5 -221.5h-228q-51 112 -102 222.5t-102 223.5l-146 330l-84 193h-6q0 -249 -1 -496t-1 -496 h142v-167h-516v167h146v1165h-146v169h459q31 -63 67 -143t76 -172q50 -112 102.5 -234t102.5 -237q36 -77 65 -148.5t54 -127.5h11z" />
<glyph unicode="N" horiz-adv-x="1686" d="M1223 370v962h-152v169h522v-169h-144v-1332h-232l-351 539q-66 101 -132.5 202.5t-133.5 207.5q-33 53 -65.5 106.5t-67.5 105.5q-3 0 -3 -1t-2 -1v-992h149q0 -42 1 -83.5t1 -83.5h-525q0 42 -1 83.5t-1 83.5h150q0 293 1.5 582.5t1.5 582.5h-151v169h407 q105 -165 183 -288.5t142 -219.5l243 -384q37 -59 74.5 -118.5t74.5 -120.5h11z" />
<glyph unicode="O" horiz-adv-x="1544" d="M1435 749q0 -165 -41.5 -304.5t-123.5 -244t-204.5 -162t-285.5 -57.5q-178 0 -304.5 54.5t-208 154t-120 239.5t-38.5 314q0 157 36.5 300t118 250.5t208 170.5t308.5 63q184 0 310.5 -63t203 -169.5t109 -248.5t32.5 -297zM1181 743q0 107 -15.5 215.5t-59 194 t-122.5 139t-204 53.5t-206 -50.5t-128 -134.5t-65.5 -193.5t-18.5 -226.5q0 -282 97 -429.5t321 -147.5q105 0 181 45t125 122.5t72 183.5t23 229z" />
<glyph unicode="P" horiz-adv-x="1309" d="M1247 1058q0 -75 -24.5 -154.5t-78 -146.5t-142 -111t-218.5 -44h-309v-433h192v-169h-575v169h142v1163h-142v171h669q228 0 357 -115t129 -330zM475 1332v-563h255q52 0 100 14t85.5 47t59.5 86.5t22 133.5q0 146 -72 214t-202 68h-248z" />
<glyph unicode="Q" horiz-adv-x="1546" d="M1431 745q0 -237 -83 -419t-250 -269l342 -84l-77 -194l-585 190q-57 4 -108.5 14.5t-94.5 20.5q-245 63 -355.5 251t-110.5 488q0 157 36.5 300t116 250.5t207 170.5t309.5 63q184 0 309 -63t201.5 -170.5t109.5 -250.5t33 -298zM1179 743q0 107 -15.5 214.5t-59.5 194 t-121.5 140t-204.5 53.5q-125 0 -206 -51.5t-128 -135.5t-65.5 -193.5t-18.5 -226.5q0 -282 97 -428.5t321 -146.5q105 0 181 43t125 121.5t72 184t23 231.5z" />
<glyph unicode="R" horiz-adv-x="1419" d="M1008 1076q0 71 -22 119.5t-58 79.5t-85.5 44t-102.5 13h-265v-523h265q44 0 91 10.5t87 40t65 81.5t25 135zM475 644v-473h169v-171h-550v171h140v1161h-140v171h686q230 0 355 -109.5t125 -314.5q0 -53 -13 -112.5t-44.5 -115.5t-84.5 -101t-129 -68l236 -517l162 -23 v-131q-44 -17 -102 -26.5t-95 -9.5q-79 0 -116 35.5t-68 100.5l-235 533h-296z" />
<glyph unicode="S" d="M257 410l2 -180q81 -37 164 -51t156 -14q85 0 148.5 22t105 55.5t62.5 78.5t21 91q0 67 -25 109t-70 68t-105.5 45t-132.5 39q-100 21 -188 54.5t-154 80.5t-104.5 115t-38.5 162q3 107 44.5 189.5t112.5 137t166.5 83t207.5 28.5q48 0 105 -4.5t115 -14t115 -28.5 t105 -45l2 -314h-176l-3 182q-50 21 -126 30.5t-135 9.5q-56 0 -108 -14t-90 -43t-61 -71.5t-23 -97.5q0 -53 27 -91t73 -66.5t106 -49.5t127 -36q92 -21 180.5 -51t158.5 -79.5t113 -125t43 -191.5q0 -117 -43 -200t-119.5 -137.5t-184 -79.5t-236.5 -25q-127 0 -261 24 t-250 85q0 79 -1 158.5t-1 161.5h176z" />
<glyph unicode="T" horiz-adv-x="1286" d="M347 0v169h179v1163h-317v-238h-176v409h1223v-409h-177v238h-314v-1163h180v-169h-598z" />
<glyph unicode="U" horiz-adv-x="1594" d="M1391 546q0 -259 -145.5 -411t-450.5 -152q-157 0 -270 38t-185 110t-106.5 177.5t-34.5 237.5v786h-128v171h514v-171h-148v-784q0 -193 93 -287t267 -94q171 0 265.5 92t94.5 289v784h-147v171h515v-171h-134v-786z" />
<glyph unicode="V" horiz-adv-x="1472" d="M953 1501h500v-171h-132q-109 -333 -216.5 -666t-219.5 -664h-293q-112 331 -221.5 664t-221.5 666h-130v171h514q0 -44 -1 -85.5t-1 -85.5h-130q68 -224 133.5 -435t136.5 -433q17 -59 34.5 -119.5t34.5 -121.5h9l73 246q67 215 130.5 430.5t130.5 432.5h-130v171z" />
<glyph unicode="W" horiz-adv-x="2147" d="M1076 956l-66 -226l-217 -730h-293l-349 1330h-130v173h527v-173h-142l194 -801l69 -293h4l78 293l213 729l-26 72h-145l-2 173h541l2 -173h-151l248 -815l77 -260h4l64 284l181 791h-140v173h518v-173h-136q-19 -79 -47 -187t-59.5 -230t-66 -250t-66 -250t-58.5 -228 t-48 -185h-291l-219 738l-63 218h-5z" />
<glyph unicode="X" horiz-adv-x="1461" d="M895 1503h499v-173h-138l-378 -559l389 -600h144l2 -171h-567v171h138l-287 460l-294 -460h145v-171h-508v171h133l402 609l-345 550h-157l2 173h556v-173h-127l257 -416l264 416h-130v173z" />
<glyph unicode="Y" horiz-adv-x="1359" d="M975 1330h-129v173h490v-173h-122l-414 -701v-460h175v-169h-598v169h175v454l-405 707h-120v173h496v-173h-126l280 -528h9z" />
<glyph unicode="Z" horiz-adv-x="1237" d="M341 171h669v266h182v-437h-1142v167l805 1165h-573v-234h-179v405h1045v-167z" />
<glyph unicode="[" horiz-adv-x="617" d="M127 -351v1881h414v-143h-210v-1598h210v-140h-414z" />
<glyph unicode="\" horiz-adv-x="763" d="M27 1541h157l565 -1606h-159z" />
<glyph unicode="]" horiz-adv-x="617" d="M77 -351v140h212v1598h-212v143h414v-1881h-414z" />
<glyph unicode="^" horiz-adv-x="1010" d="M784 811q-72 127 -143.5 253t-142.5 251q-66 -121 -142 -249t-145 -255h-167l395 680h122l390 -680h-167z" />
<glyph unicode="_" horiz-adv-x="1095" d="M0 -303v125h1096v-125h-1096z" />
<glyph unicode="`" horiz-adv-x="1095" d="M307 1474l138 138l293 -361l-85 -80z" />
<glyph unicode="a" horiz-adv-x="1175" d="M504 483q-92 -7 -140 -54.5t-48 -114.5q0 -86 41.5 -126.5t135.5 -40.5q59 0 128 31t122 81v241zM968 165h167l13 -132q-21 -13 -54.5 -22t-68 -14.5t-68 -7.5t-54.5 -2q-63 0 -103.5 24t-43.5 110q-2 0 -2 1t-3 1q-59 -52 -113.5 -81t-101.5 -43t-84.5 -16t-60.5 -2 q-97 0 -158.5 30.5t-98 76.5t-49 100.5t-12.5 100.5q0 65 23 120t73 97t129 69t191 34l258 18v63q0 121 -46 171.5t-168 50.5q-79 0 -166 -15.5t-164 -41.5q-10 37 -21 74t-22 75q93 41 208 63t219 22q180 0 280.5 -80t100.5 -281v-563z" />
<glyph unicode="b" horiz-adv-x="1244" d="M655 -17q-105 0 -236.5 24t-249.5 79v1310h-165v166h399v-558q92 50 172 72t144 22q123 0 205 -43t130 -118.5t68 -178.5t20 -225q0 -111 -23 -211.5t-79 -175.5t-150.5 -119t-234.5 -44zM671 918q-71 0 -141 -26t-127 -57v-632q64 -26 125.5 -36t111.5 -10q61 0 109 18 t83.5 60.5t54 114t18.5 179.5q0 120 -17.5 195.5t-49 118t-74.5 59t-93 16.5z" />
<glyph unicode="c" horiz-adv-x="1031" d="M596 1096q90 0 173.5 -14.5t152.5 -42.5v-301h-166v157q-19 4 -46.5 7t-48.5 3q-179 0 -259 -88.5t-80 -287.5q0 -189 73.5 -279t215.5 -90q81 0 155.5 15t151.5 46l50 -154q-75 -41 -176.5 -62.5t-208.5 -21.5q-144 0 -240 41t-152.5 115t-79.5 172.5t-23 211.5 q0 88 19.5 189t75.5 186.5t156 141.5t257 56z" />
<glyph unicode="d" horiz-adv-x="1252" d="M835 98q-68 -54 -159 -84.5t-170 -30.5q-119 0 -199.5 42t-129 115t-69 169.5t-20.5 205.5q0 125 24 231.5t76.5 184t137 122.5t207.5 45q59 0 138.5 -14.5t154.5 -53.5v366h-171v166h405v-1397h161v-165h-382v96zM579 918q-50 0 -96 -17.5t-81.5 -62.5t-56.5 -122.5 t-21 -198.5q0 -105 19 -174t51.5 -109.5t77.5 -57t97 -16.5q71 0 144 32t113 67v590q-17 12 -46 24t-62.5 22t-69.5 16.5t-69 6.5z" />
<glyph unicode="e" horiz-adv-x="1106" d="M579 924q-63 0 -109.5 -25t-76 -65.5t-46 -92t-19.5 -103.5h479q-2 59 -13.5 110.5t-37.5 90.5t-69 62t-108 23zM581 1096q155 0 244 -58.5t134 -140.5t55.5 -169.5t10.5 -146.5v-106h-701q0 -73 13.5 -131.5t46 -100.5t89 -65t138.5 -23q92 0 169 17.5t165 55.5l59 -147 q-101 -52 -207.5 -76t-213.5 -24q-151 0 -246.5 46t-151.5 122.5t-76.5 176t-20.5 207.5q0 79 19.5 176.5t74 183.5t151.5 144.5t248 58.5z" />
<glyph unicode="f" horiz-adv-x="838" d="M63 165h150v740h-152v132l154 42v159q0 155 86 250t284 95q51 0 121 -7t133 -24l-32 -165q-44 6 -89 11t-80 5q-97 0 -147 -37.5t-50 -131.5v-163h313v-166h-313v-740h180v-165h-558v165z" />
<glyph unicode="g" horiz-adv-x="1182" d="M966 938q36 -39 54.5 -100.5t18.5 -122.5q0 -90 -36.5 -158t-99 -115t-147.5 -72t-187 -25h-120q-77 0 -116.5 -15.5t-39.5 -59.5q0 -68 102 -69h289q199 0 310.5 -79.5t111.5 -240.5q0 -77 -33.5 -141t-104.5 -112.5t-177.5 -75.5t-251.5 -27q-138 0 -229 25t-146 65 t-77 95.5t-22 114.5q0 92 45 157.5t97 94.5q-64 13 -97 57t-33 107q0 46 17 78t44 54t58.5 35t62.5 19q-59 27 -105.5 93.5t-46.5 184.5q0 105 39.5 180t104.5 122t147 69t165 22q57 0 113 -7.5t100 -19.5h361v-128h-164zM410 46q-19 -6 -40 -24t-37.5 -41t-27 -50 t-10.5 -54q0 -33 12.5 -65.5t43 -57t84.5 -40t140 -15.5q144 0 217.5 50t73.5 128q0 31 -11.5 60.5t-37.5 53.5t-69 39.5t-106 15.5h-232zM802 717q0 33 -11 70t-37 68.5t-71 52.5t-114 21q-111 0 -167.5 -58t-56.5 -156q0 -97 54.5 -152t152.5 -55q107 0 178.5 52t71.5 157 z" />
<glyph unicode="h" horiz-adv-x="1332" d="M197 0v1396h-153v166h385v-587q92 56 189 88.5t179 32.5q117 0 182.5 -38.5t97.5 -93t40 -117.5t8 -109v-571h161v-138q-46 -22 -109.5 -32t-107.5 -10q-65 0 -100.5 24t-52.5 57t-20.5 65t-3.5 49v512q0 55 -7 94.5t-24.5 66t-52 39.5t-89.5 13q-67 0 -147.5 -30.5 t-142.5 -67.5v-809h-232z" />
<glyph unicode="i" horiz-adv-x="690" d="M117 903v166h343v-900h158v-140q-46 -22 -106 -33t-104 -11q-94 0 -136 38t-44 134v746h-111zM483 1370q0 -59 -43 -102t-105 -43q-59 0 -100.5 43t-41.5 102q0 61 41.5 102.5t100.5 41.5q61 0 104.5 -41.5t43.5 -102.5z" />
<glyph unicode="j" horiz-adv-x="656" d="M81 1069h377v-979q0 -121 -22 -213t-72 -162t-133.5 -123.5t-205.5 -95.5l-71 149q88 52 141.5 98t82.5 96t38.5 106.5t9.5 129.5v828h-145v166zM480 1370q0 -59 -43.5 -102t-101.5 -43q-61 0 -103 43t-42 102q0 61 42 102.5t103 41.5q57 0 101 -41.5t44 -102.5z" />
<glyph unicode="k" horiz-adv-x="1221" d="M664 1069h465v-157h-99l-287 -245l311 -510l140 -19v-125q-42 -15 -91 -21.5t-84 -6.5q-44 0 -84 13t-74 67l-282 476q-38 -31 -72 -61.5t-70 -61.5v-263h135v-155h-517v155h148v1248h-163v155h397v-925l324 279h-97v157z" />
<glyph unicode="l" horiz-adv-x="700" d="M477 165h152v-165h-533v165h149v1231h-164v166h396v-1397z" />
<glyph unicode="m" horiz-adv-x="1982" d="M800 1091q184 0 260 -133q40 29 88 54t98.5 42t101 28.5t96.5 11.5q110 0 175.5 -32t100.5 -85t46 -117.5t11 -129.5v-563h149v-138q-48 -22 -105 -32t-100 -10q-99 0 -135.5 37t-40.5 116v546q0 107 -34 159t-144 52q-31 0 -66.5 -7t-73 -18t-72.5 -26.5t-61 -32.5 q8 -35 9 -71.5t1 -62.5v-679h-232v715q0 105 -46 143.5t-121 38.5q-63 0 -137.5 -28t-130.5 -64v-805h-236v903h-157v168h385v-94l10 -7q90 59 185 90t176 31z" />
<glyph unicode="n" horiz-adv-x="1338" d="M800 1096q117 0 182.5 -38.5t97 -93t39.5 -117.5t8 -109v-571h161v-138q-46 -22 -109.5 -32t-107.5 -10q-65 0 -100.5 21t-52.5 49.5t-20 56.5t-3 46v534q0 55 -7 94.5t-24.5 66t-52.5 39.5t-90 13q-67 0 -147.5 -30.5t-142.5 -67.5v-809h-232v905h-153v166h385v-94 l12 -2q92 59 184 90t173 31z" />
<glyph unicode="o" horiz-adv-x="1178" d="M1091 535q0 -107 -26 -207t-86.5 -176.5t-158 -122.5t-241.5 -46q-136 0 -229 44t-151.5 119t-84.5 173.5t-26 211.5q0 109 28 210.5t90 179.5t158 125.5t232 47.5q138 0 233 -47.5t153.5 -124t83.5 -178.5t25 -209zM853 531q0 67 -10.5 136t-37.5 125.5t-76.5 91 t-128.5 34.5q-81 0 -133.5 -33.5t-83 -89t-43 -124.5t-12.5 -140q0 -75 10.5 -143t39 -119.5t79.5 -82.5t137 -31q79 0 129.5 33t78.5 85.5t39.5 119.5t11.5 138z" />
<glyph unicode="p" horiz-adv-x="1244" d="M35 -293h160v1196h-160v166h379v-99l4 -2q66 55 158.5 87t170.5 32q121 0 201 -42.5t129.5 -115t70 -170.5t20.5 -205q0 -125 -24 -230t-77 -182t-138.5 -120t-207.5 -43q-57 0 -137 15t-157 54v-341h171v-167h-563v167zM677 163q48 0 94 16t81 58.5t56 119.5t21 195 q0 105 -18.5 172t-50.5 106.5t-77 54t-97 14.5q-35 0 -72 -9t-72.5 -23t-65 -32t-49.5 -35v-566q19 -13 48 -26t63 -23t70 -16t69 -6z" />
<glyph unicode="q" horiz-adv-x="1240" d="M667 -293h176v360q-92 -50 -171.5 -71t-142.5 -21q-119 0 -201.5 40t-131.5 112t-71 172t-20 220q2 113 27 216.5t83.5 182.5t155 125t240.5 46q105 0 229 -23t236 -73v-1286h162v-167h-571v167zM577 167q70 0 139.5 24t126.5 54v621q-57 24 -114.5 32.5t-110.5 8.5 q-123 0 -198 -83.5t-79 -290.5q-2 -114 15.5 -185.5t50 -112t76 -54.5t94.5 -14z" />
<glyph unicode="r" horiz-adv-x="910" d="M456 918q33 29 79 60.5t98.5 58t107 44t105.5 17.5q31 0 46 -16.5t15 -58.5q0 -44 -17.5 -105t-54.5 -101l-381 -2v-650h159v-165h-542v165h148v740h-144v166h374v-151z" />
<glyph unicode="s" horiz-adv-x="1016" d="M234 326l7 -136q44 -24 105.5 -33.5t111.5 -9.5q98 0 167 32t69 110q0 39 -16.5 65.5t-44.5 45t-66 32t-80 26.5q-75 21 -147 43t-129.5 57.5t-92.5 87t-35 132.5q0 83 32 142t88 97.5t133.5 57.5t169.5 19q94 0 187 -19t166 -63q0 -63 1 -127.5t3 -130.5h-173l-4 143 q-75 31 -165 30q-83 0 -141 -32t-58 -109q0 -33 21 -55.5t52.5 -39t67 -27.5t66.5 -20q65 -19 137 -40t132.5 -58.5t98.5 -98t38 -158.5q0 -79 -32.5 -137t-93 -95.5t-145.5 -55.5t-189 -18q-94 0 -206 16t-198 66l-6 261h169z" />
<glyph unicode="t" horiz-adv-x="856" d="M425 1355v-284h318v-166h-320v-558q0 -42 5.5 -74t20.5 -54t43.5 -34t76.5 -12q38 0 87 6.5t111 23.5l35 -157q-63 -29 -141 -44t-146 -15q-92 0 -154 20t-99.5 57t-53 90t-15.5 118v633h-153v132l163 50l67 247z" />
<glyph unicode="u" horiz-adv-x="1316" d="M521 -25q-103 0 -165.5 29t-96 77t-46 110t-12.5 127v585h-153v168h389v-714q0 -46 4 -81t20 -59t47 -36t84 -12q52 0 132.5 26t151.5 94v614h-138v168h373v-904h152v-138q-61 -25 -118.5 -33.5t-94.5 -8.5q-82 0 -120 29.5t-47 108.5q-99 -90 -195 -120t-167 -30z" />
<glyph unicode="v" horiz-adv-x="1211" d="M618 188q25 84 58.5 182.5t57.5 179.5q29 83 59.5 176.5t57.5 176.5h-95v168h421v-168h-103q-33 -98 -75.5 -214.5t-86.5 -237t-87 -237t-78 -214.5h-283q-33 96 -74 212t-84 235.5t-83.5 234.5t-73.5 215h-116v174h289l153 -473q13 -46 30.5 -97.5t36.5 -106.5 t36.5 -107.5t30.5 -98.5h9z" />
<glyph unicode="w" horiz-adv-x="1884" d="M1336 173l80 300l123 432h-132v166h449v-166l-103 -2l-267 -903h-311l-123 331l-101 282h-10l-95 -282l-116 -331h-320l-263 897h-116v174h293l161 -569l90 -333h10l97 285l140 401l-20 48h-160v168h544v-168h-121l158 -443l105 -287h8z" />
<glyph unicode="x" horiz-adv-x="1200" d="M556 416l-190 -251h123v-165h-462l2 165h98l318 420l-211 320h-179v164h322l234 -354l140 190h-107v164h476v-164h-127l-274 -353l258 -387h156v-165h-495v165h85z" />
<glyph unicode="y" horiz-adv-x="1228" d="M607 153q4 15 22.5 71t43 131.5t53 162.5t54 165t44.5 138t29 82h-130v168h456v-168h-108l-389 -1135q-22 -57 -47.5 -101t-60.5 -74t-84 -46t-122 -16q-25 0 -92 5.5t-157 34.5l34 184q48 -11 92 -17t81 -6q53 0 83 13.5t49 45t39 85t53 137.5h-116 q-72 221 -143.5 441.5t-143.5 444.5h-110v172h283q8 -27 30 -99.5t51.5 -170.5t63 -205t60.5 -200t47 -160t24 -83h11v0z" />
<glyph unicode="z" horiz-adv-x="1040" d="M345 160h464v164h168v-324h-920v147l614 763h-406v-170h-167v331h860v-144z" />
<glyph unicode="{" horiz-adv-x="636" d="M445 -368q-77 0 -122 22t-70 60.5t-32.5 90t-7.5 109.5v441q0 84 -33 146t-117 74v124q84 15 117 76.5t33 155.5v292q0 50 5.5 106t27.5 102t65.5 77t119.5 31h159v-141h-55q-65 0 -91 -41.5t-26 -103.5v-337q0 -48 -4 -93t-19.5 -81.5t-43 -62.5t-73.5 -37v-2 q48 -25 76.5 -54.5t43 -67.5t17.5 -88.5t3 -111.5v-404q0 -56 20 -99t91 -43h61v-140h-145z" />
<glyph unicode="|" horiz-adv-x="595" d="M213 -311v1852h159v-1852h-159z" />
<glyph unicode="}" horiz-adv-x="636" d="M50 -368v140h61q71 0 90.5 43t19.5 99v404q0 61 3.5 111.5t18 88.5t43 67.5t76.5 54.5v2q-46 11 -73.5 37t-43 62.5t-20 81.5t-4.5 93v337q0 61 -25 103t-91 42h-55v141h159q77 0 120 -31t65 -77t27.5 -102t5.5 -106v-292q0 -94 33 -155t117 -77v-124q-84 -11 -117 -73.5 t-33 -146.5v-441q0 -58 -7.5 -109.5t-32.5 -90t-71 -60.5t-121 -22h-145z" />
<glyph unicode="~" d="M870 526q-65 0 -130 16.5t-124.5 35t-111.5 35t-98 16.5l-159 -103l-90 70q44 101 112 153.5t154 52.5q54 0 116.5 -15.5t126.5 -35t124.5 -35t106.5 -15.5l148 106l86 -69q-37 -98 -103 -155t-158 -57z" />
<glyph unicode="&#xa2;" d="M625 -13q-125 9 -208.5 54t-133 117t-69 165t-19.5 200q0 84 17.5 177t64.5 175.5t131.5 141.5t216.5 74v202h111v-197q79 -5 154.5 -19t139.5 -38v-301h-167v157q-19 4 -46.5 7t-47.5 3q-8 0 -16 -1t-17 -1v-743q77 3 147 18t142 43l51 -154q-65 -37 -154.5 -57.5 t-185.5 -24.5v-171h-111v173zM429 529q0 -305 196 -358v714q-103 -31 -149.5 -117t-46.5 -239z" />
<glyph unicode="&#xa3;" d="M311 807l11 221q6 99 34.5 182t82.5 143t136 94t196 34q117 0 212.5 -23t162.5 -53v-307h-178v175q-41 11 -85 18.5t-101 7.5q-70 0 -114.5 -19.5t-72.5 -56.5t-41 -89.5t-17 -119.5l-11 -207h379v-134h-388l-9 -158q-2 -51 -8.5 -102t-19.5 -98t-33 -86t-48 -64h734 v-165h-1006l2 163q49 24 79.5 64.5t49 88.5t26 101.5t9.5 105.5l10 150h-143v134h151z" />
<glyph unicode="&#xa5;" d="M149 644v96h272q-71 141 -139.5 275.5t-137.5 272.5h-111v169h469v-169h-130q63 -136 126 -266t127 -263h8l252 529h-134v169h463v-169h-108q-70 -138 -140.5 -272.5t-141.5 -275.5h278v-96h-953zM1102 541v-102h-368v-274h173v-165h-572v165h171v274h-357v102h953z" />
<glyph unicode="&#xa8;" horiz-adv-x="1014" d="M839 1326q0 -46 -34 -77.5t-84 -31.5q-46 0 -77 31.5t-31 77.5t32 77.5t76 31.5q50 0 84 -30.5t34 -78.5zM416 1326q0 -46 -31.5 -77.5t-81.5 -31.5q-48 0 -80.5 31.5t-32.5 77.5t33.5 77.5t77.5 31.5q50 0 82.5 -30.5t32.5 -78.5z" />
<glyph unicode="&#xa9;" horiz-adv-x="1851" d="M1742 728q0 -169 -65 -316t-176.5 -257.5t-260.5 -174t-316 -63.5q-169 0 -317.5 63.5t-259.5 174t-175.5 257.5t-64.5 316q0 167 64.5 313.5t175.5 257t260 174.5t317 64q167 0 316 -64t260.5 -174.5t176.5 -257t65 -313.5zM1631 728q0 144 -55.5 271.5t-150.5 222.5 t-224.5 149.5t-276.5 54.5q-144 0 -273.5 -54.5t-226 -149.5t-152 -222.5t-55.5 -271.5q0 -145 55.5 -272.5t152 -222.5t226 -149.5t273.5 -54.5q147 0 276.5 54.5t224.5 149.5t150.5 222.5t55.5 272.5zM642 713q0 -92 16.5 -167t54.5 -127.5t101.5 -81t160.5 -28.5 q21 0 52 2.5t66.5 6.5t70 9.5t63.5 13.5l26 -120q-57 -24 -147 -37t-165 -13q-134 0 -225 41t-147 112t-80.5 169.5t-24.5 216.5q0 88 22 186.5t77 180.5t150.5 136t244.5 54q90 0 156.5 -13.5t117.5 -30.5v-267h-126v157q-70 15 -142 16q-167 0 -244.5 -112t-77.5 -304z " />
<glyph unicode="&#xab;" horiz-adv-x="1005" d="M121 462l339 368l94 -69l-223 -340l223 -338l-94 -70l-339 366v83zM477 462l343 368l94 -69l-224 -340l224 -338l-94 -70l-343 366v83z" />
<glyph unicode="&#xad;" horiz-adv-x="826" d="M123 493v180h580v-180h-580z" />
<glyph unicode="&#xae;" horiz-adv-x="1298" d="M1186 1028q0 -111 -42 -210t-115 -171t-173 -115t-214 -43q-117 0 -216.5 43t-172.5 115t-116 170.5t-43 210.5t42 210t116 171.5t174 115t216 41.5q113 0 213.5 -41.5t173.5 -115t115 -171.5t42 -210zM1098 1028q0 94 -35 176t-96.5 144.5t-145 98.5t-179.5 36 t-180.5 -36t-145.5 -98.5t-96.5 -144.5t-35.5 -176q0 -92 35.5 -175.5t96.5 -145t144.5 -97t181.5 -35.5t183 35.5t145 97t94 145t34 175.5zM561 987v-187h68v-81h-244v81h60v473h-60v84h294q101 0 153.5 -48.5t52.5 -135.5q0 -42 -26.5 -92.5t-87.5 -76.5l101 -204l69 -9 v-70q-20 -4 -47.5 -7.5t-47.5 -3.5q-33 0 -51.5 17.5t-29.5 41.5l-104 218h-100zM769 1173q0 56 -30.5 79t-74.5 23h-103v-208h100q44 0 76 21.5t32 84.5z" />
<glyph unicode="&#xb4;" horiz-adv-x="1106" d="M510 1171l-87 80l292 361l140 -138z" />
<glyph unicode="&#xb8;" horiz-adv-x="1007" d="M655 37q-31 -39 -66 -83t-66 -88q107 -4 172.5 -49t65.5 -135q-2 -46 -26.5 -86.5t-74 -71t-125 -48t-178.5 -17.5v89q119 11 186.5 42t67.5 84q0 29 -19.5 46t-50.5 26t-69 11t-75 2l-31 46q55 71 107.5 140.5t107.5 137.5q17 -12 37 -22.5t37 -23.5z" />
<glyph unicode="&#xbb;" horiz-adv-x="1005" d="M899 379l-340 -366l-95 70l222 338l-222 340l97 69l338 -368v-83zM539 379l-340 -366l-94 70l223 338l-223 340l94 69l340 -368v-83z" />
<glyph unicode="&#x192;" d="M347 870h209q9 98 24.5 207t57 198.5t119.5 148.5t209 59q53 0 112 -7.5t116 -26.5l-42 -154q-50 10 -78.5 14t-65.5 4q-71 0 -110 -27.5t-62 -83.5t-36.5 -139.5t-25.5 -192.5h223v-151h-236q-19 -121 -31.5 -240t-27 -228t-38.5 -202t-69 -162t-116 -108.5t-180 -39.5 q-51 0 -110.5 8t-115.5 32l46 154q46 -13 73 -17t57 -4q103 0 149.5 64t72.5 206q8 52 18.5 124.5t19 148.5t16.5 146t14 118h-192v151z" />
<glyph unicode="&#x2c6;" horiz-adv-x="1152" d="M922 1163l-347 219l-347 -219l-61 73l333 320h151l336 -318z" />
<glyph unicode="&#x2da;" horiz-adv-x="1154" d="M585 1205q-52 0 -99 19.5t-81.5 53t-54 77t-19.5 94.5q0 48 19.5 92t54 77.5t81.5 53.5t99 20q53 0 98 -20t77.5 -52.5t51 -77.5t18.5 -93q0 -53 -19.5 -96.5t-52.5 -77t-77.5 -52t-95.5 -18.5zM585 1571q-54 0 -91.5 -38t-37.5 -91q0 -48 36.5 -85.5t92.5 -37.5 q51 0 85.5 37.5t34.5 85.5q0 51 -33.5 90t-86.5 39z" />
<glyph unicode="&#x2dc;" horiz-adv-x="1152" d="M751 1244q-52 0 -100.5 13.5t-91 30t-80.5 29.5t-71 13l-126 -86l-71 58q31 88 84.5 133.5t120.5 45.5q42 0 88 -13t91 -28.5t87.5 -28.5t76.5 -13l122 88l72 -58q-29 -83 -80 -133.5t-122 -50.5z" />
<glyph unicode="&#x401;" horiz-adv-x="1330" d="M1033 1711q0 -50 -35.5 -80.5t-87.5 -30.5q-47 0 -77.5 30.5t-30.5 80.5q0 48 32 81t76 33q52 0 87.5 -32t35.5 -82zM613 1711q0 -50 -33.5 -80.5t-81.5 -30.5q-51 0 -84 30.5t-33 80.5q0 48 34 81t78 33q51 0 85.5 -32t34.5 -82zM92 0v171h149v1161h-145v169h1138v-392 h-178v223h-573v-471l531 11v-173l-531 9v-537h602v230h180v-401h-1173z" />
<glyph unicode="&#x402;" horiz-adv-x="1741" d="M1652 467q0 -128 -38 -236t-100.5 -198t-140.5 -160t-159 -118l-97 124q125 99 205.5 233.5t80.5 312.5q0 171 -80.5 245.5t-218.5 74.5q-70 0 -155.5 -16t-168.5 -50v-514h167v-165h-564v165h158v1174h-311v-195h-178v357h1364v-357h-178v195h-458v-493q105 42 208 60 t189 18q226 0 350.5 -122.5t124.5 -334.5z" />
<glyph unicode="&#x403;" horiz-adv-x="1265" d="M664 1606l-87 84l293 359l140 -138zM92 0v165h149v1174h-145v162h1133v-379h-177v217h-569v-1174h207v-165h-598z" />
<glyph unicode="&#x404;" horiz-adv-x="1305" d="M1229 52q-41 -17 -95.5 -29t-115 -20.5t-122 -13t-116.5 -4.5q-190 0 -318.5 56.5t-207.5 158t-112 240.5t-33 303q0 83 12.5 174t42 178.5t79.5 165.5t127 137t182 94t245 35q121 0 219.5 -17t175.5 -42v-366h-180v213q-42 11 -97.5 18.5t-112.5 7.5q-104 0 -184.5 -35 t-136.5 -99.5t-85.5 -152.5t-31.5 -193q138 2 274 3.5t274 5.5v-171q-138 2 -275 3t-275 1q-2 -117 19.5 -212.5t75 -165.5t144.5 -110t227 -40q29 0 73 3.5t93 10t100.5 15.5t95.5 20z" />
<glyph unicode="&#x405;" d="M257 410l2 -180q81 -37 164 -51t156 -14q85 0 148.5 22t105 55.5t62.5 78.5t21 91q0 67 -25 109t-70 68t-105.5 45t-132.5 39q-100 21 -188 54.5t-154 80.5t-104.5 115t-38.5 162q3 107 44.5 189.5t112.5 137t166.5 83t207.5 28.5q48 0 105 -4.5t115 -14t115 -28.5 t105 -45l2 -314h-176l-3 182q-50 21 -126 30.5t-135 9.5q-56 0 -108 -14t-90 -43t-61 -71.5t-23 -97.5q0 -53 27 -91t73 -66.5t106 -49.5t127 -36q92 -21 180.5 -51t158.5 -79.5t113 -125t43 -191.5q0 -117 -43 -200t-119.5 -137.5t-184 -79.5t-236.5 -25q-127 0 -261 24 t-250 85q0 79 -1 158.5t-1 161.5h176z" />
<glyph unicode="&#x406;" horiz-adv-x="834" d="M153 0v169h142v1163h-142v171h529v-171h-145v-1163h145v-169h-529z" />
<glyph unicode="&#x407;" horiz-adv-x="834" d="M745 1711q0 -50 -35 -80.5t-87 -30.5q-46 0 -77 30.5t-31 80.5q0 48 32 81t76 33q52 0 87 -32t35 -82zM326 1711q0 -50 -33.5 -80.5t-81.5 -30.5q-51 0 -84 30.5t-33 80.5q0 48 34.5 81t78.5 33q50 0 84.5 -32t34.5 -82zM153 0v169h142v1163h-142v171h529v-171h-145 v-1163h145v-169h-529z" />
<glyph unicode="&#x408;" horiz-adv-x="860" d="M142 1503h603v-171h-168l-2 -1014q0 -147 -36.5 -261t-107.5 -199.5t-176.5 -147t-243.5 -101.5l-63 157q118 63 193.5 121t118.5 123t58 140.5t15 173.5v1008h-191v171z" />
<glyph unicode="&#x409;" horiz-adv-x="2179" d="M1405 1339h-158v-442h333q119 0 214 -33.5t161.5 -92t102 -142t35.5 -184.5q0 -113 -36.5 -196.5t-98.5 -138.5t-149.5 -82.5t-189.5 -27.5h-758v165h145v1174l-381 -3v-144q0 -241 -15.5 -452t-71 -375t-163 -271t-292.5 -142l-54 171q123 44 196.5 123.5t112.5 205 t51 297t12 397.5v190h-192v167h1196v-164zM1247 732v-567h324q113 0 192.5 71t79.5 211q0 75 -24.5 128.5t-66 88.5t-94 51.5t-106.5 16.5h-305z" />
<glyph unicode="&#x40a;" horiz-adv-x="2234" d="M1459 1339h-157v-450h333q121 0 216 -31.5t161 -90.5t100.5 -141t34.5 -183q0 -111 -34.5 -193.5t-98 -138.5t-150.5 -83.5t-189 -27.5h-757v165h142v563h-577v-563h135v-165h-524v165h147v1174h-147v162h524v-162h-135v-454h577v454h-144v164h543v-164zM1302 728v-563 h324q117 0 194.5 69t77.5 211q0 75 -24 127.5t-65.5 87t-94.5 51.5t-108 17h-304z" />
<glyph unicode="&#x40b;" horiz-adv-x="1866" d="M1779 165v-165h-521v165h138v358q0 63 -19.5 107.5t-56 71t-87 37t-111.5 10.5q-87 0 -177 -20.5t-156 -51.5v-512h154v-165h-552v165h159v1174h-316v-195h-175v357h1359v-357h-178v195h-451v-488q100 37 203.5 55t195.5 18q94 0 176.5 -20.5t142 -63.5t95 -111 t35.5 -162v-402h142z" />
<glyph unicode="&#x40c;" horiz-adv-x="1465" d="M475 165h143v-165h-526v165h142v1174h-142v162h526v-162h-143v-1174zM1225 178l201 -21v-138q-48 -17 -107 -26.5t-96 -9.5q-67 -4 -113.5 16t-84.5 74l-477 670v72l436 598q42 61 83.5 84t95.5 21q105 0 207 -48l-15 -138l-192 -17l-394 -520zM749 1610l-88 84l295 359 l140 -138z" />
<glyph unicode="&#x40e;" horiz-adv-x="1362" d="M508 1503v-167h-136l184 -458l134 -352h11l127 355l171 455h-140v167h480v-167h-112l-443 -1125q-50 -125 -118 -177.5t-177 -52.5q-40 0 -104.5 5t-169.5 35l38 159q56 -11 100 -18t78 -7q51 0 86 28t64 97l37 97h-74l-410 959h-115v167h489zM679 1606q-61 0 -113.5 22 t-98.5 58.5t-87 83.5t-75 97l113 84q64 -86 135.5 -136.5t134.5 -50.5q19 0 48 4.5t68 21t90 51.5t114 96l71 -68q-99 -146 -203.5 -204.5t-196.5 -58.5z" />
<glyph unicode="&#x40f;" horiz-adv-x="1618" d="M1527 1501v-165h-147v-1171h147v-165h-622v-395h-188v395h-627v165h146v1171h-146v165h525v-165h-138v-1171h660v1171h-135v165h525z" />
<glyph unicode="&#x410;" horiz-adv-x="1526" d="M1117 167q-17 57 -39 126t-39 121h-564q-15 -46 -37 -116t-39 -131h149v-167h-504v167h123l454 1336h299q107 -326 221.5 -668t221.5 -668h123v-167h-513v167h144zM989 581q-44 149 -90 294.5t-94 295.5q-9 33 -19 65.5t-21 65.5h-4l-42 -134q-19 -58 -43.5 -134 t-51 -156.5t-50.5 -158t-41 -138.5h456z" />
<glyph unicode="&#x411;" horiz-adv-x="1408" d="M1175 1159h-176v180h-522v-442h336q247 0 377.5 -118t130.5 -317q0 -113 -35 -200t-97 -145t-149 -87.5t-189 -29.5h-759v165h144v1174h-144v162h1083v-342zM477 732v-567h330q113 0 191 76.5t78 214.5q0 75 -23 127.5t-62.5 85t-93.5 48t-113 15.5h-307z" />
<glyph unicode="&#x412;" horiz-adv-x="1419" d="M96 1332v169h688q253 0 375.5 -102t122.5 -288q0 -34 -6.5 -76t-28.5 -87t-61.5 -88t-104.5 -74v-2q72 -21 119 -61.5t75.5 -91t40.5 -106.5t12 -109q0 -96 -35 -172.5t-96.5 -130.5t-142.5 -83.5t-176 -29.5h-790v167h153v1165h-145zM1081 429q0 53 -18 100.5t-52 83 t-86.5 57.5t-122.5 22h-317v-525h317q75 0 127.5 21t86.5 56.5t49.5 84t15.5 100.5zM1039 1094q0 104 -63.5 171t-206.5 67h-284v-473h284q132 0 201 65t69 170z" />
<glyph unicode="&#x413;" horiz-adv-x="1265" d="M92 0v165h149v1174h-145v162h1133v-379h-177v217h-569v-1174h207v-165h-598z" />
<glyph unicode="&#x414;" horiz-adv-x="1618" d="M239 0v-374h-184v531l120 8q84 88 136.5 203t83 250.5t42.5 291t12 326.5v103h-158v162h1208v-162h-144v-1174l150 -8v-531h-184v374h-1082zM659 1223q0 -188 -9.5 -338.5t-36 -276t-72.5 -234.5t-116 -209h688v1174h-454v-116z" />
<glyph unicode="&#x415;" horiz-adv-x="1330" d="M92 0v171h149v1161h-145v169h1138v-392h-178v223h-573v-471l531 11v-173l-531 9v-537h602v230h180v-401h-1173z" />
<glyph unicode="&#x416;" horiz-adv-x="2131" d="M1186 165h142v-165h-519v165h140v1171h-140v165h519v-165h-142v-1171zM1886 178l209 -21v-138q-50 -17 -108.5 -26.5t-97.5 -9.5q-57 0 -103 13t-79 61l-458 683v71l453 620q38 52 78.5 69.5t88.5 17.5q109 0 206 -50l-13 -138l-195 -17l-397 -522zM245 178l416 613 l-393 522l-195 17l-16 138q96 50 206 50q46 0 80 -16t71 -65l469 -626v-71l-462 -675q-38 -56 -83 -69t-95 -13t-105 9.5t-98 26.5v138z" />
<glyph unicode="&#x417;" horiz-adv-x="1288" d="M311 1076h-182v355q51 24 111.5 42t122.5 29.5t124.5 18t119.5 6.5q105 0 201.5 -18t170 -62t117.5 -115.5t44 -179.5q0 -43 -15.5 -91.5t-47.5 -92.5t-76.5 -80.5t-103.5 -59.5v-2q131 -42 206.5 -135t75.5 -227q0 -121 -48 -209t-131.5 -147.5t-194.5 -89t-233 -29.5 q-56 0 -121.5 4.5t-131.5 14t-130 27t-118 42.5l52 162q113 -31 208.5 -48.5t159.5 -17.5q439 0 438 291q0 64 -25.5 113.5t-71.5 83t-109.5 51.5t-137.5 18h-186v157h176q77 0 135.5 21t98.5 56t60 79t20 90q0 61 -23 103t-63 68t-97.5 37t-124.5 11q-71 0 -142 -13 t-128 -37v-226z" />
<glyph unicode="&#x418;" horiz-adv-x="1656" d="M1014 1499h559v-163h-153v-1171h153v-165h-538v165h151v880h-5q-177 -206 -351.5 -408.5t-352.5 -406.5v-65h148v-165h-539v165h155v1171h-151v163h539v-163h-152v-872h6q177 204 352 405.5t353 405.5v61h-174v163z" />
<glyph unicode="&#x419;" horiz-adv-x="1656" d="M1014 1499h559v-163h-153v-1171h153v-165h-538v165h151v880h-5q-177 -206 -351.5 -408.5t-352.5 -406.5v-65h148v-165h-539v165h155v1171h-151v163h539v-163h-152v-872h6q177 204 352 405.5t353 405.5v61h-174v163zM822 1637q-59 0 -113 22t-100 58t-86 83t-76 98l114 85 q63 -90 134.5 -138t132.5 -48q19 0 49 3.5t70 19.5t90 50.5t113 97.5l71 -68q-99 -148 -203 -205.5t-196 -57.5z" />
<glyph unicode="&#x41a;" horiz-adv-x="1465" d="M475 165h143v-165h-526v165h142v1174h-142v162h526v-162h-143v-1174zM1225 178l201 -21v-138q-48 -17 -107 -26.5t-96 -9.5q-67 -4 -113.5 16t-84.5 74l-477 670v72l436 598q42 61 83.5 84t95.5 21q105 0 207 -48l-15 -138l-192 -17l-394 -520z" />
<glyph unicode="&#x41b;" horiz-adv-x="1564" d="M929 0v167h136v1169h-440v-144q0 -241 -15.5 -452t-71 -375t-163 -271t-292.5 -142l-54 171q123 44 196.5 123.5t112.5 205t51 297t12 397.5v190h-192v167h1246v-164h-146v-1172h146v-167h-526z" />
<glyph unicode="&#x41c;" horiz-adv-x="1993" d="M1004 439q26 56 51.5 117.5t48.5 118.5l235 539l125 287h451v-169h-136v-1165h136v-167h-512v167h134v992h-5l-88 -206q-35 -81 -69 -162t-71 -162q-50 -109 -97.5 -217.5t-95.5 -221.5h-228q-51 112 -102 222.5t-102 223.5l-146 330l-84 193h-6q0 -249 -1 -496t-1 -496 h142v-167h-516v167h146v1165h-146v169h459q31 -63 67 -143t76 -172q50 -112 102.5 -234t102.5 -237q36 -77 65 -148.5t54 -127.5h11z" />
<glyph unicode="&#x41d;" horiz-adv-x="1618" d="M1002 0v169h135v534h-660v-534h138v-169h-525v169h146v1163h-146v169h525v-169h-138v-466h660v466h-135v169h525v-169h-147v-1163h147v-169h-525z" />
<glyph unicode="&#x41e;" horiz-adv-x="1544" d="M1435 749q0 -165 -41.5 -304.5t-123.5 -244t-204.5 -162t-285.5 -57.5q-178 0 -304.5 54.5t-208 154t-120 239.5t-38.5 314q0 157 36.5 300t118 250.5t208 170.5t308.5 63q184 0 310.5 -63t203 -169.5t109 -248.5t32.5 -297zM1181 743q0 107 -15.5 215.5t-59 194 t-122.5 139t-204 53.5t-206 -50.5t-128 -134.5t-65.5 -193.5t-18.5 -226.5q0 -282 97 -429.5t321 -147.5q105 0 181 45t125 122.5t72 183.5t23 229z" />
<glyph unicode="&#x41f;" horiz-adv-x="1618" d="M1002 0v167h135v1167h-657v-1167h138v-167h-526v167h144v1167h-144v169h1438v-169h-148v-1167h148v-167h-528z" />
<glyph unicode="&#x420;" horiz-adv-x="1309" d="M1247 1058q0 -75 -24.5 -154.5t-78 -146.5t-142 -111t-218.5 -44h-309v-433h192v-169h-575v169h142v1163h-142v171h669q228 0 357 -115t129 -330zM475 1332v-563h255q52 0 100 14t85.5 47t59.5 86.5t22 133.5q0 146 -72 214t-202 68h-248z" />
<glyph unicode="&#x421;" horiz-adv-x="1298" d="M362 747q0 -132 22 -236.5t75.5 -179t144 -114t228.5 -39.5q29 0 72 2t91 8.5t98.5 15.5t94.5 22l39 -171q-44 -18 -97.5 -31t-112.5 -23t-119.5 -15t-115.5 -5q-190 0 -319.5 57.5t-207 160t-112 242.5t-34.5 304q0 125 30 264t106.5 254t210.5 191t341 76 q123 0 219.5 -17.5t171.5 -44.5v-381h-176v230q-50 13 -104.5 18.5t-102.5 5.5q-119 0 -202.5 -42.5t-137 -120.5t-78.5 -187.5t-25 -243.5z" />
<glyph unicode="&#x422;" horiz-adv-x="1286" d="M347 0v169h179v1163h-317v-238h-176v409h1223v-409h-177v238h-314v-1163h180v-169h-598z" />
<glyph unicode="&#x423;" horiz-adv-x="1362" d="M508 1503v-167h-136l184 -458l134 -352h11l127 355l171 455h-140v167h480v-167h-112l-443 -1125q-50 -125 -118 -177.5t-177 -52.5q-40 0 -104.5 5t-169.5 35l38 159q56 -11 100 -18t78 -7q51 0 86 28t64 97l37 97h-74l-410 959h-115v167h489z" />
<glyph unicode="&#x424;" horiz-adv-x="1820" d="M1733 763q0 -127 -52 -222.5t-146.5 -160t-221.5 -101t-276 -45.5v-74h134v-160h-504v160h133v74q-162 7 -294 41t-225 96.5t-143 158t-50 226.5q0 117 52.5 210.5t146.5 162.5t225.5 109t287.5 48v55h-133v160h504v-160h-134v-57q151 -6 279 -46t221.5 -106.5 t144.5 -159t51 -209.5zM314 751q0 -94 40.5 -157t108.5 -102.5t155 -59.5t182 -29v706q-100 -7 -189.5 -31t-154.5 -69t-103.5 -108.5t-38.5 -149.5zM1503 756q0 158 -117 249t-349 104v-706q90 7 174 30t148.5 65.5t104 105.5t39.5 152z" />
<glyph unicode="&#x425;" horiz-adv-x="1461" d="M895 1503h499v-173h-138l-378 -559l389 -600h144l2 -171h-567v171h138l-287 460l-294 -460h145v-171h-508v171h133l402 609l-345 550h-157l2 173h556v-173h-127l257 -416l264 416h-130v173z" />
<glyph unicode="&#x426;" horiz-adv-x="1618" d="M1367 0h-1279v165h146v1171h-146v165h525v-165h-138v-1171h660v1171h-136v165h526v-165h-147v-1171h174v-537h-185v372z" />
<glyph unicode="&#x427;" horiz-adv-x="1526" d="M1431 0h-528v165h145v483q-99 -31 -194 -47t-187 -16q-97 0 -182.5 21t-149 64t-100 112t-36.5 167v385h-142v165h522v-165h-138v-335q0 -131 74.5 -182.5t199.5 -53.5q85 0 171.5 18.5t161.5 46.5v506h-136v165h519v-165h-147v-1169h147v-165z" />
<glyph unicode="&#x428;" horiz-adv-x="2208" d="M987 1336h-130v165h500v-165h-132v-1171h508v1171h-131v165h514v-165h-144v-1171h144v-165h-2024v165h144v1171h-144v165h517v-165h-136v-1171h514v1171z" />
<glyph unicode="&#x429;" horiz-adv-x="2208" d="M987 1336h-130v165h500v-165h-132v-1171h508v1171h-131v165h514v-165h-144v-1171h169v-539h-184v374h-1865v165h144v1171h-144v165h517v-165h-136v-1171h514v1171z" />
<glyph unicode="&#x42a;" horiz-adv-x="1748" d="M815 897h333q121 0 216 -33.5t161 -92t101 -142t35 -184.5q0 -113 -36 -196.5t-98.5 -138.5t-150.5 -82.5t-188 -27.5h-767v165h154v1174h-362v-212h-176v374h923v-162h-143zM815 732v-567h325q113 0 192 71t79 211q0 75 -24 128.5t-65.5 88.5t-94 51.5t-107.5 16.5h-305 z" />
<glyph unicode="&#x42b;" horiz-adv-x="2059" d="M487 732v-567h324q113 0 192.5 71t79.5 211q0 75 -25 128.5t-66 88.5t-95 51.5t-108 16.5h-302zM642 1339h-155v-442h333q121 0 216 -33.5t161 -92t100.5 -142t34.5 -184.5q0 -113 -36 -196.5t-98.5 -138.5t-150 -82.5t-188.5 -27.5h-767v165h153v1174h-153v164h550v-164 zM1431 0v165h142v1174h-142v162h530v-162h-146v-1174h146v-165h-530z" />
<glyph unicode="&#x42c;" horiz-adv-x="1430" d="M498 732v-567h324q113 0 192.5 71t79.5 211q0 75 -25.5 128.5t-66 88.5t-94 51.5t-108.5 16.5h-302zM653 1339h-155v-442h332q121 0 216.5 -33.5t161 -92t100.5 -142t35 -184.5q0 -113 -36 -196.5t-98.5 -138.5t-150.5 -82.5t-188 -27.5h-767v165h154v1174h-154v164h550 v-164z" />
<glyph unicode="&#x42d;" horiz-adv-x="1298" d="M403 697v173l546 -11q-2 109 -27 198t-75 152.5t-127.5 97.5t-184.5 34q-57 0 -126.5 -10t-109.5 -20v-213h-178v366q77 27 184 45t230 18q207 0 337 -64.5t203 -169.5t99.5 -240t26.5 -275q0 -157 -38 -302t-122.5 -254t-218.5 -173t-327 -64q-109 0 -228.5 16 t-203.5 51l42 172q44 -11 93 -21t96 -16.5t89 -10t73 -3.5q129 0 223.5 41t155 112t88.5 168.5t26 210.5z" />
<glyph unicode="&#x42e;" horiz-adv-x="2160" d="M2051 747q0 -165 -37.5 -304.5t-115 -242t-196.5 -160t-282 -57.5q-169 0 -289.5 50t-198 143.5t-117 227t-41.5 299.5h-297v-536h138v-167h-525v167h146v1172h-146v162h525v-162h-138v-473h299q13 138 53.5 258t117 210t193 141.5t280.5 51.5q184 0 305.5 -63 t194 -170.5t102 -249.5t29.5 -297zM1806 743q0 107 -13.5 215.5t-54 195t-117 141.5t-201.5 55t-204 -51.5t-122.5 -137t-60.5 -195t-17 -228.5q0 -142 21 -250.5t68 -182t125.5 -112t189.5 -38.5q105 0 178.5 45t119.5 124t67 186t21 233z" />
<glyph unicode="&#x42f;" horiz-adv-x="1458" d="M414 1058q0 -81 27.5 -131.5t70 -78.5t93 -38t96.5 -10h250v539h-265q-114 0 -193 -70.5t-79 -210.5zM671 640l-259 -527q-31 -65 -66 -98.5t-116 -33.5q-35 0 -95 7.5t-106 22.5v133l166 23l259 510q-86 20 -141.5 61.5t-89 94t-45 111t-11.5 110.5q0 101 32.5 184 t94 142.5t150.5 91t200 31.5h688v-164h-142v-1174h149v-165h-542v165h154v475h-280z" />
<glyph unicode="&#x430;" horiz-adv-x="1175" d="M504 483q-92 -7 -140 -54.5t-48 -114.5q0 -86 41.5 -126.5t135.5 -40.5q59 0 128 31t122 81v241zM968 165h167l13 -132q-21 -13 -54.5 -22t-68 -14.5t-68 -7.5t-54.5 -2q-63 0 -103.5 24t-43.5 110q-2 0 -2 1t-3 1q-59 -52 -113.5 -81t-101.5 -43t-84.5 -16t-60.5 -2 q-97 0 -158.5 30.5t-98 76.5t-49 100.5t-12.5 100.5q0 65 23 120t73 97t129 69t191 34l258 18v63q0 121 -46 171.5t-168 50.5q-79 0 -166 -15.5t-164 -41.5q-10 37 -21 74t-22 75q93 41 208 63t219 22q180 0 280.5 -80t100.5 -281v-563z" />
<glyph unicode="&#x431;" horiz-adv-x="1175" d="M577 1486q35 15 84 35t101.5 41t101 40.5t81.5 34.5l67 -140q-77 -44 -144.5 -71.5t-106.5 -45.5q-107 -41 -189.5 -82.5t-142 -98.5t-95 -134.5t-49.5 -192.5q4 0 6 -2q55 86 148.5 136t208.5 50q121 0 204 -40.5t136 -112t76 -168.5t23 -212q0 -98 -25 -195.5 t-85.5 -174t-159 -123.5t-242.5 -47q-138 0 -230 45t-148.5 118t-81.5 164t-27 183v208q4 127 10.5 193t18.5 105q39 172 155 292t305 195zM602 892q-77 0 -129 -37.5t-85 -94.5t-48.5 -125t-15.5 -131t10.5 -125.5t37.5 -113t79.5 -82.5t138.5 -32q79 0 128 32t77.5 83.5 t39.5 117t11 133.5q0 70 -10 138t-36 120.5t-73.5 84.5t-124.5 32z" />
<glyph unicode="&#x432;" horiz-adv-x="1141" d="M684 1071q182 0 270.5 -76.5t88.5 -203.5q0 -55 -26 -117.5t-101 -106.5q48 -19 78.5 -50.5t49.5 -67t25.5 -74t6.5 -70.5q0 -71 -27.5 -126.5t-76 -95t-113 -61.5t-136.5 -22h-652v160h113v756h-111v155h611zM412 475v-320h236q55 0 92.5 14.5t61.5 38.5t35.5 54.5 t11.5 63.5q0 63 -49 106t-152 43h-236zM412 920v-291h224q85 0 132 39.5t47 102.5q0 64 -43.5 106.5t-148.5 42.5h-211z" />
<glyph unicode="&#x433;" horiz-adv-x="1016" d="M75 0v157h115v759h-109v155h896v-337h-162v182h-394v-759h162v-157h-508z" />
<glyph unicode="&#x434;" horiz-adv-x="1307" d="M1106 160l108 -5v-464h-177v309h-811v-309h-182v464l109 5q61 55 97.5 136t54 174t22 191t4.5 190v65h-134v155h909v-911zM546 916v-77q0 -79 -3.5 -170.5t-16.5 -183.5t-40.5 -176.5t-77.5 -148.5h466v756h-328z" />
<glyph unicode="&#x435;" horiz-adv-x="1106" d="M579 924q-63 0 -109.5 -25t-76 -65.5t-46 -92t-19.5 -103.5h479q-2 59 -13.5 110.5t-37.5 90.5t-69 62t-108 23zM581 1096q155 0 244 -58.5t134 -140.5t55.5 -169.5t10.5 -146.5v-106h-701q0 -73 13.5 -131.5t46 -100.5t89 -65t138.5 -23q92 0 169 17.5t165 55.5l59 -147 q-101 -52 -207.5 -76t-213.5 -24q-151 0 -246.5 46t-151.5 122.5t-76.5 176t-20.5 207.5q0 79 19.5 176.5t74 183.5t151.5 144.5t248 58.5z" />
<glyph unicode="&#x436;" horiz-adv-x="1771" d="M1133 155v-155h-489v155h123v757h-125v157h489v-157h-132v-757h134zM1571 155l150 -19v-119q-36 -17 -88.5 -25.5t-89.5 -10.5q-55 0 -91 14t-67 57l-346 481v48l328 429q34 48 68.5 64.5t84.5 16.5q44 0 90 -12t77 -29l-10 -123l-132 -9l-282 -349zM502 569l-270 349 l-131 9l-11 123q31 17 77 29t90 12q50 0 85 -16.5t68 -64.5l315 -429v-48l-332 -481q-31 -43 -67.5 -57t-91.5 -14q-37 2 -89.5 10.5t-87.5 25.5v119l150 19z" />
<glyph unicode="&#x437;" horiz-adv-x="1020" d="M447 -17q-119 0 -227.5 23t-171.5 51l46 144q86 -29 159 -43t148 -14q138 0 214.5 45t76.5 150q0 48 -20.5 80.5t-52.5 51t-70.5 25t-73.5 6.5h-155v140h129q36 0 74 6.5t70 23t51.5 46t19.5 75.5q0 63 -47.5 102.5t-149.5 39.5q-51 0 -104.5 -6.5t-107.5 -23.5v-160 h-163v274q81 37 191 58t212 21q195 0 300.5 -74.5t105.5 -201.5q0 -88 -50.5 -148.5t-122.5 -86.5v-6q89 -25 144 -94t55 -161q0 -85 -36 -149t-99.5 -107t-151.5 -65t-193 -22z" />
<glyph unicode="&#x438;" horiz-adv-x="1355" d="M912 728q-7 -11 -44.5 -69.5t-89.5 -135.5q-46 -70 -100.5 -149t-104.5 -152t-91 -133t-61 -89h-222v914h-151v155h381v-728h10q-7 -10 1.5 3t27.5 41.5t46 70.5t61 90q48 67 101.5 146t102.5 152.5t90 134t60 90.5h223q0 -226 1.5 -450t1.5 -452h151v-138 q-50 -22 -106 -32t-100 -10q-52 0 -86.5 17t-55 45t-29.5 59.5t-9 60.5v559h-8z" />
<glyph unicode="&#x439;" horiz-adv-x="1355" d="M912 728q-7 -11 -44.5 -69.5t-89.5 -135.5q-46 -70 -100.5 -149t-104.5 -152t-91 -133t-61 -89h-222v914h-151v155h381v-728h10q-7 -10 1.5 3t27.5 41.5t46 70.5t61 90q48 67 101.5 146t102.5 152.5t90 134t60 90.5h223q0 -226 1.5 -450t1.5 -452h151v-138 q-50 -22 -106 -32t-100 -10q-52 0 -86.5 17t-55 45t-29.5 59.5t-9 60.5v559h-8zM657 1198q-59 0 -112.5 22t-99.5 58.5t-86.5 83.5t-76.5 97l115 86q63 -90 134 -138t133 -48q20 0 49.5 3t69 19.5t89.5 50.5t115 98l69 -68q-98 -149 -202.5 -206.5t-196.5 -57.5z" />
<glyph unicode="&#x43a;" horiz-adv-x="1211" d="M65 157h142v759h-161v155h395v-914h134v-157h-510v157zM1016 155l150 -19v-119q-35 -17 -88 -25.5t-89 -10.5q-55 0 -91.5 14t-67.5 57l-353 481v48l336 429q33 48 68 64.5t85 16.5q44 0 90 -12t77 -29l-11 -123l-131 -9l-290 -349z" />
<glyph unicode="&#x43b;" horiz-adv-x="1263" d="M703 0v157h129v759h-326v-77q0 -167 -13 -314.5t-54.5 -264t-122 -195t-213.5 -107.5l-66 169q88 44 138.5 98.5t75.5 134t31.5 187.5t6.5 258v111h-164v155h940v-914h133v-157h-495z" />
<glyph unicode="&#x43c;" horiz-adv-x="1662" d="M1201 684q-27 -51 -51.5 -102t-51.5 -97q-48 -88 -96.5 -174.5t-96.5 -191.5h-146q-7 13 -26.5 48.5t-47.5 85.5t-60.5 106.5t-63.5 111.5q-44 77 -78 139.5t-44 86.5h-10v-697h-222v914h-155v155h410q11 -19 35 -63t57 -102t69 -123.5t71 -129.5l134 -252h7 q10 19 45.5 90.5t81.5 158.5l221 421h390v-155h-142v-747h156v-138q-48 -22 -104.5 -32t-100.5 -10q-63 0 -97 20t-50 51.5t-19.5 72t-6.5 84.5v469h-8z" />
<glyph unicode="&#x43d;" horiz-adv-x="1298" d="M1117 1071v-902h152v-140q-48 -22 -105.5 -33t-100.5 -11q-95 0 -136.5 38t-41.5 134v332h-475v-489h-232v916h-141v155h375v-435h473v435h232z" />
<glyph unicode="&#x43e;" horiz-adv-x="1178" d="M1091 535q0 -107 -26 -207t-86.5 -176.5t-158 -122.5t-241.5 -46q-136 0 -229 44t-151.5 119t-84.5 173.5t-26 211.5q0 109 28 210.5t90 179.5t158 125.5t232 47.5q138 0 233 -47.5t153.5 -124t83.5 -178.5t25 -209zM853 531q0 67 -10.5 136t-37.5 125.5t-76.5 91 t-128.5 34.5q-81 0 -133.5 -33.5t-83 -89t-43 -124.5t-12.5 -140q0 -75 10.5 -143t39 -119.5t79.5 -82.5t137 -31q79 0 129.5 33t78.5 85.5t39.5 119.5t11.5 138z" />
<glyph unicode="&#x43f;" horiz-adv-x="1340" d="M431 903v-903h-230v903h-155v164h1240v-164h-159v-736h157v-138q-46 -22 -107.5 -33t-105.5 -11q-59 0 -93.5 15t-53.5 40t-24 58.5t-5 70.5v734h-464z" />
<glyph unicode="&#x440;" horiz-adv-x="1244" d="M35 -293h160v1196h-160v166h379v-99l4 -2q66 55 158.5 87t170.5 32q121 0 201 -42.5t129.5 -115t70 -170.5t20.5 -205q0 -125 -24 -230t-77 -182t-138.5 -120t-207.5 -43q-57 0 -137 15t-157 54v-341h171v-167h-563v167zM677 163q48 0 94 16t81 58.5t56 119.5t21 195 q0 105 -18.5 172t-50.5 106.5t-77 54t-97 14.5q-35 0 -72 -9t-72.5 -23t-65 -32t-49.5 -35v-566q19 -13 48 -26t63 -23t70 -16t69 -6z" />
<glyph unicode="&#x441;" horiz-adv-x="1031" d="M596 1096q90 0 173.5 -14.5t152.5 -42.5v-301h-166v157q-19 4 -46.5 7t-48.5 3q-179 0 -259 -88.5t-80 -287.5q0 -189 73.5 -279t215.5 -90q81 0 155.5 15t151.5 46l50 -154q-75 -41 -176.5 -62.5t-208.5 -21.5q-144 0 -240 41t-152.5 115t-79.5 172.5t-23 211.5 q0 88 19.5 189t75.5 186.5t156 141.5t257 56z" />
<glyph unicode="&#x442;" horiz-adv-x="1090" d="M289 157h140v759h-222v-153h-163v308h1004v-308h-165v153h-222v-759h148v-157h-520v157z" />
<glyph unicode="&#x443;" horiz-adv-x="1228" d="M719 483l142 427h-133v161h458v-161h-107l-385 -1094q-19 -57 -44 -109t-62.5 -91t-93 -62t-137.5 -23q-31 0 -87.5 5.5t-150.5 34.5l30 155q50 -11 93 -16t80 -5q77 0 120 52.5t71 139.5l37 116h-111l-292 888h-114v170h287l178 -580l102 -342h11z" />
<glyph unicode="&#x444;" horiz-adv-x="1548" d="M502 -303h159v288q-157 6 -266.5 52t-177.5 120.5t-98.5 171t-30.5 204.5q0 119 38.5 219.5t110.5 173.5t179 117t245 48v316h-161v155h385v-471q140 -2 248.5 -41.5t181 -110.5t110 -169.5t37.5 -219.5q0 -117 -36.5 -218.5t-107.5 -178t-179.5 -121.5t-253.5 -47v-288 h178v-157h-561v157zM885 144q171 7 261 115.5t90 279.5q0 79 -17.5 149.5t-59.5 121.5t-108.5 81.5t-165.5 32.5v-780zM661 924q-92 -4 -158 -35.5t-108 -83t-61.5 -122t-19.5 -148.5q0 -173 80.5 -279.5t266.5 -111.5v780z" />
<glyph unicode="&#x445;" horiz-adv-x="1200" d="M556 416l-190 -251h123v-165h-462l2 165h98l318 420l-211 320h-179v164h322l234 -354l140 190h-107v164h476v-164h-127l-274 -353l258 -387h156v-165h-495v165h85z" />
<glyph unicode="&#x446;" horiz-adv-x="1340" d="M1087 0h-1012v160h128v752h-130v159h361v-911h469v752h-106v159h454v-159h-114v-752h132v-467h-182v307z" />
<glyph unicode="&#x447;" horiz-adv-x="1296" d="M418 1071v-293q0 -109 34.5 -163t139.5 -54q67 0 136 15.5t131 46.5v451h235v-914h146v-67.5t2 -71.5q-56 -24 -114.5 -32t-94.5 -8q-92 0 -133 52.5t-41 129.5v295q-77 -42 -169 -59.5t-171 -17.5q-103 0 -167.5 29t-101.5 76t-50.5 109t-13.5 133v186h-155v157h387z " />
<glyph unicode="&#x448;" horiz-adv-x="1815" d="M1282 1069h447v-157h-117v-752h130v-160h-1671v160h128v752h-132v157h364v-909h353v752h-98v157h431v-157h-101v-752h362v752h-96v157z" />
<glyph unicode="&#x449;" horiz-adv-x="1820" d="M1562 0h-1491v160h128v752h-132v157h364v-909h353v752h-98v157h431v-157h-101v-752h362v752h-96v157h447v-157h-117v-752h132v-467h-182v307z" />
<glyph unicode="&#x44a;" horiz-adv-x="1424" d="M699 655h283q184 0 282.5 -91t98.5 -236q0 -79 -27 -140t-75.5 -102.5t-114 -63.5t-144.5 -22h-535v916h-272v-182h-164v337h668v-416zM699 508v-355h248q86 0 137 45t51 130q0 95 -57 137.5t-149 42.5h-230z" />
<glyph unicode="&#x44b;" horiz-adv-x="1684" d="M1117 914v157h353v-902h159v-140q-49 -22 -109.5 -32t-103.5 -10q-101 0 -140.5 52.5t-39.5 157.5v717h-119zM434 653h283q186 0 283.5 -91t97.5 -234q0 -79 -27.5 -140t-75.5 -102.5t-114 -63.5t-143 -22h-531v916h-159v155h386v-418zM434 508v-357h248q87 0 137.5 46 t50.5 131q0 95 -58 137.5t-148 42.5h-230z" />
<glyph unicode="&#x44c;" horiz-adv-x="1160" d="M434 653h283q186 0 283.5 -91t97.5 -234q0 -79 -27.5 -140t-75.5 -102.5t-114 -63.5t-143 -22h-531v916h-159v155h386v-418zM434 508v-357h248q87 0 137.5 46t50.5 131q0 95 -58 137.5t-148 42.5h-230z" />
<glyph unicode="&#x44d;" horiz-adv-x="1064" d="M462 1096q153 0 250 -48.5t151.5 -123.5t75.5 -171t21 -190q0 -114 -26.5 -218t-89 -184t-162 -128t-243.5 -48q-105 0 -204 24t-174 64l50 142q77 -29 148.5 -45.5t152.5 -16.5q77 0 133.5 27t95 73t58.5 108t20 134l-405 -10v144l407 -8q-11 142 -74.5 226t-194.5 84 q-86 0 -172 -21v-156h-159l-2 281q70 31 161.5 46t181.5 15z" />
<glyph unicode="&#x44e;" horiz-adv-x="1684" d="M203 0v914h-153v157h384v-438h197q11 95 44 178.5t92 146.5t145.5 100.5t204.5 37.5q132 0 224 -47t149 -125t82.5 -180t25.5 -209t-26.5 -207t-85 -176.5t-153.5 -122.5t-233 -46q-125 0 -214 40t-144.5 109t-83 161t-31.5 198h-193v-491h-231zM1361 533q0 67 -10 136 t-36.5 125.5t-73.5 92t-124 35.5t-125.5 -33.5t-77.5 -89.5t-41 -126.5t-12 -141.5q0 -75 8.5 -144t36 -121.5t78.5 -83.5t133 -31q75 0 122 33t74.5 87.5t37.5 122.5t10 139z" />
<glyph unicode="&#x44f;" horiz-adv-x="1202" d="M1094 1071v-157h-110v-745h149v-140q-46 -22 -104.5 -33t-101.5 -11q-95 0 -135.5 38t-42.5 134v282h-197l-188 -353q-27 -49 -64 -78t-103 -29q-33 0 -77.5 6t-88.5 21v132l142 17q40 71 90.5 155.5t87.5 153.5q-61 13 -102.5 42t-68.5 67t-37.5 83t-10.5 89 q0 83 29 144.5t78.5 102.5t115.5 60t140 19h599zM749 583v335h-203q-84 0 -135 -45t-51 -133q0 -48 18.5 -78.5t48 -48t66 -24t68.5 -6.5h188z" />
<glyph unicode="&#x451;" horiz-adv-x="1106" d="M579 924q-63 0 -109.5 -25t-76 -65.5t-46 -92t-19.5 -103.5h479q-2 59 -13.5 110.5t-37.5 90.5t-69 62t-108 23zM581 1096q155 0 244 -58.5t134 -140.5t55.5 -169.5t10.5 -146.5v-106h-701q0 -73 13.5 -131.5t46 -100.5t89 -65t138.5 -23q92 0 169 17.5t165 55.5l59 -147 q-101 -52 -207.5 -76t-213.5 -24q-151 0 -246.5 46t-151.5 122.5t-76.5 176t-20.5 207.5q0 79 19.5 176.5t74 183.5t151.5 144.5t248 58.5zM866 1341q0 -46 -34.5 -77.5t-84.5 -31.5q-46 0 -76.5 31.5t-30.5 77.5t31.5 78t75.5 32q50 0 84.5 -31t34.5 -79zM443 1341 q0 -46 -32 -77.5t-83 -31.5q-48 0 -79.5 31.5t-31.5 77.5t32.5 78t76.5 32q51 0 84 -31t33 -79z" />
<glyph unicode="&#x452;" horiz-adv-x="1244" d="M75 1256h113v151h-173v155h410v-306h443v-106h-443v-234q177 86 326 86q207 0 305.5 -131t98.5 -415q0 -109 -22 -206t-76.5 -168t-145.5 -113t-232 -42h-25t-23 2l2 161q75 2 129.5 19.5t90.5 58.5t53.5 112t17.5 180q0 111 -17.5 182t-49 112t-74.5 56.5t-93 15.5 q-59 0 -131 -21t-134 -51v-754h-237v1150h-113v106z" />
<glyph unicode="&#x453;" horiz-adv-x="1016" d="M75 0v157h115v759h-109v155h896v-337h-162v182h-394v-759h162v-157h-508zM416 1236l-88 81l293 362l140 -138z" />
<glyph unicode="&#x454;" horiz-adv-x="1031" d="M326 483q5 -73 21.5 -133.5t50 -104.5t85.5 -69t128 -25q81 0 156.5 17.5t152.5 46.5l48 -142q-75 -40 -176.5 -64t-208.5 -24q-144 0 -240 41t-152.5 114t-79.5 171.5t-23 211.5q0 88 19.5 189t75.5 186.5t156 141.5t257 56q90 0 176.5 -16.5t156.5 -44.5q0 -71 -1 -141 t-1 -140h-162v149q-37 11 -71.5 15t-68.5 4q-132 0 -210 -76.5t-89 -238.5l406 14v-146z" />
<glyph unicode="&#x455;" horiz-adv-x="1016" d="M234 326l7 -136q44 -24 105.5 -33.5t111.5 -9.5q98 0 167 32t69 110q0 39 -16.5 65.5t-44.5 45t-66 32t-80 26.5q-75 21 -147 43t-129.5 57.5t-92.5 87t-35 132.5q0 83 32 142t88 97.5t133.5 57.5t169.5 19q94 0 187 -19t166 -63q0 -63 1 -127.5t3 -130.5h-173l-4 143 q-75 31 -165 30q-83 0 -141 -32t-58 -109q0 -33 21 -55.5t52.5 -39t67 -27.5t66.5 -20q65 -19 137 -40t132.5 -58.5t98.5 -98t38 -158.5q0 -79 -32.5 -137t-93 -95.5t-145.5 -55.5t-189 -18q-94 0 -206 16t-198 66l-6 261h169z" />
<glyph unicode="&#x456;" horiz-adv-x="690" d="M117 903v166h343v-900h158v-140q-46 -22 -106 -33t-104 -11q-94 0 -136 38t-44 134v746h-111zM483 1370q0 -59 -43 -102t-105 -43q-59 0 -100.5 43t-41.5 102q0 61 41.5 102.5t100.5 41.5q61 0 104.5 -41.5t43.5 -102.5z" />
<glyph unicode="&#x457;" horiz-adv-x="690" d="M107 914v157h353v-902h158v-140q-46 -22 -106 -33t-104 -11q-94 0 -135 38t-43 134v757h-123zM596 1326q0 -46 -33.5 -77.5t-85.5 -31.5q-46 0 -76.5 31.5t-30.5 77.5t32 77.5t75 31.5q51 0 85 -30.5t34 -78.5zM173 1326q0 -46 -32 -77.5t-82 -31.5q-48 0 -79.5 31.5 t-31.5 77.5t32.5 77.5t76.5 31.5q50 0 83 -30.5t33 -78.5z" />
<glyph unicode="&#x458;" horiz-adv-x="656" d="M81 1069h377v-979q0 -121 -22 -213t-72 -162t-133.5 -123.5t-205.5 -95.5l-71 149q88 52 141.5 98t82.5 96t38.5 106.5t9.5 129.5v828h-145v166zM480 1370q0 -59 -43.5 -102t-101.5 -43q-61 0 -103 43t-42 102q0 61 42 102.5t103 41.5q57 0 101 -41.5t44 -102.5z" />
<glyph unicode="&#x459;" horiz-adv-x="1744" d="M1019 655h285q182 0 280.5 -91t98.5 -236q0 -79 -27 -140t-75.5 -102.5t-114 -63.5t-145.5 -22h-532v916h-281v-96q0 -167 -12.5 -313.5t-55.5 -262t-123.5 -194.5t-211.5 -111l-65 168q81 40 131 95t76.5 134.5t35 189.5t8.5 258v132h-164v155h892v-416zM1019 508v-355 h248q85 0 136.5 45t51.5 130q0 95 -57 137.5t-147 42.5h-232z" />
<glyph unicode="&#x45a;" horiz-adv-x="1787" d="M1063 648h282q184 0 283 -87.5t99 -232.5q0 -79 -27.5 -140t-75.5 -102.5t-114 -63.5t-145 -22h-533v498h-409v-498h-230v916h-143v155h373v-433h409v278h-148v155h379v-423zM1063 502v-349h252q83 0 133.5 44t50.5 129q0 95 -57 135.5t-145 40.5h-234z" />
<glyph unicode="&#x45b;" horiz-adv-x="1332" d="M83 1159v106h114v151h-153v146h387v-297h450v-106h-450v-267q90 57 189 88.5t180 31.5q107 0 172 -30.5t99.5 -79.5t46 -113t11.5 -130v-490h151v-140q-51 -22 -108 -33t-101 -11q-92 0 -133 38t-41 134v448q0 52 -6 92.5t-24 70t-53.5 45t-92.5 15.5q-65 0 -146.5 -29.5 t-143.5 -66.5v-732h-234v1159h-114z" />
<glyph unicode="&#x45c;" horiz-adv-x="1211" d="M561 1171l-88 80l292 361l140 -138zM65 157h142v759h-161v155h395v-914h134v-157h-510v157zM1016 155l150 -19v-119q-35 -17 -88 -25.5t-89 -10.5q-55 0 -91.5 14t-67.5 57l-353 481v48l336 429q33 48 68 64.5t85 16.5q44 0 90 -12t77 -29l-11 -123l-131 -9l-290 -349z " />
<glyph unicode="&#x45e;" horiz-adv-x="1228" d="M607 153q4 15 22.5 71t43 131.5t53 162.5t54 165t44.5 138t29 82h-130v168h456v-168h-108l-389 -1135q-22 -57 -47.5 -101t-60.5 -74t-84 -46t-122 -16q-25 0 -92 5.5t-157 34.5l34 184q48 -11 92 -17t81 -6q53 0 83 13.5t49 45t39 85t53 137.5h-116 q-72 221 -143.5 441.5t-143.5 444.5h-110v172h283q8 -27 30 -99.5t51.5 -170.5t63 -205t60.5 -200t47 -160t24 -83h11zM590 1207q-59 0 -113 22t-100 58.5t-87 83.5t-75 97l113 86q64 -90 135.5 -138.5t132.5 -48.5q19 0 49 3.5t69.5 20t90 50t113.5 98.5l71 -69 q-99 -149 -203 -206t-196 -57z" />
<glyph unicode="&#x45f;" horiz-adv-x="1340" d="M763 0v-328h-186v328h-502v157h128v757h-130v157h361v-914h469v757h-106v157h452v-157h-112v-754q27 0 65 -1.5t67 -1.5v-157h-506z" />
<glyph unicode="&#x490;" horiz-adv-x="1265" d="M92 0v165h149v1174h-145v162h956v285h177v-447h-746v-1174h207v-165h-598z" />
<glyph unicode="&#x491;" horiz-adv-x="1012" d="M75 0v157h115v757h-111v157h728v240h163v-397h-549v-757h160v-157h-506z" />
<glyph unicode="&#x4d9;" horiz-adv-x="1106" d="M541 153q68 0 115 27t77 69t44 99.5t18 118.5h-481q0 -71 10.5 -129t36.5 -98.5t70.5 -63.5t109.5 -23zM541 -15q-102 0 -176 27.5t-123 71t-78.5 100.5t-44 114t-19 110.5t-4.5 93.5v79h704q0 73 -14.5 135t-47.5 108t-88.5 73t-139.5 27q-89 0 -167 -18.5t-165 -52.5 l-53 140q99 57 202.5 80t211.5 23q151 0 246.5 -44t151.5 -119.5t77 -174.5t21 -210q0 -79 -19 -176.5t-74 -184t-151.5 -144.5t-249.5 -58z" />
<glyph unicode="&#x2000;" horiz-adv-x="1026" />
<glyph unicode="&#x2001;" horiz-adv-x="2053" />
<glyph unicode="&#x2002;" horiz-adv-x="1026" />
<glyph unicode="&#x2003;" horiz-adv-x="2053" />
<glyph unicode="&#x2004;" horiz-adv-x="684" />
<glyph unicode="&#x2005;" horiz-adv-x="513" />
<glyph unicode="&#x2006;" horiz-adv-x="342" />
<glyph unicode="&#x2007;" horiz-adv-x="342" />
<glyph unicode="&#x2008;" horiz-adv-x="256" />
<glyph unicode="&#x2009;" horiz-adv-x="410" />
<glyph unicode="&#x200a;" horiz-adv-x="114" />
<glyph unicode="&#x2010;" horiz-adv-x="826" d="M123 493v180h580v-180h-580z" />
<glyph unicode="&#x2011;" horiz-adv-x="826" d="M123 493v180h580v-180h-580z" />
<glyph unicode="&#x2012;" horiz-adv-x="826" d="M123 493v180h580v-180h-580z" />
<glyph unicode="&#x2013;" horiz-adv-x="1095" d="M77 485v155h946v-155h-946z" />
<glyph unicode="&#x2014;" horiz-adv-x="2191" d="M90 485v155h2005v-155h-2005z" />
<glyph unicode="&#x2018;" horiz-adv-x="508" d="M399 1173q0 -53 -39.5 -93.5t-98.5 -40.5q-73 0 -111.5 48t-38.5 118q0 52 20 106t55 104.5t79 91t95 66.5l56 -76q-48 -42 -75 -89t-32 -111q90 -24 90 -124z" />
<glyph unicode="&#x2019;" horiz-adv-x="508" d="M132 1440q0 55 39.5 94t100.5 39q70 0 108 -48t38 -116q0 -52 -19.5 -106t-53.5 -104.5t-79 -91t-95 -66.5l-54 76q46 42 73 89t34 109q-46 11 -69 45t-23 80z" />
<glyph unicode="&#x201a;" horiz-adv-x="508" d="M107 123q0 52 39.5 93t102.5 41q71 0 110.5 -48.5t39.5 -116.5q0 -101 -63.5 -207t-175.5 -178l-62 72q53 52 81 106t34 113q-59 4 -82.5 41.5t-23.5 83.5z" />
<glyph unicode="&#x201c;" horiz-adv-x="826" d="M395 1173q0 -53 -39.5 -93.5t-100.5 -40.5q-71 0 -109.5 48t-38.5 118q0 52 20 106t54 103.5t79 91t95 67.5l57 -76q-48 -42 -76.5 -89t-32.5 -111q92 -24 92 -124zM728 1173q0 -53 -41 -93.5t-100 -40.5q-72 0 -109 48t-37 118q0 52 19.5 106t53.5 104.5t78 91t94 66.5 q15 -19 28.5 -38t30.5 -38q-48 -42 -76.5 -89t-32.5 -111q92 -24 92 -124z" />
<glyph unicode="&#x201d;" horiz-adv-x="826" d="M460 1440q0 55 40.5 94t101.5 39q71 0 109 -48t38 -116q0 -52 -19.5 -106t-52.5 -104.5t-78 -91t-97 -66.5l-57 76q46 42 74.5 89t32.5 109q-44 11 -68 45t-24 80zM129 1440q0 55 39 94t102 39q70 0 108 -48t38 -116q0 -52 -19.5 -106t-53.5 -104.5t-79 -91t-95 -66.5 l-60 76q50 42 78 89t34 109q-46 11 -69 45t-23 80z" />
<glyph unicode="&#x201e;" horiz-adv-x="860" d="M107 123q0 52 39.5 93t102.5 41q71 0 110.5 -48.5t39.5 -116.5q0 -101 -63.5 -207t-175.5 -178l-62 72q53 52 81 106t34 113q-59 4 -82.5 41.5t-23.5 83.5zM469 123q0 52 38.5 93t101.5 41q73 0 112.5 -48.5t39.5 -116.5q0 -101 -64 -207t-178 -178l-59 72 q103 104 112 219q-56 4 -79.5 41.5t-23.5 83.5z" />
<glyph unicode="&#x2022;" horiz-adv-x="768" d="M638 598q0 -52 -21 -99t-54.5 -81.5t-79.5 -55.5t-100 -21q-52 0 -98 21t-80 55.5t-55 81.5t-21 99q0 53 21 100t55 81t80 55t98 21t99 -21t80.5 -55t54.5 -81t21 -100z" />
<glyph unicode="&#x2026;" horiz-adv-x="1509" d="M1403 119q0 -57 -39.5 -98.5t-94.5 -41.5q-57 0 -98.5 41t-41.5 99q0 56 40 96t98 40q57 0 96.5 -40t39.5 -96zM881 119q0 -57 -39.5 -98.5t-96.5 -41.5t-97.5 41t-40.5 99q0 56 39.5 96t96.5 40q56 0 97 -40t41 -96zM381 119q0 -57 -40 -98.5t-96 -41.5q-57 0 -98.5 41 t-41.5 99q0 56 40.5 96t99.5 40q57 0 96.5 -40t39.5 -96z" />
<glyph unicode="&#x202f;" horiz-adv-x="410" />
<glyph unicode="&#x2039;" horiz-adv-x="717" d="M129 462l338 368l96 -69l-224 -340l224 -338l-96 -70l-338 366v83z" />
<glyph unicode="&#x203a;" horiz-adv-x="717" d="M563 379l-337 -366l-94 70l221 338l-224 340l97 69l337 -368v-83z" />
<glyph unicode="&#x205f;" horiz-adv-x="513" />
<glyph unicode="&#x20ac;" d="M805 1477q111 0 201 -16.5t157 -40.5v-309h-166v160q-39 11 -87.5 18.5t-100.5 7.5q-184 0 -281 -111.5t-120 -302.5h583v-101h-924v101h108q11 107 50.5 213.5t114 191t188.5 137t277 52.5zM67 682h924v-99h-585q8 -90 34.5 -167t75.5 -132.5t124 -86t182 -30.5 q37 0 90.5 5.5t110.5 17.5v167h167v-315q-38 -13 -87 -24.5t-102.5 -19t-108.5 -11.5t-103 -4q-156 0 -268.5 44t-187 123.5t-113 190.5t-47.5 242h-106v99z" />
<glyph unicode="&#x2122;" horiz-adv-x="1752" d="M1464 1278l-119 -245l-65 -138h-117l-67 142l-117 232h-2v-401h79v-101h-297v101h80v530h-80v103h251l92 -197l119 -256h2q31 63 60.5 127.5t59.5 128.5q24 51 47 99t45 98h252v-103h-77v-530h77v-101h-291v101h72v410h-4zM600 1398h-142v-530h94v-99h-335v99h92v530 h-136v-118h-106v221h638v-221h-105v118z" />
<glyph unicode="&#xe000;" horiz-adv-x="1073" d="M0 1074h1074v-1074h-1074v1074z" />
</font>
</defs>
</svg>
