<?xml version="1.0" standalone="no"?>
<!DOCTYPE svg PUBLIC "-//W3C//DTD SVG 1.1//EN" "http://www.w3.org/Graphics/SVG/1.1/DTD/svg11.dtd" >
<svg xmlns="http://www.w3.org/2000/svg">
<metadata></metadata>
<defs>
<font id="pf_agora_slab_proitalic" horiz-adv-x="1110" >
<font-face units-per-em="2048" ascent="1536" descent="-512" />
<missing-glyph horiz-adv-x="538" />
<glyph horiz-adv-x="2048" />
<glyph horiz-adv-x="2048" />
<glyph unicode="&#xd;" horiz-adv-x="2048" />
<glyph unicode=" "  horiz-adv-x="538" />
<glyph unicode="&#x09;" horiz-adv-x="538" />
<glyph unicode="&#xa0;" horiz-adv-x="538" />
<glyph unicode="!" horiz-adv-x="446" d="M76 72q0 49 33.5 83.5t83.5 34.5q43 0 68.5 -26.5t25.5 -67.5v-12q-4 -45 -40 -74.5t-79 -29.5q-41 0 -66.5 26.5t-25.5 65.5zM162 346l37 449q12 158 31.5 315.5t35.5 314.5h160l-156 -1079h-108z" />
<glyph unicode="&#x22;" horiz-adv-x="540" d="M217 987l23 416h147l-82 -416h-88zM418 987l22 416h146l-76 -416h-92z" />
<glyph unicode="#" horiz-adv-x="1058" d="M88 399l29 97h151l117 344h-160l29 94h162l121 352h102l-119 -352h291l121 352h102l-121 -352h140l-29 -94h-141l-117 -344h149l-30 -97h-152l-131 -399h-102l129 399h-291l-131 -399h-103l132 399h-148zM373 496h291l114 344h-291z" />
<glyph unicode="$" d="M98 106q10 66 17.5 130.5t15.5 130.5h111l-21 -174q47 -25 92 -35.5t90 -16.5l66 531q-55 20 -101 46.5t-80 62.5t-52.5 83t-18.5 113q0 86 27.5 151.5t74 112.5t107.5 76t129 43l16 137h74l-203 -1651h-75q6 41 11 82t11 80q-74 10 -150.5 32.5t-140.5 65.5zM356 993 q0 -78 36 -113.5t95 -62.5l52 412q-72 -18 -127.5 -73.5t-55.5 -162.5zM508 -154q53 414 103.5 824.5t101.5 826.5h73l-16 -131q53 -4 119.5 -22.5t118.5 -53.5l-33 -260h-111l23 174q-29 16 -62.5 24.5t-68.5 12.5l-62 -493q57 -25 109.5 -51.5t93.5 -63.5t65.5 -88 t24.5 -125q0 -92 -28.5 -162t-80 -121t-122 -80.5t-152.5 -42.5q-6 -41 -11 -84t-11 -84h-74zM621 147q98 16 161.5 80t63.5 181q0 78 -46 122.5t-124 75.5z" />
<glyph unicode="%" horiz-adv-x="1638" d="M115 844q0 39 5 93t20.5 112.5t41 116t67.5 103.5t102.5 74.5t142.5 28.5q84 0 138 -27.5t85 -71.5t43 -101.5t12 -116.5q0 -80 -16.5 -171t-57.5 -168t-113.5 -128t-183.5 -51q-84 0 -139 24.5t-88 67.5t-46 98t-13 117zM248 834q0 -86 34.5 -138.5t131.5 -52.5 q68 0 110.5 39t68 98.5t36 129t10.5 130.5q0 41 -6 81t-21.5 72t-45 51.5t-74.5 19.5q-57 0 -97.5 -26t-68 -67t-43 -91t-23.5 -98t-10 -88t-2 -60zM483 -45l779 1481h108l-774 -1481h-113zM1030 297q0 39 5 93t20.5 113.5t41 117t67.5 103.5t102.5 74.5t142.5 28.5 q84 0 138.5 -27.5t85 -71.5t43 -101.5t12.5 -114.5q0 -82 -16.5 -174t-57.5 -169t-114 -127t-183 -50q-84 0 -139.5 24.5t-88 66.5t-46 97.5t-13.5 116.5zM1163 287q0 -82 35 -134.5t131 -52.5q68 0 111 39t68.5 97.5t35.5 128t10 131.5q0 39 -6 78.5t-21.5 72.5t-45 52.5 t-74.5 19.5q-86 0 -135 -55.5t-72.5 -128t-30 -144.5t-6.5 -104z" />
<glyph unicode="&#x26;" horiz-adv-x="1736" d="M74 662q18 131 74.5 263t153.5 237.5t237.5 171t326.5 65.5q164 0 279 -49.5t187.5 -130t106.5 -187t34 -221.5q0 -113 -29 -221q14 -2 27.5 -3t23.5 -1q94 0 144.5 30.5t91.5 90.5l71 -58q-49 -86 -122.5 -129t-196.5 -43q-35 0 -74 6q-41 -102 -108.5 -193t-155.5 -161 t-194.5 -111t-227.5 -41q-117 0 -197 34t-130 89.5t-72.5 128t-22.5 152.5q0 150 40 261.5t101.5 187t136 113.5t146.5 38q51 0 90 -17.5t64.5 -44t39 -59.5t13.5 -65q0 -39 -16.5 -83t-69.5 -89v-5q53 12 101 17.5t100 5.5q59 0 126.5 -9t139.5 -26q14 47 19 96.5t5 96.5 q0 100 -26.5 188t-85 153.5t-150.5 103.5t-223 38q-145 0 -258 -53t-195 -140.5t-134 -202t-75 -237.5q-29 2 -58.5 5t-57.5 8zM440 399q0 -156 79 -232.5t224 -76.5q78 0 157 31t150.5 85t130 130t95.5 168q-70 16 -137.5 24.5t-126.5 8.5q-72 0 -142.5 -13.5t-150.5 -42.5 q-23 6 -33 38t-20 54q61 45 97 91.5t36 89.5q0 47 -27 70.5t-65 23.5q-41 0 -88.5 -24.5t-87 -79t-65.5 -139.5t-26 -206z" />
<glyph unicode="'" horiz-adv-x="382" d="M217 987l23 416h147l-80 -416h-90z" />
<glyph unicode="(" horiz-adv-x="565" d="M127 371q0 217 47 395t112.5 315.5t136.5 231.5t118 147l61 -47q-31 -41 -87 -134t-110.5 -232.5t-94.5 -323t-40 -404.5q0 -125 14.5 -225t34 -176t41 -130t35.5 -87l-78 -51q-25 37 -57.5 101.5t-62 155.5t-50 206.5t-20.5 257.5z" />
<glyph unicode=")" horiz-adv-x="569" d="M-25 -297q29 41 86.5 131t113.5 229.5t98 325t42 416.5q0 121 -14 220t-34.5 176t-43 130t-37.5 84l74 45q27 -41 61.5 -105.5t65.5 -153.5t51.5 -200.5t20.5 -242.5q0 -225 -50.5 -409.5t-119 -325t-139 -234.5t-111.5 -139z" />
<glyph unicode="*" horiz-adv-x="774" d="M184 1135q10 49 26.5 88t45.5 75l186 -116l-16 231q41 10 84 10t84 -10q-18 -57 -36.5 -115.5t-39.5 -115.5l223 102q23 -37 28 -73.5t1 -94.5l-240 -14l146 -162q-59 -68 -141 -100l-72 217l-123 -215q-39 16 -67.5 37.5t-53.5 60.5q47 41 93 82t94 82z" />
<glyph unicode="+" d="M193 553l14 119h325l41 332h121l-41 -332h322l-14 -119h-322l-43 -344h-119l41 344h-325z" />
<glyph unicode="," horiz-adv-x="417" d="M6 -172q41 37 69.5 74t41.5 90q-61 16 -62 86q0 47 33 85t86 38q47 0 73.5 -32t26.5 -83q0 -43 -19 -89t-52 -88t-76 -78t-88 -56z" />
<glyph unicode="-" horiz-adv-x="727" d="M111 471l18 139h514l-18 -139h-514z" />
<glyph unicode="." horiz-adv-x="413" d="M53 76q0 51 35 87t82 36q43 0 68.5 -29t25.5 -70q0 -51 -37 -85.5t-82 -34.5q-41 0 -66.5 27.5t-25.5 68.5z" />
<glyph unicode="/" horiz-adv-x="661" d="M-31 -57l693 1493h106l-692 -1493h-107z" />
<glyph unicode="0" d="M90 485q0 63 7 155.5t28.5 192t59.5 197.5t100.5 176t152.5 126t215 48q133 0 215 -50t128 -131t62.5 -181t16.5 -201q0 -133 -25.5 -279.5t-89 -269.5t-170 -202.5t-266.5 -79.5q-125 0 -208 41t-132 109.5t-70.5 159.5t-23.5 189zM250 473q2 -78 17.5 -143.5t48 -112.5 t87 -73.5t136.5 -26.5q74 0 131 31.5t98 86t69.5 125t45 149.5t23.5 159t7 153q0 74 -10 150t-38.5 137t-80 100t-135.5 39q-96 0 -162.5 -47t-111.5 -120.5t-69.5 -164t-37 -176.5t-15.5 -157.5t-3 -108.5z" />
<glyph unicode="1" d="M150 0l14 121h287l133 1071l-322 -49l-8 98l360 119h148l-152 -1239h273l-15 -121h-718z" />
<glyph unicode="2" d="M31 0l12 113q63 57 145 126.5t168 146.5t169 160t147.5 166t103.5 163.5t39 156.5q0 106 -67.5 157.5t-178.5 51.5q-49 0 -137 -18.5t-215 -89.5l-53 102q131 90 245.5 118.5t188.5 28.5q84 0 154.5 -19.5t121 -59t79 -100t28.5 -140.5q0 -88 -35 -176t-93 -173 t-133 -165t-155 -153.5t-156.5 -139.5t-140.5 -121l2 -12h518l23 188h131l-37 -311h-874z" />
<glyph unicode="3" d="M18 61q14 29 25.5 55.5t24.5 55.5q123 -43 199.5 -53t138.5 -10q76 0 146.5 21.5t124.5 62t86 98t32 131.5q0 123 -87 191.5t-223 68.5q-25 0 -51 -2t-55 -6q-6 29 -11.5 55.5t-9.5 54.5q111 18 193 51t137 73t82 85t27 88q0 35 -12.5 68t-40 57.5t-71.5 39t-108 14.5 q-70 0 -150.5 -19.5t-191.5 -69.5q-12 27 -22.5 52.5t-22.5 52.5q104 59 213 88t203 29q98 0 166.5 -22.5t111.5 -59.5t63.5 -86t20.5 -105q0 -47 -15 -96t-50 -96t-89 -87t-132 -67v-10q123 -20 204.5 -107.5t81.5 -220.5q0 -90 -37.5 -173t-107.5 -146.5t-169 -100 t-222 -36.5q-121 0 -225.5 20t-176.5 61z" />
<glyph unicode="4" d="M59 385l15 117l727 858h168q-27 -215 -53.5 -426t-51.5 -426h193l-15 -123h-194l-33 -266h141l-12 -119h-430l12 119h133l35 266h-635zM227 508h484l82 661h-11l-104 -127q-115 -135 -225.5 -267t-225.5 -267z" />
<glyph unicode="5" d="M53 63l51 121q117 -43 190 -53t132 -10q84 0 156.5 20.5t126 64.5t84 110.5t30.5 158.5q0 63 -22.5 110.5t-61.5 78t-91 46t-111 15.5q-57 0 -117 -14.5t-119 -40.5l-88 65l90 625h719l-35 -289h-127l19 162h-451l-59 -420q27 8 84 24.5t145 16.5q76 0 145.5 -20.5 t123 -65.5t85 -114.5t31.5 -168.5q0 -129 -47 -224t-122 -157.5t-170 -92t-193 -29.5q-111 0 -211.5 18t-186.5 63z" />
<glyph unicode="6" d="M117 457q0 193 40 360.5t118.5 292.5t193.5 197.5t264 72.5q106 0 179 -22.5t106 -40.5l-43 -117q-68 29 -133.5 39t-112.5 10q-111 0 -186.5 -55t-125.5 -134t-77 -163t-37 -141l10 -6q72 41 160 70.5t186 29.5q72 0 136.5 -20.5t112.5 -63.5t76 -110.5t28 -163.5 q0 -117 -39 -211.5t-106.5 -160t-160 -100t-198.5 -34.5q-115 0 -189.5 34.5t-119.5 98t-63.5 149.5t-18.5 189zM272 444q0 -59 10.5 -117.5t39 -105.5t78 -76.5t126.5 -29.5q80 0 140.5 27.5t102.5 76.5t62.5 115.5t20.5 144.5q0 109 -51.5 175.5t-186.5 66.5 q-74 0 -133 -15.5t-101 -35t-66.5 -36t-26.5 -18.5q-4 -39 -9.5 -81.5t-5.5 -90.5z" />
<glyph unicode="7" d="M203 0l694 1233h-510l-27 -207h-131l41 334h801l-12 -121l-694 -1239h-162z" />
<glyph unicode="8" d="M84 317q0 55 17.5 117t54.5 121t93 112.5t132 90.5q-74 47 -112 106.5t-38 136.5q0 80 34 151t94.5 122t144.5 80.5t182 29.5q74 0 139.5 -19t114.5 -58t78 -99.5t29 -140.5q0 -86 -58.5 -176t-183.5 -176q84 -47 138 -127t54 -197q0 -74 -30.5 -146.5t-93 -131 t-154.5 -94t-215 -35.5q-104 0 -182 25.5t-131.5 70.5t-80 106.5t-26.5 130.5zM248 326q0 -90 65.5 -153.5t198.5 -63.5q82 0 143.5 22.5t103.5 60t62.5 87t20.5 102.5q0 55 -20.5 98t-63.5 80t-109.5 70t-159.5 69q-70 -41 -116.5 -90t-74.5 -98t-39 -97t-11 -87zM395 1018 q0 -45 21.5 -78t59.5 -60.5t88 -52t108 -53.5q123 80 171 150.5t48 132.5q0 33 -10.5 67.5t-37 63.5t-69 46t-108.5 17q-82 0 -134.5 -27.5t-83 -65.5t-42 -77t-11.5 -63z" />
<glyph unicode="9" d="M121 49l41 117q70 -29 143.5 -39t120.5 -10q111 0 187.5 55t127 134t76 163t33.5 141l-6 6q-29 -16 -69 -34.5t-87 -34t-97 -24.5t-95 -9q-72 0 -136.5 19.5t-111.5 62.5t-75 110.5t-28 163.5q0 117 38 211.5t105.5 161t159 102t199.5 35.5q113 0 188.5 -35.5t120.5 -98 t63.5 -149.5t18.5 -190q0 -193 -40 -360.5t-118.5 -291.5t-194.5 -195.5t-265 -71.5q-104 0 -186 21.5t-113 39.5zM301 879q0 -106 53.5 -171t186.5 -65q74 0 133 15.5t101 35t65.5 35.5t27.5 19q4 39 8.5 78.5t4.5 82.5q0 59 -9.5 118.5t-37 108t-76.5 78t-131 29.5 q-80 0 -140.5 -27.5t-101.5 -75.5t-62.5 -115t-21.5 -146z" />
<glyph unicode=":" horiz-adv-x="407" d="M61 82q0 51 36 86t83 35q41 0 66.5 -26.5t25.5 -67.5q0 -51 -33.5 -88t-82.5 -37q-43 0 -69 28.5t-26 69.5zM139 727q0 51 38 85t83 34q41 0 66.5 -26.5t25.5 -67.5q0 -51 -35.5 -88t-83.5 -37q-41 0 -67.5 29.5t-26.5 70.5z" />
<glyph unicode=";" horiz-adv-x="407" d="M6 -172q43 37 71.5 74t41.5 90q-61 16 -62 86q0 47 33 85t86 38q47 0 73.5 -32t26.5 -83q0 -43 -19 -89t-52 -88t-76 -78t-88 -56zM139 727q0 51 38 85t83 34q41 0 66.5 -26.5t25.5 -67.5q0 -51 -35.5 -88t-83.5 -37q-41 0 -67.5 29.5t-26.5 70.5z" />
<glyph unicode="&#x3c;" d="M180 557l13 105l841 409l-18 -145l-678 -320q8 -4 53 -28.5t109.5 -59.5t137.5 -75t137.5 -74.5t109.5 -59t53 -28.5l-16 -136z" />
<glyph unicode="=" d="M152 410l14 116h801l-15 -116h-800zM188 707l15 118h801l-15 -118h-801z" />
<glyph unicode="&#x3e;" d="M131 145l16 144l682 323q-8 4 -53 29t-109.5 58.5t-139 73.5t-139 74t-110 57.5t-53.5 27.5l19 139l741 -409l-14 -105z" />
<glyph unicode="?" horiz-adv-x="876" d="M164 1083q8 74 16 147t19 146q98 35 196 50.5t174 15.5q166 0 251 -59.5t91 -168.5q0 -123 -60 -207.5t-153 -156.5q-82 -59 -138 -107.5t-92 -94.5t-52.5 -91t-16.5 -98q0 -23 1 -45.5t1 -51.5q-33 -4 -64.5 -11t-66.5 -11q-4 35 -6 65.5t-2 59.5q0 68 16.5 123 t52.5 106t93 103.5t139 111.5q78 57 129 112.5t51 133.5q0 80 -52 115t-148 35q-49 0 -111.5 -8.5t-122.5 -26.5l-22 -187h-123zM233 70q0 47 34 82.5t85 35.5q41 0 66.5 -26.5t25.5 -67.5q0 -51 -36.5 -82.5t-79.5 -31.5q-41 0 -68 25.5t-27 64.5z" />
<glyph unicode="@" horiz-adv-x="1832" d="M170 616q0 180 70.5 336t191.5 270.5t281.5 180t343.5 65.5q152 0 273.5 -42t206.5 -118.5t131 -187t46 -246.5q0 -135 -39 -238.5t-102.5 -172t-141 -103t-155.5 -34.5q-63 0 -103 20.5t-63 55t-31 84t-4 104.5h-6q-35 -80 -74 -130t-78.5 -80t-77.5 -40t-71 -10 q-92 0 -151.5 69.5t-59.5 210.5q0 111 25.5 209.5t77 172t127 116.5t176.5 43q45 0 91 -10.5t99 -28.5l41 45q20 -2 38.5 -4t37.5 -6q-12 -70 -26.5 -144.5t-28 -148.5t-22.5 -143.5t-9 -128.5q0 -70 25.5 -112t95.5 -42q39 0 91 22.5t98 75t78 134t32 202.5 q0 242 -145.5 374t-401.5 132q-164 0 -306.5 -58.5t-247 -159.5t-164.5 -236.5t-60 -290.5q0 -129 39.5 -236.5t113.5 -184.5t178.5 -120t235.5 -43q45 2 109.5 8t136.5 31q6 -23 13 -42.5t13 -39.5q-59 -29 -140 -41t-151 -12q-156 0 -277.5 50t-206.5 140t-129 214 t-44 269zM686 627q0 -98 34 -146.5t87 -48.5q31 0 65.5 18.5t71.5 61.5t74 114.5t72 178.5q10 53 19 105.5t19 105.5q-51 23 -95 29t-72 6q-80 0 -133.5 -43t-85 -107.5t-44 -138.5t-12.5 -135z" />
<glyph unicode="A" horiz-adv-x="1327" d="M-12 0q8 59 12 125h117q135 311 281.5 639t283.5 639h209l252 -1278h108l-14 -125h-418q4 31 7 62.5t8 62.5h137q-12 66 -24.5 131.5t-22.5 130.5h-529l-112 -262h141l-14 -125h-422zM453 518h448q-27 150 -53.5 298.5t-54.5 297.5q-4 35 -11.5 69t-11.5 68h-6 q-2 -4 -4 -11t-8.5 -22.5t-16.5 -41t-28 -64.5z" />
<glyph unicode="B" horiz-adv-x="1228" d="M29 0q4 33 7 63.5t7 63.5h137q35 289 71 573.5t71 575.5h-129q4 31 7 62.5t7 62.5h618q186 0 272.5 -87t86.5 -227q0 -100 -50.5 -196t-181.5 -158q57 -18 96 -51t62 -75t32 -88t9 -89q0 -109 -38 -188.5t-99.5 -134t-140 -81t-160.5 -26.5h-684zM348 127h318 q80 0 138 23.5t96 64.5t56.5 97.5t18.5 121.5q0 45 -14.5 87t-44 74t-75.5 50.5t-108 18.5h-319zM430 786h283q70 0 126 21.5t95 58.5t59.5 88.5t20.5 112.5q0 92 -56.5 150.5t-183.5 58.5h-282q-16 -123 -31 -245t-31 -245z" />
<glyph unicode="C" horiz-adv-x="1132" d="M125 545q0 82 10 178t39 194.5t78 189.5t126 161.5t184.5 113.5t254.5 43q111 0 196 -17t144 -40l-39 -328h-131l27 217q-41 10 -95.5 19.5t-111.5 9.5q-127 0 -221 -54t-157.5 -151.5t-95.5 -232.5t-32 -295q0 -96 21.5 -174t69.5 -133.5t125 -86t188 -30.5q27 0 64.5 2 t80.5 8t88 15.5t88 21.5l25 -127q-37 -14 -86.5 -26.5t-102.5 -20.5t-106.5 -13t-100.5 -5q-141 0 -241.5 38.5t-165 110.5t-94 176.5t-29.5 235.5z" />
<glyph unicode="D" horiz-adv-x="1318" d="M31 0l14 125h137l142 1151h-129l14 127h545q145 0 243.5 -44t156.5 -121t83 -180.5t25 -221.5q0 -166 -36 -317.5t-116 -266.5t-207 -183.5t-309 -68.5h-563zM354 127h217q33 0 84.5 6t107.5 28.5t114.5 67.5t104.5 122t74.5 191.5t28.5 276.5t-39.5 254t-96 137 t-120 55.5t-112.5 10.5h-221z" />
<glyph unicode="E" horiz-adv-x="1142" d="M31 0l14 125h133l141 1151h-126l14 125h960l-39 -318h-129l25 193h-537l-59 -481l518 10l-14 -137l-518 8l-68 -551h578l24 197h133l-39 -322h-1011z" />
<glyph unicode="F" horiz-adv-x="1095" d="M31 0l14 125h133l141 1151h-126l14 125h950l-39 -318h-127l23 193h-527l-59 -481l512 10l-16 -137l-510 8l-68 -551h191l-15 -125h-491z" />
<glyph unicode="G" horiz-adv-x="1257" d="M125 545q0 84 12.5 182t43 195.5t82.5 188.5t132 160.5t192 111.5t259 42q111 0 197.5 -17t144.5 -40l-39 -324h-129l27 213q-41 12 -97.5 20.5t-113.5 8.5q-133 0 -233.5 -55t-167 -152.5t-100.5 -229.5t-34 -288q0 -96 18.5 -175t61.5 -137.5t115.5 -90t181.5 -31.5 q51 0 113.5 7t111.5 24l55 444h-192l14 119h451l-12 -119h-105l-67 -553q-104 -35 -203 -50t-199 -15q-139 0 -238.5 39.5t-162 113.5t-91 177.5t-28.5 230.5z" />
<glyph unicode="H" horiz-adv-x="1396" d="M31 0l14 127h127l141 1149h-127l15 127h422l-15 -127h-125l-59 -475h637l59 475h-123l15 127h424l-15 -127h-129l-141 -1149h127l-12 -127h-424l14 127h123l68 545h-637l-68 -545h125l-14 -127h-422z" />
<glyph unicode="I" horiz-adv-x="700" d="M88 0l14 125h125l142 1151h-125l14 127h422l-14 -127h-129l-142 -1151h129l-14 -125h-422z" />
<glyph unicode="J" horiz-adv-x="710" d="M-131 -244q111 43 182.5 92.5t115.5 108.5t65.5 131t33.5 162l127 1026h-203l15 127h553l-15 -127h-180l-125 -1002q-16 -131 -52 -234t-100.5 -181t-158.5 -132.5t-227 -86.5z" />
<glyph unicode="K" horiz-adv-x="1280" d="M31 0l14 127h127l141 1149h-127l15 125h420l-15 -125h-127l-65 -526l592 526l-121 -2l14 127h426l-14 -127h-113l-483 -424l399 -721h115l-15 -129h-428l15 129h129l-340 619l-197 -175l-55 -446h127l-14 -127h-420z" />
<glyph unicode="L" horiz-adv-x="1099" d="M31 0l14 125h133l141 1151h-126l14 125h442l-16 -125h-144l-143 -1151h561l31 250h133l-45 -375h-995z" />
<glyph unicode="M" horiz-adv-x="1726" d="M29 0q4 31 7 62.5t7 62.5h127q35 289 70.5 574.5t70.5 576.5h-127l17 125h321q61 -195 122 -400.5t128 -416.5l74 -240h12l129 240q12 25 48 89t82 148t97.5 178.5t96.5 177.5t78.5 143t44.5 81h331l-16 -125h-123l-141 -1151h123q-4 -31 -7.5 -62.5t-7.5 -62.5h-411 q4 31 7 62.5t7 62.5h125l123 1008h-4q-29 -53 -56.5 -105.5t-56.5 -105.5q-106 -188 -206.5 -375t-213.5 -389h-151l-109 346q-35 106 -67.5 213.5t-65.5 218.5l-59 197h-6q-29 -254 -60 -504t-61 -504h129q-4 -31 -7.5 -62.5t-7.5 -62.5h-413z" />
<glyph unicode="N" horiz-adv-x="1462" d="M29 0q4 33 7 63.5t7 63.5h135q35 289 71 573.5t70 575.5h-135l17 125h313l430 -875q29 -61 59.5 -122.5t59.5 -124.5h10l123 997h-139q4 31 7 62.5t7 62.5h428q-4 -31 -7 -62.5t-7 -62.5h-129l-158 -1276h-160q-119 231 -228.5 459.5t-236.5 472.5l-106 221q-2 0 -3 -1 t-3 -1l-125 -1024h139q-4 -33 -7 -63.5t-7 -63.5h-432z" />
<glyph unicode="O" horiz-adv-x="1347" d="M125 532q0 164 37 324t116.5 286t207 203.5t305.5 77.5q141 0 237 -45t153.5 -122.5t82 -182t24.5 -223.5q0 -180 -42 -338t-124 -275.5t-202.5 -185t-278.5 -67.5q-139 0 -236.5 37.5t-160 109.5t-91 173.5t-28.5 227.5zM297 530q0 -205 82 -309t266 -104 q125 0 214 61.5t146.5 163.5t83 235.5t25.5 276.5q0 86 -13.5 165t-50 139.5t-100.5 97t-162 36.5q-141 0 -235 -69.5t-151.5 -180t-81 -245.5t-23.5 -267z" />
<glyph unicode="P" horiz-adv-x="1134" d="M31 0l14 125h127l141 1151h-127l15 127h573q174 0 275.5 -89t101.5 -270q0 -76 -23.5 -158.5t-78 -151t-142.5 -114t-217 -45.5h-295l-55 -450h170l-14 -125h-465zM412 698h262q51 0 104 17.5t97.5 56.5t72 103.5t27.5 156.5q0 123 -62.5 183.5t-167.5 60.5h-264z" />
<glyph unicode="Q" horiz-adv-x="1347" d="M125 532q0 164 37 324t116.5 286t207 203.5t305.5 77.5q141 0 237 -45t153.5 -122.5t82 -182t24.5 -223.5q0 -139 -24.5 -265t-73.5 -231.5t-122 -185.5t-167 -125l293 -78l-80 -153l-502 176q-131 2 -224 42t-151.5 110.5t-85 170t-26.5 221.5zM297 530q0 -205 82 -309 t266 -104q125 0 214 61.5t146.5 163.5t83 235.5t25.5 276.5q0 86 -13.5 165t-50 139.5t-100.5 97t-162 36.5q-141 0 -235 -69.5t-151.5 -180t-81 -245.5t-23.5 -267z" />
<glyph unicode="R" horiz-adv-x="1228" d="M33 0l12 125h127l141 1151h-125l15 127h581q174 0 274.5 -84t100.5 -260q0 -63 -16.5 -129t-52 -123t-94 -101t-142.5 -65l164 -514l147 -21v-96q-39 -14 -95 -21t-87 -7q-61 0 -85 28.5t-40 79.5l-164 526h-295l-59 -491h160l-15 -125h-452zM416 739h272 q51 0 103.5 13.5t95.5 48.5t69.5 93t26.5 148q0 127 -62.5 180.5t-166.5 53.5h-273z" />
<glyph unicode="S" horiz-adv-x="1085" d="M35 90l33 275h131l-25 -181q66 -35 143.5 -48t145.5 -13q168 0 271.5 69.5t103.5 208.5q0 61 -21.5 100.5t-61.5 67t-95.5 46t-122.5 36.5q-80 23 -147.5 49.5t-117 65.5t-78 95.5t-28.5 137.5q0 104 39 184.5t104.5 133.5t153.5 79.5t186 26.5q39 0 88 -4t100.5 -14 t100.5 -25.5t90 -40.5l-35 -276h-131l25 184q-63 25 -122 33t-118 8q-61 0 -116.5 -16.5t-98.5 -49t-67.5 -84t-24.5 -118.5q0 -51 24.5 -87t63.5 -62.5t89 -45t99 -34.5q74 -23 147 -46.5t129 -61.5t91 -99.5t35 -159.5q0 -119 -45 -202t-122 -136t-178.5 -77.5 t-211.5 -24.5q-109 0 -221.5 23.5t-204.5 82.5z" />
<glyph unicode="T" horiz-adv-x="1099" d="M111 1067l41 336h1036l-39 -336h-131l24 209h-303l-141 -1151h166l-14 -125h-494l14 125h162l141 1151h-309l-24 -209h-129z" />
<glyph unicode="U" horiz-adv-x="1402" d="M166 1276l14 127h426l-14 -127h-139l-97 -774q-5 -45 -5 -85q0 -300 313 -300q170 0 273 96t126 289l96 774h-139l16 127h424l-14 -127h-123l-96 -772q-14 -117 -54 -213t-109 -165t-168 -105.5t-230 -36.5q-143 0 -241.5 37.5t-154.5 107.5q-58 70 -76 168 q-11 56 -10 120q0 48 6 101l95 758h-119z" />
<glyph unicode="V" horiz-adv-x="1269" d="M127 1276l14 127h412l-14 -127h-125l147 -819l47 -285h8l117 289l342 815h-123l15 127h409l-14 -127h-119l-555 -1276h-199l-245 1276h-117z" />
<glyph unicode="W" horiz-adv-x="1853" d="M127 1276l14 127h430l-14 -127h-139l96 -854l23 -236h4l94 238l313 776l-12 76h-135l14 127h440l-14 -127h-143l145 -870l33 -211h4l82 235l295 846h-137l14 127h428l-16 -127h-121q-47 -133 -108.5 -299t-125 -339t-125 -339t-108.5 -299h-195l-127 760l-30 205h-7 l-84 -213l-307 -752h-202l-162 1276h-117z" />
<glyph unicode="X" horiz-adv-x="1265" d="M-14 0l14 127h96l459 614l-258 535h-127l14 127h441l-15 -127h-131l205 -428l328 428h-125l14 127h432l-14 -127h-117l-428 -549l293 -600h127l-14 -127h-455l14 127h142l-238 485l-360 -485h159l-14 -127h-442z" />
<glyph unicode="Y" horiz-adv-x="1167" d="M127 1276l14 127h398l-15 -127h-125l213 -539h9l352 539h-129l14 127h408l-15 -127h-104l-455 -666l-59 -485h160l-15 -125h-497l14 125h162l57 479l-283 672h-104z" />
<glyph unicode="Z" horiz-adv-x="1056" d="M-8 0l14 125l873 1151h-553l-27 -211h-129l41 338h889l-15 -125l-874 -1151h633l30 233h134l-45 -360h-971z" />
<glyph unicode="[" horiz-adv-x="516" d="M14 -326l217 1753h338q-4 -29 -7 -55t-7 -55h-193l-188 -1530h193q-4 -29 -7.5 -56.5t-7.5 -56.5h-338z" />
<glyph unicode="\" horiz-adv-x="661" d="M152 1436h106l328 -1493h-109z" />
<glyph unicode="]" horiz-adv-x="516" d="M-27 -326q4 29 7.5 56.5t7.5 56.5h190l189 1530h-193l12 110h340l-215 -1753h-338z" />
<glyph unicode="^" horiz-adv-x="880" d="M86 780l424 617h94l268 -617h-116l-211 486l-330 -486h-129z" />
<glyph unicode="_" horiz-adv-x="993" d="M-84 -270l12 96h992l-13 -96h-991z" />
<glyph unicode="`" horiz-adv-x="991" d="M367 1397l125 102l206 -338l-75 -57z" />
<glyph unicode="a" horiz-adv-x="1116" d="M82 330q0 137 31.5 262t96 218t160 148.5t222.5 55.5q57 0 115.5 -14.5t123.5 -38.5l52 55l98 -6q-18 -119 -36.5 -241t-34 -236.5t-29 -218t-19.5 -185.5q43 4 88 21.5t88 42.5q10 -18 19.5 -35t19.5 -35q-29 -29 -64.5 -55.5t-70.5 -47t-68.5 -32t-60.5 -11.5 q-63 0 -85.5 38t-22.5 94q0 47 6 94t16 98h-10q-43 -96 -91 -157.5t-97.5 -97.5t-97.5 -50t-93 -14q-115 0 -185.5 85t-70.5 263zM248 352q0 -123 40.5 -183t108.5 -60q39 0 83 22.5t90 76.5t93.5 143t90.5 222l43 267q-63 25 -116.5 34t-90.5 9q-100 0 -167 -54.5 t-105.5 -134.5t-54 -173t-15.5 -169z" />
<glyph unicode="b" horiz-adv-x="1038" d="M27 1362l8 80q76 20 145.5 29.5t128.5 9.5q53 0 72.5 -22.5t19.5 -59.5q0 -12 -4 -57.5t-11 -111t-16.5 -141t-18.5 -149.5t-18 -136.5t-16 -98.5h11q43 92 91 153.5t97 97t96 50t90 14.5q117 0 188 -86t71 -264q0 -139 -33 -263t-97.5 -217.5t-163 -148.5t-227.5 -55 q-72 0 -162 19.5t-190 66.5l-10 20q23 160 43 311.5t38.5 304t36 306t33.5 317.5zM248 160q63 -25 113.5 -33t87.5 -8q100 0 166.5 53t106.5 133t55.5 171t15.5 169q0 125 -42 184.5t-108 59.5q-39 0 -84 -23.5t-91 -77t-92 -143.5t-89 -221z" />
<glyph unicode="c" horiz-adv-x="911" d="M82 348q0 63 8 139t29.5 150t58.5 143.5t94.5 122.5t138.5 85t189 32q76 0 130 -13.5t81 -23.5q33 -12 48 -28.5t15 -45.5v-12q0 -12 -6 -37.5t-15 -58.5t-21.5 -68t-24.5 -61l-86 6l10 192q-27 10 -64.5 16.5t-76.5 6.5q-86 0 -150.5 -43t-107.5 -115.5t-64.5 -167 t-21.5 -196.5q0 -53 11 -100.5t36.5 -82t69 -55t106.5 -20.5q72 0 139.5 15t145.5 46l37 -102q-68 -35 -163.5 -60.5t-191.5 -25.5q-98 0 -164.5 26.5t-108.5 73.5t-60.5 114.5t-20.5 147.5z" />
<glyph unicode="d" horiz-adv-x="1122" d="M82 330q0 143 32.5 268t99.5 217t165 144.5t227 52.5q47 0 98.5 -11.5t104.5 -27.5l41 356l-205 31l6 82q78 18 148 28.5t127 10.5t75.5 -30t18.5 -73q0 -8 -6 -60t-16.5 -138t-25 -203t-31.5 -253t-35.5 -287.5t-37.5 -307.5q90 16 176 64l43 -66q-51 -57 -126.5 -102 t-153.5 -45q-57 0 -77.5 32.5t-20.5 85.5q0 51 6 100.5t16 102.5h-8q-45 -96 -93 -157.5t-98.5 -97.5t-99.5 -50t-94 -14q-115 0 -185.5 85t-70.5 263zM246 352q0 -123 41.5 -183t109.5 -60q39 0 84 22.5t92.5 76.5t94.5 143t92 222q8 66 17 133.5t20 133.5 q-63 25 -116.5 34t-90.5 9q-102 0 -168 -54.5t-106 -134.5t-55 -173t-15 -169z" />
<glyph unicode="e" horiz-adv-x="946" d="M82 377q0 100 23.5 214t84 210t161.5 159.5t259 63.5q70 0 121 -19.5t85 -53t51.5 -80t17.5 -97.5q0 -94 -47 -160.5t-132 -109.5t-203 -66.5t-257 -31.5q-2 -12 -2 -25.5v-26.5q0 -43 8 -87t32.5 -78.5t67.5 -57t111 -22.5q78 0 152.5 18t150.5 53l37 -98 q-66 -41 -168.5 -68.5t-204.5 -27.5q-106 0 -174 30.5t-106.5 85t-53 125t-14.5 150.5zM254 508q231 10 353 69.5t122 178.5q0 61 -32.5 100t-108.5 39q-145 0 -229.5 -103.5t-104.5 -283.5z" />
<glyph unicode="f" horiz-adv-x="679" d="M-279 -410l31 111q47 -10 79 -12t60 -2q59 0 99.5 23.5t68 68.5t45 111.5t29.5 154.5q20 154 38.5 299t32 260t21.5 187.5t8 85.5h-165q2 23 4 42t6 42l168 38l16 109q29 186 114 286.5t251 100.5q45 0 94 -5t100 -22l-28 -120q-41 10 -80 14t-68 4q-43 0 -81 -13.5 t-66.5 -47t-49 -94t-30.5 -152.5l-8 -70h274q-2 -29 -5 -56.5t-7 -55.5h-279q-23 -174 -41 -343t-37 -344q-16 -119 -36.5 -231.5t-63.5 -200.5t-114.5 -141t-188.5 -53q-43 0 -91 6t-100 20z" />
<glyph unicode="g" horiz-adv-x="1042" d="M55 -377l49 119q53 -27 125 -43t136 -16q98 0 158.5 31.5t95 87t51 128t26.5 152.5l29 215q-2 2 -8 2q-43 -92 -91 -153.5t-97.5 -96.5t-97.5 -49t-91 -14q-115 0 -186.5 85t-71.5 263q0 137 32.5 261t97 216t162 146.5t226.5 54.5q88 -2 174 -20.5t180 -61.5l9 -21 q-29 -236 -61 -470t-62 -466q-10 -68 -33 -142.5t-76 -136t-145 -102.5t-238 -41q-88 0 -167 25t-126 47zM248 358q0 -125 41.5 -185t109.5 -60q39 0 84 23.5t91.5 77.5t92.5 143t89 223l37 260q-61 25 -112.5 34t-88.5 9q-102 0 -168 -53.5t-105.5 -132.5t-55 -171 t-15.5 -168z" />
<glyph unicode="h" horiz-adv-x="1165" d="M88 1360l8 80q76 20 145.5 29.5t129.5 9.5q51 0 72.5 -16.5t21.5 -53.5q0 -14 -4 -62.5t-11.5 -115t-16.5 -144t-18 -151.5t-17.5 -136.5t-12.5 -97.5l8 -2q45 92 99.5 153.5t107.5 98.5t101 52.5t81 15.5q113 0 156 -58.5t43 -154.5q0 -20 -3 -63.5t-11.5 -121 t-21.5 -197.5t-34 -294q84 6 166 51l39 -67q-70 -70 -138.5 -105t-121.5 -35q-63 0 -87 30t-24 83q0 12 1.5 25.5t3.5 29.5q23 197 36 313.5t19 180t7 88.5t1 39q0 53 -20.5 88t-71.5 35q-39 0 -86 -24.5t-96.5 -79t-98.5 -142.5t-88 -213l-59 -428h-164q10 84 24.5 195.5 t30 236.5t30.5 254t28.5 249t25 222.5t19.5 171.5z" />
<glyph unicode="i" horiz-adv-x="598" d="M92 901l6 82q76 18 139.5 28.5t110.5 10.5q53 0 73.5 -16.5t20.5 -51.5q0 -4 -7 -63.5t-18 -148.5t-24.5 -192.5t-25 -193.5t-19.5 -153.5t-8 -71.5q86 6 170 51l39 -67q-68 -70 -138.5 -105t-123.5 -35q-66 0 -89.5 33t-23.5 82q0 12 1 25.5t3 27.5l92 727zM270 1249 q0 51 33 87t80 36q41 0 68.5 -28.5t27.5 -69.5q0 -47 -31.5 -83t-82.5 -36q-39 0 -67 26.5t-28 67.5z" />
<glyph unicode="j" horiz-adv-x="552" d="M-109 -352q88 39 141.5 92t85.5 119.5t46 142.5t24 158l74 710l-178 31l8 82q76 18 138.5 28.5t109.5 10.5q98 0 98 -68q0 -2 -6 -55t-14 -134t-18.5 -175t-19.5 -180t-16.5 -149.5t-9.5 -80.5q-14 -121 -40.5 -223t-77 -184t-127 -139.5t-191.5 -84.5zM262 1249 q0 51 33 87t80 36q41 0 68.5 -28.5t27.5 -69.5q0 -47 -31.5 -83t-83.5 -36q-39 0 -66.5 26.5t-27.5 67.5z" />
<glyph unicode="k" horiz-adv-x="958" d="M41 1356l6 80q68 20 139.5 34.5t126.5 14.5q47 1 67 -23q17 -20 18 -49q0 -6 -1 -12q-14 -115 -28.5 -217.5t-27.5 -200.5t-27.5 -196.5t-28.5 -204.5h6q45 78 105.5 156.5t128 141t138 102.5t138.5 40q51 0 86 -32t51 -85l-57 -59q-59 28 -108 28h-3q-47 0 -89 -18 t-79 -49t-70.5 -70t-66.5 -80q35 -74 80 -159.5t88 -164.5t79 -137.5t52 -74.5q53 14 90 37.5t66 44.5q10 -14 24 -28.5t25 -29.5q-37 -51 -71 -83.5t-63.5 -51t-54 -26t-45.5 -7.5q-49 0 -87 30t-78 95.5t-89 169t-119 252.5q-23 -31 -37 -53t-25 -41.5t-22.5 -41 t-23.5 -52.5q-8 -47 -13 -86t-10.5 -77t-10.5 -80t-11 -93h-164q49 338 92 664.5t84 668.5z" />
<glyph unicode="l" horiz-adv-x="571" d="M90 1362l6 80q78 20 152 29.5t121 9.5q49 0 71.5 -15.5t22.5 -52.5q0 -23 -9.5 -105.5t-23.5 -201.5t-31.5 -258t-34 -274.5t-32 -252t-23.5 -190.5q88 6 168 51l39 -67q-68 -70 -137.5 -105t-122.5 -35q-61 0 -87 28t-26 85q0 12 1 25.5t3 29.5l144 1188z" />
<glyph unicode="m" horiz-adv-x="1691" d="M61 901l7 80q78 23 144.5 32t123.5 9q51 0 71.5 -17.5t20.5 -52.5q0 -41 -9 -107.5t-22 -152.5h9q47 96 96 159.5t97 100.5t90 52.5t77 15.5q102 0 144 -53.5t46 -139.5q2 -18 0 -50t-6 -91l6 -2q41 90 91.5 154.5t100.5 105.5t96 60.5t79 19.5q109 0 153 -59.5 t44 -153.5q0 -23 -3.5 -64.5t-11.5 -119.5t-21.5 -198t-33.5 -294q82 2 164 51l39 -67q-68 -70 -137.5 -104.5t-122.5 -34.5q-61 0 -85 28.5t-24 81.5q0 10 1 25.5t3 31.5q23 195 36 310.5t19.5 180t7.5 91.5t1 43q0 49 -20.5 83t-69.5 34q-78 0 -168 -108.5t-168 -354.5 q-6 -51 -11.5 -88t-9.5 -79t-11 -101.5t-20 -157.5h-161l28 229q18 170 29.5 270.5t16 156t5.5 78t1 36.5q0 47 -20.5 81t-70.5 34q-39 0 -80.5 -24.5t-84.5 -80t-85 -143.5t-81 -213l-58 -424h-163q35 254 59 464t47 406z" />
<glyph unicode="n" horiz-adv-x="1171" d="M61 899l7 82q150 39 268 39q53 0 70.5 -16.5t17.5 -61.5q0 -43 -7 -107.5t-22 -142.5h8q47 94 102.5 157.5t111 100.5t103.5 52.5t83 15.5q57 0 96 -18.5t60.5 -50t30.5 -75t9 -94.5q0 -23 -4 -69.5t-13 -125.5t-21.5 -191.5t-30.5 -264.5q82 6 164 51q10 -16 19 -32.5 t20 -34.5q-72 -72 -148 -102.5t-123 -30.5q-55 0 -76.5 27.5t-21.5 78.5v24.5t4 30.5q23 195 35 311.5t18 181t8 91.5t2 43q0 49 -21.5 83t-70.5 34q-41 0 -88 -25.5t-97 -81t-98 -143.5t-87 -213l-58 -422h-161q33 252 59.5 462t48.5 406z" />
<glyph unicode="o" horiz-adv-x="1015" d="M82 377q0 111 26.5 224.5t86 206.5t155 152.5t232.5 59.5q102 0 173.5 -33t115.5 -89t63.5 -130t19.5 -156q0 -100 -23.5 -210.5t-81.5 -203t-154.5 -152.5t-243.5 -60q-104 0 -175 30.5t-114 84t-61.5 124t-18.5 152.5zM246 356q0 -49 10 -93t34.5 -78.5t67.5 -55 t109 -20.5q98 0 160.5 53t97.5 131t48 165t13 154q0 53 -9 103.5t-33.5 88.5t-66 61.5t-102.5 23.5q-102 0 -165.5 -56.5t-100.5 -138.5t-50 -174t-13 -164z" />
<glyph unicode="p" horiz-adv-x="1095" d="M-70 -426l15 123h145l139 1171l-196 31l6 82q70 18 140.5 28.5t129.5 10.5q43 0 66.5 -13.5t23.5 -48.5q0 -6 -2 -20t-5 -44t-10 -79t-15 -129h10q43 94 92 157.5t99 100.5t99.5 52.5t94.5 15.5q113 0 183.5 -86t70.5 -267q0 -143 -33 -267t-98.5 -215t-163.5 -143 t-227 -52q-47 0 -98.5 10t-104.5 26q-10 -80 -20.5 -160.5t-20.5 -160.5h184q-4 -31 -7 -61.5t-7 -61.5h-490zM303 152q61 -25 114.5 -33t90.5 -8q100 0 166.5 53t105.5 132t54.5 169t15.5 166q0 127 -41 186.5t-109 59.5q-39 0 -84 -23t-92 -76t-95 -142t-91 -222 q-8 -66 -17.5 -131.5t-17.5 -130.5z" />
<glyph unicode="q" horiz-adv-x="1056" d="M82 330q0 137 32.5 262t97 218t163 148.5t227.5 55.5q72 0 163 -18.5t191 -65.5l9 -19q-2 -10 -9.5 -66.5t-17.5 -140t-22.5 -189t-25.5 -214t-26.5 -214t-23 -189.5t-16.5 -139.5t-7 -63.5h150l-13 -123h-489l14 123h172q27 242 44.5 389t29.5 211h-8 q-43 -92 -91 -153.5t-97.5 -96.5t-97.5 -49t-91 -14q-115 0 -186.5 85t-71.5 263zM248 354q0 -125 41.5 -184t109.5 -59q39 0 84 22.5t91.5 76.5t92.5 143t89 222l39 265q-63 27 -114.5 35t-88.5 8q-100 0 -167 -54.5t-105.5 -134.5t-55 -172t-16.5 -168z" />
<glyph unicode="r" horiz-adv-x="854" d="M86 899l6 82q78 20 133.5 29.5t112.5 9.5q53 0 72.5 -16.5t19.5 -63.5q0 -39 -9 -96.5t-20 -134.5h7q37 102 77.5 163.5t81.5 95t79 44t73 10.5q66 0 98.5 -36t36.5 -85l-70 -76q-33 16 -61.5 21.5t-50.5 5.5q-78 0 -163 -111.5t-144 -345.5q-8 -59 -14.5 -110.5 t-12.5 -97.5t-12.5 -92t-14.5 -95h-157q29 229 56.5 447.5t51.5 420.5z" />
<glyph unicode="s" horiz-adv-x="874" d="M55 123q0 41 21.5 103.5t50.5 115.5l78 -4l-10 -209q70 -29 163 -29q49 0 96.5 10.5t85.5 32t60.5 55t22.5 81.5q0 37 -17.5 64.5t-47.5 48t-67.5 36.5t-76.5 35q-63 29 -117.5 56.5t-93.5 60t-61.5 70.5t-22.5 87q0 74 32.5 127.5t86 89t123 52t143.5 16.5q53 0 103 -8 t90 -24.5t64.5 -40t24.5 -54.5q0 -41 -22.5 -108.5t-48.5 -118.5l-78 4l10 200q-29 14 -63.5 22.5t-81.5 8.5q-41 0 -79 -8t-67.5 -26.5t-48 -48t-18.5 -75.5q0 -31 20.5 -56t52 -45.5t68.5 -38t70 -32.5q53 -23 104 -49t91 -60t65.5 -77t25.5 -100q0 -76 -34.5 -132.5 t-93 -94t-135.5 -56t-161 -18.5q-168 0 -237.5 38.5t-69.5 98.5z" />
<glyph unicode="t" horiz-adv-x="735" d="M94 887l8 88l156 37l80 223l104 16l-30 -252h293l-13 -112h-291q-20 -152 -39.5 -303.5t-37.5 -304.5q-2 -10 -2 -18.5v-18.5q0 -55 22.5 -88t91.5 -33q29 0 81 7t112 24l24 -109q-31 -12 -66.5 -22.5t-71.5 -17.5t-68.5 -10t-57.5 -3q-106 0 -170.5 44t-64.5 148 q0 8 1 16.5t1 16.5q23 174 41 340t41 332h-144z" />
<glyph unicode="u" horiz-adv-x="1167" d="M63 899l7 82q76 20 144.5 29.5t125.5 9.5q51 0 70.5 -17.5t19.5 -58.5q0 -20 -5 -73.5t-13.5 -124t-18.5 -150.5t-18 -152.5t-13.5 -129t-5.5 -81.5q0 -57 21.5 -86.5t71.5 -29.5q39 0 87 24.5t97 79.5t97 143.5t89 215.5q16 104 30.5 208.5t29.5 210.5h155 q-29 -211 -55.5 -428t-54.5 -442q47 4 86 16.5t80 34.5l38 -67q-70 -70 -143.5 -101.5t-120.5 -31.5q-59 0 -77.5 27.5t-18.5 86.5q0 45 7 103.5t13 103.5h-10q-45 -92 -99 -153.5t-107.5 -98.5t-102.5 -52t-84 -15q-106 0 -151.5 56t-45.5 148q0 29 4.5 76t12.5 126 t21.5 196.5t31.5 285.5q-47 6 -96 13.5t-99 15.5z" />
<glyph unicode="v" horiz-adv-x="1009" d="M6 899q66 63 127.5 95t102.5 32t62 -18.5t28 -69.5q8 -72 19 -168t23.5 -202.5t23.5 -214t22 -197.5h10q66 74 129 163t114.5 184t84 191.5t36.5 182.5q-39 -10 -74.5 -19.5t-72.5 -19.5l-23 69q59 49 116 81t104 32q45 0 77.5 -27.5t32.5 -85.5q-2 -117 -53 -250 t-128 -259t-166 -232.5t-167 -173.5h-149l-109 878l-143 -41q-8 16 -14.5 35t-12.5 35z" />
<glyph unicode="w" horiz-adv-x="1456" d="M6 895q74 68 136.5 98.5t107.5 30.5q31 0 49 -17.5t27.5 -48t13.5 -72.5t8 -89q10 -158 22.5 -313.5t20.5 -321.5h10q43 49 87 112.5t84 131t75 135t58 127.5q-4 51 -7.5 101t-7.5 101l-143 -43l-27 70q70 61 132.5 94t109.5 33q55 -4 68.5 -46t19.5 -149 q10 -168 20.5 -334.5t22.5 -332.5h8q66 74 125 162t104.5 182t74 189.5t32.5 181.5q-35 -10 -72 -20.5t-73 -20.5l-21 69q66 57 128.5 90t111.5 33q45 0 64.5 -29.5t19.5 -101.5q0 -74 -21.5 -158t-59.5 -170t-87 -171t-102.5 -160.5t-110 -139t-105.5 -106.5h-149l-37 452 q-2 0 -2 1t-2 1q-35 -72 -77 -140t-86 -129.5t-85 -110t-70 -74.5h-145q-20 219 -36.5 441t-43.5 437l-143 -43z" />
<glyph unicode="x" horiz-adv-x="972" d="M35 61q0 4 1 9.5t1 9.5l358 416l-153 368l-158 -55l-35 74q72 68 132.5 99.5t101.5 31.5q37 0 62.5 -17.5t43.5 -64.5l127 -305q68 96 133.5 191t132.5 192h17l106 -90v-19l-340 -383l162 -385q47 4 90 21.5t84 42.5q12 -16 23.5 -31.5t25.5 -32.5q-74 -90 -144.5 -124 t-113.5 -34q-41 0 -64.5 20.5t-39.5 55.5q-37 78 -70 155t-74 181q-72 -106 -145 -210t-147 -208q-4 0 -8.5 -1t-8.5 -1z" />
<glyph unicode="y" horiz-adv-x="1032" d="M-225 -307l69 41q35 -41 78 -52.5t90 -11.5q86 0 184.5 52.5t206.5 175.5q-18 111 -43.5 248t-53 272t-53.5 252.5t-44 191.5l-152 -41l-26 70q70 66 133 94.5t96 28.5q41 0 59.5 -18.5t32.5 -69.5q8 -33 21.5 -90.5t28 -132t31 -160.5t31.5 -173t29.5 -170t24.5 -151 q66 92 119 208t91 230.5t58.5 216t20.5 164.5l-148 -39q-4 16 -9 35t-11 35q63 59 120.5 90t102.5 31q51 0 76 -29.5t25 -113.5q0 -115 -37 -259.5t-104.5 -295t-161 -295t-206 -257t-240.5 -181t-265 -68.5q-109 0 -155 43q-29 27 -29 71q0 26 10 58z" />
<glyph unicode="z" horiz-adv-x="935" d="M20 100l666 781h-410l-79 -211l-82 8l22 242q6 53 39 66t60 13h630l25 -104l-664 -778h488l82 215l73 -4l-28 -250q-2 -27 -12.5 -42.5t-24.5 -23.5t-30.5 -10t-29.5 -2h-706z" />
<glyph unicode="{" horiz-adv-x="526" d="M74 557l12 92q84 23 112.5 74t45.5 154l39 305q4 37 16 82t36.5 82.5t65.5 64.5t103 27h102l-16 -111h-49q-37 0 -58.5 -12t-33 -32.5t-15.5 -48.5t-8 -60l-39 -324q-4 -39 -14.5 -78t-27.5 -72.5t-44 -58.5t-63 -35q55 -31 75.5 -71.5t20.5 -96.5q0 -37 -6 -80l-58 -460 q-2 -16 -2 -29.5v-28.5q4 -33 17.5 -54.5t54.5 -21.5h59l-12 -110h-78q-111 0 -151.5 44t-40.5 128v21.5t2 21.5q16 117 29.5 235.5t29.5 237.5q6 39 6 74q0 53 -28.5 89t-81.5 52z" />
<glyph unicode="|" horiz-adv-x="483" d="M182 -285v1719h113v-1719h-113z" />
<glyph unicode="}" horiz-adv-x="526" d="M-49 -344l16 111h49q37 0 58.5 12t33 32.5t15.5 48t8 60.5l45 418q4 39 14.5 78t28 72.5t44 58t63.5 35.5q-55 31 -76 71.5t-21 96.5q0 37 7 79l51 367q2 16 2 29.5v27.5q-4 33 -17.5 54.5t-54.5 21.5h-59l12 111h78q111 0 151.5 -44t40.5 -128v-21.5t-2 -21.5 q-8 -59 -14 -103.5t-12 -85.5t-12.5 -86t-14.5 -104q-6 -41 -6 -74q0 -53 28.5 -89t81.5 -52l-12 -92q-84 -23 -112.5 -74t-45.5 -154l-45 -399q-4 -37 -16 -82t-36.5 -83t-65.5 -64.5t-103 -26.5h-102z" />
<glyph unicode="~" d="M168 563q43 80 107.5 127t138.5 47q47 0 100 -15t107.5 -32.5t103.5 -33t90 -15.5l148 98l59 -55q-41 -78 -105.5 -128t-142.5 -50q-59 0 -112.5 15.5t-101.5 32.5t-92 32.5t-83 15.5l-158 -96z" />
<glyph unicode="&#xa1;" horiz-adv-x="446" d="M39 -428l82 627l72 448h108l-37 -448l-65 -627h-160zM176 897q0 49 36 85t83 36q41 0 67.5 -26.5t26.5 -67.5q0 -47 -33.5 -83t-87.5 -36q-41 0 -66.5 26.5t-25.5 65.5z" />
<glyph unicode="&#xa2;" d="M195 348q0 90 16 197.5t64.5 206t132.5 171t219 91.5l24 200h88l-24 -194q74 0 128 -13.5t81 -23.5q33 -12 48 -28.5t15 -45.5v-12q0 -12 -6 -37.5t-15.5 -58.5t-21.5 -68t-24 -61l-86 6l10 192q-27 10 -65 16.5t-77 6.5h-4l-94 -780q66 2 128.5 17t133.5 44l37 -102 q-61 -33 -145 -56.5t-170 -27.5l-19 -156h-90l19 156q-84 6 -140.5 35.5t-92.5 76.5t-52 109.5t-18 138.5zM358 371q0 -92 34 -162t122 -90l94 758q-63 -23 -110 -72t-78 -116.5t-46.5 -149.5t-15.5 -168z" />
<glyph unicode="&#xa3;" d="M74 0l10 123q49 20 82 59t56.5 87t36.5 102.5t24 103.5l28 162h-135l12 108h140l34 220q14 88 43 163.5t78 131t122 86t171 30.5q92 0 182.5 -19.5t145.5 -49.5l-29 -267h-127l21 170q-39 12 -84 22.5t-107 10.5q-68 0 -114 -21.5t-75.5 -59.5t-47 -91t-29.5 -117 l-33 -209h369l-14 -108h-373l-27 -166q-8 -49 -20.5 -101.5t-29.5 -98.5t-39.5 -85t-53.5 -61h690l-12 -125h-895z" />
<glyph unicode="&#xa5;" d="M131 1235l16 125h383l-16 -125h-123l184 -535h7l317 535h-125l14 125h392l-17 -125h-98l-352 -563h276l-10 -82h-819l10 82h270l-207 563h-102zM137 403l10 89h820l-11 -89h-333l-33 -280h162l-15 -123h-483l14 123h160l35 280h-326z" />
<glyph unicode="&#xa8;" horiz-adv-x="1001" d="M324 1239q2 43 35.5 72.5t68.5 29.5q41 0 66.5 -22.5t23.5 -63.5q-2 -45 -32.5 -74.5t-77.5 -29.5q-39 0 -62.5 24.5t-21.5 63.5zM698 1239q2 43 34 72.5t69 29.5q41 0 65.5 -22.5t22.5 -63.5q0 -45 -32 -74.5t-79 -29.5q-39 0 -60.5 24.5t-19.5 63.5z" />
<glyph unicode="&#xa9;" horiz-adv-x="1667" d="M106 682q0 154 56.5 289t155 236.5t232.5 159.5t290 58q162 0 296 -58t231 -159.5t151.5 -236.5t54.5 -289t-58.5 -290t-158 -237.5t-233.5 -159.5t-283 -58q-172 0 -307.5 58t-230.5 159.5t-145.5 237.5t-50.5 290zM193 682q0 -135 44 -256t126.5 -210t202.5 -141 t274 -52q135 0 251.5 52t204.5 141t138.5 210t50.5 256t-47 255t-133 209t-205 140t-260 51q-137 0 -255 -51t-205 -140t-137 -209t-50 -255zM430 666q0 80 18.5 173t67.5 170.5t133 130t215 52.5q86 0 146.5 -12.5t101.5 -28.5v-236h-92v152q-31 8 -72 14t-80 6 q-160 0 -234.5 -114t-74.5 -307q0 -86 14.5 -160t49 -128t96 -85t155.5 -31q20 0 49 2t61 6t64.5 10.5t61.5 14.5l20 -92q-49 -20 -127.5 -33.5t-150.5 -13.5q-117 0 -198 36.5t-130 104.5t-71.5 161t-22.5 208z" />
<glyph unicode="&#xab;" horiz-adv-x="860" d="M109 346l10 80l330 326l61 -54l-240 -313l164 -311l-74 -51zM403 346l11 80l329 326l60 -54l-238 -313l162 -311l-72 -51z" />
<glyph unicode="&#xad;" horiz-adv-x="727" d="M111 471l18 139h514l-18 -139h-514z" />
<glyph unicode="&#xae;" horiz-adv-x="1159" d="M145 965q0 102 36 191t100.5 155.5t153.5 105.5t194 39q106 0 195 -39t153.5 -105.5t100.5 -155.5t36 -191t-36 -191.5t-100.5 -155t-153.5 -104.5t-195 -39q-104 0 -193.5 39t-154 104.5t-100.5 154.5t-36 192zM215 965q0 -86 30.5 -163t85 -133.5t130.5 -90t168 -33.5 q96 0 173 33.5t130 90t81.5 133.5t28.5 163t-30.5 162.5t-85 134t-130 91t-167.5 33.5q-90 0 -166 -33.5t-131.5 -91t-86 -134t-30.5 -162.5zM406 672v67h51v463h-51v68h251q84 0 134.5 -41t50.5 -127q0 -39 -25.5 -87t-83.5 -73l96 -203l62 -8v-55q-16 -4 -39 -7t-39 -3 q-27 0 -42 15t-23 34l-103 215h-100v-191h67v-67h-206zM545 995h104q41 0 73 21t32 84q0 57 -31 80.5t-72 23.5h-106v-209z" />
<glyph unicode="&#xb4;" horiz-adv-x="1001" d="M502 1159l278 338l103 -102l-318 -293z" />
<glyph unicode="&#xb8;" horiz-adv-x="899" d="M195 -502l6 78q111 10 181.5 41t70.5 88q0 25 -18.5 39t-47.5 22.5t-61.5 10.5t-63.5 2l-20 41l227 256q14 -10 28.5 -19.5t28.5 -19.5l-143 -164q90 -6 142.5 -41t52.5 -102q0 -43 -23 -85t-70 -75t-118.5 -52.5t-171.5 -19.5z" />
<glyph unicode="&#xbb;" horiz-adv-x="860" d="M57 74l238 311l-160 313l74 54l252 -326l-10 -80l-334 -323zM352 74l236 311l-160 313l76 54l250 -326l-11 -80l-333 -323z" />
<glyph unicode="&#xbf;" horiz-adv-x="876" d="M14 -197q0 53 17.5 101.5t46 90.5t67.5 79t80 69q84 59 141.5 108.5t92.5 95.5t50 91t15 99q0 20 -1 42.5t-1 51.5q35 6 67 12t64 10q4 -35 6.5 -65.5t2.5 -59.5q0 -68 -16.5 -124t-52.5 -107t-92.5 -102.5t-138.5 -110.5q-41 -29 -73.5 -56.5t-56 -56t-37 -60.5 t-13.5 -71q0 -80 51.5 -114.5t147.5 -34.5q51 0 112.5 8t122.5 27q6 47 11.5 93t9.5 93h125q-8 -74 -17.5 -146.5t-17.5 -146.5q-98 -35 -196.5 -50t-176.5 -15q-174 0 -257 65.5t-83 183.5zM481 899q0 51 37 84t80 33q41 0 66.5 -26.5t25.5 -65.5q0 -47 -33 -83t-84 -36 q-41 0 -66.5 26.5t-25.5 67.5z" />
<glyph unicode="&#x192;" d="M18 -223l33 110q84 -14 135 -14q104 0 162 80t90 262q27 152 43.5 244t23.5 143t10 71.5t3 26.5h-176l6 109h187q0 2 3 19.5t6 39t6 40t3 20.5q12 92 36.5 174t70 143.5t113 97t167.5 35.5q39 0 84 -6t98 -22l-32 -121q-35 10 -67 13t-60 3q-47 0 -86 -13t-71 -47 t-54.5 -93.5t-36.5 -151.5q0 -2 -3 -21.5t-6.5 -44t-6.5 -44t-3 -21.5h199l-6 -109h-211l-47 -299q-18 -113 -41 -229.5t-67 -210.5t-117.5 -153.5t-196.5 -59.5q-39 0 -89 6t-102 23z" />
<glyph unicode="&#x2c6;" horiz-adv-x="1001" d="M233 1149l334 291h109l266 -289l-51 -59l-283 204l-332 -204z" />
<glyph unicode="&#x2da;" horiz-adv-x="1001" d="M399 1346q6 43 25.5 82.5t52.5 69.5t75 47.5t91 17.5q43 0 80 -17.5t61.5 -47.5t35.5 -68.5t5 -83.5q-4 -45 -24.5 -84t-53 -69t-72.5 -46.5t-85 -16.5q-92 0 -146.5 62.5t-44.5 153.5zM489 1341q-6 -53 23 -91t88 -38q53 0 91 38t44 91q8 53 -21.5 92.5t-82.5 39.5 q-57 0 -96 -38t-46 -94z" />
<glyph unicode="&#x2dc;" horiz-adv-x="1001" d="M285 1219q35 72 85 112.5t107 40.5q37 0 75 -12t74 -26.5t69.5 -27t60.5 -12.5l123 80l47 -45q-29 -68 -79.5 -111.5t-109.5 -43.5q-45 0 -84 12t-72.5 27.5t-64.5 27.5t-57 12l-123 -79z" />
<glyph unicode="&#x401;" horiz-adv-x="1142" d="M31 0l14 125h133l141 1151h-126l14 125h960l-39 -318h-129l25 193h-537l-59 -481l518 10l-14 -137l-518 8l-68 -551h578l24 197h133l-39 -322h-1011zM467 1579q2 41 36 70.5t68 29.5q41 0 65.5 -22.5t22.5 -59.5q-2 -45 -33.5 -74.5t-72.5 -29.5q-39 0 -62.5 24.5 t-23.5 61.5zM840 1577q2 43 31.5 72.5t68.5 29.5q41 0 65.5 -22.5t22.5 -59.5q-2 -45 -32.5 -74.5t-77.5 -29.5q-37 0 -58.5 23.5t-19.5 60.5z" />
<glyph unicode="&#x402;" horiz-adv-x="1505" d="M131 1085l37 316h1178l-39 -316h-129l22 191h-442l-60 -496q102 41 196.5 60.5t170.5 19.5q180 0 271 -98t91 -264q0 -125 -40.5 -233.5t-107.5 -199t-151 -160t-170 -118.5l-53 90q76 53 139.5 115.5t109.5 135.5t71.5 155t25.5 172q0 141 -61.5 204.5t-183.5 63.5 q-70 0 -154 -16.5t-170 -51.5l-66 -530h152l-14 -125h-455l14 125h138l141 1151h-307l-23 -191h-131z" />
<glyph unicode="&#x403;" horiz-adv-x="1087" d="M31 0l14 125h133l141 1151h-126l14 125h962l-39 -318h-129l25 193h-539l-141 -1151h191l-15 -125h-491zM631 1552l364 240l72 -127l-391 -186z" />
<glyph unicode="&#x404;" horiz-adv-x="1132" d="M125 545q0 82 10 178t39 194.5t78 189.5t126 161.5t184.5 112.5t254.5 42q111 0 195 -16t143 -39q-10 -80 -19.5 -160t-19.5 -159h-131l27 206q-41 12 -95.5 20.5t-111.5 8.5q-98 0 -179 -35t-141.5 -99.5t-101.5 -154.5t-61 -200l561 12l-13 -139l-563 8 q-2 -23 -3 -44.5t-1 -43.5q0 -96 18.5 -180t63.5 -146.5t122 -98.5t195 -36q27 0 65 3t81 8t88 14.5t88 21.5l27 -125q-37 -14 -86.5 -26.5t-102.5 -20.5t-107.5 -12t-101.5 -4q-141 0 -240.5 37.5t-164 109.5t-94 175.5t-29.5 236.5z" />
<glyph unicode="&#x405;" horiz-adv-x="1085" d="M35 90l33 275h131l-25 -181q66 -35 143.5 -48t145.5 -13q168 0 271.5 69.5t103.5 208.5q0 61 -21.5 100.5t-61.5 67t-95.5 46t-122.5 36.5q-80 23 -147.5 49.5t-117 65.5t-78 95.5t-28.5 137.5q0 104 39 184.5t104.5 133.5t153.5 79.5t186 26.5q39 0 88 -4t100.5 -14 t100.5 -25.5t90 -40.5l-35 -276h-131l25 184q-63 25 -122 33t-118 8q-61 0 -116.5 -16.5t-98.5 -49t-67.5 -84t-24.5 -118.5q0 -51 24.5 -87t63.5 -62.5t89 -45t99 -34.5q74 -23 147 -46.5t129 -61.5t91 -99.5t35 -159.5q0 -119 -45 -202t-122 -136t-178.5 -77.5 t-211.5 -24.5q-109 0 -221.5 23.5t-204.5 82.5z" />
<glyph unicode="&#x406;" horiz-adv-x="700" d="M88 0l14 125h125l142 1151h-125l14 127h422l-14 -127h-129l-142 -1151h129l-14 -125h-422z" />
<glyph unicode="&#x407;" horiz-adv-x="700" d="M88 0l14 125h125l142 1151h-125l14 127h422l-14 -127h-129l-142 -1151h129l-14 -125h-422zM199 1606q2 43 35.5 72.5t68.5 29.5q41 0 66.5 -22.5t23.5 -63.5q-2 -45 -32.5 -74.5t-77.5 -29.5q-39 0 -62.5 24.5t-21.5 63.5zM573 1606q2 43 34 72.5t69 29.5 q41 0 65.5 -22.5t22.5 -63.5q0 -45 -32 -74.5t-79 -29.5q-39 0 -60.5 24.5t-19.5 63.5z" />
<glyph unicode="&#x408;" horiz-adv-x="710" d="M-131 -244q111 43 182.5 92.5t115.5 108.5t65.5 131t33.5 162l127 1026h-203l15 127h553l-15 -127h-180l-125 -1002q-16 -131 -52 -234t-100.5 -181t-158.5 -132.5t-227 -86.5z" />
<glyph unicode="&#x409;" horiz-adv-x="1906" d="M-29 94q123 47 201 120t129 189.5t83 283.5t60 405l23 182h-172l14 129h1018l-14 -127h-142l-57 -453h307q102 0 179 -28.5t127.5 -77.5t75 -117t24.5 -143q0 -113 -38 -199t-102.5 -143.5t-147.5 -86t-175 -28.5h-651l14 125h133l144 1151l-381 -2l-17 -148 q-18 -152 -39.5 -291t-52.5 -261.5t-73 -226t-103.5 -181.5t-143 -129t-192.5 -70zM1028 125h326q61 0 117.5 20.5t97.5 61.5t65.5 102.5t24.5 143.5q0 63 -21.5 110t-58.5 77t-87 44t-108 14h-284z" />
<glyph unicode="&#x40a;" horiz-adv-x="1943" d="M33 0l12 125h129l141 1151h-127l15 125h420l-15 -125h-123l-57 -459h551l55 459h-133l14 127h445l-14 -127h-144l-55 -455h305q102 0 179 -28.5t127 -77.5t76 -116t26 -142q0 -111 -38 -197t-102.5 -143.5t-147.5 -87t-175 -29.5h-652l15 125h133l70 571h-549l-70 -571 h123l-14 -125h-420zM1061 125h325q61 0 117 20.5t97.5 61.5t65.5 102.5t24 143.5q0 63 -21.5 110t-58.5 76t-87 43t-106 14h-287z" />
<glyph unicode="&#x40b;" horiz-adv-x="1626" d="M137 1085l39 316h1174l-37 -316h-129l22 191h-438l-61 -492q100 37 196 55.5t180 18.5q182 0 275.5 -76.5t71.5 -242.5l-52 -414h127l-14 -125h-422l14 125h125l47 373q16 129 -44 178t-191 49q-84 0 -173 -21.5t-157 -52.5l-65 -526h139l-14 -125h-439l15 125h133 l143 1151h-311l-23 -191h-131z" />
<glyph unicode="&#x40c;" horiz-adv-x="1249" d="M31 0l14 125h125l141 1151h-125l15 125h420l-15 -125h-127l-141 -1151h127l-14 -125h-420zM479 707l4 49l480 571q41 51 76.5 70.5t80.5 17.5q86 0 162 -41l-18 -102l-177 -19l-450 -524l354 -592l183 -18l2 -103q-41 -18 -91.5 -25t-85.5 -7q-49 -2 -83.5 15t-61.5 60z M659 1559l365 239l72 -127l-391 -186z" />
<glyph unicode="&#x40e;" horiz-adv-x="1179" d="M137 1276q4 31 7 62.5t8 62.5h413q-4 -31 -7 -62.5t-7 -62.5h-133q33 -111 64.5 -216.5t62.5 -215.5l98 -326h10q33 74 65 145.5t66 145.5l209 467h-131q4 31 7 62.5t8 62.5h409q-4 -31 -7 -62.5t-7 -62.5h-113l-500 -1086q-27 -57 -52 -98t-56 -67.5t-71 -39t-93 -12.5 q-41 0 -94 6.5t-135 26.5l32 119q49 -10 91.5 -16.5t74.5 -6.5q47 0 86 30t74 108l74 161h-62l-280 875h-111zM442 1720l101 70q47 -78 103 -124t114 -46q18 0 44.5 3t62.5 18.5t84 47t110 87.5l47 -52q-102 -129 -197.5 -181t-173.5 -52q-53 0 -96 19.5t-79 51t-65.5 73.5 t-54.5 85z" />
<glyph unicode="&#x40f;" horiz-adv-x="1396" d="M29 0q4 31 7 62.5t7 62.5h127l143 1151h-129l17 123h422q-4 -31 -7.5 -61.5t-7.5 -61.5h-125l-143 -1151h637l143 1151h-125l17 123h422q-4 -31 -7.5 -61.5t-7.5 -61.5h-129l-141 -1151h129q-4 -31 -7 -62.5t-7 -62.5h-549q-12 -88 -23.5 -175t-21.5 -177h-135 q12 90 23 177t22 175h-551z" />
<glyph unicode="&#x410;" horiz-adv-x="1327" d="M-12 0q8 59 12 125h117q135 311 281.5 639t283.5 639h209l252 -1278h108l-14 -125h-418q4 31 7 62.5t8 62.5h137q-12 66 -24.5 131.5t-22.5 130.5h-529l-112 -262h141l-14 -125h-422zM453 518h448q-27 150 -53.5 298.5t-54.5 297.5q-4 35 -11.5 69t-11.5 68h-6 q-2 -4 -4 -11t-8.5 -22.5t-16.5 -41t-28 -64.5z" />
<glyph unicode="&#x411;" horiz-adv-x="1220" d="M23 0l12 125h137l143 1151h-125l15 125h923l-36 -299h-131l22 174h-500l-57 -453h307q102 0 179 -28.5t127.5 -77.5t75 -117t24.5 -143q0 -113 -38 -199t-102.5 -143.5t-147.5 -86t-175 -28.5h-653zM342 125h324q61 0 117.5 20.5t97.5 62.5t65.5 103.5t24.5 143.5 q0 63 -21.5 109t-58.5 76t-87 44t-108 14h-284z" />
<glyph unicode="&#x412;" horiz-adv-x="1228" d="M29 0q4 33 7 63.5t7 63.5h137q35 289 71 573.5t71 575.5h-129q4 31 7 62.5t7 62.5h618q186 0 272.5 -87t86.5 -227q0 -100 -50.5 -196t-181.5 -158q57 -18 96 -51t62 -75t32 -88t9 -89q0 -109 -38 -188.5t-99.5 -134t-140 -81t-160.5 -26.5h-684zM348 127h318 q80 0 138 23.5t96 64.5t56.5 97.5t18.5 121.5q0 45 -14.5 87t-44 74t-75.5 50.5t-108 18.5h-319zM430 786h283q70 0 126 21.5t95 58.5t59.5 88.5t20.5 112.5q0 92 -56.5 150.5t-183.5 58.5h-282q-16 -123 -31 -245t-31 -245z" />
<glyph unicode="&#x413;" horiz-adv-x="1087" d="M31 0l14 125h133l141 1151h-126l14 125h962l-39 -318h-129l25 193h-539l-141 -1151h191l-15 -125h-491z" />
<glyph unicode="&#x414;" horiz-adv-x="1400" d="M-37 -342l55 467h109q80 68 139.5 178.5t102.5 248.5t72.5 298t52.5 328l10 98h-137l14 125h1030l-14 -125h-129l-144 -1151h136l-58 -467h-131l43 342h-975l-43 -342h-133zM322 125h636l142 1151h-447l-14 -107q-23 -188 -49.5 -340.5t-62 -279.5t-86 -230.5 t-119.5 -193.5z" />
<glyph unicode="&#x415;" horiz-adv-x="1142" d="M31 0l14 125h133l141 1151h-126l14 125h960l-39 -318h-129l25 193h-537l-59 -481l518 10l-14 -137l-518 8l-68 -551h578l24 197h133l-39 -322h-1011z" />
<glyph unicode="&#x416;" horiz-adv-x="1830" d="M-14 14q2 27 3 51.5t5 51.5q45 4 85 10t87 10q119 152 241.5 301.5t241.5 300.5l-327 514l-175 19q-2 27 -2 51.5v50.5q41 18 92.5 30.5t92.5 12.5q59 0 94 -53l391 -619l-6 -49l-524 -639q-37 -47 -73 -60t-71 -13t-78 8t-77 22zM659 0l15 125h125q35 289 70.5 574.5 t70.5 576.5h-125q4 31 7 62.5t7 62.5h418l-14 -125h-127l-143 -1151h129q-4 -31 -7.5 -62.5t-7.5 -62.5h-418zM1092 702q2 12 3 24.5t1 25.5l514 604q29 33 57.5 46t67.5 13q43 0 84 -12t79 -29l-18 -102l-182 -19l-447 -528l326 -588l180 -20l4 -103q-41 -16 -90 -23 t-84 -7q-55 0 -93 24.5t-73 85.5z" />
<glyph unicode="&#x417;" horiz-adv-x="1128" d="M25 72l53 121q104 -35 196.5 -46.5t151.5 -11.5q211 0 321.5 83t110.5 245q0 55 -23.5 99t-65.5 75t-98.5 47t-123.5 16h-166q4 29 7 61t7 62h158q80 0 144.5 20.5t108.5 57.5t68.5 86t24.5 105q0 55 -20.5 93t-57.5 61.5t-89 33.5t-116 10q-72 0 -144.5 -14t-131.5 -39 l-25 -217h-133q10 78 18.5 156.5t18.5 158.5q88 41 204 64.5t224 23.5q94 0 172 -18.5t135.5 -56t89 -96t31.5 -138.5q0 -127 -73.5 -218t-196.5 -132q106 -35 166.5 -114t60.5 -185q0 -121 -49 -209t-131 -147.5t-186.5 -88t-214.5 -28.5q-123 0 -229.5 19.5t-196.5 60.5z " />
<glyph unicode="&#x418;" horiz-adv-x="1431" d="M27 0q4 31 7 62.5t7 62.5h137l141 1151h-133q4 31 7.5 61.5t7.5 61.5h436q-4 -31 -7 -61.5t-7 -61.5h-140l-110 -899h4l780 840l8 59h-161q4 31 7 61.5t7 61.5h459q-4 -31 -7.5 -61.5t-7.5 -61.5h-135l-143 -1151h137q-4 -31 -7 -62.5t-7 -62.5h-439q4 31 7.5 62.5 t7.5 62.5h137q29 227 56.5 452.5t56.5 452.5h-7q-197 -211 -388 -422t-388 -422l-8 -61h133q-4 -31 -7 -62.5t-7 -62.5h-434z" />
<glyph unicode="&#x419;" horiz-adv-x="1431" d="M27 0q4 31 7 62.5t7 62.5h137l141 1151h-133q4 31 7.5 61.5t7.5 61.5h436q-4 -31 -7 -61.5t-7 -61.5h-140l-110 -899h4l780 840l8 59h-161q4 31 7 61.5t7 61.5h459q-4 -31 -7.5 -61.5t-7.5 -61.5h-135l-143 -1151h137q-4 -31 -7 -62.5t-7 -62.5h-439q4 31 7.5 62.5 t7.5 62.5h137q29 227 56.5 452.5t56.5 452.5h-7q-197 -211 -388 -422t-388 -422l-8 -61h133q-4 -31 -7 -62.5t-7 -62.5h-434zM561 1761l101 70q47 -78 103 -124t114 -46q18 0 44.5 3t62.5 18.5t84 47t110 87.5l47 -52q-102 -129 -197.5 -181t-173.5 -52q-53 0 -96 19.5 t-79 52t-65.5 73.5t-54.5 84z" />
<glyph unicode="&#x41a;" horiz-adv-x="1249" d="M31 0l14 125h125l141 1151h-125l15 125h420l-15 -125h-127l-141 -1151h127l-14 -125h-420zM479 707l4 49l480 571q41 51 76.5 70.5t80.5 17.5q86 0 162 -41l-18 -102l-177 -19l-450 -524l354 -592l183 -18l2 -103q-41 -18 -91.5 -25t-85.5 -7q-49 -2 -83.5 15t-61.5 60z " />
<glyph unicode="&#x41b;" horiz-adv-x="1355" d="M-27 98q123 47 201 120t128 187.5t82 281.5t60 405l23 182h-172l14 129h1065l-14 -127h-129l-141 -1149h129l-15 -127h-420l15 127h121l141 1147h-438l-17 -148q-29 -227 -64.5 -426.5t-100 -354.5t-169 -254t-270.5 -126z" />
<glyph unicode="&#x41c;" horiz-adv-x="1726" d="M29 0q4 31 7 62.5t7 62.5h127q35 289 70.5 574.5t70.5 576.5h-127l17 125h321q61 -195 122 -400.5t128 -416.5l74 -240h12l129 240q12 25 48 89t82 148t97.5 178.5t96.5 177.5t78.5 143t44.5 81h331l-16 -125h-123l-141 -1151h123q-4 -31 -7.5 -62.5t-7.5 -62.5h-411 q4 31 7 62.5t7 62.5h125l123 1008h-4q-29 -53 -56.5 -105.5t-56.5 -105.5q-106 -188 -206.5 -375t-213.5 -389h-151l-109 346q-35 106 -67.5 213.5t-65.5 218.5l-59 197h-6q-29 -254 -60 -504t-61 -504h129q-4 -31 -7.5 -62.5t-7.5 -62.5h-413z" />
<glyph unicode="&#x41d;" horiz-adv-x="1396" d="M31 0l14 127h127l141 1149h-127l15 127h422l-15 -127h-125l-59 -475h637l59 475h-123l15 127h424l-15 -127h-129l-141 -1149h127l-12 -127h-424l14 127h123l68 545h-637l-68 -545h125l-14 -127h-422z" />
<glyph unicode="&#x41e;" horiz-adv-x="1347" d="M125 532q0 164 37 324t116.5 286t207 203.5t305.5 77.5q141 0 237 -45t153.5 -122.5t82 -182t24.5 -223.5q0 -180 -42 -338t-124 -275.5t-202.5 -185t-278.5 -67.5q-139 0 -236.5 37.5t-160 109.5t-91 173.5t-28.5 227.5zM297 530q0 -205 82 -309t266 -104 q125 0 214 61.5t146.5 163.5t83 235.5t25.5 276.5q0 86 -13.5 165t-50 139.5t-100.5 97t-162 36.5q-141 0 -235 -69.5t-151.5 -180t-81 -245.5t-23.5 -267z" />
<glyph unicode="&#x41f;" horiz-adv-x="1396" d="M31 0l14 127h127l139 1145h-127l17 131h1235l-17 -131h-129l-139 -1145h127l-12 -127h-424l14 127h123l139 1145h-637l-139 -1145h125l-14 -127h-422z" />
<glyph unicode="&#x420;" horiz-adv-x="1134" d="M31 0l14 125h127l141 1151h-127l15 127h573q174 0 275.5 -89t101.5 -270q0 -76 -23.5 -158.5t-78 -151t-142.5 -114t-217 -45.5h-295l-55 -450h170l-14 -125h-465zM412 698h262q51 0 104 17.5t97.5 56.5t72 103.5t27.5 156.5q0 123 -62.5 183.5t-167.5 60.5h-264z" />
<glyph unicode="&#x421;" horiz-adv-x="1132" d="M125 545q0 82 10 178t39 194.5t78 189.5t126 161.5t184.5 113.5t254.5 43q111 0 196 -17t144 -40l-39 -328h-131l27 217q-41 10 -95.5 19.5t-111.5 9.5q-127 0 -221 -54t-157.5 -151.5t-95.5 -232.5t-32 -295q0 -96 21.5 -174t69.5 -133.5t125 -86t188 -30.5q27 0 64.5 2 t80.5 8t88 15.5t88 21.5l25 -127q-37 -14 -86.5 -26.5t-102.5 -20.5t-106.5 -13t-100.5 -5q-141 0 -241.5 38.5t-165 110.5t-94 176.5t-29.5 235.5z" />
<glyph unicode="&#x422;" horiz-adv-x="1099" d="M111 1067l41 336h1036l-39 -336h-131l24 209h-303l-141 -1151h166l-14 -125h-494l14 125h162l141 1151h-309l-24 -209h-129z" />
<glyph unicode="&#x423;" horiz-adv-x="1179" d="M137 1276q4 31 7 62.5t8 62.5h413q-4 -31 -7 -62.5t-7 -62.5h-133q33 -111 64.5 -216.5t62.5 -215.5l98 -326h10q33 74 65 145.5t66 145.5l209 467h-131q4 31 7 62.5t8 62.5h409q-4 -31 -7 -62.5t-7 -62.5h-113l-500 -1086q-27 -57 -52 -98t-56 -67.5t-71 -39t-93 -12.5 q-41 0 -94 6.5t-135 26.5l32 119q49 -10 91.5 -16.5t74.5 -6.5q47 0 86 30t74 108l74 161h-62l-280 875h-111z" />
<glyph unicode="&#x424;" horiz-adv-x="1587" d="M111 627q0 119 48 225t139 187t222 131.5t297 58.5l6 49h-121l17 123h407l-16 -123h-119l-6 -51q145 -6 251.5 -44t175.5 -98.5t102.5 -137.5t33.5 -161q0 -121 -50 -225t-140 -184t-217 -128t-283 -56q-4 -18 -5 -35t-3 -35h119l-13 -123h-409l14 123h121l10 70 q-291 12 -436 128.5t-145 305.5zM268 633q0 -84 32 -141.5t89 -95.5t138 -57.5t180 -25.5l94 795q-131 -8 -230.5 -48t-167 -104.5t-101.5 -147.5t-34 -175zM872 313q113 6 207.5 43t163 97.5t106 142.5t37.5 182q0 63 -20 120.5t-69.5 103t-129 73t-198.5 33.5 q-12 -109 -24.5 -206t-24 -191.5t-22.5 -191.5t-26 -206z" />
<glyph unicode="&#x425;" horiz-adv-x="1265" d="M-14 0l14 127h96l459 614l-258 535h-127l14 127h441l-15 -127h-131l205 -428l328 428h-125l14 127h432l-14 -127h-117l-428 -549l293 -600h127l-14 -127h-455l14 127h142l-238 485l-360 -485h159l-14 -127h-442z" />
<glyph unicode="&#x426;" horiz-adv-x="1396" d="M27 0q4 31 7 62.5t7 62.5h129q35 289 70.5 574.5t70.5 576.5h-127q4 31 7.5 61.5t7.5 61.5h422q-4 -31 -7.5 -61.5t-7.5 -61.5h-125l-143 -1151h637l143 1151h-123q4 31 7.5 61.5t7.5 61.5h422q-4 -31 -7.5 -61.5t-7.5 -61.5h-129q-35 -291 -70.5 -576.5t-70.5 -574.5 h139q-14 -117 -28.5 -232.5t-26.5 -232.5h-133q12 86 22 170t21 170h-1114z" />
<glyph unicode="&#x427;" horiz-adv-x="1312" d="M139 1274q4 31 7.5 62.5t7.5 62.5h421q-4 -31 -7 -62.5t-7 -62.5h-127l-43 -350q-16 -129 53.5 -176.5t214.5 -47.5q78 0 163 15.5t151 44.5l63 514h-121q4 31 7.5 62.5t7.5 62.5h420q-4 -31 -7.5 -62.5t-7.5 -62.5h-131l-143 -1149h133q-4 -31 -7 -62.5t-7 -62.5h-424 q4 31 7 62.5t7 62.5h125l61 500q-98 -35 -191 -47.5t-175 -12.5q-92 0 -166 19.5t-123 57.5t-71.5 97.5t-12.5 141.5l49 393h-127z" />
<glyph unicode="&#x428;" horiz-adv-x="1904" d="M31 0l14 125h127l141 1151h-127l15 125h417l-14 -125h-123l-143 -1151h496l141 1151h-121l14 125h414l-14 -125h-125l-142 -1151h490l141 1151h-123l15 125h420l-15 -125h-129l-141 -1151h129l-14 -125h-1743z" />
<glyph unicode="&#x429;" horiz-adv-x="1904" d="M31 0l14 125h127l141 1151h-127l15 125h417l-14 -125h-123l-143 -1151h496l141 1151h-121l14 125h414l-14 -125h-125l-142 -1151h490l141 1151h-123l15 125h420l-15 -125h-129l-141 -1151h137l-57 -467h-131l43 342h-1620z" />
<glyph unicode="&#x42a;" horiz-adv-x="1521" d="M106 1038l46 363h776l-17 -125h-127l-57 -453h307q102 0 179 -28.5t127.5 -77.5t75 -115.5t24.5 -142.5q0 -115 -38 -200t-102.5 -143.5t-147.5 -87t-175 -28.5h-653l12 125h137l141 1151h-348l-30 -238h-130zM643 125h324q61 0 117.5 20.5t97.5 62.5t65.5 103.5 t24.5 143.5q0 63 -21.5 109t-58.5 76t-87 44t-106 14h-286z" />
<glyph unicode="&#x42b;" horiz-adv-x="1755" d="M31 0l14 125h137l142 1151h-138l15 127h448l-16 -127h-141l-56 -453h305q102 0 179 -28.5t127.5 -77.5t75 -115.5t24.5 -142.5q0 -113 -38 -199t-102.5 -143.5t-147.5 -87t-175 -29.5h-653zM350 125h324q61 0 117.5 20.5t97.5 62.5t65.5 103.5t24.5 143.5q0 63 -21.5 109 t-58.5 76t-87 44t-105 14h-287zM1192 0l14 125h125l144 1151h-127l14 125h424l-14 -125h-130l-141 -1151h129l-14 -125h-424z" />
<glyph unicode="&#x42c;" horiz-adv-x="1239" d="M41 0l14 125h138l141 1151h-137l14 127h448l-16 -127h-141l-56 -453h306q102 0 179 -28.5t127 -77.5t75.5 -115.5t25.5 -142.5q0 -115 -38 -200t-102.5 -143.5t-148.5 -87t-176 -28.5h-653zM360 125h324q61 0 117.5 20.5t97.5 62.5t65.5 103.5t24.5 143.5q0 63 -21.5 109 t-58.5 76t-87 44t-105 14h-287z" />
<glyph unicode="&#x42d;" horiz-adv-x="1134" d="M27 47l49 127q78 -25 156.5 -38t146.5 -13q129 0 223 45t157.5 121t99.5 175t46 210l-526 -8l18 139l523 -12q6 49 6 96q0 182 -87 289.5t-276 107.5q-59 0 -125.5 -10t-109.5 -23q-6 -53 -13.5 -104t-11.5 -105h-131l39 320q68 23 163 41t206 18q152 0 251 -45 t157.5 -121.5t82 -178t23.5 -212.5q0 -182 -41 -341.5t-127 -279.5t-220.5 -189.5t-318.5 -69.5q-94 0 -194.5 16t-165.5 45z" />
<glyph unicode="&#x42e;" horiz-adv-x="1863" d="M29 0l14 127h127l143 1149h-129l17 123h430l-15 -123h-133q-16 -121 -30.5 -238.5t-28.5 -238.5h281q25 123 68.5 235.5t117.5 198.5t179.5 138t252.5 52q135 0 227 -44t150.5 -120.5t84 -180t25.5 -222.5q0 -184 -40.5 -343t-119.5 -275.5t-196 -184t-270 -67.5 q-258 0 -378 137t-126 379q0 41 1 82t5 86q-70 0 -138.5 1t-139.5 1l-68 -545h125l-14 -127h-422zM848 520q0 -201 79 -303t263 -102q121 0 207 61.5t140 164.5t79.5 238.5t25.5 280.5q0 84 -16 162t-54 137.5t-100.5 95t-156.5 35.5q-137 0 -227.5 -70.5t-143.5 -182 t-74.5 -249t-21.5 -268.5z" />
<glyph unicode="&#x42f;" horiz-adv-x="1265" d="M-25 10l11 99l149 18l305 508q-70 14 -115.5 50t-72.5 81t-38 96t-11 101q0 113 35.5 195.5t99 137t148.5 81t182 26.5h596l-15 -127h-127l-141 -1151h133l-14 -125h-445l15 125h141l59 485h-270l-305 -518q-29 -53 -57.5 -80.5t-92.5 -27.5q-33 0 -84 7t-86 19zM377 954 q0 -70 24.5 -112.5t61.5 -67t82 -33t86 -8.5h256l65 543h-282q-59 0 -111.5 -19.5t-93.5 -58.5t-64.5 -100.5t-23.5 -143.5z" />
<glyph unicode="&#x430;" horiz-adv-x="1116" d="M82 330q0 137 31.5 262t96 218t160 148.5t222.5 55.5q57 0 115.5 -14.5t123.5 -38.5l52 55l98 -6q-18 -119 -36.5 -241t-34 -236.5t-29 -218t-19.5 -185.5q43 4 88 21.5t88 42.5q10 -18 19.5 -35t19.5 -35q-29 -29 -64.5 -55.5t-70.5 -47t-68.5 -32t-60.5 -11.5 q-63 0 -85.5 38t-22.5 94q0 47 6 94t16 98h-10q-43 -96 -91 -157.5t-97.5 -97.5t-97.5 -50t-93 -14q-115 0 -185.5 85t-70.5 263zM248 352q0 -123 40.5 -183t108.5 -60q39 0 83 22.5t90 76.5t93.5 143t90.5 222l43 267q-63 25 -116.5 34t-90.5 9q-100 0 -167 -54.5 t-105.5 -134.5t-54 -173t-15.5 -169z" />
<glyph unicode="&#x431;" horiz-adv-x="1028" d="M90 365q0 45 5 108.5t13.5 133t19.5 140t26 134.5q20 92 48.5 178t70.5 157.5t100.5 125t138.5 79.5q41 14 93 22.5t109.5 15.5t117 13.5t114.5 18.5l23 -121q-86 -20 -161 -28.5t-118 -12.5q-90 -8 -157.5 -42t-116.5 -99.5t-84 -170t-62 -253.5l9 -8q49 86 101 137 t101 77.5t93 34t77 7.5q66 0 122 -21.5t98 -66.5t67 -115t25 -168q0 -102 -27 -217t-87.5 -212t-157.5 -161.5t-238 -64.5q-104 0 -174 27.5t-112 77.5t-59.5 120t-17.5 154zM233 379q-2 -55 6.5 -104.5t33 -86t67.5 -58t111 -21.5q76 0 138 36.5t108 105t72 167t26 223.5 q0 70 -17.5 117t-45 74.5t-62.5 39t-70 11.5q-37 0 -82 -18.5t-91 -58.5t-91 -104.5t-84 -156.5q-6 -41 -11 -83t-8 -83z" />
<glyph unicode="&#x432;" horiz-adv-x="983" d="M47 66l66 540q8 92 38.5 169t83 132.5t128 86t176.5 30.5q78 0 138 -21.5t102 -59.5t63.5 -88t21.5 -105q0 -61 -32.5 -118t-94.5 -79l-4 -6q72 -14 115 -71.5t43 -131.5q0 -109 -45 -180.5t-113.5 -113.5t-150.5 -58.5t-158 -16.5q-31 0 -76 3.5t-95 11.5t-102.5 22.5 t-95.5 34.5zM207 133q25 -10 56.5 -16t63 -10.5t59.5 -6.5t46 -2q33 0 84 9.5t100.5 35t85 71.5t35.5 122q0 74 -54 119t-128 45h-147l12 102h147q66 0 103 35t37 100q0 55 -45.5 103.5t-122.5 48.5q-76 0 -125 -21.5t-81 -61.5t-48.5 -95.5t-24.5 -120.5z" />
<glyph unicode="&#x433;" horiz-adv-x="845" d="M55 221q0 68 31 122t79 97t108.5 78t123.5 64q39 18 83 39.5t79 48t58.5 57.5t23.5 66q0 33 -14.5 54t-36 33.5t-49 16.5t-54.5 4q-68 0 -140.5 -22.5t-149.5 -57.5l-45 97q76 47 173 76.5t199 29.5q121 0 199 -52t78 -157q0 -59 -28 -108.5t-77 -91.5t-118.5 -79.5 t-153.5 -74.5q-43 -18 -81 -41t-66.5 -50.5t-45 -61.5t-16.5 -72q0 -72 52 -102t132 -30q78 0 161 25t165 66l45 -93q-90 -61 -198.5 -89.5t-200.5 -28.5q-70 0 -128.5 13t-99.5 41t-64.5 73t-23.5 110z" />
<glyph unicode="&#x434;" horiz-adv-x="1091" d="M86 348q0 106 28.5 224t88 216.5t150.5 162t216 63.5q53 0 127 -11t140 -40q-2 86 -17.5 157.5t-47.5 122.5t-84 80t-128 29q-53 0 -119.5 -9.5t-167.5 -42.5l-30 111q84 37 163.5 54.5t157.5 17.5q102 0 182 -32t134.5 -100.5t82 -177t25.5 -260.5q-2 -106 -13 -216.5 t-36 -214t-66 -193.5t-103 -158t-147 -106.5t-198 -38.5q-102 0 -166.5 27.5t-103.5 76.5t-53.5 115.5t-14.5 142.5zM240 317q0 -106 45 -157t147 -51q180 0 281.5 179t113.5 552q-59 27 -124.5 35t-116.5 8q-90 0 -154.5 -51.5t-107.5 -132.5t-63.5 -182t-20.5 -200z" />
<glyph unicode="&#x435;" horiz-adv-x="946" d="M82 377q0 100 23.5 214t84 210t161.5 159.5t259 63.5q70 0 121 -19.5t85 -53t51.5 -80t17.5 -97.5q0 -94 -47 -160.5t-132 -109.5t-203 -66.5t-257 -31.5q-2 -12 -2 -25.5v-26.5q0 -43 8 -87t32.5 -78.5t67.5 -57t111 -22.5q78 0 152.5 18t150.5 53l37 -98 q-66 -41 -168.5 -68.5t-204.5 -27.5q-106 0 -174 30.5t-106.5 85t-53 125t-14.5 150.5zM254 508q231 10 353 69.5t122 178.5q0 61 -32.5 100t-108.5 39q-145 0 -229.5 -103.5t-104.5 -283.5z" />
<glyph unicode="&#x436;" horiz-adv-x="1605" d="M16 137l60 58q29 -27 58.5 -47.5t76.5 -34.5q23 18 64.5 64t95 108.5t111 135.5t110.5 144q-23 53 -59.5 107.5t-80.5 97.5t-94.5 70.5t-95.5 27.5q-25 0 -50.5 -4t-57.5 -20l-43 59q20 53 59.5 83t105.5 30q63 0 132 -45t130.5 -112.5t108.5 -147.5t70 -152l-8 -37 q-49 -78 -104.5 -152.5t-121.5 -160.5q-88 -117 -156.5 -175.5t-125.5 -58.5q-43 0 -90.5 31t-94.5 131zM649 893l6 84q66 18 124.5 31.5t113.5 13.5q33 0 53.5 -16.5t20.5 -49.5q0 -12 -8.5 -75.5t-20.5 -155.5t-26.5 -200.5t-29 -210t-25.5 -186.5t-15 -128h-164l117 872 q-37 4 -73 9.5t-73 11.5zM952 528l4 41q47 90 105.5 172t123 144.5t130.5 99.5t127 37q66 0 98.5 -32t36.5 -83l-55 -55q-31 14 -56.5 19.5t-48.5 5.5q-39 0 -83 -24t-88 -64.5t-87 -95t-80 -115.5q37 -74 78 -149t79 -139.5t68.5 -110.5t47.5 -60q49 12 85 33.5t68 48.5 l49 -56q-51 -72 -113.5 -120t-133.5 -48q-35 0 -77 47.5t-83 116.5q-27 45 -54.5 97.5t-54 104.5t-49 100.5t-37.5 84.5z" />
<glyph unicode="&#x437;" horiz-adv-x="890" d="M14 55l43 103q66 -27 136.5 -40.5t140.5 -13.5q59 0 114.5 13.5t97.5 41t67.5 71.5t25.5 106q0 43 -19.5 72.5t-50 47t-66.5 24.5t-69 7h-125l13 103h100q35 0 76 10t75.5 31.5t57 53.5t22.5 77q0 78 -62.5 111.5t-148.5 33.5q-43 0 -90 -8t-84 -25l-49 -204l-78 4 q-4 31 -6 61.5t-2 59v52t2 36.5q4 25 15.5 48t58.5 46q35 16 99.5 29.5t156.5 15.5q66 0 128 -13.5t110.5 -42t77 -72.5t28.5 -106q0 -66 -41 -133t-143 -102v-6q80 -20 127 -77.5t47 -141.5q0 -86 -37 -149.5t-100.5 -106.5t-145.5 -64.5t-174 -21.5q-94 0 -179 17t-149 52 z" />
<glyph unicode="&#x438;" horiz-adv-x="1167" d="M63 899l7 82q76 20 144.5 29.5t125.5 9.5q51 0 70.5 -17.5t19.5 -58.5q0 -20 -5 -73.5t-13.5 -124t-18.5 -150.5t-18 -152.5t-13.5 -129t-5.5 -81.5q0 -57 21.5 -86.5t71.5 -29.5q39 0 87 24.5t97 79.5t97 143.5t89 215.5q16 104 30.5 208.5t29.5 210.5h155 q-29 -211 -55.5 -428t-54.5 -442q47 4 86 16.5t80 34.5l38 -67q-70 -70 -143.5 -101.5t-120.5 -31.5q-59 0 -77.5 27.5t-18.5 86.5q0 45 7 103.5t13 103.5h-10q-45 -92 -99 -153.5t-107.5 -98.5t-102.5 -52t-84 -15q-106 0 -151.5 56t-45.5 148q0 29 4.5 76t12.5 126 t21.5 196.5t31.5 285.5q-47 6 -96 13.5t-99 15.5z" />
<glyph unicode="&#x439;" horiz-adv-x="1167" d="M63 899l7 82q76 20 144.5 29.5t125.5 9.5q51 0 70.5 -17.5t19.5 -58.5q0 -20 -5 -73.5t-13.5 -124t-18.5 -150.5t-18 -152.5t-13.5 -129t-5.5 -81.5q0 -57 21.5 -86.5t71.5 -29.5q39 0 87 24.5t97 79.5t97 143.5t89 215.5q16 104 30.5 208.5t29.5 210.5h155 q-29 -211 -55.5 -428t-54.5 -442q47 4 86 16.5t80 34.5l38 -67q-70 -70 -143.5 -101.5t-120.5 -31.5q-59 0 -77.5 27.5t-18.5 86.5q0 45 7 103.5t13 103.5h-10q-45 -92 -99 -153.5t-107.5 -98.5t-102.5 -52t-84 -15q-106 0 -151.5 56t-45.5 148q0 29 4.5 76t12.5 126 t21.5 196.5t31.5 285.5q-47 6 -96 13.5t-99 15.5zM362 1358l101 69q47 -78 103.5 -124t113.5 -46q18 0 45 3.5t62.5 18.5t84 47t109.5 87l47 -51q-102 -129 -197.5 -181.5t-173.5 -52.5q-53 0 -96 19.5t-79 52.5t-65.5 74t-54.5 84z" />
<glyph unicode="&#x43a;" horiz-adv-x="1042" d="M82 893l8 84q66 18 129.5 31.5t118.5 13.5q33 0 53.5 -16.5t20.5 -49.5q0 -12 -8.5 -75.5t-20.5 -155.5t-26.5 -200.5t-29 -210t-25.5 -186.5t-15 -128h-164l117 872zM391 530q0 10 1 20.5t3 20.5q47 90 109.5 172t132.5 143.5t139.5 98.5t130.5 37q63 0 98 -34t37 -81 l-59 -57q-31 16 -55.5 21.5t-48.5 5.5q-51 0 -98.5 -27t-91.5 -70t-85 -95t-80 -103q33 -63 79 -138t92 -141.5t83 -118t53 -65.5q47 12 87 35.5t69 46.5l53 -56q-57 -78 -124.5 -123t-133.5 -45q-23 0 -43 13.5t-44.5 43t-54.5 75t-71 106.5q-55 86 -102 170t-76 145z" />
<glyph unicode="&#x43b;" horiz-adv-x="1056" d="M14 14q133 242 259 479.5t259 493.5l173 27l20 -17q23 -236 50.5 -457t62.5 -399q72 10 147 58l39 -66q-25 -29 -53.5 -54.5t-60 -46t-63.5 -32.5t-61 -12q-47 0 -73.5 19.5t-38.5 84.5q-29 174 -48.5 347t-35.5 362h-8q-51 -106 -99.5 -205.5t-96.5 -198t-98 -197 t-106 -200.5h-159z" />
<glyph unicode="&#x43c;" horiz-adv-x="1404" d="M23 12q115 311 201.5 550t172.5 427q39 6 75 12.5t75 14.5l24 -21q23 -229 47.5 -411.5t53.5 -335.5l6 -2l80 190q63 158 120.5 291t118.5 262q39 6 76 12.5t76 14.5l18 -17q0 -248 4.5 -469t22.5 -391q72 8 149 58l39 -66q-51 -57 -117.5 -100t-123.5 -43q-43 0 -71 16 t-36 74q-10 57 -13 158.5t-3 207.5q0 72 2 154t6 176h-8q-41 -96 -75 -173t-67.5 -154.5t-71.5 -168t-89 -210.5q-33 -6 -65 -11.5t-64 -9.5l-23 14q-29 145 -57.5 332t-46.5 391h-10q-31 -86 -61 -169t-61.5 -175t-66.5 -198.5t-78 -241.5h-147z" />
<glyph unicode="&#x43d;" horiz-adv-x="1169" d="M63 899l7 82q76 20 144.5 29.5t125.5 9.5q47 0 69.5 -14.5t22.5 -51.5q0 -14 -3 -49t-9 -86t-14.5 -113.5t-16.5 -130.5h424l59 424h160q-29 -199 -56.5 -425t-53.5 -445q47 4 87 16.5t81 34.5l36 -67q-35 -37 -73.5 -61.5t-74.5 -41t-67.5 -23.5t-52.5 -7 q-57 0 -80.5 27.5t-23.5 80.5q0 41 12 136t33 249h-424q-12 -82 -22.5 -158.5t-18.5 -140t-14.5 -110t-8.5 -64.5h-159q8 72 37.5 288t70.5 582q-49 6 -98 13.5t-99 15.5z" />
<glyph unicode="&#x43e;" horiz-adv-x="1015" d="M82 377q0 111 26.5 224.5t86 206.5t155 152.5t232.5 59.5q102 0 173.5 -33t115.5 -89t63.5 -130t19.5 -156q0 -100 -23.5 -210.5t-81.5 -203t-154.5 -152.5t-243.5 -60q-104 0 -175 30.5t-114 84t-61.5 124t-18.5 152.5zM246 356q0 -49 10 -93t34.5 -78.5t67.5 -55 t109 -20.5q98 0 160.5 53t97.5 131t48 165t13 154q0 53 -9 103.5t-33.5 88.5t-66 61.5t-102.5 23.5q-102 0 -165.5 -56.5t-100.5 -138.5t-50 -174t-13 -164z" />
<glyph unicode="&#x43f;" horiz-adv-x="1171" d="M61 899l7 82q150 39 268 39q53 0 70.5 -16.5t17.5 -61.5q0 -43 -7 -107.5t-22 -142.5h8q47 94 102.5 157.5t111 100.5t103.5 52.5t83 15.5q57 0 96 -18.5t60.5 -50t30.5 -75t9 -94.5q0 -23 -4 -69.5t-13 -125.5t-21.5 -191.5t-30.5 -264.5q82 6 164 51q10 -16 19 -32.5 t20 -34.5q-72 -72 -148 -102.5t-123 -30.5q-55 0 -76.5 27.5t-21.5 78.5v24.5t4 30.5q23 195 35 311.5t18 181t8 91.5t2 43q0 49 -21.5 83t-70.5 34q-41 0 -88 -25.5t-97 -81t-98 -143.5t-87 -213l-58 -422h-161q33 252 59.5 462t48.5 406z" />
<glyph unicode="&#x440;" horiz-adv-x="1095" d="M-70 -426l15 123h145l139 1171l-196 31l6 82q70 18 140.5 28.5t129.5 10.5q43 0 66.5 -13.5t23.5 -48.5q0 -6 -2 -20t-5 -44t-10 -79t-15 -129h10q43 94 92 157.5t99 100.5t99.5 52.5t94.5 15.5q113 0 183.5 -86t70.5 -267q0 -143 -33 -267t-98.5 -215t-163.5 -143 t-227 -52q-47 0 -98.5 10t-104.5 26q-10 -80 -20.5 -160.5t-20.5 -160.5h184q-4 -31 -7 -61.5t-7 -61.5h-490zM303 152q61 -25 114.5 -33t90.5 -8q100 0 166.5 53t105.5 132t54.5 169t15.5 166q0 127 -41 186.5t-109 59.5q-39 0 -84 -23t-92 -76t-95 -142t-91 -222 q-8 -66 -17.5 -131.5t-17.5 -130.5z" />
<glyph unicode="&#x441;" horiz-adv-x="911" d="M82 348q0 63 8 139t29.5 150t58.5 143.5t94.5 122.5t138.5 85t189 32q76 0 130 -13.5t81 -23.5q33 -12 48 -28.5t15 -45.5v-12q0 -12 -6 -37.5t-15 -58.5t-21.5 -68t-24.5 -61l-86 6l10 192q-27 10 -64.5 16.5t-76.5 6.5q-86 0 -150.5 -43t-107.5 -115.5t-64.5 -167 t-21.5 -196.5q0 -53 11 -100.5t36.5 -82t69 -55t106.5 -20.5q72 0 139.5 15t145.5 46l37 -102q-68 -35 -163.5 -60.5t-191.5 -25.5q-98 0 -164.5 26.5t-108.5 73.5t-60.5 114.5t-20.5 147.5z" />
<glyph unicode="&#x442;" horiz-adv-x="1691" d="M61 901l7 80q78 23 144.5 32t123.5 9q51 0 71.5 -17.5t20.5 -52.5q0 -41 -9 -107.5t-22 -152.5h9q47 96 96 159.5t97 100.5t90 52.5t77 15.5q102 0 144 -53.5t46 -139.5q2 -18 0 -50t-6 -91l6 -2q41 90 91.5 154.5t100.5 105.5t96 60.5t79 19.5q109 0 153 -59.5 t44 -153.5q0 -23 -3.5 -64.5t-11.5 -119.5t-21.5 -198t-33.5 -294q82 2 164 51l39 -67q-68 -70 -137.5 -104.5t-122.5 -34.5q-61 0 -85 28.5t-24 81.5q0 10 1 25.5t3 31.5q23 195 36 310.5t19.5 180t7.5 91.5t1 43q0 49 -20.5 83t-69.5 34q-78 0 -168 -108.5t-168 -354.5 q-6 -51 -11.5 -88t-9.5 -79t-11 -101.5t-20 -157.5h-161l28 229q18 170 29.5 270.5t16 156t5.5 78t1 36.5q0 47 -20.5 81t-70.5 34q-39 0 -80.5 -24.5t-84.5 -80t-85 -143.5t-81 -213l-58 -424h-163q35 254 59 464t47 406z" />
<glyph unicode="&#x443;" horiz-adv-x="1032" d="M-225 -307l69 41q35 -41 78 -52.5t90 -11.5q86 0 184.5 52.5t206.5 175.5q-18 111 -43.5 248t-53 272t-53.5 252.5t-44 191.5l-152 -41l-26 70q70 66 133 94.5t96 28.5q41 0 59.5 -18.5t32.5 -69.5q8 -33 21.5 -90.5t28 -132t31 -160.5t31.5 -173t29.5 -170t24.5 -151 q66 92 119 208t91 230.5t58.5 216t20.5 164.5l-148 -39q-4 16 -9 35t-11 35q63 59 120.5 90t102.5 31q51 0 76 -29.5t25 -113.5q0 -115 -37 -259.5t-104.5 -295t-161 -295t-206 -257t-240.5 -181t-265 -68.5q-109 0 -155 43t-19 129z" />
<glyph unicode="&#x444;" horiz-adv-x="1349" d="M82 416q0 125 37 233.5t110.5 188.5t182 127t254.5 51l32 309l-196 31l6 82q76 18 146.5 28.5t117.5 10.5q96 0 96 -64q0 -12 -4 -55t-11 -99.5t-15.5 -121t-14.5 -121.5q244 -8 354.5 -125t110.5 -303q0 -121 -33.5 -226.5t-106.5 -186.5t-184.5 -131t-267.5 -58 l-34 -295h157l-12 -117h-467l14 117h152l35 295q-135 6 -223.5 43t-140.5 95t-73.5 134t-21.5 158zM233 414q0 -135 73 -218t249 -90l94 785q-115 -6 -193.5 -46t-127.5 -104.5t-72 -148.5t-23 -178zM711 106q117 6 196.5 44t128.5 100.5t71.5 145.5t22.5 177 q0 68 -16 124.5t-54 99.5t-99.5 67.5t-153.5 26.5z" />
<glyph unicode="&#x445;" horiz-adv-x="972" d="M35 61q0 4 1 9.5t1 9.5l358 416l-153 368l-158 -55l-35 74q72 68 132.5 99.5t101.5 31.5q37 0 62.5 -17.5t43.5 -64.5l127 -305q68 96 133.5 191t132.5 192h17l106 -90v-19l-340 -383l162 -385q47 4 90 21.5t84 42.5q12 -16 23.5 -31.5t25.5 -32.5q-74 -90 -144.5 -124 t-113.5 -34q-41 0 -64.5 20.5t-39.5 55.5q-37 78 -70 155t-74 181q-72 -106 -145 -210t-147 -208q-4 0 -8.5 -1t-8.5 -1z" />
<glyph unicode="&#x446;" horiz-adv-x="1183" d="M63 899l7 82q76 20 144.5 29.5t125.5 9.5q53 0 70.5 -18.5t17.5 -67.5q0 -23 -5 -76t-13.5 -122.5t-17.5 -147.5t-17 -148.5t-13.5 -126t-5.5 -80.5q0 -57 21.5 -86.5t71.5 -29.5q39 0 87 24.5t97 79.5t96 143.5t88 215.5l60 421q39 0 78.5 -1t78.5 -1 q-29 -211 -55.5 -428t-54.5 -442q47 2 92 18.5t86 40.5l65 -61q-37 -117 -72.5 -233.5t-70.5 -233.5h-123l-12 23q31 96 63.5 182t67.5 160l-6 4q-37 -27 -80 -38t-70 -11q-59 0 -77.5 27.5t-18.5 86.5q0 45 7 103.5t13 103.5h-10q-47 -98 -102 -159.5t-110.5 -97.5 t-103.5 -48t-81 -12q-98 0 -145.5 55t-47.5 147q0 16 1 39t6 62l63 583q-47 6 -96 13.5t-99 15.5z" />
<glyph unicode="&#x447;" horiz-adv-x="1165" d="M55 899q4 23 4 42.5t2 39.5q78 20 147 29.5t126 9.5q53 0 70.5 -17.5t17.5 -64.5q0 -29 -6 -81t-12.5 -109.5t-12.5 -106.5t-6 -72q0 -51 22.5 -82.5t67.5 -31.5q37 0 87 22.5t101.5 71.5t98.5 128t78 191l18 131h160l-105 -870q84 6 168 51l39 -67q-68 -68 -138.5 -102 t-123.5 -34q-63 0 -85.5 35t-22.5 101q0 55 7 120.5t17 133t21.5 130t17.5 111.5h-8q-41 -80 -94.5 -136t-108.5 -92t-105.5 -51.5t-82.5 -15.5q-111 0 -154 57.5t-43 155.5q0 23 4 66t10.5 93t12.5 99.5t10 83.5z" />
<glyph unicode="&#x448;" horiz-adv-x="1693" d="M63 901l7 82q78 20 145.5 29.5t124.5 9.5q47 0 67.5 -15.5t20.5 -56.5q0 -20 -4 -67t-10 -106.5t-13.5 -127t-15.5 -130t-14 -115t-9 -82.5q-4 -47 -5 -64.5t-1 -30.5q0 -49 21.5 -82.5t71.5 -33.5q78 0 168 108.5t167 355.5l50 426h163q-20 -166 -33.5 -284.5 t-22.5 -200.5t-13 -132t-7 -81t-3 -46v-26q0 -49 20 -82.5t70 -33.5q82 0 167 110.5t166 366.5l60 409h162q-33 -225 -60.5 -439t-52.5 -431q47 4 86 16.5t80 34.5q10 -16 19.5 -33.5t19.5 -33.5q-74 -72 -146.5 -102.5t-117.5 -30.5q-102 0 -103 90q0 45 7.5 114.5 t17.5 120.5h-8q-47 -96 -96.5 -158.5t-97.5 -99.5t-91 -51t-76 -14q-104 0 -146 52t-46 138q0 18 2 50t6 89h-8q-41 -90 -90.5 -153.5t-99.5 -103.5t-96 -58t-79 -18q-115 0 -156 64.5t-41 166.5q0 53 8.5 134t19.5 172t22.5 183.5t19.5 169.5z" />
<glyph unicode="&#x449;" horiz-adv-x="1705" d="M63 901l7 82q78 20 145.5 29.5t124.5 9.5q49 0 68.5 -16.5t19.5 -59.5q0 -20 -4 -66t-10 -105.5t-14.5 -126t-15.5 -130t-13 -116t-9 -80.5q-4 -47 -5 -64.5t-1 -30.5q0 -49 21.5 -82.5t71.5 -33.5q78 0 168 108.5t167 355.5q6 51 10.5 87t9.5 79t11 102.5t19 157.5h163 q-20 -166 -33.5 -284.5t-22.5 -200.5t-13 -132t-7 -81t-3 -46v-26q0 -49 20 -82.5t70 -33.5q39 0 79.5 24.5t83.5 79.5t85 144.5t83 216.5l58 421q41 0 80 -1t77 -1q-29 -211 -55 -428t-55 -442q47 2 92 18.5t88 40.5l64 -61l-144 -467h-123l-12 23q31 96 63.5 182t67.5 160 l-4 4q-37 -25 -80 -37t-70 -12q-57 0 -76.5 27.5t-19.5 86.5q0 45 7.5 103.5t13.5 103.5h-8q-47 -96 -96.5 -158.5t-96.5 -97.5t-90 -48t-76 -13q-96 0 -141 52t-51 138q0 18 2 50t6 89h-8q-41 -90 -90.5 -153.5t-99.5 -103.5t-96 -58t-79 -18q-115 0 -156 63t-41 166 q0 53 8.5 134t18.5 172t22.5 184.5t20.5 170.5z" />
<glyph unicode="&#x44a;" horiz-adv-x="1140" d="M23 731q14 88 27 143.5t33.5 86t51.5 42t78 11.5q6 0 39 -1t78 -2t97 -2t97 -3t76 -3.5t37 -1.5l27 -67q-27 -23 -64 -72t-72.5 -106.5t-64.5 -115.5t-37 -97l8 -2q51 68 104.5 113.5t102.5 73.5t94 39t82 11q117 0 180.5 -73.5t63.5 -204.5q0 -68 -25.5 -157t-86 -170 t-160 -136t-244.5 -55q-90 0 -151.5 21.5t-99.5 58t-54.5 85t-16.5 99.5q0 86 18.5 173t49.5 168t71.5 155.5t83.5 138.5l-253 -19l-89 -143zM393 260q0 -55 23.5 -87t54.5 -47t62.5 -18.5t48.5 -3.5q78 0 136 37t96 94.5t57.5 126t19.5 132.5q0 161 -141 161q-25 0 -64 -12 t-86 -45t-97 -90t-95 -148q-14 -55 -15 -100z" />
<glyph unicode="&#x44b;" horiz-adv-x="1533" d="M66 905v82q76 18 146.5 28.5t127.5 10.5q96 0 96 -70q0 -23 -5 -70.5t-12 -107t-16.5 -122t-17.5 -113.5h10q51 68 103.5 112.5t101.5 72.5t94 39t82 11q117 0 181.5 -73.5t64.5 -204.5q0 -70 -25.5 -159t-83 -168t-151.5 -133t-232 -54q-31 0 -73.5 3t-91 11t-96.5 22.5 t-91 34.5l-10 19q35 287 58.5 483.5t37.5 314.5zM338 143q51 -18 104.5 -25t89.5 -7q80 0 140.5 34.5t100.5 90t60.5 122t20.5 129.5q0 80 -36.5 123t-108.5 43q-27 0 -67 -13t-86 -47t-95 -91.5t-94 -147.5zM1122 90q0 12 1 25.5t3 27.5l111 856h162l-113 -868 q41 4 85 16.5t85 34.5l39 -67q-68 -70 -137.5 -105t-122.5 -35q-66 0 -89.5 33t-23.5 82z" />
<glyph unicode="&#x44c;" horiz-adv-x="1083" d="M55 905l2 82q76 18 145.5 28.5t129.5 10.5q94 0 94 -70q0 -23 -4 -70.5t-11.5 -107t-16.5 -122t-17 -113.5h8q51 68 103.5 112.5t102.5 72.5t95 39t82 11q117 0 180.5 -73.5t63.5 -204.5q0 -70 -25.5 -159t-83 -168t-152 -133t-231.5 -54q-31 0 -72.5 3t-90 11 t-97.5 22.5t-92 34.5l-8 19q35 287 58.5 483.5t35.5 314.5zM330 143q51 -18 104 -25t88 -7q80 0 140.5 34.5t100.5 90t60.5 122t20.5 129.5q0 80 -36 123t-108 43q-27 0 -66.5 -13t-85.5 -47t-95.5 -91.5t-94.5 -147.5z" />
<glyph unicode="&#x44d;" horiz-adv-x="884" d="M33 35l35 106q45 -12 111.5 -23.5t125.5 -11.5q80 0 140.5 28t102.5 77t65.5 116.5t31.5 147.5l-395 -6l14 115l389 -11q8 160 -58.5 242t-188.5 84q-29 2 -60 -2t-63 -12l-62 -203l-78 6q-4 49 -7 92t-3 74q0 27 4 60.5t47 58.5q37 25 105.5 36t146.5 11q104 0 178 -35 t121 -93t68.5 -135t21.5 -163q0 -113 -25.5 -222.5t-84 -195.5t-153.5 -139t-234 -53q-86 0 -166 14t-129 37z" />
<glyph unicode="&#x44e;" horiz-adv-x="1447" d="M63 899l7 82q76 20 139 29.5t110 9.5q51 0 72 -16.5t21 -45.5q0 -12 -3 -52t-9.5 -92t-14.5 -110.5t-16 -111.5h188q20 86 57 162.5t93.5 136t134.5 94.5t180 35q104 0 174 -34t112 -91t59 -132t17 -157q0 -102 -24.5 -212.5t-80.5 -201t-150.5 -148.5t-233.5 -58 q-98 0 -165.5 28.5t-109.5 77.5t-62.5 115.5t-22.5 144.5v62.5t4 64.5h-185l-59 -479h-162q29 217 55.5 434t53.5 436q-45 6 -89 13.5t-90 15.5zM694 356q0 -49 9.5 -93t34 -78.5t66.5 -55t107 -20.5q96 0 156.5 54t94.5 132t46.5 165t12.5 152q0 55 -9.5 105.5t-32 88.5 t-63.5 61.5t-102 23.5q-98 0 -159.5 -56.5t-97.5 -138.5t-49.5 -175t-13.5 -165z" />
<glyph unicode="&#x44f;" horiz-adv-x="1030" d="M29 16l360 420q-129 16 -195.5 83t-66.5 169q0 86 31.5 149.5t87 105.5t131.5 61.5t162 19.5q78 0 170 -14.5t170 -42.5l-95 -836q86 6 170 51l39 -67q-68 -70 -136.5 -105t-121.5 -35q-66 0 -90 33t-24 82q0 12 1 25.5t3 27.5l88 723q-39 16 -92.5 22.5t-90.5 6.5 q-45 0 -87 -9t-74.5 -33t-53 -63.5t-20.5 -99.5q0 -45 21.5 -75.5t58.5 -50t86 -32t102 -20.5l12 -55l-358 -455l-172 -12z" />
<glyph unicode="&#x451;" horiz-adv-x="946" d="M82 377q0 100 23.5 214t84 210t161.5 159.5t259 63.5q70 0 121 -19.5t85 -53t51.5 -80t17.5 -97.5q0 -94 -47 -160.5t-132 -109.5t-203 -66.5t-257 -31.5q-2 -12 -2 -25.5v-26.5q0 -43 8 -87t32.5 -78.5t67.5 -57t111 -22.5q78 0 152.5 18t150.5 53l37 -98 q-66 -41 -168.5 -68.5t-204.5 -27.5q-106 0 -174 30.5t-106.5 85t-53 125t-14.5 150.5zM254 508q231 10 353 69.5t122 178.5q0 61 -32.5 100t-108.5 39q-145 0 -229.5 -103.5t-104.5 -283.5zM272 1253q2 43 36 73t69 30q41 0 66.5 -22.5t23.5 -63.5q-2 -45 -33 -75t-78 -30 q-39 0 -62.5 24.5t-21.5 63.5zM647 1253q2 43 34 73t69 30q41 0 65.5 -22.5t22.5 -63.5q0 -45 -32 -75t-79 -30q-39 0 -60.5 24.5t-19.5 63.5z" />
<glyph unicode="&#x452;" horiz-adv-x="1079" d="M63 1360l9 80q76 20 145.5 29.5t126.5 9.5q96 0 96 -66q0 -18 -6 -75.5t-16 -147.5h354l-8 -86h-356q-6 -57 -13.5 -119.5t-14.5 -120t-13.5 -103.5t-8.5 -69l9 -2q45 92 98 152.5t106.5 97.5t100.5 52.5t82 15.5q66 0 111.5 -32t74.5 -86t41 -126t12 -152 q0 -162 -30.5 -296t-83 -230t-120 -149.5t-141.5 -53.5q-47 0 -100 18.5t-104 73.5l59 80q41 -27 68.5 -37t56.5 -10q51 0 95 55.5t75 143.5t48.5 194.5t17.5 208.5q0 113 -32 190t-104 77q-39 0 -87 -25t-98 -80t-98 -143t-89 -217l-56 -412h-164q12 100 30 235.5t35 284 t34.5 300t34.5 284.5h-152l8 86h152l14 139z" />
<glyph unicode="&#x453;" horiz-adv-x="845" d="M55 221q0 68 31 122t79 97t108.5 78t123.5 64q39 18 83 39.5t79 48t58.5 57.5t23.5 66q0 33 -14.5 54t-36 33.5t-49 16.5t-54.5 4q-68 0 -140.5 -22.5t-149.5 -57.5l-45 97q76 47 173 76.5t199 29.5q121 0 199 -52t78 -157q0 -59 -28 -108.5t-77 -91.5t-118.5 -79.5 t-153.5 -74.5q-43 -18 -81 -41t-66.5 -50.5t-45 -61.5t-16.5 -72q0 -72 52 -102t132 -30q78 0 161 25t165 66l45 -93q-90 -61 -198.5 -89.5t-200.5 -28.5q-70 0 -128.5 13t-99.5 41t-64.5 73t-23.5 110zM440 1159l279 338l102 -102l-317 -293z" />
<glyph unicode="&#x454;" horiz-adv-x="888" d="M82 362q0 55 8 126t28.5 144t57.5 143.5t95.5 124.5t139.5 88t191 34q66 0 124 -12.5t87 -24.5q35 -14 50.5 -32.5t10.5 -53.5q0 -10 -6 -35.5t-15 -58.5t-20.5 -65.5t-23.5 -59.5l-86 4l10 190q-29 10 -66.5 15.5t-74.5 5.5q-66 0 -121 -23.5t-96 -66.5t-68.5 -102.5 t-40.5 -129.5l396 9l-13 -113l-395 4q-4 -23 -6 -49.5t-2 -48.5q0 -51 10 -98.5t33.5 -84t63.5 -58t100 -21.5q80 0 149.5 14t153.5 47l35 -102q-66 -35 -160 -60.5t-191 -25.5q-100 0 -168.5 27.5t-110.5 77.5t-60.5 119t-18.5 152z" />
<glyph unicode="&#x455;" horiz-adv-x="874" d="M55 123q0 41 21.5 103.5t50.5 115.5l78 -4l-10 -209q70 -29 163 -29q49 0 96.5 10.5t85.5 32t60.5 55t22.5 81.5q0 37 -17.5 64.5t-47.5 48t-67.5 36.5t-76.5 35q-63 29 -117.5 56.5t-93.5 60t-61.5 70.5t-22.5 87q0 74 32.5 127.5t86 89t123 52t143.5 16.5q53 0 103 -8 t90 -24.5t64.5 -40t24.5 -54.5q0 -41 -22.5 -108.5t-48.5 -118.5l-78 4l10 200q-29 14 -63.5 22.5t-81.5 8.5q-41 0 -79 -8t-67.5 -26.5t-48 -48t-18.5 -75.5q0 -31 20.5 -56t52 -45.5t68.5 -38t70 -32.5q53 -23 104 -49t91 -60t65.5 -77t25.5 -100q0 -76 -34.5 -132.5 t-93 -94t-135.5 -56t-161 -18.5q-168 0 -237.5 38.5t-69.5 98.5z" />
<glyph unicode="&#x456;" horiz-adv-x="598" d="M92 901l6 82q76 18 139.5 28.5t110.5 10.5q53 0 73.5 -16.5t20.5 -51.5q0 -4 -7 -63.5t-18 -148.5t-24.5 -192.5t-25 -193.5t-19.5 -153.5t-8 -71.5q86 6 170 51l39 -67q-68 -70 -138.5 -105t-123.5 -35q-66 0 -89.5 33t-23.5 82q0 12 1 25.5t3 27.5l92 727zM270 1249 q0 51 33 87t80 36q41 0 68.5 -28.5t27.5 -69.5q0 -47 -31.5 -83t-82.5 -36q-39 0 -67 26.5t-28 67.5z" />
<glyph unicode="&#x457;" horiz-adv-x="598" d="M43 1239q2 43 36 72.5t68 29.5q41 0 67 -22.5t24 -63.5q-2 -45 -33 -74.5t-78 -29.5q-39 0 -62.5 24.5t-21.5 63.5zM92 901l6 82q76 18 139.5 28.5t110.5 10.5q53 0 73.5 -16.5t20.5 -51.5q0 -4 -7 -63.5t-18 -148.5t-24.5 -192.5t-25 -193.5t-19.5 -153.5t-8 -71.5 q86 6 170 51l39 -67q-68 -70 -138.5 -105t-123.5 -35q-66 0 -89.5 33t-23.5 82q0 12 1 24.5t3 26.5l92 729zM418 1239q2 43 33.5 72.5t68.5 29.5q41 0 65.5 -22.5t22.5 -63.5q0 -45 -31.5 -74.5t-78.5 -29.5q-39 0 -60.5 24.5t-19.5 63.5z" />
<glyph unicode="&#x458;" horiz-adv-x="552" d="M-109 -352q88 39 141.5 92t85.5 119.5t46 142.5t24 158l74 710l-178 31l8 82q76 18 138.5 28.5t109.5 10.5q98 0 98 -68q0 -2 -6 -55t-14 -134t-18.5 -175t-19.5 -180t-16.5 -149.5t-9.5 -80.5q-14 -121 -40.5 -223t-77 -184t-127 -139.5t-191.5 -84.5zM262 1249 q0 51 33 87t80 36q41 0 68.5 -28.5t27.5 -69.5q0 -47 -31.5 -83t-83.5 -36q-39 0 -66.5 26.5t-27.5 67.5z" />
<glyph unicode="&#x459;" horiz-adv-x="1458" d="M27 12q119 221 242.5 466t258.5 509q41 8 80 14.5t82 12.5l25 -10q12 -119 21 -235t20 -222q92 102 193.5 165.5t203.5 63.5q45 0 88 -15.5t75 -49t51 -87t19 -130.5q0 -86 -32.5 -177.5t-98 -166t-163 -121.5t-224.5 -47q-68 0 -109.5 9t-67 24.5t-36 37t-12.5 43.5 q-2 16 -6 65.5t-9 118t-12.5 147.5t-14.5 151.5t-12 132t-7 90.5h-9q-51 -106 -95 -200.5l-88 -189t-92 -194.5t-108 -217l-147 -6zM768 446q8 -84 14 -163.5t17 -165.5q41 -10 86 -11q76 0 138 27t105 76t67 118.5t24 153.5q0 78 -34 124t-93 46q-39 0 -84 -19.5t-89.5 -50 t-83 -66.5t-67.5 -69z" />
<glyph unicode="&#x45a;" horiz-adv-x="1669" d="M66 901l4 82q78 18 145.5 28.5t124.5 10.5q51 0 72.5 -16.5t21.5 -51.5q0 -10 -4 -45t-10 -86t-14.5 -114.5t-16.5 -130.5h418q18 139 31.5 248.5t19.5 172.5h166q-4 -39 -12 -100t-16.5 -127.5t-16.5 -129t-14 -99.5h8q51 68 103 112.5t101.5 72.5t94.5 39t82 11 q117 0 180 -73.5t63 -204.5q0 -70 -25.5 -159t-82.5 -168t-151.5 -133t-231.5 -54q-31 0 -73 3t-90 11t-97 22.5t-92 34.5l-9 19q10 98 23.5 198.5t26.5 200.5h-420q-10 -80 -19.5 -155.5t-18.5 -140t-15.5 -112t-8.5 -67.5h-161q2 23 13 98.5t25.5 190t33 263t36.5 318.5z M915 143q51 -18 104.5 -25t90.5 -7q80 0 140.5 34.5t100.5 90t60.5 122t20.5 129.5q0 80 -37 123t-109 43q-27 0 -66.5 -13t-86 -47t-95.5 -91.5t-94 -147.5z" />
<glyph unicode="&#x45b;" horiz-adv-x="1165" d="M88 1360l8 80q76 20 145.5 29.5t129.5 9.5q51 0 72.5 -16.5t21.5 -53.5q0 -16 -6 -80.5t-17 -150.5h349l-11 -78h-346q-6 -61 -14 -124t-15.5 -118t-13.5 -100t-10 -72h8q45 92 99.5 152.5t108.5 97.5t101 52.5t82 15.5q113 0 156 -58.5t43 -152.5q0 -23 -3 -63 t-11.5 -114.5t-20.5 -192.5t-33 -292q84 6 166 51l39 -67q-70 -70 -138.5 -105t-121.5 -35q-63 0 -87 30t-24 83q0 12 1.5 25.5t3.5 29.5q16 137 27 234.5t17.5 162t10.5 102.5t5 59.5t1 31.5v21q0 51 -21.5 83.5t-70.5 32.5q-39 0 -86 -24.5t-96.5 -78.5t-98.5 -141 t-88 -214l-55 -412h-164q12 100 29.5 236.5t35 286t35 300t31.5 277.5h-164l11 78h161l17 151z" />
<glyph unicode="&#x45c;" horiz-adv-x="1042" d="M82 893l8 84q66 18 129.5 31.5t118.5 13.5q33 0 53.5 -16.5t20.5 -49.5q0 -12 -8.5 -75.5t-20.5 -155.5t-26.5 -200.5t-29 -210t-25.5 -186.5t-15 -128h-164l117 872zM391 530q0 10 1 20.5t3 20.5q47 90 109.5 172t132.5 143.5t139.5 98.5t130.5 37q63 0 98 -34t37 -81 l-59 -57q-31 16 -55.5 21.5t-48.5 5.5q-51 0 -98.5 -27t-91.5 -70t-85 -95t-80 -103q33 -63 79 -138t92 -141.5t83 -118t53 -65.5q47 12 87 35.5t69 46.5l53 -56q-57 -78 -124.5 -123t-133.5 -45q-23 0 -43 13.5t-44.5 43t-54.5 75t-71 106.5q-55 86 -102 170t-76 145z M479 1159l279 338l102 -102l-317 -293z" />
<glyph unicode="&#x45e;" horiz-adv-x="1032" d="M-225 -307l69 41q35 -41 78 -52.5t90 -11.5q86 0 184.5 52.5t206.5 175.5q-18 111 -43.5 248t-53 272t-53.5 252.5t-44 191.5l-152 -41l-26 70q70 66 133 94.5t96 28.5q41 0 59.5 -18.5t32.5 -69.5q8 -33 21.5 -90.5t28 -132t31 -160.5t31.5 -173t29.5 -170t24.5 -151 q66 92 119 208t91 230.5t58.5 216t20.5 164.5l-148 -39q-4 16 -9 35t-11 35q63 59 120.5 90t102.5 31q51 0 76 -29.5t25 -113.5q0 -115 -37 -259.5t-104.5 -295t-161 -295t-206 -257t-240.5 -181t-265 -68.5q-109 0 -155 43t-19 129zM238 1358l100 69q47 -78 103.5 -124 t113.5 -46q18 0 45 3.5t62.5 18.5t84 47t109.5 87l47 -51q-102 -129 -197.5 -181.5t-173.5 -52.5q-53 0 -96 19.5t-78.5 52.5t-65.5 74t-54 84z" />
<glyph unicode="&#x45f;" horiz-adv-x="1167" d="M63 899l7 82q76 20 144.5 29.5t125.5 9.5q51 0 70.5 -17.5t19.5 -58.5q0 -20 -5 -73.5t-13.5 -124t-18.5 -150.5t-18 -152.5t-13.5 -129t-5.5 -81.5q0 -57 21.5 -86.5t71.5 -29.5q39 0 87 24.5t97 79.5t97 143.5t89 215.5q16 104 30.5 208.5t29.5 210.5h155 q-29 -211 -55.5 -428t-54.5 -442q47 4 86 16.5t80 34.5l38 -67q-70 -70 -143.5 -101.5t-120.5 -31.5q-59 0 -77.5 27.5t-18.5 86.5q0 45 7 103.5t13 103.5h-10q-45 -92 -99 -153.5t-107.5 -98.5t-102.5 -52t-84 -15q-106 0 -151.5 56t-45.5 148q0 29 4.5 76t12.5 126 t21.5 196.5t31.5 285.5q-47 6 -96 13.5t-99 15.5zM512 -393q29 104 59.5 214.5t63.5 188.5q25 -8 50.5 -14t49.5 -16l-88 -390l-123 -4z" />
<glyph unicode="&#x490;" horiz-adv-x="1087" d="M31 0l14 125h133l141 1151h-126l14 125h835l33 235h127l-45 -360h-670l-141 -1151h191l-15 -125h-491z" />
<glyph unicode="&#x491;" horiz-adv-x="864" d="M111 0l110 879l-98 2l14 118h604l58 238h84l6 -221v-21q0 -63 -26.5 -89.5t-80.5 -28.5l-403 2l-107 -879h-161z" />
<glyph unicode="&#x4d9;" horiz-adv-x="946" d="M74 236q0 94 47 159.5t132 109.5t201.5 67.5t258.5 31.5q2 10 2 24.5v26.5q0 43 -9.5 87t-33 79t-66.5 57.5t-110 22.5q-78 0 -153 -18.5t-150 -53.5l-39 99q33 20 75.5 37.5t92 31t102.5 20.5t104 7q106 0 174 -31.5t107 -86t53.5 -126t14.5 -151.5q0 -100 -25 -213 t-84 -208t-161.5 -158.5t-258.5 -63.5q-70 0 -121 19.5t-84.5 53t-51 79.5t-17.5 98zM229 254q0 -61 33 -100t109 -39q145 0 229 103.5t105 283.5q-231 -12 -353.5 -71.5t-122.5 -176.5z" />
<glyph unicode="&#x2000;" horiz-adv-x="915" />
<glyph unicode="&#x2001;" horiz-adv-x="1831" />
<glyph unicode="&#x2002;" horiz-adv-x="915" />
<glyph unicode="&#x2003;" horiz-adv-x="1831" />
<glyph unicode="&#x2004;" horiz-adv-x="610" />
<glyph unicode="&#x2005;" horiz-adv-x="457" />
<glyph unicode="&#x2006;" horiz-adv-x="305" />
<glyph unicode="&#x2007;" horiz-adv-x="305" />
<glyph unicode="&#x2008;" horiz-adv-x="228" />
<glyph unicode="&#x2009;" horiz-adv-x="366" />
<glyph unicode="&#x200a;" horiz-adv-x="101" />
<glyph unicode="&#x2010;" horiz-adv-x="727" d="M111 471l18 139h514l-18 -139h-514z" />
<glyph unicode="&#x2011;" horiz-adv-x="727" d="M111 471l18 139h514l-18 -139h-514z" />
<glyph unicode="&#x2012;" horiz-adv-x="727" d="M111 471l18 139h514l-18 -139h-514z" />
<glyph unicode="&#x2013;" horiz-adv-x="993" d="M66 463l16 123h874l-14 -123h-876z" />
<glyph unicode="&#x2014;" horiz-adv-x="1986" d="M72 463l16 123h1841l-14 -123h-1843z" />
<glyph unicode="&#x2018;" horiz-adv-x="428" d="M190 1122q0 45 19.5 94.5t53.5 95.5t78 85t93 61l33 -55q-43 -37 -72.5 -81t-40.5 -99q61 -27 62 -97q0 -45 -38 -80.5t-85 -35.5t-75 31.5t-28 80.5z" />
<glyph unicode="&#x2019;" horiz-adv-x="428" d="M182 1065q92 74 113 180q-57 23 -57 86q0 47 31.5 87t86.5 40q47 0 75 -30.5t28 -77.5q0 -45 -18.5 -95.5t-51.5 -96.5t-78 -85t-96 -63z" />
<glyph unicode="&#x201a;" horiz-adv-x="417" d="M6 -172q41 37 69.5 74t41.5 90q-68 20 -62 96q4 45 38 79t81 34q49 0 77 -36t23 -91q-4 -43 -24.5 -87t-52 -84t-72.5 -74t-86 -54z" />
<glyph unicode="&#x201c;" horiz-adv-x="681" d="M117 1122q0 45 19.5 94.5t53 95.5t77.5 85t93 61l33 -55q-45 -37 -73.5 -81t-38.5 -99q61 -27 61 -97q0 -45 -38 -80.5t-85 -35.5t-74.5 31.5t-27.5 80.5zM385 1122q0 45 19.5 94.5t52 95.5t77 84t93.5 62l35 -55q-45 -37 -74 -81t-41 -99q59 -23 59 -90q0 -47 -34 -85 t-87 -38q-47 0 -73.5 31.5t-26.5 80.5z" />
<glyph unicode="&#x201d;" horiz-adv-x="681" d="M182 1065q92 74 113 180q-57 23 -57 86q0 47 31.5 87t86.5 40q47 0 75 -30.5t28 -77.5q0 -45 -18.5 -95.5t-51.5 -96.5t-77 -85t-95 -63zM449 1065q45 37 73.5 81t38.5 99q-57 23 -57 86q0 47 32 87t85 40q47 0 74.5 -31.5t27.5 -80.5q0 -45 -18.5 -94.5t-51 -95.5 t-77 -84t-95.5 -62z" />
<glyph unicode="&#x201e;" horiz-adv-x="677" d="M84 -172q43 37 70.5 74t40.5 90q-70 20 -60 96q2 45 36 79t81 34q49 0 76.5 -36t23.5 -91q-4 -43 -24.5 -87t-52 -84t-72.5 -74t-86 -54zM346 -172q45 37 72.5 74t38.5 90q-31 10 -47.5 35.5t-12.5 60.5q4 45 38 79t81 34q49 0 77 -36t23 -91q-4 -43 -24.5 -87t-53 -84 t-72.5 -74t-85 -54z" />
<glyph unicode="&#x2022;" horiz-adv-x="641" d="M119 543q0 49 20.5 93t53 76.5t75.5 52t88 19.5q84 0 139.5 -57t55.5 -143q0 -49 -19.5 -93.5t-52.5 -78t-76 -53t-90 -19.5q-84 0 -139 59.5t-55 143.5z" />
<glyph unicode="&#x2026;" horiz-adv-x="1267" d="M53 86q2 47 37 80t80 33t71.5 -31t22.5 -74q-4 -47 -40 -80.5t-79 -33.5t-69.5 30.5t-22.5 75.5zM432 86q4 47 39 80t80 33t71.5 -31t22.5 -74q-4 -47 -40 -80.5t-81 -33.5q-41 0 -68.5 30.5t-23.5 75.5zM831 86q4 47 40 80t81 33q43 0 70 -31t22 -74q-4 -47 -40.5 -80.5 t-77.5 -33.5q-43 0 -71 30.5t-24 75.5z" />
<glyph unicode="&#x202f;" horiz-adv-x="366" />
<glyph unicode="&#x2039;" horiz-adv-x="624" d="M113 346l10 80l332 326l57 -54l-240 -315l164 -311l-71 -49z" />
<glyph unicode="&#x203a;" horiz-adv-x="624" d="M82 78l237 311l-159 313l69 50l252 -326l-10 -80l-334 -323z" />
<glyph unicode="&#x205f;" horiz-adv-x="457" />
<glyph unicode="&#x20ac;" d="M80 551l10 84h828l-11 -84h-573v-29q0 -86 19.5 -159.5t64.5 -127t116.5 -84t176.5 -30.5q37 0 94 5t113 19l8 70l8 70h121l-31 -244q-70 -27 -163 -41t-179 -14q-258 0 -384 135t-126 379q0 12 1 24.5t1 26.5h-94zM102 733l9 84h98q16 104 60 204.5t119 179.5t180.5 127 t246.5 48q104 0 188 -16.5t138 -36.5q-10 -68 -17.5 -134.5t-15.5 -133.5h-123l21 159q-37 12 -88.5 20.5t-102.5 8.5q-96 0 -169 -29.5t-126 -85t-89 -134.5t-60 -177h569q-2 -20 -4 -41.5t-6 -42.5h-828z" />
<glyph unicode="&#x2122;" horiz-adv-x="1515" d="M98 1214v189h541v-189h-80v105h-135v-508h84v-78h-283v78h86v508h-131v-105h-82zM692 733v78h72v508h-72v84h197l131 -295l63 -143h11l61 139l139 299h195v-84h-70v-508h70v-78h-246v78h70v414h-4l-68 -148l-108 -233h-89l-112 233l-62 137h-2v-403h72v-78h-248z" />
<glyph unicode="&#xe000;" horiz-adv-x="1013" d="M0 0v1014h1014v-1014h-1014z" />
</font>
</defs>
</svg>
