<?xml version="1.0" standalone="no"?>
<!DOCTYPE svg PUBLIC "-//W3C//DTD SVG 1.1//EN" "http://www.w3.org/Graphics/SVG/1.1/DTD/svg11.dtd" >
<svg xmlns="http://www.w3.org/2000/svg">
<metadata></metadata>
<defs>
<font id="pf_agora_sans_probold" horiz-adv-x="3723" >
<font-face units-per-em="2048" ascent="1536" descent="-512" />
<missing-glyph horiz-adv-x="602" />
<glyph unicode="fj" horiz-adv-x="1298" d="M49 813v160l146 41v69q0 98 22.5 177t75.5 135.5t141 86t217 29.5q72 0 175.5 -9t201.5 -36l-37 -213q-84 12 -151.5 20.5t-124.5 8.5q-51 0 -95.5 -7t-76 -26.5t-49 -56.5t-17.5 -98v-88h670v-848q0 -127 -18.5 -223.5t-69.5 -171t-142.5 -129t-238.5 -95.5 q-4 14 -13.5 39t-20.5 52.5t-20.5 52t-15.5 36.5q80 45 128 82t75 79t35 93.5t8 126.5v713h-377q0 -203 -1 -406.5t-1 -406.5h-285l3 813h-144z" />
<glyph unicode="ffj" horiz-adv-x="1947" d="M55 813v158q35 12 71 21t73 20v51q0 188 109.5 301t336.5 113q76 0 149.5 -7.5t161.5 -31.5q25 31 69 49t95 28.5t105.5 14.5t99.5 4q78 -2 172 -11.5t186 -31.5l-38 -215q-82 14 -146.5 21.5t-120.5 7.5q-49 0 -93 -6.5t-76.5 -27t-52 -57t-19.5 -98.5v-110h661v-863 q0 -131 -25.5 -229t-82 -170t-146.5 -121t-217 -82q-18 45 -35.5 93.5t-36.5 93.5q80 45 129.5 80.5t76 75.5t34.5 90.5t8 125.5v713h-366q0 -205 1 -406.5t1 -406.5h-287v813h-369q0 -203 -1 -406.5t-1 -406.5h-284v813h-142zM483 1006h371v135q0 29 4 51t8 43 q-47 10 -89 15t-77 5q-123 0 -170 -43t-47 -147v-59z" />
<glyph unicode="ff" horiz-adv-x="1511" d="M53 813v158q37 12 73 21t73 20v59q0 86 20.5 160t70.5 129t137 87t222 32q66 0 138.5 -7.5t158.5 -31.5q23 25 62 41t85 25.5t93 13.5t88 4q51 -2 111.5 -8.5t119.5 -22.5q-10 -51 -18 -100.5t-19 -98.5q-43 8 -90 11.5t-80 3.5q-78 0 -119.5 -32t-41.5 -108v-163h288 v-193h-288v-813h-287v813h-369q0 -203 -1 -406.5t-1 -406.5h-284q0 205 1 406.5t1 406.5h-144zM481 1006h371v145q0 18 1 42t5 44q-41 10 -85 14t-85 4q-117 -2 -162 -46t-45 -144v-59z" />
<glyph unicode="fi" horiz-adv-x="1286" d="M53 813v160l148 41v98q0 90 21.5 164t72.5 127t136 81.5t212 28.5q70 -2 177.5 -12t211.5 -37q-2 -10 -7 -40.5t-11 -65.5t-11.5 -65.5t-7.5 -39.5q-92 14 -163.5 21.5t-131.5 7.5q-111 0 -165 -39t-54 -149v-86h656l2 -1008h-293l-2 813h-363q0 -203 -1 -406.5 t-1 -406.5h-282l2 813h-146z" />
<glyph unicode="fl" horiz-adv-x="1308" d="M51 813v158q39 12 75 21t71 20v86q0 203 116.5 302t327.5 99q70 0 140.5 -5t142.5 -21l235 26q0 -377 -1 -750.5t-1 -748.5h-291q0 317 1 628.5t1 628.5q-45 6 -88 10.5t-80 4.5q-113 0 -166 -40t-53 -151v-75h262v-193h-262q0 -203 -1 -406.5t-1 -406.5h-284v813h-144z " />
<glyph unicode="ffi" horiz-adv-x="1947" d="M55 813v158q35 12 71 21t73 20v59q0 90 22.5 165t75.5 129t141 84t219 30q86 0 156 -9.5t143 -31.5q23 25 63 42t86 29.5t96 17.5t93 5q39 0 87.5 -2t100.5 -8t105 -15.5t103 -23.5l-39 -209q-84 16 -165 22.5t-143 6.5q-43 0 -80.5 -7.5t-65.5 -27t-44 -56t-16 -96.5 v-108h657v-1008h-293v813h-364q0 -205 1 -406.5t1 -406.5h-287v813h-369q0 -203 -1 -406.5t-1 -406.5h-284v813h-142zM483 1008h371v141q0 25 4 45t8 41q-47 10 -89 15t-77 5q-123 0 -170 -43t-47 -147v-57z" />
<glyph unicode="ffl" horiz-adv-x="1970" d="M55 813v158q35 12 72 21t74 20v92q0 82 24.5 150.5t78.5 118.5t140 78t207 28q70 0 144.5 -8.5t160.5 -32.5q23 23 61 40t83 29.5t93 18.5t91 6q74 0 163 -8t171 -19q49 6 99 13.5t100 15.5q0 -387 1 -768t1 -766h-291q0 324 -1 644.5t-1 645.5q-45 6 -88 10.5t-80 4.5 q-113 0 -167 -39t-54 -150v-110h264v-193h-264q0 -205 1 -406.5t1 -406.5h-287v813h-369v-813h-284v813h-144zM483 1006h371v65q0 43 1 86t11 78q-47 10 -89 15t-77 5q-123 0 -170 -43t-47 -147v-59z" />
<glyph unicode="ft" horiz-adv-x="1550" d="M55 815v160l146 41v143q0 72 17.5 134.5t60.5 109.5t116.5 73.5t184.5 26.5q53 0 128.5 -6t147.5 -27l-41 -202q-43 8 -89 12t-79 4q-80 0 -121 -29.5t-41 -105.5v-141h404q6 12 16 49t21.5 78t21.5 77.5t17 51.5l188 20v-276h293v-193h-293v-455q0 -80 28.5 -117.5 t106.5 -37.5q29 0 76 7t100 19l35 -190q-66 -29 -142.5 -43t-142.5 -14q-104 0 -172.5 24.5t-107.5 65.5t-54.5 95t-15.5 114v532h-381v-815h-284v815h-144z" />
<glyph unicode=" "  horiz-adv-x="602" />
<glyph unicode="&#x09;" horiz-adv-x="602" />
<glyph unicode="&#xa0;" horiz-adv-x="602" />
<glyph unicode="!" horiz-adv-x="579" d="M133 123q0 59 39 100t115 41q78 0 117.5 -41t39.5 -100t-41 -100t-116 -41q-76 0 -115 40.5t-39 100.5zM150 1444h274l-2 -545l-27 -502h-213l-28 502z" />
<glyph unicode="&#x22;" horiz-adv-x="745" d="M111 1411h235l-39 -496h-160zM406 1411h235l-37 -496h-162z" />
<glyph unicode="#" horiz-adv-x="1177" d="M113 403l10 138h172l63 268h-170l11 135h190l86 361h156l-82 -361h231l86 361h156l-84 -361h152l-11 -135h-174l-61 -268h166l-9 -138h-186l-92 -403h-160l92 403h-231l-94 -403h-158l92 403h-151zM455 541h233l60 268h-232z" />
<glyph unicode="$" horiz-adv-x="1208" d="M125 106l68 189q68 -27 111.5 -40t73.5 -20.5t50.5 -9.5t38.5 -6v410q-68 23 -129.5 53.5t-108.5 73.5t-74.5 101t-27.5 136q0 80 26.5 144.5t72.5 111.5t107.5 78t133.5 43v141h94v-1665h-94v166q-86 10 -175 32t-167 62zM342 1010q0 -66 33 -99.5t92 -54.5v311 q-55 -14 -90 -52.5t-35 -104.5zM627 -154v1665h96v-137q70 -6 144.5 -23.5t133.5 -50.5l-51 -180q-80 31 -129 42.5t-98 15.5v-390q68 -23 135.5 -51t121.5 -72t88 -106.5t34 -150.5q0 -86 -27.5 -152t-79 -114t-121 -78.5t-151.5 -45.5v-172h-96zM723 219q147 27 147 174 q0 66 -41 104t-106 60v-338z" />
<glyph unicode="%" horiz-adv-x="1843" d="M63 950q0 80 16.5 156t58.5 136.5t114 97t182 36.5q111 0 180.5 -38t109.5 -98t55.5 -136t15.5 -152q0 -80 -18.5 -155.5t-60.5 -134t-111.5 -94.5t-172.5 -36q-109 0 -180.5 35t-113.5 92.5t-58.5 133t-16.5 157.5zM276 950q0 -55 6.5 -103t24 -83t48 -54.5t79.5 -19.5 q45 0 74 21.5t45 58.5t22.5 84t6.5 96q0 43 -4.5 91.5t-19.5 87t-45 64.5t-79 26q-51 0 -81.5 -26t-48 -64.5t-23 -86t-5.5 -92.5zM506 -41l645 1491h176l-643 -1491h-178zM1047 408q0 78 16 153.5t58 136t114 97t182 36.5q111 0 180.5 -37.5t109.5 -98t55.5 -136 t15.5 -151.5q0 -82 -18.5 -158t-60.5 -134.5t-111.5 -93t-172.5 -34.5q-109 0 -180.5 33.5t-113.5 92t-58 134.5t-16 160zM1260 406q0 -55 6 -103.5t23.5 -84.5t48 -55.5t79.5 -19.5q45 0 74 21.5t45 58.5t22.5 85.5t6.5 99.5q0 43 -4.5 90t-19.5 86t-45 64.5t-79 25.5 q-51 0 -81.5 -25.5t-48 -64.5t-22.5 -86t-5 -92z" />
<glyph unicode="&#x26;" horiz-adv-x="1617" d="M92 389q0 127 78 238.5t244 201.5q-49 72 -73 139.5t-24 127.5q0 55 17.5 113.5t57.5 105.5t105.5 76.5t159.5 29.5q104 0 173 -29.5t110 -73.5t57.5 -96.5t16.5 -97.5q0 -61 -23.5 -112t-61.5 -94.5t-88 -79t-104 -68.5q68 -96 151 -196.5t169 -190.5q39 37 70.5 80 t56 99t42 128t29.5 166h220q-10 -209 -74 -353.5t-182 -264.5q70 -61 147.5 -114.5t144.5 -82.5q-25 -43 -51 -86t-51 -86q-41 16 -88 42t-96 56.5t-97.5 65.5t-87.5 69q-98 -66 -212.5 -97.5t-237.5 -31.5q-104 0 -195.5 26t-159 78t-105.5 130t-38 182zM354 406 q0 -57 20.5 -100.5t56.5 -72t83 -43t102 -14.5q59 0 123 19.5t123 54.5q-98 98 -177 207.5t-146 199.5q-78 -47 -131.5 -108t-53.5 -143zM551 1114q0 -39 20.5 -86t55.5 -98q66 35 118 81t52 111q0 55 -36 87t-95 32q-31 0 -52.5 -12t-35 -30.5t-20.5 -41.5t-7 -43z" />
<glyph unicode="'" horiz-adv-x="489" d="M127 1411h235l-38 -496h-162z" />
<glyph unicode="(" horiz-adv-x="679" d="M127 573q0 147 31.5 280.5t81 246t111 204t120.5 156.5l123 -78q-25 -37 -63.5 -107.5t-73.5 -170.5t-60.5 -232.5t-25.5 -291.5q0 -178 25.5 -317.5t61.5 -244t73.5 -174t64.5 -106.5l-125 -84q-59 63 -120.5 155.5t-111 208t-81 254.5t-31.5 301z" />
<glyph unicode=")" horiz-adv-x="684" d="M80 -262q25 39 63.5 108.5t73.5 174t60.5 243.5t25.5 318q0 160 -25.5 292t-60.5 232t-74 170t-63 106l125 78q59 -66 119.5 -157t109.5 -203.5t81 -244.5t32 -282q0 -160 -32 -299t-82 -254.5t-111.5 -208t-120.5 -155.5z" />
<glyph unicode="*" horiz-adv-x="864" d="M90 1098q12 59 27.5 109t40.5 102l215 -123q-12 59 -25.5 118.5t-23.5 118.5q29 4 56.5 6.5t55.5 2.5q29 0 55.5 -2.5t55.5 -6.5q-12 -59 -24.5 -118.5t-26.5 -118.5l217 119q31 -51 45 -102.5t24 -106.5q-63 -8 -124.5 -16.5t-127.5 -14.5q47 -41 91.5 -84t89.5 -84 q-41 -37 -83 -68.5t-89 -58.5q-29 55 -54.5 112.5t-50.5 110.5q-27 -53 -53.5 -109.5t-50.5 -113.5q-49 27 -91 56.5t-85 70.5l180 170z" />
<glyph unicode="+" horiz-adv-x="1208" d="M199 535v170h338v339h174v-339h333v-170h-333v-349h-174v349h-338z" />
<glyph unicode="," horiz-adv-x="538" d="M94 -215q102 92 115 213q-105 20 -105 133q0 59 43 102t115 43q88 0 129 -52t41 -124q0 -57 -20.5 -116.5t-56.5 -114.5t-85 -101.5t-106 -74.5z" />
<glyph unicode="-" horiz-adv-x="804" d="M121 449v202h563v-202h-563z" />
<glyph unicode="." horiz-adv-x="518" d="M94 131q0 61 41 103t119 42t119 -42t41 -103q0 -63 -41 -105t-119 -42t-119 42t-41 105z" />
<glyph unicode="/" horiz-adv-x="759" d="M16 -68l531 1514h201l-533 -1514h-199z" />
<glyph unicode="0" horiz-adv-x="1208" d="M49 676q0 129 25.5 256t88 227.5t170 162.5t271.5 62q166 0 271.5 -63.5t167 -164.5t84 -226t22.5 -250q0 -135 -27.5 -261t-92 -222.5t-169 -154.5t-258.5 -58q-164 0 -270.5 56t-170 151.5t-88 221.5t-24.5 263zM340 674q0 -100 10 -186.5t40 -150t81 -100t133 -36.5 q76 0 126 40t78 106.5t39 152.5t11 176q0 78 -7 164t-32.5 157.5t-77 118.5t-137.5 47t-138 -46t-80 -117.5t-37 -158.5t-9 -167z" />
<glyph unicode="1" horiz-adv-x="1208" d="M197 1079v195l313 92h260v-1366h-287v1106z" />
<glyph unicode="2" horiz-adv-x="1208" d="M74 1227q131 90 260 123.5t229 33.5q215 0 339 -103t124 -302q0 -111 -53 -218.5t-133 -204.5t-172.5 -183t-169.5 -156l4 -12h585v-205h-991v180q59 51 129 112.5t140.5 127t137 134.5t117 138.5t81 137t30.5 131.5q0 94 -56.5 142t-162.5 48q-53 0 -145.5 -18.5 t-202.5 -79.5z" />
<glyph unicode="3" horiz-adv-x="1208" d="M88 76l72 200q121 -39 197.5 -52t138.5 -13q141 0 221 59.5t80 175.5q0 96 -73 156t-241 60q-25 0 -49 -2.5t-53 -6.5q-2 12 -7 33t-10.5 44.5t-10.5 44t-7 32.5q35 35 78 77t87 85t87 85t80 76q-2 4 -4 8.5t-2 8.5h-520v219h870q2 -12 7 -37.5t11.5 -52.5t10.5 -51.5 t8 -36.5l-357 -330l5 -12q70 -8 139 -34t122.5 -73t87.5 -119.5t34 -175.5q0 -117 -43 -203.5t-118 -145t-176.5 -87t-217.5 -28.5q-98 4 -220 23.5t-227 72.5z" />
<glyph unicode="4" horiz-adv-x="1208" d="M57 348v176q33 45 81 111.5t103.5 145.5t115 163t114.5 163t103.5 146.5t80.5 112.5h301v-815h199v-203h-199v-348h-278v348h-621zM330 551h354v496h-14q-37 -51 -81 -116t-88 -132.5t-88 -132t-83 -115.5z" />
<glyph unicode="5" horiz-adv-x="1208" d="M94 78l68 198q123 -37 200.5 -51t143.5 -14q141 0 221 59.5t80 182.5q0 57 -22.5 100t-59.5 70.5t-87.5 41t-105.5 13.5q-49 0 -101 -13.5t-105 -35.5l-154 76l51 661h805v-217h-577l-21 -287q25 4 69 14.5t109 10.5q100 0 189.5 -26.5t156 -82t105.5 -138.5t39 -194 q0 -117 -43 -203.5t-117 -145t-172 -87t-209 -28.5q-47 0 -104.5 4t-119 15t-124 29.5t-115.5 47.5z" />
<glyph unicode="6" horiz-adv-x="1208" d="M90 616q0 162 33 301.5t104.5 243t185 162.5t277.5 59q109 0 186.5 -18t122.5 -35q-4 -14 -10 -43t-12 -59.5t-12.5 -59t-10.5 -43.5q-74 25 -137 33t-108 8q-92 0 -153.5 -39t-98.5 -96t-55.5 -120.5t-24.5 -114.5l14 -9q74 41 148.5 62.5t156.5 21.5q86 0 162 -25.5 t133.5 -78.5t90 -133t32.5 -191t-37 -196.5t-103.5 -144t-157.5 -88t-200 -29.5q-147 0 -247.5 49t-163 134t-89 200.5t-26.5 248.5zM379 545q0 -53 8 -112.5t33.5 -110t73 -83t122.5 -32.5q106 0 164 62.5t58 166.5q0 49 -10.5 90t-34 72t-64.5 48.5t-102 17.5 q-53 0 -95.5 -11.5t-74 -26t-51 -27.5t-27.5 -17v-37z" />
<glyph unicode="7" horiz-adv-x="1208" d="M164 1149v217h899v-186l-537 -1180h-282l534 1149h-614z" />
<glyph unicode="8" horiz-adv-x="1208" d="M80 360q0 45 11 97.5t39 104.5t74 101.5t113 90.5q-86 53 -128 114.5t-42 157.5q0 78 35 144.5t97.5 115.5t148.5 77t188 28q80 0 162 -19.5t149.5 -61.5t110.5 -110t43 -164q0 -72 -36.5 -153.5t-147.5 -165.5q98 -51 160.5 -135t62.5 -207q0 -84 -36.5 -156 t-105.5 -124t-166 -81.5t-216 -29.5q-246 0 -381 102t-135 274zM367 385q0 -78 58 -135t175 -57q57 0 101 16t75 44t46.5 64.5t15.5 75.5q0 43 -19.5 77t-58.5 63.5t-98.5 58.5t-139.5 61q-92 -63 -123.5 -132.5t-31.5 -135.5zM418 1022q0 -41 20.5 -69.5t56 -53.5t83 -46.5 t102.5 -45.5q80 59 110.5 109.5t30.5 99.5q0 29 -11 59.5t-36.5 55t-65.5 41t-96 16.5q-53 0 -90 -17.5t-59.5 -43t-33.5 -54t-11 -51.5z" />
<glyph unicode="9" horiz-adv-x="1208" d="M80 922q0 111 37 196.5t102.5 144t157.5 89t201 30.5q147 0 247.5 -49t162 -134t89 -200.5t27.5 -250.5q0 -162 -33 -301.5t-105.5 -242t-186 -160.5t-275.5 -58q-111 0 -194 16t-128 35l51 203q72 -25 138.5 -32t113.5 -7q90 0 150.5 39t98.5 95t56.5 120.5t24.5 113.5 l-12 9q-150 -84 -305 -84q-88 0 -164 25.5t-132.5 77.5t-89 133t-32.5 192zM354 928q0 -49 10.5 -90t35 -72t64.5 -48.5t101 -17.5q53 0 95 11.5t74 26t51.5 27.5t27.5 17v39q0 51 -8 109.5t-32.5 109t-72 83t-122.5 32.5q-109 0 -166.5 -61.5t-57.5 -165.5z" />
<glyph unicode=":" horiz-adv-x="530" d="M109 131q0 66 39.5 107t117.5 41t120 -41t42 -107q0 -61 -41 -104t-121 -43q-78 0 -117.5 43t-39.5 104zM109 752q0 63 39.5 104t117.5 41t120 -41t42 -104t-42 -105.5t-120 -42.5t-117.5 42t-39.5 106z" />
<glyph unicode=";" horiz-adv-x="530" d="M92 -215q98 92 115 213q-105 20 -105 133q0 59 43 102t115 43q88 0 129 -52t41 -124q0 -57 -20.5 -116.5t-56.5 -114.5t-85 -101.5t-104 -74.5zM109 752q0 63 39.5 104t117.5 41t120 -41t42 -104t-42 -105.5t-120 -42.5t-117.5 42t-39.5 106z" />
<glyph unicode="&#x3c;" horiz-adv-x="1224" d="M164 541v141l909 442v-198l-680 -312l680 -321v-197z" />
<glyph unicode="=" horiz-adv-x="1224" d="M176 369v163h871v-163h-871zM176 696v166h871v-166h-871z" />
<glyph unicode="&#x3e;" horiz-adv-x="1224" d="M164 96v197l680 321l-680 312v198l909 -442v-141z" />
<glyph unicode="?" horiz-adv-x="1015" d="M92 1376q123 45 229.5 61.5t192.5 16.5q209 0 318.5 -83t121.5 -224q0 -82 -30.5 -147.5t-75.5 -121t-99.5 -102.5t-99.5 -92t-75.5 -92t-30.5 -103q0 -25 3 -49t7 -57l-240 -12q-8 49 -12 88t-4 69q0 59 16.5 106.5t46 90.5t69.5 83t89 83q61 53 91 99t30 108 q0 66 -48 99.5t-130 33.5q-66 0 -138.5 -10.5t-168.5 -42.5zM301 113q0 61 39 101t115 40t114.5 -40t38.5 -101q0 -59 -40 -97.5t-113 -38.5q-74 0 -114 38t-40 98z" />
<glyph unicode="@" horiz-adv-x="1986" d="M164 657q0 172 66.5 319.5t184 255t276.5 168t343 60.5t329.5 -52t247 -148.5t156 -230.5t54.5 -300q0 -113 -34 -199t-92.5 -144t-136 -89t-163.5 -31q-37 0 -76 7.5t-75 22.5t-64.5 40.5t-44.5 60.5q-53 -57 -127 -84.5t-144 -27.5q-78 0 -126 24.5t-74.5 61.5t-37 79 t-10.5 76q0 72 27 116t85 70.5t149.5 41t220.5 28.5v31q0 66 -23.5 94.5t-101.5 28.5q-51 0 -113.5 -10.5t-126.5 -28.5l-43 154q76 29 160 45t170 16q68 0 124 -13.5t96 -45t62.5 -83.5t22.5 -130v-308q0 -43 25.5 -69.5t85.5 -26.5q33 0 67.5 15.5t64 49.5t49 87t19.5 129 q0 131 -41 236.5t-118.5 179t-189 113.5t-253.5 40q-143 0 -268 -48t-218 -132t-146.5 -197.5t-53.5 -246.5q0 -135 47 -250t131 -199t200 -131t253 -47q57 0 128 9t167 42l57 -149q-80 -39 -174 -56.5t-176 -17.5q-190 0 -342 59.5t-257.5 166t-161.5 251.5t-56 317z M862 547q0 -45 22.5 -70.5t73.5 -25.5q68 0 140 59v145q-35 -4 -76 -8t-77 -13t-59.5 -29.5t-23.5 -57.5z" />
<glyph unicode="A" horiz-adv-x="1359" d="M16 0l480 1407h381l464 -1407h-311l-98 322h-514l-101 -322h-301zM483 526h387l-104 371l-82 305h-10l-86 -315z" />
<glyph unicode="B" horiz-adv-x="1347" d="M147 0v1407h615q219 0 326.5 -104.5t107.5 -272.5q0 -33 -8 -72.5t-28.5 -78.5t-55.5 -75t-88 -61v-10q72 -25 115 -65.5t65.5 -86.5t29.5 -92.5t7 -78.5q0 -92 -33 -168t-91 -130.5t-140 -83t-181 -28.5h-641zM449 213h256q119 0 170 60.5t51 148.5q0 84 -54.5 143.5 t-166.5 59.5h-256v-412zM449 829h227q104 0 157.5 45.5t53.5 131.5t-49.5 137t-161.5 51h-227v-365z" />
<glyph unicode="C" horiz-adv-x="1284" d="M106 696q0 123 31 254t108 238.5t208.5 177.5t334.5 70q109 0 203 -16.5t172 -41.5l-43 -221q-82 23 -156.5 32t-136.5 9q-197 0 -299 -122t-102 -369q0 -121 20.5 -212.5t68.5 -152.5t127 -92t194 -31q25 0 64.5 3t85.5 9.5t92 14.5t87 18l49 -209q-45 -18 -99 -31.5 t-112.5 -23.5t-118 -15t-112.5 -5q-195 0 -322.5 55t-204.5 152.5t-108 227.5t-31 281z" />
<glyph unicode="D" horiz-adv-x="1413" d="M150 0v1409h528q186 0 308 -56.5t192.5 -151.5t98.5 -223t28 -269t-32 -270.5t-105.5 -226.5t-196.5 -154.5t-305 -57.5h-516zM455 217h186q53 0 114.5 17.5t114 69.5t87 146.5t34.5 247.5q0 156 -32.5 253.5t-83 151.5t-113 73.5t-121.5 19.5h-186v-979z" />
<glyph unicode="E" horiz-adv-x="1241" d="M147 0v1409h971v-213h-665v-358h559v-201h-559v-422h694v-215h-1000z" />
<glyph unicode="F" horiz-adv-x="1175" d="M147 0v1409h961v-215h-657v-381h514v-205h-514v-608h-304z" />
<glyph unicode="G" horiz-adv-x="1366" d="M106 700q0 123 31 254t110 237.5t217 175.5t353 69q106 0 206.5 -16.5t180.5 -41.5l-43 -217q-86 23 -164.5 32t-144.5 9q-217 0 -321.5 -128t-104.5 -390q0 -106 18.5 -192t60.5 -146.5t110.5 -93.5t168.5 -33q41 0 93.5 6t93.5 17v501h276v-686q-119 -41 -243.5 -59 t-235.5 -18q-193 0 -319.5 57t-202.5 155.5t-108 229.5t-32 278z" />
<glyph unicode="H" horiz-adv-x="1454" d="M147 0v1407h306q0 -141 -1 -280.5t-1 -280.5h546v561h306v-1407h-306v627h-546q0 -158 1 -314.5t1 -312.5h-306z" />
<glyph unicode="I" horiz-adv-x="630" d="M166 0v1409h299v-1409h-299z" />
<glyph unicode="J" horiz-adv-x="747" d="M-104 -184q109 57 178 108t110 108.5t57.5 126t16.5 160.5l2 1092h301l-2 -1102q0 -293 -149.5 -462t-442.5 -240z" />
<glyph unicode="K" horiz-adv-x="1361" d="M147 0v1407h299v-549h15l86 98l416 451h350l-537 -551l567 -856h-356q-104 166 -207.5 327.5t-208.5 327.5l-125 -127v-528h-299z" />
<glyph unicode="L" horiz-adv-x="1185" d="M147 0v1409h304v-1198h714v-211h-1018z" />
<glyph unicode="M" horiz-adv-x="1822" d="M147 0v1407h373l185 -457q20 -53 45.5 -117.5t52 -133t51.5 -134t47 -116.5h17q49 119 100 247.5t100 249.5q20 43 46 104.5t51.5 126t51 126t46.5 104.5h360v-1407h-295v950h-6l-102 -260q-27 -59 -58.5 -133t-63.5 -148.5t-62.5 -148.5t-57.5 -133h-248 q-27 61 -57.5 137t-62 153t-63.5 151.5t-60 136.5l-91 235h-6v-219t-1 -251t-1 -251v-219h-291z" />
<glyph unicode="N" horiz-adv-x="1519" d="M147 0v1407h306q111 -172 218 -340t216 -342l178 -287h12v969h293v-1407h-303l-477 758q-35 59 -71 116.5t-70 116.5q-4 0 -5.5 -1t-5.5 -1v-989h-291z" />
<glyph unicode="O" horiz-adv-x="1527" d="M109 700q0 152 37.5 285t117.5 233.5t205 158t301 57.5t300 -58.5t202 -158t113.5 -231t35.5 -281.5q0 -156 -41 -288t-122.5 -229.5t-203.5 -152.5t-284 -55q-172 0 -297 52t-206 147t-119.5 227.5t-38.5 293.5zM426 698q0 -240 77 -369.5t267 -129.5q88 0 151.5 37.5 t102.5 105.5t57.5 158.5t18.5 199.5q0 96 -13.5 189.5t-49.5 166t-100.5 118t-166.5 45.5q-104 0 -171 -44.5t-105.5 -116t-53 -165.5t-14.5 -195z" />
<glyph unicode="P" horiz-adv-x="1222" d="M147 0v1409h535q242 0 362.5 -116.5t120.5 -315.5q0 -76 -24.5 -154t-79.5 -140t-142.5 -102t-211.5 -40h-256l2 -541h-306zM451 748h198q41 0 79 11t66.5 37.5t46 69.5t17.5 105q0 121 -62.5 173t-156.5 52h-188v-448z" />
<glyph unicode="Q" horiz-adv-x="1538" d="M106 698q0 152 38 286t118 233.5t205 158t301 58.5t300 -58.5t202 -159t112.5 -233.5t34.5 -283q0 -211 -73.5 -374.5t-221.5 -249.5q76 -23 154 -42.5t154 -37.5q-23 -57 -44.5 -114.5t-44.5 -114.5q-160 55 -319.5 109t-321.5 108q-156 14 -267 69.5t-184 146.5 t-108 216t-35 282zM424 696q0 -121 18.5 -214t59.5 -156.5t106.5 -97t159.5 -33.5q88 0 150.5 37.5t102.5 105.5t58.5 159.5t18.5 200.5q0 96 -13.5 188.5t-49.5 165t-100.5 117.5t-166.5 45t-169 -43t-105.5 -115.5t-54 -165.5t-15.5 -194z" />
<glyph unicode="R" horiz-adv-x="1320" d="M147 0v1407h572q121 0 208 -32t143 -87t83 -128.5t27 -155.5q0 -57 -14.5 -113.5t-44 -105t-75 -86t-106.5 -58.5v-2q88 -29 127 -96.5t61 -149.5l113 -393h-301q-27 92 -53.5 183t-52.5 186q-33 117 -91.5 157.5t-144.5 40.5h-152v-567h-299zM446 774h216 q37 0 73.5 10.5t67.5 35t50 65.5t19 102q0 106 -59 156.5t-154 50.5h-213v-420z" />
<glyph unicode="S" horiz-adv-x="1275" d="M84 92l78 214q150 -59 268.5 -76t190.5 -17q125 0 188 42t63 144q0 45 -16 75t-47 51.5t-74 35.5t-94 29q-104 27 -198.5 54.5t-166 72.5t-113.5 113.5t-42 177.5q0 193 134 310.5t400 117.5q104 0 223 -21.5t224 -79.5l-78 -205q-104 43 -203.5 56.5t-175.5 13.5 q-96 0 -151.5 -45t-55.5 -135q0 -41 23.5 -68.5t62.5 -48t89.5 -35t105.5 -26.5q72 -18 154.5 -43t153.5 -72t117 -125t46 -203q0 -201 -147.5 -310t-444.5 -109q-53 0 -117.5 6t-132 19t-135.5 34.5t-129 52.5z" />
<glyph unicode="T" horiz-adv-x="1249" d="M29 1190v219h1192v-219h-445l-2 -1190h-299v1190h-446z" />
<glyph unicode="U" horiz-adv-x="1452" d="M137 518v891h299v-901q0 -160 76 -234.5t219 -74.5q131 0 210 72.5t79 236.5l-2 901h297l-2 -891q0 -125 -35 -225t-106.5 -170t-182 -106.5t-262.5 -36.5q-158 0 -270.5 36.5t-183 106.5t-103.5 170t-33 225z" />
<glyph unicode="V" horiz-adv-x="1325" d="M16 1409h322q66 -229 128 -442t124 -441q16 -61 31.5 -124.5t31.5 -127.5h15q16 59 33.5 123t33.5 129q59 229 122 442.5t128 440.5h322q-117 -354 -231.5 -705.5t-231.5 -703.5h-369q-117 352 -230.5 703.5t-228.5 705.5z" />
<glyph unicode="W" horiz-adv-x="1931" d="M16 1409h322q14 -66 34.5 -162t42 -199.5t42 -199.5t35.5 -160q8 -39 16 -83t15 -90t15.5 -91t16.5 -84h14q16 76 30.5 167t31.5 167q14 72 35.5 169t44 200.5t44 199.5t36.5 166h325q6 -20 20.5 -77.5t33 -132.5t39 -159t38 -156.5t31.5 -127t18 -70.5q2 -8 12.5 -56 t22.5 -106.5t23.5 -112t15.5 -69.5h16q16 82 32 180.5t32 177.5q14 63 33.5 158.5t40 196t41 196t34.5 158.5h316q-18 -78 -46 -194.5t-59.5 -251t-65.5 -277.5t-65.5 -273t-58.5 -238.5t-43 -174.5h-373q-18 68 -39.5 155t-44 178t-44 179t-40.5 156q-6 25 -16 74 t-21.5 102t-21.5 102t-16 74l-15 2q-16 -82 -32.5 -178t-32.5 -176l-146 -668h-379z" />
<glyph unicode="X" horiz-adv-x="1323" d="M12 0q117 184 233.5 364.5t233.5 366.5q-104 166 -213.5 337t-216.5 339h344q70 -125 138.5 -247t140.5 -247q72 123 141.5 247t140.5 247h342q-115 -172 -226.5 -341t-223.5 -341l461 -725h-340q-78 131 -156 264l-156 266l-303 -530h-340z" />
<glyph unicode="Y" horiz-adv-x="1282" d="M16 1407h316q43 -92 88 -181t86 -182l125 -280h12q35 68 66.5 146.5t66.5 146.5l176 350h310q-117 -213 -232 -433t-231 -433v-541h-324v506z" />
<glyph unicode="Z" horiz-adv-x="1216" d="M37 0v201l696 977l-6 14h-637v217h1055v-197l-705 -981l6 -12l736 -2v-217h-1145z" />
<glyph unicode="[" horiz-adv-x="641" d="M129 -328v1760h440v-164h-196v-1438h196v-158h-440z" />
<glyph unicode="\" horiz-adv-x="759" d="M16 1446h201l531 -1514h-201z" />
<glyph unicode="]" horiz-adv-x="641" d="M80 -170h194v1438h-194v164h438v-1760h-438v158z" />
<glyph unicode="^" horiz-adv-x="997" d="M39 727l381 664h139l379 -664h-193l-256 463l-258 -463h-192z" />
<glyph unicode="_" horiz-adv-x="1024" d="M0 -154h1024v-143h-1024v143z" />
<glyph unicode="`" horiz-adv-x="1062" d="M305 1368q12 14 34.5 39t46.5 51.5t46.5 51t36.5 38.5q25 -31 65.5 -77t86 -94t86.5 -94t67 -77l-108 -119z" />
<glyph unicode="a" horiz-adv-x="1185" d="M66 272q0 78 28.5 136.5t78.5 98.5t117.5 62.5t147.5 26.5q59 4 137 8t138 8v25q0 86 -37 130t-150 44q-74 0 -160.5 -14.5t-158.5 -36.5q-10 47 -22.5 92t-24.5 90q90 39 208.5 61.5t227.5 22.5q90 0 164 -18.5t125 -59.5t78.5 -107.5t27.5 -164.5v-481h131l15 -164 q-49 -23 -115 -37t-131 -14q-66 0 -110 22.5t-52 97.5l-4 4q-53 -47 -106.5 -71.5t-99.5 -36.5t-84 -14t-58 -2q-94 0 -154.5 29.5t-95.5 73.5t-48 95t-13 94zM369 297q0 -63 32.5 -96t104.5 -33q47 0 102.5 23.5t104.5 66.5v193l-203 -17q-141 -12 -141 -137z" />
<glyph unicode="b" horiz-adv-x="1175" d="M102 84v1382h291v-297q0 -20 -1 -49.5t-2 -60.5t-2 -59.5t-1 -49.5l14 -8q86 53 163 72.5t130 19.5q113 0 190 -40t124 -110.5t66.5 -169t19.5 -212.5q0 -104 -22.5 -198.5t-78 -165t-150.5 -112.5t-241 -42q-49 0 -111.5 5t-128 16t-132 30.5t-128.5 48.5zM397 227 q51 -23 100.5 -30t90.5 -7q45 0 84 13.5t67.5 48.5t44 94.5t15.5 151.5q0 100 -15.5 162.5t-42 96.5t-61.5 46t-74 12q-53 0 -108.5 -19.5t-100.5 -43.5v-525z" />
<glyph unicode="c" horiz-adv-x="993" d="M80 492q0 88 20.5 183t75.5 174t151.5 129t250.5 50q66 0 146.5 -9t166.5 -40q-10 -51 -21.5 -101.5t-23.5 -103.5q-66 18 -120 23.5t-99 5.5q-123 0 -186.5 -79t-63.5 -220q0 -139 52 -218t189 -79q72 0 137.5 14.5t133.5 36.5l55 -195q-76 -39 -175 -59t-204 -20 q-145 0 -238.5 39.5t-148.5 109.5t-76.5 162t-21.5 197z" />
<glyph unicode="d" horiz-adv-x="1177" d="M80 481q0 117 22.5 217.5t74.5 174t134 115.5t203 42q49 0 126 -13t140 -50v497h293v-1464h-272l-6 90q-4 4 -7 4q-74 -59 -158.5 -83.5t-150.5 -24.5q-117 0 -194.5 40t-122.5 107.5t-63.5 157.5t-18.5 190zM375 483q0 -90 15.5 -146t42 -89t63 -45.5t77.5 -12.5 q23 0 51.5 7.5t57.5 17.5t54.5 24.5t43.5 26.5v496q-35 23 -94 39t-108 16q-37 0 -74 -13t-65.5 -50t-46 -102.5t-17.5 -168.5z" />
<glyph unicode="e" horiz-adv-x="1114" d="M82 502q0 82 20.5 176t75.5 172t150 130t245 52q162 0 254.5 -51t138.5 -127t57 -161t11 -152v-105h-657q0 -117 58.5 -176t193.5 -59q82 0 163.5 17.5t159.5 45.5l60 -180q-100 -55 -211 -77.5t-215 -22.5q-152 0 -250 42t-154.5 113.5t-78 164.5t-21.5 198zM381 616 h387q-2 100 -40 165t-142 65q-55 0 -92 -18.5t-60.5 -50.5t-36 -73.5t-16.5 -87.5z" />
<glyph unicode="f" horiz-adv-x="843" d="M57 815v160l144 41v125q0 72 17.5 135t61.5 109.5t117.5 73t184.5 26.5q53 0 128.5 -7.5t147.5 -27.5l-35 -199q-43 10 -92 14.5t-82 4.5q-78 0 -121 -30t-43 -103v-129h289v-193h-289v-85v-145t-1 -177.5t-1 -177.5v-145v-85h-284v815h-142z" />
<glyph unicode="g" horiz-adv-x="1222" d="M76 -160q0 76 38 133.5t89 85.5q-111 35 -111 148q0 76 45 119t105 65l4 8q-53 31 -90 94.5t-37 161.5q0 100 39 171t103.5 117t147.5 67.5t171 21.5q59 0 115.5 -6t97.5 -18h360v-148h-143l-6 -10q29 -37 41 -87t12 -97q0 -86 -36 -151.5t-99.5 -110t-147.5 -67 t-180 -22.5l-117 -2q-57 0 -91 -14t-34 -49q0 -23 21.5 -36t58.5 -13h295q190 0 296.5 -72t106.5 -227q0 -70 -32.5 -132.5t-102 -110.5t-181.5 -76.5t-267 -28.5q-150 0 -242 25.5t-143 66.5t-68.5 92t-17.5 102zM358 -106q0 -29 9.5 -55.5t34 -46t69.5 -32t117 -12.5 q123 0 184.5 40t61.5 106q0 25 -6.5 48t-25 41.5t-51 30t-83.5 11.5h-222q-35 -14 -61.5 -53.5t-26.5 -77.5zM406 666q0 -80 44 -125t123 -45q84 0 140.5 40t56.5 132q0 33 -9 64.5t-30.5 56t-57.5 40t-87 15.5q-94 0 -137 -50.5t-43 -127.5z" />
<glyph unicode="h" horiz-adv-x="1165" d="M100 0v1464h289v-325l-6 -215l16 -9q86 51 180.5 83t165.5 32q102 0 164 -27.5t95.5 -74.5t45 -110.5t11.5 -133.5v-684h-293v623q0 39 -4 71.5t-18.5 57t-43 38t-77.5 13.5q-51 0 -115 -22.5t-115 -53.5v-727h-295z" />
<glyph unicode="i" horiz-adv-x="612" d="M135 1284q0 68 44 113t124 45q86 0 130 -45t44 -113q0 -66 -44 -111t-130 -45q-82 0 -125 45.5t-43 110.5zM158 0v1006h293v-1006h-293z" />
<glyph unicode="j" horiz-adv-x="628" d="M-82 -268q80 45 129 83t77 78.5t37 93t9 128.5v891h295v-648.5t-2 -263.5q-2 -121 -28.5 -211t-82 -156.5t-142.5 -113.5t-212 -80q-4 8 -15.5 38t-23.5 62.5t-24.5 61.5t-16.5 37zM152 1284q0 68 43 113t124 45q84 0 128.5 -45t44.5 -113q0 -66 -44.5 -111t-128.5 -45 t-125.5 45.5t-41.5 110.5z" />
<glyph unicode="k" horiz-adv-x="1089" d="M100 0v1462h297l-2 -510q0 -66 -2 -145t-6 -145q4 -2 12 -3l324 347h328l-379 -394l73 -86q14 -25 41 -65.5t59 -92t66.5 -105.5t66.5 -105.5t58.5 -93t40.5 -64.5h-323q-68 111 -135.5 220.5t-133.5 221.5l-88 -90v-352h-297z" />
<glyph unicode="l" horiz-adv-x="557" d="M131 0v1466h293l-2 -1466h-291z" />
<glyph unicode="m" horiz-adv-x="1769" d="M102 0v1006h275l6 -101l8 -4q86 66 181.5 96.5t166.5 30.5q170 0 244 -131q37 29 83 52.5t95 41t96.5 27.5t88.5 10q100 0 162.5 -28.5t96 -78t46 -114t12.5 -133.5v-674h-295v637q0 84 -27.5 124t-105.5 40q-47 0 -109.5 -20.5t-105.5 -49.5q4 -33 6 -67.5t2 -63.5v-600 h-289q0 166 -1 329t-1 328q0 141 -121 142q-51 0 -109 -20.5t-112 -53.5v-725h-293z" />
<glyph unicode="n" horiz-adv-x="1165" d="M100 0v1006h279l4 -93l8 -4q88 59 185.5 90t168.5 31q100 0 162 -27.5t95.5 -74.5t46 -110.5t12.5 -133.5v-684h-293v623q0 39 -4 71.5t-19.5 57t-44 38t-75.5 13.5q-51 0 -115 -22.5t-115 -53.5v-727h-295z" />
<glyph unicode="o" horiz-adv-x="1181" d="M82 502q0 106 28.5 201.5t90 167t159 114.5t236.5 43q141 0 237.5 -42t156 -114.5t85 -168t25.5 -199.5t-26.5 -199.5t-88 -168.5t-160 -114.5t-241.5 -41.5q-139 0 -235.5 40.5t-156 111.5t-85 166t-25.5 204zM383 502q0 -68 8 -125.5t31.5 -99t64.5 -66.5t109 -25 q61 0 101 26t61.5 70t30 101.5t8.5 118.5q0 59 -8.5 116.5t-30 102.5t-60.5 72.5t-102 27.5t-104 -27.5t-66 -72.5t-34 -102.5t-9 -116.5z" />
<glyph unicode="p" horiz-adv-x="1177" d="M102 -428v1436h275l6 -90l10 -9q74 59 154 86t149 27q117 0 194 -41t122 -110.5t63.5 -163t18.5 -199.5q0 -111 -22.5 -207t-74 -167t-133.5 -111.5t-200 -40.5q-25 0 -59 3t-70.5 9t-73.5 17.5t-68 29.5v-469h-291zM395 244q35 -23 92.5 -39.5t108.5 -16.5q39 0 76 15.5 t65.5 52.5t46 101.5t17.5 162.5q0 88 -15.5 144.5t-42 88t-63.5 44t-78 12.5q-25 0 -53.5 -7t-57 -18.5t-54 -25t-42.5 -27.5v-487z" />
<glyph unicode="q" horiz-adv-x="1177" d="M82 459q0 113 23.5 215t83 180t161 124t254.5 46q45 0 103.5 -5t122 -16.5t126 -28t115.5 -38.5v-1362h-287v258v98.5t2 104.5l-7 7t-7 5q-78 -39 -149.5 -54.5t-122.5 -15.5q-115 0 -194 35t-129 97.5t-72.5 151.5t-22.5 198zM375 500q0 -96 15.5 -156.5t41 -94.5 t60 -46.5t75.5 -12.5q53 0 108.5 18.5t102.5 43.5v528q-45 18 -89 25.5t-87 7.5q-49 0 -90 -16.5t-71.5 -53t-48 -97t-17.5 -146.5z" />
<glyph unicode="r" horiz-adv-x="851" d="M125 0v1006h289q0 -35 -4 -86.5t-9 -85.5l11 -7q41 41 90 78t100 65.5t100.5 45t92.5 16.5q57 0 57 -67q0 -29 -8 -69t-21.5 -82t-30 -79t-32.5 -59l-342 4v-680h-293z" />
<glyph unicode="s" horiz-adv-x="1005" d="M63 66l64 182q125 -45 215 -56.5t141 -11.5q72 0 121 23.5t49 87.5q0 31 -16 50t-44 33.5t-61.5 25t-66.5 20.5q-70 20 -135.5 43.5t-115.5 56.5t-81 82t-31 123q0 145 108.5 225t317.5 80q80 0 177.5 -17.5t177.5 -60.5q-4 -8 -13.5 -33.5t-18.5 -55t-18.5 -56.5 t-13.5 -35q-82 31 -151.5 42t-128.5 11q-55 0 -101.5 -17t-46.5 -75q0 -20 17.5 -35.5t43 -28t57.5 -20.5t60 -16q63 -18 129 -42t120 -63t89 -97t35 -146q0 -145 -116.5 -223t-352.5 -78q-43 0 -95 4t-107.5 14t-108.5 25.5t-99 38.5z" />
<glyph unicode="t" horiz-adv-x="829" d="M31 815v160l159 47q6 12 16.5 47t21 74t20.5 73.5t14 47.5l199 20v-276h293v-193h-293v-455q0 -80 28.5 -117.5t106.5 -37.5q29 0 74 7t100 19l37 -190q-66 -29 -143.5 -43t-143.5 -14q-104 0 -171.5 24.5t-106.5 65.5t-54.5 95t-15.5 114v532h-141z" />
<glyph unicode="u" horiz-adv-x="1142" d="M100 319v687h293v-623q0 -37 4 -69.5t18.5 -57.5t41 -39t73.5 -14q43 0 101.5 22.5t113.5 71.5v709q74 0 147 1t146 1v-1008h-272q-4 27 -4 53.5t-4 55.5l-8 4q-47 -41 -95.5 -67t-93.5 -41t-84.5 -21.5t-68.5 -6.5q-100 0 -161 27t-93.5 74t-43 108.5t-10.5 132.5z" />
<glyph unicode="v" horiz-adv-x="1128" d="M18 1006h308l145 -467q8 -27 20.5 -74t25.5 -98.5t25.5 -98.5t22.5 -73h10q4 10 15.5 53t26 99t30 114.5t27.5 97.5q16 49 38.5 121t44 140.5t37 121.5t19.5 64h295q-18 -51 -46 -132t-60.5 -175.5t-66.5 -197t-66.5 -196.5t-60.5 -174t-46 -131h-400q-18 51 -45.5 131 t-59.5 174t-66.5 196.5t-66.5 197t-59.5 175t-46.5 132.5z" />
<glyph unicode="w" horiz-adv-x="1679" d="M33 1008h289l112 -465l62 -310h10l67 318l121 457h279l131 -471l70 -301h14l59 301l113 471h285l-273 -1008h-342l-119 430l-73 326h-15l-67 -326l-109 -430h-342z" />
<glyph unicode="x" horiz-adv-x="1064" d="M8 0l346 524l-319 482h321l183 -340l184 340h313l-325 -480l342 -526h-320l-198 373l-213 -373h-314z" />
<glyph unicode="y" horiz-adv-x="1097" d="M29 1006h290q16 -55 38 -135t45.5 -165t46 -167t38.5 -142q16 -59 27.5 -119.5t20.5 -95.5h14q6 27 21.5 89.5t35.5 131.5q18 61 41 139.5t46.5 161t47 161.5t41.5 141h295q-25 -72 -56.5 -169.5t-68.5 -206t-75.5 -224t-75.5 -224t-70 -205t-57 -167.5 q-43 -129 -131 -191.5t-215 -62.5q-41 0 -98.5 7t-151.5 31l41 195q53 -8 85 -13t60 -5q70 0 107 26.5t59 98.5l41 127h-131z" />
<glyph unicode="z" horiz-adv-x="956" d="M20 0v160l512 637l-4 12h-456v199h839v-160l-514 -637l6 -14h535v-197h-918z" />
<glyph unicode="{" horiz-adv-x="667" d="M63 510v149q82 16 113 67.5t31 150.5v258q0 51 9 105t36 99t72 73t118 28h183v-162h-54q-70 0 -93 -40t-23 -95v-293q0 -49 -5.5 -92t-20.5 -77t-43 -57.5t-75 -33.5v-2q90 -35 117 -102.5t27 -174.5v-360q0 -27 4 -51.5t16 -43t33.5 -28.5t56.5 -10h60v-158h-172 q-84 0 -133.5 30.5t-74 73.5t-31.5 89.5t-7 76.5v389q0 86 -33 130.5t-111 60.5z" />
<glyph unicode="|" horiz-adv-x="638" d="M219 -299v1747h195v-1747h-195z" />
<glyph unicode="}" horiz-adv-x="667" d="M45 -182h61q35 0 56.5 10t34 28.5t16.5 43t4 51.5v360q0 106 25.5 174t115.5 103v2q-78 20 -109.5 83.5t-31.5 147.5v322q0 55 -23.5 95t-93.5 40h-55v162h184q74 0 119 -22.5t71.5 -59.5t36 -85t9.5 -99v-316q0 -94 35 -138t108 -61v-149q-78 -16 -110.5 -66.5 t-32.5 -124.5v-370q0 -31 -7 -79t-32 -95t-74 -81t-133 -34h-174v158z" />
<glyph unicode="~" horiz-adv-x="1208" d="M133 549q45 115 113.5 167t152.5 52q53 0 114.5 -14.5t123 -33t120 -32.5t107.5 -14l137 98l101 -76q-41 -109 -105.5 -166t-156.5 -57q-66 0 -129.5 14.5t-123 32t-113.5 31.5t-97 14l-144 -94z" />
<glyph unicode="&#xa1;" horiz-adv-x="579" d="M135 881q0 59 39 101t117 42q74 0 113.5 -42t39.5 -101t-38.5 -100.5t-116.5 -41.5q-74 0 -114 41t-40 101zM152 -438l6 495q2 43 5 118t8 157t8 156.5t5 117.5h213q0 -51 4.5 -136t8.5 -175t8 -174t4 -133q0 -8 1 -41t2 -78t1 -95t1 -95.5t1 -77v-39.5h-276z" />
<glyph unicode="&#xa2;" horiz-adv-x="1208" d="M137 492q0 86 19.5 178t71 168.5t141.5 129t231 58.5v154h119v-154q53 -4 111.5 -14.5t117.5 -32.5q-10 -51 -21.5 -101.5t-23.5 -103.5q-53 16 -99 21.5t-85 7.5v-596q59 4 114.5 17.5t112.5 33.5l55 -195q-59 -29 -131.5 -48t-150.5 -27v-156h-119v152q-137 4 -227 45 t-142.5 109.5t-73 159.5t-20.5 194zM434 504q0 -117 37 -191.5t129 -97.5v576q-84 -25 -125 -98.5t-41 -188.5z" />
<glyph unicode="&#xa3;" horiz-adv-x="1208" d="M100 0v190q41 25 69 60t44 76t24.5 85t10.5 87q0 2 2 20.5t3 39t2 37.5t1 19h-127v154h137q0 6 2 32.5t3 58.5t3 59.5t2 33.5q8 100 38 181t84.5 139.5t136 90.5t192.5 32t209 -23.5t166 -54.5l-72 -193q-98 37 -165.5 44.5t-108.5 7.5q-115 0 -160 -61.5t-53 -178.5 q0 -6 -2 -30.5t-3 -53.5t-3.5 -53.5t-2.5 -30.5h320v-154h-330q0 -2 -1 -19t-3 -37.5t-3 -39t-1 -20.5q-4 -90 -25.5 -174t-70.5 -131h672v-193h-990z" />
<glyph unicode="&#xa4;" horiz-adv-x="1155" d="M98 274l133 129q-39 53 -54 110.5t-15 111.5q0 59 17.5 117.5t51.5 107.5l-133 133l121 119l131 -131q49 33 106.5 51t121.5 18q123 0 225 -71l131 133l121 -121l-135 -129q68 -104 67 -225q0 -59 -18.5 -116.5t-48.5 -109.5l135 -125l-121 -124l-133 133 q-53 -39 -108.5 -53.5t-114.5 -14.5q-61 0 -116.5 14.5t-109.5 53.5l-133 -133zM336 627q0 -49 18.5 -93.5t51 -76t76.5 -50t93 -18.5t91.5 18.5t75 50t51 76t18.5 93.5t-18.5 92t-50 74.5t-74.5 51t-93 19.5q-49 0 -93 -18.5t-76.5 -51t-51 -75.5t-18.5 -92z" />
<glyph unicode="&#xa5;" horiz-adv-x="1208" d="M53 1368h293q14 -31 33.5 -81t40 -103.5t40 -103.5t34.5 -81l100 -251h10q8 20 22.5 55t29 71.5t27.5 70.5t24 54q6 12 28.5 66.5t49 118t49 118t26.5 66.5h287q-27 -53 -68 -140t-86 -181.5t-86 -180.5t-67 -139h237v-111h-956v111h229q-27 53 -66.5 139t-81.5 180.5 t-82 181.5t-67 140zM121 412v112h956v-112h-332v-412h-294v412h-330z" />
<glyph unicode="&#xa6;" horiz-adv-x="638" d="M219 -299v788h195v-788h-195zM219 719v729h195v-729h-195z" />
<glyph unicode="&#xa7;" horiz-adv-x="1060" d="M119 647q0 162 139 266q-59 43 -92 95.5t-33 126.5q0 84 34 146t92 103t137 61.5t171 20.5q102 0 194.5 -18t149.5 -45l-55 -166q-84 25 -156.5 35t-132.5 10q-33 0 -65.5 -9t-59 -25.5t-43 -41t-16.5 -55.5q0 -35 30.5 -63.5t76 -53t96.5 -46t92 -40.5q49 -23 97 -46 t86 -57t60.5 -79.5t22.5 -106.5q0 -78 -29.5 -141t-103.5 -123q90 -59 122 -126.5t32 -121.5q0 -162 -127 -251t-344 -89q-109 0 -201 18.5t-160 43.5q12 41 25.5 83t27.5 83q92 -29 159 -39t120 -10t97 12t76 31.5t49.5 45t17.5 52.5q0 53 -41 88t-138 74 q-72 31 -144.5 60.5t-130.5 69.5t-95 94t-37 134zM350 690q0 -47 23.5 -73.5t63.5 -47t94.5 -41t115.5 -53.5q35 33 54.5 72.5t19.5 66.5q0 41 -24.5 71t-66.5 54.5t-94.5 46t-107.5 45.5q-78 -68 -78 -141z" />
<glyph unicode="&#xa8;" horiz-adv-x="1110" d="M193 1276q0 55 35.5 91t103.5 36q72 0 108.5 -35t36.5 -92q0 -53 -37 -90t-108 -37q-70 0 -104.5 37t-34.5 90zM627 1276q0 55 35.5 91t101.5 36q72 0 108.5 -35t36.5 -92q0 -53 -36.5 -90t-108.5 -37q-68 0 -102.5 37t-34.5 90z" />
<glyph unicode="&#xa9;" horiz-adv-x="1742" d="M88 676q0 160 61.5 301t168 246.5t249 166t301.5 60.5q160 0 302.5 -60.5t248 -166t168 -246.5t62.5 -301t-62.5 -301.5t-168 -246.5t-248 -165.5t-302.5 -60.5t-302 60.5t-248.5 165.5t-168 246.5t-61.5 301.5zM211 676q0 -135 52 -254t142.5 -207t209 -139t253.5 -51 q137 0 257 51t209 139t140.5 207t51.5 254t-51.5 254t-140.5 208t-208.5 140t-257.5 51q-135 0 -253.5 -51t-209 -140t-142.5 -208t-52 -254zM428 659q0 86 21.5 176.5t76 165t147.5 121.5t236 47q80 0 139.5 -10t112.5 -29l-28 -145q-55 16 -105.5 22.5t-97.5 6.5 q-137 0 -214 -87t-77 -261q0 -170 67.5 -255t227.5 -85q18 0 47 2t59.5 5t62.5 8t56 11l31 -139q-59 -23 -144 -36t-161 -13q-133 0 -220 39t-140.5 105.5t-75 156.5t-21.5 194z" />
<glyph unicode="&#xaa;" horiz-adv-x="792" d="M35 731q0 66 38 116t128 66q49 10 118.5 16.5t141.5 10.5v27q0 53 -21.5 76.5t-89.5 23.5q-47 0 -104.5 -9t-110.5 -26q-10 33 -20.5 68t-20.5 69q68 29 149 43.5t158 14.5q127 0 199 -52.5t72 -185.5v-293h84l8 -129q-35 -16 -85 -24t-87 -8q-41 0 -75 16t-44 57 q-33 -29 -65.5 -44t-60.5 -23.5t-50.5 -9.5t-36.5 -1q-68 0 -112 20.5t-68.5 50.5t-34.5 64.5t-10 65.5zM256 750q0 -78 84 -78q25 0 59.5 14t61.5 33v119q-35 0 -71 -3.5t-64 -11.5q-70 -16 -70 -73z" />
<glyph unicode="&#xab;" horiz-adv-x="1009" d="M100 365v77l340 367l115 -82l-211 -324l211 -319l-119 -86zM479 365v77l340 367l117 -82l-211 -324l209 -319l-117 -86z" />
<glyph unicode="&#xac;" horiz-adv-x="1208" d="M199 535v170h845v-519h-176v349h-669z" />
<glyph unicode="&#xad;" horiz-adv-x="804" d="M121 449v202h563v-202h-563z" />
<glyph unicode="&#xae;" horiz-adv-x="1230" d="M82 954q0 109 40 205t110.5 167t167 112t210.5 41q113 0 209 -41t167 -112t111 -167t40 -205t-40 -204t-111 -166.5t-167 -112.5t-209 -41q-111 0 -208 41t-167.5 112.5t-111.5 167t-41 203.5zM178 954q0 -88 32 -166.5t89 -137t137 -92.5t174 -34q98 0 177 34 t135.5 92.5t87 137t30.5 166.5t-32.5 167t-90 137.5t-136.5 92t-171 33.5t-171 -33.5t-137 -92t-91 -137.5t-33 -167zM410 668v596h241q104 0 152.5 -49.5t48.5 -127.5q0 -39 -24.5 -85t-77.5 -68l120 -266h-131l-98 243h-98v-243h-133zM545 999h76q39 0 65.5 19t26.5 72 q0 47 -25.5 66.5t-60.5 19.5h-82v-177z" />
<glyph unicode="&#xaf;" horiz-adv-x="1138" d="M197 1194v186h743v-186h-743z" />
<glyph unicode="&#xb0;" horiz-adv-x="765" d="M80 1102q0 61 24.5 117.5t65.5 97.5t97.5 65.5t117.5 24.5q63 0 118.5 -24.5t96.5 -65.5t65.5 -97.5t24.5 -117.5q0 -63 -24.5 -118.5t-65.5 -97.5t-96 -65.5t-119 -23.5q-68 0 -123 22.5t-96 63.5t-63.5 96t-22.5 123zM223 1100q0 -70 46 -116t114 -46t116 46t48 116 q0 72 -48 119t-116 47t-114 -47.5t-46 -118.5z" />
<glyph unicode="&#xb1;" horiz-adv-x="1208" d="M199 0v164h843v-164h-843zM199 567v170h336v310h176v-310h331v-170h-331v-309h-176v309h-336z" />
<glyph unicode="&#xb2;" horiz-adv-x="802" d="M39 1464q90 59 175 81t153 22q154 0 234.5 -65.5t80.5 -188.5q0 -61 -27.5 -118.5t-71.5 -112t-99.5 -104.5t-110.5 -95h344v-158h-666v137q63 47 134 106.5t131.5 119t99.5 116t39 96.5q0 47 -33 68t-90 21q-31 0 -88.5 -10.5t-130.5 -51.5z" />
<glyph unicode="&#xb3;" horiz-adv-x="802" d="M43 780q14 35 26.5 73t26.5 77q86 -29 145.5 -35t96.5 -6q86 0 124 33.5t38 81.5q0 31 -15.5 51t-42 32.5t-60.5 17.5t-73 5q-20 0 -40.5 -1t-41.5 -3l-16 106l197 179l-5 8h-313v155h586q8 -31 15 -59.5t14 -58.5l-203 -187q104 -18 162.5 -81.5t58.5 -163.5 q0 -70 -28.5 -123.5t-78 -90t-116 -55t-140.5 -18.5q-66 0 -152.5 11t-164.5 52z" />
<glyph unicode="&#xb4;" horiz-adv-x="1069" d="M383 1196l303 348l156 -168l-357 -286z" />
<glyph unicode="&#xb6;" horiz-adv-x="1230" d="M86 1014q0 88 29.5 165.5t84 136t131.5 92.5t171 34h553v-1866h-195v1673h-125v-1673h-196l2 1028h-39q-90 0 -166 30t-131 84t-87 129t-32 167z" />
<glyph unicode="&#xb7;" horiz-adv-x="530" d="M109 563q0 66 39.5 107t117.5 41t120 -41t42 -107q0 -63 -42 -105t-120 -42t-117.5 43t-39.5 104z" />
<glyph unicode="&#xb8;" horiz-adv-x="978" d="M348 -422q104 10 163.5 39t59.5 74q0 31 -19.5 45t-48 19t-59 5h-55.5l-35 54l209 270l82 -49q-29 -35 -58.5 -74t-58.5 -80q100 -8 158.5 -51t58.5 -121q0 -98 -96 -162.5t-301 -66.5v98z" />
<glyph unicode="&#xb9;" horiz-adv-x="776" d="M76 1479l250 75h190v-827h-223v639q-14 -2 -40 -5t-54.5 -6t-54 -6t-40.5 -6z" />
<glyph unicode="&#xba;" horiz-adv-x="817" d="M51 883q0 70 20.5 132t64.5 110.5t112.5 76t163.5 27.5q94 0 161.5 -27.5t109.5 -76t61.5 -110.5t19.5 -132t-20.5 -132.5t-63.5 -110.5t-111.5 -75.5t-167.5 -27.5q-94 0 -160.5 26.5t-108.5 73.5t-61.5 109.5t-19.5 136.5zM276 881q0 -39 5.5 -74t19.5 -60.5t41 -41 t70 -15.5q39 0 64.5 16.5t38.5 43t18.5 61.5t5.5 72q0 33 -5.5 66.5t-18.5 61t-38.5 45t-64.5 17.5q-41 0 -67 -17.5t-41 -45t-21.5 -61.5t-6.5 -68z" />
<glyph unicode="&#xbb;" horiz-adv-x="1009" d="M88 727l117 82l340 -367v-77l-336 -367l-119 86l211 319zM469 727l117 82l340 -367v-77l-338 -367l-117 86l209 319z" />
<glyph unicode="&#xbc;" horiz-adv-x="1843" d="M164 1294l250 76h190v-827h-223v639q-14 -2 -40 -5t-54.5 -6.5t-54 -6.5t-39.5 -5zM483 -41l645 1491h177l-643 -1491h-179zM946 215v125l387 485h228v-463h118v-147h-118v-217h-215v217h-400zM1143 362h205v250h-13z" />
<glyph unicode="&#xbd;" horiz-adv-x="1843" d="M133 1294l250 76h190v-827h-223v639q-14 -2 -39.5 -5t-54.5 -6.5t-54.5 -6.5t-39.5 -5zM440 -41l645 1491h177l-644 -1491h-178zM1024 735q90 59 175 81t153 22q154 0 234.5 -65.5t80.5 -188.5q0 -61 -28.5 -121t-73.5 -115t-100.5 -104t-106.5 -90q88 0 175 -1t175 -1 v-154h-672v135q63 47 134 105.5t131.5 119t99.5 115.5t39 96q0 47 -33 68.5t-90 21.5q-31 0 -88.5 -10t-130.5 -51z" />
<glyph unicode="&#xbe;" horiz-adv-x="1843" d="M98 596q14 35 26.5 73t27.5 76q86 -29 145 -34.5t96 -5.5q86 0 124 33.5t38 80.5q0 31 -15.5 51.5t-42 32.5t-60.5 17.5t-72 5.5q-20 0 -41 -1t-41 -3l-17 106l197 178l-4 8h-314v156h586q8 -31 15.5 -59.5t13.5 -59.5l-203 -186q104 -18 162.5 -81.5t58.5 -164.5 q0 -70 -28.5 -123t-77.5 -90t-116 -55.5t-140 -18.5q-66 0 -153 11.5t-165 52.5zM545 -41l645 1491h176l-643 -1491h-178zM1012 215v125l387 485h227v-463h119v-147h-119v-217h-215v217h-399zM1208 362h205v250h-12z" />
<glyph unicode="&#xbf;" horiz-adv-x="1015" d="M98 -147q0 100 36 170.5t108 136.5q55 49 104 92t86 84t57.5 82t20.5 88q0 25 -4 49.5t-8 56.5q61 2 120.5 5.5t118.5 5.5q10 -47 13.5 -87t3.5 -69q0 -59 -16.5 -108.5t-46 -92.5t-71 -85t-90.5 -87q-57 -49 -87.5 -89t-30.5 -105q0 -66 49 -99.5t129 -33.5 q66 0 139.5 11t169.5 42q14 -49 29.5 -98.5t32.5 -98.5q-123 -47 -230.5 -62.5t-193.5 -15.5q-102 0 -183.5 22.5t-137.5 62.5t-87 97.5t-31 125.5zM442 881q0 59 40 100t114 41q76 0 116 -41t40 -100t-41 -100.5t-113 -41.5q-76 0 -116 41.5t-40 100.5z" />
<glyph unicode="&#xc0;" horiz-adv-x="1359" d="M16 0l480 1407h381l464 -1407h-311l-98 322h-514l-101 -322h-301zM354 1780l150 162l305 -345l-100 -102zM483 526h387l-104 371l-82 305h-10l-86 -315z" />
<glyph unicode="&#xc1;" horiz-adv-x="1359" d="M16 0l480 1407h381l464 -1407h-311l-98 322h-514l-101 -322h-301zM483 526h387l-104 371l-82 305h-10l-86 -315zM598 1589l301 346l156 -161l-361 -285z" />
<glyph unicode="&#xc2;" horiz-adv-x="1359" d="M16 0l480 1407h381l464 -1407h-311l-98 322h-514l-101 -322h-301zM283 1567l315 301h180l318 -299l-72 -84l-338 186l-334 -188zM483 526h387l-104 371l-82 305h-10l-86 -315z" />
<glyph unicode="&#xc3;" horiz-adv-x="1359" d="M16 0l480 1407h381l464 -1407h-311l-98 322h-514l-101 -322h-301zM299 1618q35 98 89 143t122 45q43 0 89 -12t92 -26.5t90 -26.5t81 -12l115 83l84 -67q-31 -92 -84 -142.5t-125 -50.5q-51 0 -101.5 12.5t-96.5 28t-86 27.5t-70 12l-115 -80zM483 526h387l-104 371 l-82 305h-10l-86 -315z" />
<glyph unicode="&#xc4;" horiz-adv-x="1359" d="M16 0l480 1407h381l464 -1407h-311l-98 322h-514l-101 -322h-301zM326 1610q0 55 35.5 91t103.5 36q72 0 108.5 -35t36.5 -92q0 -53 -36.5 -90t-108.5 -37q-70 0 -104.5 36.5t-34.5 90.5zM483 526h387l-104 371l-82 305h-10l-86 -315zM760 1610q0 55 35.5 91t101.5 36 q72 0 108.5 -35t36.5 -92q0 -53 -36.5 -90t-108.5 -37q-68 0 -102.5 36.5t-34.5 90.5z" />
<glyph unicode="&#xc5;" horiz-adv-x="1359" d="M16 0l480 1407h381l464 -1407h-311l-98 322h-514l-101 -322h-301zM430 1679q0 49 19.5 93.5t54.5 78t82 54t100 20.5t98 -19.5t78 -53t51.5 -78.5t18.5 -95q0 -51 -19.5 -96t-53.5 -77.5t-78 -52t-95 -19.5q-53 0 -100 19.5t-82 53t-54.5 77.5t-19.5 95zM483 526h387 l-104 371l-82 305h-10l-86 -315zM565 1673q0 -47 32 -82t89 -35q51 0 82 35t31 82q0 51 -30 87t-83 36t-87 -36t-34 -87z" />
<glyph unicode="&#xc6;" horiz-adv-x="2127" d="M16 0l875 1407h1098v-209h-623v-364h518v-201h-518v-422h647v-211h-948v369h-500l-227 -369h-322zM682 573h383v617h-12q-10 -18 -29.5 -51t-44.5 -75t-54.5 -90t-58.5 -97z" />
<glyph unicode="&#xc7;" horiz-adv-x="1284" d="M106 696q0 123 31 254t108 238.5t208.5 177.5t334.5 70q109 0 203 -16.5t172 -41.5l-43 -221q-82 23 -156.5 32t-136.5 9q-197 0 -299 -122t-102 -369q0 -121 20.5 -212.5t68.5 -152.5t127 -92t194 -31q25 0 64.5 3t85.5 9.5t92 14.5t87 18l49 -209q-80 -33 -187 -51 t-208 -22q-25 -33 -50.5 -67t-49.5 -69q100 -8 158.5 -51t58.5 -121q0 -98 -96.5 -162.5t-300.5 -66.5v98q104 10 163.5 39t59.5 74q0 31 -19.5 45t-48 19.5t-59.5 5.5h-55l-35 53l155 203q-172 10 -286.5 69.5t-183 154.5t-96.5 221t-28 269z" />
<glyph unicode="&#xc8;" horiz-adv-x="1241" d="M147 0v1409h971v-213h-665v-358h559v-201h-559v-422h694v-215h-1000zM379 1780l149 162l306 -345l-101 -102z" />
<glyph unicode="&#xc9;" horiz-adv-x="1241" d="M147 0v1409h971v-213h-665v-358h559v-201h-559v-422h694v-215h-1000zM541 1593l301 346l155 -161l-360 -285z" />
<glyph unicode="&#xca;" horiz-adv-x="1241" d="M147 0v1409h971v-213h-665v-358h559v-201h-559v-422h694v-215h-1000zM244 1581l315 301h180l318 -299l-72 -84l-338 187l-334 -189z" />
<glyph unicode="&#xcb;" horiz-adv-x="1241" d="M147 0v1409h971v-213h-665v-358h559v-201h-559v-422h694v-215h-1000zM276 1610q0 55 36 91t104 36q72 0 108.5 -35t36.5 -92q0 -53 -37 -90t-108 -37q-70 0 -105 36.5t-35 90.5zM711 1610q0 55 35.5 91t101.5 36q72 0 108.5 -35t36.5 -92q0 -53 -36.5 -90t-108.5 -37 q-68 0 -102.5 36.5t-34.5 90.5z" />
<glyph unicode="&#xcc;" horiz-adv-x="630" d="M4 1782l150 162l305 -345l-101 -102zM166 0v1409h299v-1409h-299z" />
<glyph unicode="&#xcd;" horiz-adv-x="630" d="M166 0v1409h299v-1409h-299zM209 1602l301 346l156 -162l-361 -285z" />
<glyph unicode="&#xce;" horiz-adv-x="630" d="M-92 1585l315 301h180l318 -299l-72 -84l-338 187l-334 -189zM166 0v1409h299v-1409h-299z" />
<glyph unicode="&#xcf;" horiz-adv-x="630" d="M-37 1624q0 55 36 91t103 36q72 0 109 -35t37 -92q0 -53 -37 -90t-109 -37q-70 0 -104.5 37t-34.5 90zM166 0v1409h299v-1409h-299zM397 1624q0 55 36 91t102 36q72 0 108.5 -35t36.5 -92q0 -53 -37 -90t-108 -37q-68 0 -103 37t-35 90z" />
<glyph unicode="&#xd0;" horiz-adv-x="1413" d="M29 657v150h121v602h528q186 0 308 -56.5t192.5 -151.5t98.5 -223t28 -269t-32 -270.5t-105.5 -226.5t-196.5 -154.5t-305 -57.5h-516v657h-121zM455 217h186q53 0 114.5 17.5t114 69.5t87 146.5t34.5 247.5q0 156 -32.5 253.5t-83 151.5t-113 73.5t-121.5 19.5h-186 v-389h252v-150h-252v-440z" />
<glyph unicode="&#xd1;" horiz-adv-x="1519" d="M147 0v1407h306q111 -172 218 -340t216 -342l178 -287h12v969h293v-1407h-303l-477 758q-35 59 -71 116.5t-70 116.5q-4 0 -5.5 -1t-5.5 -1v-989h-291zM379 1624q35 98 89 143t122 45q43 0 89 -12t92 -26.5t90 -26.5t81 -12l115 84l84 -68q-31 -92 -84 -142t-125 -50 q-51 0 -101.5 12t-96.5 27.5t-86 27.5t-70 12l-115 -79z" />
<glyph unicode="&#xd2;" horiz-adv-x="1527" d="M109 700q0 152 37.5 285t117.5 233.5t205 158t301 57.5t300 -58.5t202 -158t113.5 -231t35.5 -281.5q0 -156 -41 -288t-122.5 -229.5t-203.5 -152.5t-284 -55q-172 0 -297 52t-206 147t-119.5 227.5t-38.5 293.5zM426 698q0 -240 77 -369.5t267 -129.5q88 0 151.5 37.5 t102.5 105.5t57.5 158.5t18.5 199.5q0 96 -13.5 189.5t-49.5 166t-100.5 118t-166.5 45.5q-104 0 -171 -44.5t-105.5 -116t-53 -165.5t-14.5 -195zM457 1792l149 162l305 -344l-100 -103z" />
<glyph unicode="&#xd3;" horiz-adv-x="1527" d="M109 700q0 152 37.5 285t117.5 233.5t205 158t301 57.5t300 -58.5t202 -158t113.5 -231t35.5 -281.5q0 -156 -41 -288t-122.5 -229.5t-203.5 -152.5t-284 -55q-172 0 -297 52t-206 147t-119.5 227.5t-38.5 293.5zM426 698q0 -240 77 -369.5t267 -129.5q88 0 151.5 37.5 t102.5 105.5t57.5 158.5t18.5 199.5q0 96 -13.5 189.5t-49.5 166t-100.5 118t-166.5 45.5q-104 0 -171 -44.5t-105.5 -116t-53 -165.5t-14.5 -195zM666 1608l301 346l155 -162l-360 -285z" />
<glyph unicode="&#xd4;" horiz-adv-x="1527" d="M109 700q0 152 37.5 285t117.5 233.5t205 158t301 57.5t300 -58.5t202 -158t113.5 -231t35.5 -281.5q0 -156 -41 -288t-122.5 -229.5t-203.5 -152.5t-284 -55q-172 0 -297 52t-206 147t-119.5 227.5t-38.5 293.5zM373 1581l315 301h180l318 -299l-72 -84l-338 187 l-334 -189zM426 698q0 -240 77 -369.5t267 -129.5q88 0 151.5 37.5t102.5 105.5t57.5 158.5t18.5 199.5q0 96 -13.5 189.5t-49.5 166t-100.5 118t-166.5 45.5q-104 0 -171 -44.5t-105.5 -116t-53 -165.5t-14.5 -195z" />
<glyph unicode="&#xd5;" horiz-adv-x="1527" d="M109 700q0 152 37.5 285t117.5 233.5t205 158t301 57.5t300 -58.5t202 -158t113.5 -231t35.5 -281.5q0 -156 -41 -288t-122.5 -229.5t-203.5 -152.5t-284 -55q-172 0 -297 52t-206 147t-119.5 227.5t-38.5 293.5zM393 1636q35 98 89.5 143.5t121.5 45.5q43 0 89 -12.5 t92 -26.5t90.5 -26.5t80.5 -12.5l115 84l84 -68q-31 -92 -84 -142t-125 -50q-51 0 -101 12t-96.5 27.5t-86 28t-70.5 12.5l-115 -80zM426 698q0 -240 77 -369.5t267 -129.5q88 0 151.5 37.5t102.5 105.5t57.5 158.5t18.5 199.5q0 96 -13.5 189.5t-49.5 166t-100.5 118 t-166.5 45.5q-104 0 -171 -44.5t-105.5 -116t-53 -165.5t-14.5 -195z" />
<glyph unicode="&#xd6;" horiz-adv-x="1527" d="M109 700q0 152 37.5 285t117.5 233.5t205 158t301 57.5t300 -58.5t202 -158t113.5 -231t35.5 -281.5q0 -156 -41 -288t-122.5 -229.5t-203.5 -152.5t-284 -55q-172 0 -297 52t-206 147t-119.5 227.5t-38.5 293.5zM410 1640q0 55 35.5 91t103.5 36q72 0 108.5 -35 t36.5 -92q0 -53 -36.5 -90t-108.5 -37q-70 0 -104.5 37t-34.5 90zM426 698q0 -240 77 -369.5t267 -129.5q88 0 151.5 37.5t102.5 105.5t57.5 158.5t18.5 199.5q0 96 -13.5 189.5t-49.5 166t-100.5 118t-166.5 45.5q-104 0 -171 -44.5t-105.5 -116t-53 -165.5t-14.5 -195z M844 1640q0 55 35.5 91t101.5 36q72 0 108.5 -35t36.5 -92q0 -53 -36.5 -90t-108.5 -37q-68 0 -102.5 37t-34.5 90z" />
<glyph unicode="&#xd7;" horiz-adv-x="1224" d="M238 346l262 262l-260 260l120 121l261 -260l253 256l125 -125l-254 -256l259 -256l-123 -123l-256 258l-263 -260z" />
<glyph unicode="&#xd8;" horiz-adv-x="1503" d="M94 700q0 152 38 285t118 233.5t206 158t302 57.5q135 0 236.5 -34t179.5 -95l106 133h139l-170 -205q84 -100 122 -237t38 -291q0 -156 -41 -288t-123 -229.5t-203.5 -152.5t-283.5 -55q-141 0 -248 33.5t-186 97.5l-103 -127h-125l158 194q-82 96 -121 228.5t-39 293.5 zM414 698q0 -88 10 -158.5t35 -123.5l538 684q-37 53 -96 86t-143 33q-104 0 -171 -44.5t-106 -116t-53 -166t-14 -194.5zM500 311q82 -113 258 -112q88 0 150.5 37.5t101.5 105.5t57 158.5t18 199.5q0 74 -9 151t-38 142z" />
<glyph unicode="&#xd9;" horiz-adv-x="1452" d="M137 518v891h299v-901q0 -160 76 -234.5t219 -74.5q131 0 210 72.5t79 236.5l-2 901h297l-2 -891q0 -125 -35 -225t-106.5 -170t-182 -106.5t-262.5 -36.5q-158 0 -270.5 36.5t-183 106.5t-103.5 170t-33 225zM422 1792l149 162l306 -344l-101 -103z" />
<glyph unicode="&#xda;" horiz-adv-x="1452" d="M137 518v891h299v-901q0 -160 76 -234.5t219 -74.5q131 0 210 72.5t79 236.5l-2 901h297l-2 -891q0 -125 -35 -225t-106.5 -170t-182 -106.5t-262.5 -36.5q-158 0 -270.5 36.5t-183 106.5t-103.5 170t-33 225zM604 1608l301 346l156 -162l-361 -285z" />
<glyph unicode="&#xdb;" horiz-adv-x="1452" d="M137 518v891h299v-901q0 -160 76 -234.5t219 -74.5q131 0 210 72.5t79 236.5l-2 901h297l-2 -891q0 -125 -35 -225t-106.5 -170t-182 -106.5t-262.5 -36.5q-158 0 -270.5 36.5t-183 106.5t-103.5 170t-33 225zM303 1589l328 295h186l330 -293l-74 -82l-352 183l-346 -185 z" />
<glyph unicode="&#xdc;" horiz-adv-x="1452" d="M137 518v891h299v-901q0 -160 76 -234.5t219 -74.5q131 0 210 72.5t79 236.5l-2 901h297l-2 -891q0 -125 -35 -225t-106.5 -170t-182 -106.5t-262.5 -36.5q-158 0 -270.5 36.5t-183 106.5t-103.5 170t-33 225zM373 1624q0 55 35.5 91t103.5 36q72 0 108.5 -35t36.5 -92 q0 -53 -36.5 -90t-108.5 -37q-70 0 -104.5 37t-34.5 90zM807 1624q0 55 36 91t101 36q72 0 109 -35t37 -92q0 -53 -37 -90t-109 -37q-68 0 -102.5 37t-34.5 90z" />
<glyph unicode="&#xdd;" horiz-adv-x="1282" d="M16 1407h316q43 -92 88 -181t86 -182l125 -280h12q35 68 66.5 146.5t66.5 146.5l176 350h310q-117 -213 -232 -433t-231 -433v-541h-324v506zM535 1577l301 346l155 -162l-360 -284z" />
<glyph unicode="&#xde;" horiz-adv-x="1222" d="M147 0v1409h304v-274h231q242 0 362.5 -117t120.5 -316q0 -76 -24.5 -153.5t-79.5 -141t-142.5 -103.5t-211.5 -40h-256v-264h-304zM451 473h198q41 0 79 11.5t66.5 38t46 69.5t17.5 104q0 121 -62.5 173.5t-156.5 52.5h-188v-449z" />
<glyph unicode="&#xdf;" horiz-adv-x="1345" d="M49 768v164h135v188q0 49 20.5 114.5t73 125t142.5 100.5t229 41q127 0 210 -30.5t132 -75.5t68.5 -96.5t19.5 -92.5q0 -74 -31.5 -129t-70.5 -97t-71 -76t-32 -66q0 -35 31 -67t76 -67.5t98.5 -76.5t98.5 -93.5t75.5 -118t30.5 -149.5q0 -129 -102.5 -214t-296.5 -85 q-78 0 -152 11.5t-143 31.5l49 197q90 -29 137 -35t74 -6q66 0 103.5 29.5t37.5 78.5q0 37 -13 67t-33.5 55.5t-47.5 49t-53 48.5q-37 35 -78 71.5t-75 77.5t-56.5 87t-22.5 97q0 61 31 108.5t68 85.5t67.5 73.5t30.5 76.5q0 14 -6 35t-23.5 40.5t-49.5 33.5t-83 14 q-96 0 -135 -59t-39 -141v-1094h-289v768h-135z" />
<glyph unicode="&#xe0;" horiz-adv-x="1185" d="M66 272q0 78 28.5 136.5t78.5 98.5t117.5 62.5t147.5 26.5q59 4 137 8t138 8v25q0 86 -37 130t-150 44q-74 0 -160.5 -14.5t-158.5 -36.5q-10 47 -22.5 92t-24.5 90q90 39 208.5 61.5t227.5 22.5q90 0 164 -18.5t125 -59.5t78.5 -107.5t27.5 -164.5v-481h131l15 -164 q-49 -23 -115 -37t-131 -14q-66 0 -110 22.5t-52 97.5l-4 4q-53 -47 -106.5 -71.5t-99.5 -36.5t-84 -14t-58 -2q-94 0 -154.5 29.5t-95.5 73.5t-48 95t-13 94zM287 1368q12 14 34.5 39t46 51.5t46 51t37.5 38.5q25 -31 65.5 -77t85.5 -94t86 -94t68 -77l-109 -119zM369 297 q0 -63 32.5 -96t104.5 -33q47 0 102.5 23.5t104.5 66.5v193l-203 -17q-141 -12 -141 -137z" />
<glyph unicode="&#xe1;" horiz-adv-x="1185" d="M66 272q0 78 28.5 136.5t78.5 98.5t117.5 62.5t147.5 26.5q59 4 137 8t138 8v25q0 86 -37 130t-150 44q-74 0 -160.5 -14.5t-158.5 -36.5q-10 47 -22.5 92t-24.5 90q90 39 208.5 61.5t227.5 22.5q90 0 164 -18.5t125 -59.5t78.5 -107.5t27.5 -164.5v-481h131l15 -164 q-49 -23 -115 -37t-131 -14q-66 0 -110 22.5t-52 97.5l-4 4q-53 -47 -106.5 -71.5t-99.5 -36.5t-84 -14t-58 -2q-94 0 -154.5 29.5t-95.5 73.5t-48 95t-13 94zM369 297q0 -63 32.5 -96t104.5 -33q47 0 102.5 23.5t104.5 66.5v193l-203 -17q-141 -12 -141 -137zM432 1196 l303 348l156 -168l-356 -286z" />
<glyph unicode="&#xe2;" horiz-adv-x="1185" d="M66 272q0 78 28.5 136.5t78.5 98.5t117.5 62.5t147.5 26.5q59 4 137 8t138 8v25q0 86 -37 130t-150 44q-74 0 -160.5 -14.5t-158.5 -36.5q-10 47 -22.5 92t-24.5 90q90 39 208.5 61.5t227.5 22.5q90 0 164 -18.5t125 -59.5t78.5 -107.5t27.5 -164.5v-481h131l15 -164 q-49 -23 -115 -37t-131 -14q-66 0 -110 22.5t-52 97.5l-4 4q-53 -47 -106.5 -71.5t-99.5 -36.5t-84 -14t-58 -2q-94 0 -154.5 29.5t-95.5 73.5t-48 95t-13 94zM164 1167l315 316h180l320 -312l-74 -86l-338 195l-336 -197zM369 297q0 -63 32.5 -96t104.5 -33 q47 0 102.5 23.5t104.5 66.5v193l-203 -17q-141 -12 -141 -137z" />
<glyph unicode="&#xe3;" horiz-adv-x="1185" d="M66 272q0 78 28.5 136.5t78.5 98.5t117.5 62.5t147.5 26.5q59 4 137 8t138 8v25q0 86 -37 130t-150 44q-74 0 -160.5 -14.5t-158.5 -36.5q-10 47 -22.5 92t-24.5 90q90 39 208.5 61.5t227.5 22.5q90 0 164 -18.5t125 -59.5t78.5 -107.5t27.5 -164.5v-481h131l15 -164 q-49 -23 -115 -37t-131 -14q-66 0 -110 22.5t-52 97.5l-4 4q-53 -47 -106.5 -71.5t-99.5 -36.5t-84 -14t-58 -2q-94 0 -154.5 29.5t-95.5 73.5t-48 95t-13 94zM197 1229q35 98 89 143t122 45q43 0 89 -12t92 -26.5t90 -27t81 -12.5l114 84l84 -67q-31 -92 -83.5 -142.5 t-124.5 -50.5q-51 0 -101.5 12.5t-96.5 28t-86 27.5t-71 12l-114 -80zM369 297q0 -63 32.5 -96t104.5 -33q47 0 102.5 23.5t104.5 66.5v193l-203 -17q-141 -12 -141 -137z" />
<glyph unicode="&#xe4;" horiz-adv-x="1185" d="M66 272q0 78 28.5 136.5t78.5 98.5t117.5 62.5t147.5 26.5q59 4 137 8t138 8v25q0 86 -37 130t-150 44q-74 0 -160.5 -14.5t-158.5 -36.5q-10 47 -22.5 92t-24.5 90q90 39 208.5 61.5t227.5 22.5q90 0 164 -18.5t125 -59.5t78.5 -107.5t27.5 -164.5v-481h131l15 -164 q-49 -23 -115 -37t-131 -14q-66 0 -110 22.5t-52 97.5l-4 4q-53 -47 -106.5 -71.5t-99.5 -36.5t-84 -14t-58 -2q-94 0 -154.5 29.5t-95.5 73.5t-48 95t-13 94zM213 1276q0 55 36 91t103 36q72 0 109 -35t37 -92q0 -53 -37 -90t-109 -37q-70 0 -104.5 37t-34.5 90zM369 297 q0 -63 32.5 -96t104.5 -33q47 0 102.5 23.5t104.5 66.5v193l-203 -17q-141 -12 -141 -137zM647 1276q0 55 36 91t101 36q72 0 109 -35t37 -92q0 -53 -37 -90t-109 -37q-68 0 -102.5 37t-34.5 90z" />
<glyph unicode="&#xe5;" horiz-adv-x="1185" d="M66 272q0 78 28.5 136.5t78.5 98.5t117.5 62.5t147.5 26.5q59 4 137 8t138 8v25q0 86 -37 130t-150 44q-74 0 -160.5 -14.5t-158.5 -36.5q-10 47 -22.5 92t-24.5 90q90 39 208.5 61.5t227.5 22.5q90 0 164 -18.5t125 -59.5t78.5 -107.5t27.5 -164.5v-481h131l15 -164 q-49 -23 -115 -37t-131 -14q-66 0 -110 22.5t-52 97.5l-4 4q-53 -47 -106.5 -71.5t-99.5 -36.5t-84 -14t-58 -2q-94 0 -154.5 29.5t-95.5 73.5t-48 95t-13 94zM340 1368q0 49 19.5 93t54.5 78t82 54.5t100 20.5t98 -19.5t78 -53.5t51.5 -79t18.5 -94q0 -51 -19.5 -96 t-53.5 -78t-78 -52.5t-95 -19.5q-53 0 -100 19.5t-82 53.5t-54.5 78t-19.5 95zM369 297q0 -63 32.5 -96t104.5 -33q47 0 102.5 23.5t104.5 66.5v193l-203 -17q-141 -12 -141 -137zM475 1362q0 -47 32 -82t89 -35q51 0 82 35t31 82q0 51 -30 87t-83 36t-87 -36t-34 -87z" />
<glyph unicode="&#xe6;" horiz-adv-x="1703" d="M59 272q0 51 17.5 108.5t60.5 106t114 79t175 30.5h293v41q0 98 -46 137t-157 39q-86 0 -170 -14.5t-151 -36.5q-12 45 -24.5 90t-27.5 92q86 35 197 58.5t215 23.5q41 0 88 -6t92 -22.5t83 -43t63 -69.5q51 61 129.5 103t189.5 42q145 0 231.5 -51t132.5 -127t59 -161 t13 -152v-86h-632q2 -117 55 -187.5t188 -70.5q78 0 154 16t153 45q14 -43 29.5 -87t28.5 -89q-98 -53 -203.5 -74.5t-206.5 -21.5q-152 0 -240 36.5t-143 108.5q-66 -51 -127 -81t-116.5 -45t-102.5 -19t-84 -4q-100 0 -163.5 29.5t-100.5 73.5t-51.5 95t-14.5 94zM360 309 q1 -143 146 -143q20 0 51 6t64.5 18.5t66.5 30t57 39.5q-14 45 -20 92t-8 101h-103q-47 0 -92 -3.5t-80.5 -16.5t-58.5 -43t-23 -81zM1008 598h368q0 45 -6 87t-25.5 72.5t-53.5 49t-89 18.5t-91 -20.5t-57.5 -52t-31.5 -72.5t-14 -82z" />
<glyph unicode="&#xe7;" horiz-adv-x="993" d="M80 492q0 88 20.5 183t75.5 174t151.5 129t250.5 50q66 0 146.5 -9t166.5 -40q-10 -51 -21.5 -101.5t-23.5 -103.5q-66 18 -120 23.5t-99 5.5q-123 0 -186.5 -79t-63.5 -220q0 -139 52 -218t189 -79q72 0 137.5 14.5t133.5 36.5l55 -195q-72 -37 -167 -56t-193 -23 l-76 -103q100 -8 158.5 -51t58.5 -121q0 -98 -96.5 -162.5t-300.5 -66.5v98q104 10 163.5 39t59.5 74q0 31 -19.5 45t-48 19t-59.5 5h-55l-35 54l135 176q-115 12 -190.5 57t-119.5 111.5t-61.5 151.5t-17.5 182z" />
<glyph unicode="&#xe8;" horiz-adv-x="1114" d="M82 502q0 82 20.5 176t75.5 172t150 130t245 52q162 0 254.5 -51t138.5 -127t57 -161t11 -152v-105h-657q0 -117 58.5 -176t193.5 -59q82 0 163.5 17.5t159.5 45.5l60 -180q-100 -55 -211 -77.5t-215 -22.5q-152 0 -250 42t-154.5 113.5t-78 164.5t-21.5 198zM287 1368 q12 14 34.5 39t46 51.5t46 51t37.5 38.5q25 -31 65.5 -77t85.5 -94t86 -94t68 -77l-109 -119zM381 616h387q-2 100 -40 165t-142 65q-55 0 -92 -18.5t-60.5 -50.5t-36 -73.5t-16.5 -87.5z" />
<glyph unicode="&#xe9;" horiz-adv-x="1114" d="M82 502q0 82 20.5 176t75.5 172t150 130t245 52q162 0 254.5 -51t138.5 -127t57 -161t11 -152v-105h-657q0 -117 58.5 -176t193.5 -59q82 0 163.5 17.5t159.5 45.5l60 -180q-100 -55 -211 -77.5t-215 -22.5q-152 0 -250 42t-154.5 113.5t-78 164.5t-21.5 198zM381 616 h387q-2 100 -40 165t-142 65q-55 0 -92 -18.5t-60.5 -50.5t-36 -73.5t-16.5 -87.5zM436 1196l303 348l156 -168l-356 -286z" />
<glyph unicode="&#xea;" horiz-adv-x="1114" d="M82 502q0 82 20.5 176t75.5 172t150 130t245 52q162 0 254.5 -51t138.5 -127t57 -161t11 -152v-105h-657q0 -117 58.5 -176t193.5 -59q82 0 163.5 17.5t159.5 45.5l60 -180q-100 -55 -211 -77.5t-215 -22.5q-152 0 -250 42t-154.5 113.5t-78 164.5t-21.5 198zM186 1167 l316 316h180l319 -312l-73 -86l-338 195l-336 -197zM381 616h387q-2 100 -40 165t-142 65q-55 0 -92 -18.5t-60.5 -50.5t-36 -73.5t-16.5 -87.5z" />
<glyph unicode="&#xeb;" horiz-adv-x="1114" d="M82 502q0 82 20.5 176t75.5 172t150 130t245 52q162 0 254.5 -51t138.5 -127t57 -161t11 -152v-105h-657q0 -117 58.5 -176t193.5 -59q82 0 163.5 17.5t159.5 45.5l60 -180q-100 -55 -211 -77.5t-215 -22.5q-152 0 -250 42t-154.5 113.5t-78 164.5t-21.5 198zM227 1276 q0 55 36 91t104 36q72 0 108.5 -35t36.5 -92q0 -53 -37 -90t-108 -37q-70 0 -105 37t-35 90zM381 616h387q-2 100 -40 165t-142 65q-55 0 -92 -18.5t-60.5 -50.5t-36 -73.5t-16.5 -87.5zM662 1276q0 55 35.5 91t101.5 36q72 0 108.5 -35t36.5 -92q0 -53 -37 -90t-108 -37 q-68 0 -102.5 37t-34.5 90z" />
<glyph unicode="&#xec;" horiz-adv-x="612" d="M-6 1368q12 14 34.5 39t46 51.5t46 51t37.5 38.5q25 -31 65.5 -77t85.5 -94t86 -94t68 -77l-109 -119zM158 0v1006h293v-1006h-293z" />
<glyph unicode="&#xed;" horiz-adv-x="612" d="M158 0v1006h293v-1006h-293zM195 1196l303 348l155 -168l-356 -286z" />
<glyph unicode="&#xee;" horiz-adv-x="612" d="M-102 1167l315 316h180l320 -312l-74 -86l-338 195l-336 -197zM158 0v1006h293v-1006h-293z" />
<glyph unicode="&#xef;" horiz-adv-x="612" d="M-49 1280q0 55 36 91t103 36q72 0 109 -35t37 -92q0 -53 -37 -90t-109 -37q-70 0 -104.5 37t-34.5 90zM158 0v1006h293v-1006h-293zM385 1280q0 55 36 91t101 36q72 0 109 -35t37 -92q0 -53 -37 -90t-109 -37q-68 0 -102.5 37t-34.5 90z" />
<glyph unicode="&#xf0;" horiz-adv-x="1183" d="M84 455q0 96 31.5 184t92 155.5t147.5 108.5t198 41q49 0 108.5 -10t116.5 -41q-45 152 -143 266l-182 -121l-58 84l166 109q-41 41 -89 75.5t-99 67.5l78 144q156 -66 284 -170l176 120l60 -84l-154 -100q152 -141 222.5 -327.5t58.5 -417.5q-4 -90 -27.5 -189.5 t-82 -181.5t-159 -135t-254.5 -53q-145 0 -239 43t-150.5 111.5t-79 153.5t-22.5 167zM373 467q0 -47 7 -97.5t29.5 -92t64.5 -69.5t114 -28q70 0 115 34t69.5 85t33.5 111.5t9 113.5q0 43 -4 81t-12 83q-57 37 -109.5 49.5t-95.5 12.5q-63 0 -105.5 -26t-68 -67t-36.5 -91 t-11 -99z" />
<glyph unicode="&#xf1;" horiz-adv-x="1165" d="M100 0v1006h279l4 -93l8 -4q88 59 185.5 90t168.5 31q100 0 162 -27.5t95.5 -74.5t46 -110.5t12.5 -133.5v-684h-293v623q0 39 -4 71.5t-19.5 57t-44 38t-75.5 13.5q-51 0 -115 -22.5t-115 -53.5v-727h-295zM178 1245q35 98 89.5 143.5t121.5 45.5q43 0 89 -12.5t92 -27 t90.5 -26.5t80.5 -12l115 84l84 -68q-31 -92 -84 -142t-125 -50q-51 0 -101 12t-96.5 27.5t-86 28t-70.5 12.5l-115 -80z" />
<glyph unicode="&#xf2;" horiz-adv-x="1181" d="M82 502q0 106 28.5 201.5t90 167t159 114.5t236.5 43q141 0 237.5 -42t156 -114.5t85 -168t25.5 -199.5t-26.5 -199.5t-88 -168.5t-160 -114.5t-241.5 -41.5q-139 0 -235.5 40.5t-156 111.5t-85 166t-25.5 204zM289 1368q12 14 34.5 39t46 51.5t46 51t37.5 38.5 q25 -31 65.5 -77t85.5 -94t86 -94t68 -77l-109 -119zM383 502q0 -68 8 -125.5t31.5 -99t64.5 -66.5t109 -25q61 0 101 26t61.5 70t30 101.5t8.5 118.5q0 59 -8.5 116.5t-30 102.5t-60.5 72.5t-102 27.5t-104 -27.5t-66 -72.5t-34 -102.5t-9 -116.5z" />
<glyph unicode="&#xf3;" horiz-adv-x="1181" d="M82 502q0 106 28.5 201.5t90 167t159 114.5t236.5 43q141 0 237.5 -42t156 -114.5t85 -168t25.5 -199.5t-26.5 -199.5t-88 -168.5t-160 -114.5t-241.5 -41.5q-139 0 -235.5 40.5t-156 111.5t-85 166t-25.5 204zM383 502q0 -68 8 -125.5t31.5 -99t64.5 -66.5t109 -25 q61 0 101 26t61.5 70t30 101.5t8.5 118.5q0 59 -8.5 116.5t-30 102.5t-60.5 72.5t-102 27.5t-104 -27.5t-66 -72.5t-34 -102.5t-9 -116.5zM485 1196l303 348l156 -168l-356 -286z" />
<glyph unicode="&#xf4;" horiz-adv-x="1181" d="M82 502q0 106 28.5 201.5t90 167t159 114.5t236.5 43q141 0 237.5 -42t156 -114.5t85 -168t25.5 -199.5t-26.5 -199.5t-88 -168.5t-160 -114.5t-241.5 -41.5q-139 0 -235.5 40.5t-156 111.5t-85 166t-25.5 204zM193 1167l315 316h180l320 -312l-74 -86l-338 195 l-336 -197zM383 502q0 -68 8 -125.5t31.5 -99t64.5 -66.5t109 -25q61 0 101 26t61.5 70t30 101.5t8.5 118.5q0 59 -8.5 116.5t-30 102.5t-60.5 72.5t-102 27.5t-104 -27.5t-66 -72.5t-34 -102.5t-9 -116.5z" />
<glyph unicode="&#xf5;" horiz-adv-x="1181" d="M82 502q0 106 28.5 201.5t90 167t159 114.5t236.5 43q141 0 237.5 -42t156 -114.5t85 -168t25.5 -199.5t-26.5 -199.5t-88 -168.5t-160 -114.5t-241.5 -41.5q-139 0 -235.5 40.5t-156 111.5t-85 166t-25.5 204zM215 1219q35 98 89 143t122 45q43 0 89 -12.5t92 -26.5 t90 -26.5t81 -12.5l115 84l84 -67q-31 -92 -84 -142.5t-125 -50.5q-51 0 -101.5 12.5t-96.5 27.5t-86 27.5t-70 12.5l-115 -80zM383 502q0 -68 8 -125.5t31.5 -99t64.5 -66.5t109 -25q61 0 101 26t61.5 70t30 101.5t8.5 118.5q0 59 -8.5 116.5t-30 102.5t-60.5 72.5 t-102 27.5t-104 -27.5t-66 -72.5t-34 -102.5t-9 -116.5z" />
<glyph unicode="&#xf6;" horiz-adv-x="1181" d="M82 502q0 106 28.5 201.5t90 167t159 114.5t236.5 43q141 0 237.5 -42t156 -114.5t85 -168t25.5 -199.5t-26.5 -199.5t-88 -168.5t-160 -114.5t-241.5 -41.5q-139 0 -235.5 40.5t-156 111.5t-85 166t-25.5 204zM238 1276q0 55 35.5 91t103.5 36q72 0 108.5 -35t36.5 -92 q0 -53 -36.5 -90t-108.5 -37q-70 0 -104.5 37t-34.5 90zM383 502q0 -68 8 -125.5t31.5 -99t64.5 -66.5t109 -25q61 0 101 26t61.5 70t30 101.5t8.5 118.5q0 59 -8.5 116.5t-30 102.5t-60.5 72.5t-102 27.5t-104 -27.5t-66 -72.5t-34 -102.5t-9 -116.5zM672 1276 q0 55 35.5 91t101.5 36q72 0 108.5 -35t36.5 -92q0 -53 -36.5 -90t-108.5 -37q-68 0 -102.5 37t-34.5 90z" />
<glyph unicode="&#xf7;" horiz-adv-x="1208" d="M176 535v170h856v-170h-856zM469 268q0 57 40 95t95 38q57 0 96 -38t39 -95q0 -55 -40 -95t-93 -40q-57 0 -97 40t-40 95zM469 973q0 55 40 94t95 39q57 0 96 -39t39 -94q0 -57 -40 -97t-93 -40q-57 0 -97 41t-40 96z" />
<glyph unicode="&#xf8;" horiz-adv-x="1159" d="M72 -14l118 133q-66 72 -92 170t-26 213q0 106 27.5 201.5t89 167t158.5 114.5t237 43q104 0 183 -24.5t138 -67.5q12 14 39 44t37 46h106q-8 -10 -25.5 -29.5t-35.5 -41t-34.5 -41t-24.5 -29.5q66 -74 93 -172t27 -209q0 -104 -26.5 -199.5t-87 -167t-159.5 -113.5 t-243 -42q-104 0 -183 22.5t-136 63.5l-68 -82h-112zM373 504q0 -39 5 -87t19 -79q33 43 76 96t89 109.5t89 110t76 96.5q-23 33 -56.5 51t-86.5 18q-63 0 -104.5 -26.5t-65 -70.5t-32.5 -101.5t-9 -116.5zM428 250q25 -29 62 -46.5t94 -17.5q63 0 102 26t61.5 70t30.5 101 t8 119q0 37 -6 83t-22 81q-33 -43 -76 -97.5t-89 -111t-89 -110.5t-76 -97z" />
<glyph unicode="&#xf9;" horiz-adv-x="1142" d="M100 319v687h293v-623q0 -37 4 -69.5t18.5 -57.5t41 -39t73.5 -14q43 0 101.5 22.5t113.5 71.5v709q74 0 147 1t146 1v-1008h-272q-4 27 -4 53.5t-4 55.5l-8 4q-47 -41 -95.5 -67t-93.5 -41t-84.5 -21.5t-68.5 -6.5q-100 0 -161 27t-93.5 74t-43 108.5t-10.5 132.5z M287 1368q12 14 34.5 39t46 51.5t46 51t37.5 38.5q25 -31 65.5 -77t85.5 -94t86 -94t68 -77l-109 -119z" />
<glyph unicode="&#xfa;" horiz-adv-x="1142" d="M100 319v687h293v-623q0 -37 4 -69.5t18.5 -57.5t41 -39t73.5 -14q43 0 101.5 22.5t113.5 71.5v709q74 0 147 1t146 1v-1008h-272q-4 27 -4 53.5t-4 55.5l-8 4q-47 -41 -95.5 -67t-93.5 -41t-84.5 -21.5t-68.5 -6.5q-100 0 -161 27t-93.5 74t-43 108.5t-10.5 132.5z M457 1196l303 348l155 -168l-356 -286z" />
<glyph unicode="&#xfb;" horiz-adv-x="1142" d="M100 319v687h293v-623q0 -37 4 -69.5t18.5 -57.5t41 -39t73.5 -14q43 0 101.5 22.5t113.5 71.5v709q74 0 147 1t146 1v-1008h-272q-4 27 -4 53.5t-4 55.5l-8 4q-47 -41 -95.5 -67t-93.5 -41t-84.5 -21.5t-68.5 -6.5q-100 0 -161 27t-93.5 74t-43 108.5t-10.5 132.5z M162 1167l315 316h180l320 -312l-74 -86l-338 195l-336 -197z" />
<glyph unicode="&#xfc;" horiz-adv-x="1142" d="M100 319v687h293v-623q0 -37 4 -69.5t18.5 -57.5t41 -39t73.5 -14q43 0 101.5 22.5t113.5 71.5v709q74 0 147 1t146 1v-1008h-272q-4 27 -4 53.5t-4 55.5l-8 4q-47 -41 -95.5 -67t-93.5 -41t-84.5 -21.5t-68.5 -6.5q-100 0 -161 27t-93.5 74t-43 108.5t-10.5 132.5z M217 1280q0 55 36 91t103 36q72 0 109 -35t37 -92q0 -53 -37 -90t-109 -37q-70 0 -104.5 37t-34.5 90zM651 1280q0 55 36 91t101 36q72 0 109 -35t37 -92q0 -53 -37 -90t-109 -37q-68 0 -102.5 37t-34.5 90z" />
<glyph unicode="&#xfd;" horiz-adv-x="1097" d="M29 1006h290q16 -55 38 -135t45.5 -165t46 -167t38.5 -142q16 -59 27.5 -119.5t20.5 -95.5h14q6 27 21.5 89.5t35.5 131.5q18 61 41 139.5t46.5 161t47 161.5t41.5 141h295q-25 -72 -56.5 -169.5t-68.5 -206t-75.5 -224t-75.5 -224t-70 -205t-57 -167.5 q-43 -129 -131 -191.5t-215 -62.5q-41 0 -98.5 7t-151.5 31l41 195q53 -8 85 -13t60 -5q70 0 107 26.5t59 98.5l41 127h-131zM416 1196l303 348l155 -168l-356 -286z" />
<glyph unicode="&#xfe;" horiz-adv-x="1177" d="M100 -426v1833h281v-498q4 0 4 -1t4 -3q72 59 153 88t152 29q117 0 194 -41t123 -110.5t64.5 -163t18.5 -197.5q0 -115 -23.5 -212t-76 -168t-134.5 -110.5t-201 -39.5q-25 0 -58.5 3t-69 11t-71.5 18.5t-67 26.5q0 -115 -1 -231.5t-1 -233.5h-291zM393 246 q35 -23 92.5 -39.5t110.5 -16.5q37 0 74 14.5t65.5 52.5t46 101.5t17.5 161.5q0 88 -15.5 145.5t-42 89t-63.5 44t-78 12.5q-23 0 -51.5 -7t-57 -17.5t-54 -23.5t-44.5 -28v-489z" />
<glyph unicode="&#xff;" horiz-adv-x="1097" d="M29 1006h290q16 -55 38 -135t45.5 -165t46 -167t38.5 -142q16 -59 27.5 -119.5t20.5 -95.5h14q6 27 21.5 89.5t35.5 131.5q18 61 41 139.5t46.5 161t47 161.5t41.5 141h295q-25 -72 -56.5 -169.5t-68.5 -206t-75.5 -224t-75.5 -224t-70 -205t-57 -167.5 q-43 -129 -131 -191.5t-215 -62.5q-41 0 -98.5 7t-151.5 31l41 195q53 -8 85 -13t60 -5q70 0 107 26.5t59 98.5l41 127h-131zM199 1276q0 55 35.5 91t103.5 36q72 0 108.5 -35t36.5 -92q0 -53 -36.5 -90t-108.5 -37q-70 0 -104.5 37t-34.5 90zM633 1276q0 55 36 91t101 36 q72 0 108.5 -35t36.5 -92q0 -53 -36.5 -90t-108.5 -37q-68 0 -102.5 37t-34.5 90z" />
<glyph unicode="&#x100;" horiz-adv-x="1359" d="M16 0l480 1407h381l464 -1407h-311l-98 322h-514l-101 -322h-301zM324 1532v186h725v-186h-725zM483 526h387l-104 371l-82 305h-10l-86 -315z" />
<glyph unicode="&#x101;" horiz-adv-x="1185" d="M66 272q0 78 28.5 136.5t78.5 98.5t117.5 62.5t147.5 26.5q59 4 137 8t138 8v25q0 86 -37 130t-150 44q-74 0 -160.5 -14.5t-158.5 -36.5q-10 47 -22.5 92t-24.5 90q90 39 208.5 61.5t227.5 22.5q90 0 164 -18.5t125 -59.5t78.5 -107.5t27.5 -164.5v-481h131l15 -164 q-49 -23 -115 -37t-131 -14q-66 0 -110 22.5t-52 97.5l-4 4q-53 -47 -106.5 -71.5t-99.5 -36.5t-84 -14t-58 -2q-94 0 -154.5 29.5t-95.5 73.5t-48 95t-13 94zM203 1194v186h743v-186h-743zM369 297q0 -63 32.5 -96t104.5 -33q47 0 102.5 23.5t104.5 66.5v193l-203 -17 q-141 -12 -141 -137z" />
<glyph unicode="&#x102;" horiz-adv-x="1359" d="M16 0l480 1407h381l464 -1407h-311l-98 322h-514l-101 -322h-301zM297 1763l119 90q63 -86 136 -130t130 -44q18 0 46 3.5t67 19.5t87 48t109 91l78 -78q-96 -150 -199.5 -207t-195.5 -57q-61 0 -114.5 21.5t-99.5 57.5t-87 84t-76 101zM483 526h387l-104 371l-82 305 h-10l-86 -315z" />
<glyph unicode="&#x103;" horiz-adv-x="1185" d="M66 272q0 78 28.5 136.5t78.5 98.5t117.5 62.5t147.5 26.5q59 4 137 8t138 8v25q0 86 -37 130t-150 44q-74 0 -160.5 -14.5t-158.5 -36.5q-10 47 -22.5 92t-24.5 90q90 39 208.5 61.5t227.5 22.5q90 0 164 -18.5t125 -59.5t78.5 -107.5t27.5 -164.5v-481h131l15 -164 q-49 -23 -115 -37t-131 -14q-66 0 -110 22.5t-52 97.5l-4 4q-53 -47 -106.5 -71.5t-99.5 -36.5t-84 -14t-58 -2q-94 0 -154.5 29.5t-95.5 73.5t-48 95t-13 94zM186 1391l123 92q66 -88 137.5 -131t126.5 -43q18 0 46 2t65 17t86 47t115 93l88 -79q-49 -76 -101.5 -127.5 t-104.5 -83t-103.5 -45t-96.5 -13.5q-61 0 -115.5 22.5t-101.5 60.5t-88 86t-76 102zM369 297q0 -63 32.5 -96t104.5 -33q47 0 102.5 23.5t104.5 66.5v193l-203 -17q-141 -12 -141 -137z" />
<glyph unicode="&#x104;" horiz-adv-x="1359" d="M16 0l480 1407h381l464 -1407h-208q-41 -59 -61.5 -122.5t-20.5 -110.5q0 -51 27.5 -73t80.5 -22q41 0 76 7.5t70 15.5l24 -94q-59 -31 -122.5 -46.5t-125.5 -15.5q-109 0 -164 44t-55 122q0 57 32 141t130 172l-92 304h-514l-101 -322h-301zM483 526h387l-104 371 l-82 305h-10l-86 -315z" />
<glyph unicode="&#x105;" horiz-adv-x="1185" d="M66 272q0 78 28.5 136.5t78.5 98.5t117.5 62.5t147.5 26.5q59 4 137 8t138 8v25q0 86 -37 130t-150 44q-74 0 -160.5 -14.5t-158.5 -36.5q-10 47 -22.5 92t-24.5 90q90 39 208.5 61.5t227.5 22.5q90 0 164 -18.5t125 -59.5t78.5 -107.5t27.5 -164.5v-481h131l15 -164 q-41 -18 -92.5 -31.5t-104.5 -17.5q-31 -53 -46 -107.5t-15 -95.5q0 -51 27.5 -72.5t80.5 -21.5q41 0 76 7t70 15l24 -94q-59 -31 -122.5 -46.5t-125.5 -15.5q-109 0 -164 44.5t-55 121.5q0 51 23.5 123t95.5 150q-33 10 -54.5 35.5t-25.5 74.5l-4 4q-53 -47 -106.5 -71.5 t-99.5 -36.5t-84 -14t-58 -2q-94 0 -154.5 29.5t-95.5 73.5t-48 95t-13 94zM369 297q0 -63 32.5 -96t104.5 -33q47 0 102.5 23.5t104.5 66.5v193l-203 -17q-141 -12 -141 -137z" />
<glyph unicode="&#x106;" horiz-adv-x="1284" d="M106 696q0 123 31 254t108 238.5t208.5 177.5t334.5 70q109 0 203 -16.5t172 -41.5l-43 -221q-82 23 -156.5 32t-136.5 9q-197 0 -299 -122t-102 -369q0 -121 20.5 -212.5t68.5 -152.5t127 -92t194 -31q25 0 64.5 3t85.5 9.5t92 14.5t87 18l49 -209q-45 -18 -99 -31.5 t-112.5 -23.5t-118 -15t-112.5 -5q-195 0 -322.5 55t-204.5 152.5t-108 227.5t-31 281zM635 1608l301 346l156 -162l-361 -285z" />
<glyph unicode="&#x107;" horiz-adv-x="993" d="M80 492q0 88 20.5 183t75.5 174t151.5 129t250.5 50q66 0 146.5 -9t166.5 -40q-10 -51 -21.5 -101.5t-23.5 -103.5q-66 18 -120 23.5t-99 5.5q-123 0 -186.5 -79t-63.5 -220q0 -139 52 -218t189 -79q72 0 137.5 14.5t133.5 36.5l55 -195q-76 -39 -175 -59t-204 -20 q-145 0 -238.5 39.5t-148.5 109.5t-76.5 162t-21.5 197zM371 1196l303 348l155 -168l-356 -286z" />
<glyph unicode="&#x108;" horiz-adv-x="1284" d="M106 696q0 123 31 254t108 238.5t208.5 177.5t334.5 70q109 0 203 -16.5t172 -41.5l-43 -221q-82 23 -156.5 32t-136.5 9q-197 0 -299 -122t-102 -369q0 -121 20.5 -212.5t68.5 -152.5t127 -92t194 -31q25 0 64.5 3t85.5 9.5t92 14.5t87 18l49 -209q-45 -18 -99 -31.5 t-112.5 -23.5t-118 -15t-112.5 -5q-195 0 -322.5 55t-204.5 152.5t-108 227.5t-31 281zM336 1591l315 301h180l318 -299l-72 -84l-338 187l-333 -189z" />
<glyph unicode="&#x109;" horiz-adv-x="993" d="M80 492q0 88 20.5 183t75.5 174t151.5 129t250.5 50q66 0 146.5 -9t166.5 -40q-10 -51 -21.5 -101.5t-23.5 -103.5q-66 18 -120 23.5t-99 5.5q-123 0 -186.5 -79t-63.5 -220q0 -139 52 -218t189 -79q72 0 137.5 14.5t133.5 36.5l55 -195q-76 -39 -175 -59t-204 -20 q-145 0 -238.5 39.5t-148.5 109.5t-76.5 162t-21.5 197zM150 1167l315 316h180l320 -312l-74 -86l-338 195l-336 -197z" />
<glyph unicode="&#x10a;" horiz-adv-x="1284" d="M106 696q0 123 31 254t108 238.5t208.5 177.5t334.5 70q109 0 203 -16.5t172 -41.5l-43 -221q-82 23 -156.5 32t-136.5 9q-197 0 -299 -122t-102 -369q0 -121 20.5 -212.5t68.5 -152.5t127 -92t194 -31q25 0 64.5 3t85.5 9.5t92 14.5t87 18l49 -209q-45 -18 -99 -31.5 t-112.5 -23.5t-118 -15t-112.5 -5q-195 0 -322.5 55t-204.5 152.5t-108 227.5t-31 281zM547 1704q0 70 41 114t123 44q84 0 128 -44t44 -114q0 -66 -44 -111t-128 -45q-82 0 -123 45t-41 111z" />
<glyph unicode="&#x10b;" horiz-adv-x="993" d="M80 492q0 88 20.5 183t75.5 174t151.5 129t250.5 50q66 0 146.5 -9t166.5 -40q-10 -51 -21.5 -101.5t-23.5 -103.5q-66 18 -120 23.5t-99 5.5q-123 0 -186.5 -79t-63.5 -220q0 -139 52 -218t189 -79q72 0 137.5 14.5t133.5 36.5l55 -195q-76 -39 -175 -59t-204 -20 q-145 0 -238.5 39.5t-148.5 109.5t-76.5 162t-21.5 197zM385 1313q0 66 38 108.5t109 42.5q74 0 114 -42.5t40 -108.5t-40 -109t-114 -43q-72 0 -109.5 43t-37.5 109z" />
<glyph unicode="&#x10c;" horiz-adv-x="1284" d="M106 696q0 123 31 254t108 238.5t208.5 177.5t334.5 70q109 0 203 -16.5t172 -41.5l-43 -221q-82 23 -156.5 32t-136.5 9q-197 0 -299 -122t-102 -369q0 -121 20.5 -212.5t68.5 -152.5t127 -92t194 -31q25 0 64.5 3t85.5 9.5t92 14.5t87 18l49 -209q-45 -18 -99 -31.5 t-112.5 -23.5t-118 -15t-112.5 -5q-195 0 -322.5 55t-204.5 152.5t-108 227.5t-31 281zM307 1808l70 80l334 -188l338 190l71 -86l-319 -297h-178z" />
<glyph unicode="&#x10d;" horiz-adv-x="993" d="M80 492q0 88 20.5 183t75.5 174t151.5 129t250.5 50q66 0 146.5 -9t166.5 -40q-10 -51 -21.5 -101.5t-23.5 -103.5q-66 18 -120 23.5t-99 5.5q-123 0 -186.5 -79t-63.5 -220q0 -139 52 -218t189 -79q72 0 137.5 14.5t133.5 36.5l55 -195q-76 -39 -175 -59t-204 -20 q-145 0 -238.5 39.5t-148.5 109.5t-76.5 162t-21.5 197zM145 1430l68 81l338 -198l336 198l74 -84l-320 -315h-178z" />
<glyph unicode="&#x10e;" horiz-adv-x="1413" d="M150 0v1409h528q186 0 308 -56.5t192.5 -151.5t98.5 -223t28 -269t-32 -270.5t-105.5 -226.5t-196.5 -154.5t-305 -57.5h-516zM231 1808l70 80l334 -188l338 190l71 -86l-319 -297h-178zM455 217h186q53 0 114.5 17.5t114 69.5t87 146.5t34.5 247.5q0 156 -32.5 253.5 t-83 151.5t-113 73.5t-121.5 19.5h-186v-979z" />
<glyph unicode="&#x10f;" horiz-adv-x="1497" d="M80 481q0 117 22.5 217.5t74.5 174t134 115.5t203 42q49 0 126 -13t140 -50v497h293v-1464h-272l-6 90q-4 4 -7 4q-74 -59 -158.5 -83.5t-150.5 -24.5q-117 0 -194.5 40t-122.5 107.5t-63.5 157.5t-18.5 190zM375 483q0 -90 15.5 -146t42 -89t63 -45.5t77.5 -12.5 q23 0 51.5 7.5t57.5 17.5t54.5 24.5t43.5 26.5v496q-35 23 -94 39t-108 16q-37 0 -74 -13t-65.5 -50t-46 -102.5t-17.5 -168.5zM1202 1397q0 53 40 91t106 38q76 0 112.5 -48t36.5 -110q-4 -96 -68.5 -181t-156.5 -130l-64 80q39 33 61.5 66.5t26.5 74.5q-47 10 -70.5 41 t-23.5 78z" />
<glyph unicode="&#x110;" horiz-adv-x="1413" d="M29 657v150h121v602h528q186 0 308 -56.5t192.5 -151.5t98.5 -223t28 -269t-32 -270.5t-105.5 -226.5t-196.5 -154.5t-305 -57.5h-516v657h-121zM455 217h186q53 0 114.5 17.5t114 69.5t87 146.5t34.5 247.5q0 156 -32.5 253.5t-83 151.5t-113 73.5t-121.5 19.5h-186 v-389h252v-150h-252v-440z" />
<glyph unicode="&#x111;" horiz-adv-x="1177" d="M80 461q0 111 22.5 207t72.5 166.5t130 111.5t197 41q59 0 126.5 -10t151.5 -45v182h-274v111h274v239h293v-239h125v-111h-125v-1114h-272q-2 23 -2 45t-4 45q-4 4 -7 4q-74 -59 -158.5 -83.5t-150.5 -24.5q-117 0 -194.5 36.5t-122.5 101t-63.5 151.5t-18.5 186z M375 463q0 -84 15.5 -137.5t42 -83t63 -41t77.5 -11.5q23 0 51.5 6.5t57.5 17.5t54.5 24.5t43.5 27.5v453q-37 23 -95 39t-107 16q-37 0 -74 -13t-65.5 -48t-46 -95.5t-17.5 -154.5z" />
<glyph unicode="&#x112;" horiz-adv-x="1241" d="M147 0v1409h971v-213h-665v-358h559v-201h-559v-422h694v-215h-1000zM285 1532v186h725v-186h-725z" />
<glyph unicode="&#x113;" horiz-adv-x="1114" d="M82 502q0 82 20.5 176t75.5 172t150 130t245 52q162 0 254.5 -51t138.5 -127t57 -161t11 -152v-105h-657q0 -117 58.5 -176t193.5 -59q82 0 163.5 17.5t159.5 45.5l60 -180q-100 -55 -211 -77.5t-215 -22.5q-152 0 -250 42t-154.5 113.5t-78 164.5t-21.5 198zM209 1194 v186h743v-186h-743zM381 616h387q-2 100 -40 165t-142 65q-55 0 -92 -18.5t-60.5 -50.5t-36 -73.5t-16.5 -87.5z" />
<glyph unicode="&#x114;" horiz-adv-x="1241" d="M147 0v1409h971v-213h-665v-358h559v-201h-559v-422h694v-215h-1000zM254 1759l119 90q63 -86 136 -130t130 -44q18 0 46 3t67 19.5t87 48.5t109 91l78 -78q-96 -150 -199.5 -207t-195.5 -57q-61 0 -114.5 21.5t-99.5 57.5t-87 84t-76 101z" />
<glyph unicode="&#x115;" horiz-adv-x="1114" d="M82 502q0 82 20.5 176t75.5 172t150 130t245 52q162 0 254.5 -51t138.5 -127t57 -161t11 -152v-105h-657q0 -117 58.5 -176t193.5 -59q82 0 163.5 17.5t159.5 45.5l60 -180q-100 -55 -211 -77.5t-215 -22.5q-152 0 -250 42t-154.5 113.5t-78 164.5t-21.5 198zM190 1391 l123 92q66 -88 137.5 -131t127.5 -43q18 0 45.5 2t64.5 17t86 47t115 93l88 -79q-49 -76 -101.5 -127.5t-104.5 -83t-103.5 -45t-96.5 -13.5q-61 0 -115.5 22.5t-101.5 60.5t-88 86t-76 102zM381 616h387q-2 100 -40 165t-142 65q-55 0 -92 -18.5t-60.5 -50.5t-36 -73.5 t-16.5 -87.5z" />
<glyph unicode="&#x116;" horiz-adv-x="1241" d="M147 0v1409h971v-213h-665v-358h559v-201h-559v-422h694v-215h-1000zM508 1694q0 70 41 113.5t123 43.5q84 0 128 -43.5t44 -113.5q0 -66 -44 -111t-128 -45q-82 0 -123 45t-41 111z" />
<glyph unicode="&#x117;" horiz-adv-x="1114" d="M82 502q0 82 20.5 176t75.5 172t150 130t245 52q162 0 254.5 -51t138.5 -127t57 -161t11 -152v-105h-657q0 -117 58.5 -176t193.5 -59q82 0 163.5 17.5t159.5 45.5l60 -180q-100 -55 -211 -77.5t-215 -22.5q-152 0 -250 42t-154.5 113.5t-78 164.5t-21.5 198zM381 616 h387q-2 100 -40 165t-142 65q-55 0 -92 -18.5t-60.5 -50.5t-36 -73.5t-16.5 -87.5zM410 1313q0 70 41 113.5t122 43.5q84 0 128 -43.5t44 -113.5q0 -66 -44 -111t-128 -45q-82 0 -122.5 45t-40.5 111z" />
<glyph unicode="&#x118;" horiz-adv-x="1241" d="M147 0v1409h971v-213h-665v-358h559v-201h-559v-422h694v-215h-64q-39 -57 -58 -119.5t-19 -107.5q0 -51 27.5 -73t80.5 -22q41 0 76 7.5t70 15.5l24 -94q-59 -31 -122.5 -46.5t-125.5 -15.5q-109 0 -164 44t-55 122q0 53 26.5 130t108.5 159h-805z" />
<glyph unicode="&#x119;" horiz-adv-x="1114" d="M82 502q0 82 20.5 176t75.5 172t150 130t245 52q162 0 254.5 -51t138.5 -127t57 -161t11 -152v-105h-657q0 -117 58.5 -176t193.5 -59q82 0 163.5 17.5t159.5 45.5l60 -180q-35 -20 -71 -34.5t-73 -26.5q-29 -49 -42 -99.5t-13 -89.5q0 -51 27.5 -72.5t81.5 -21.5 q41 0 75.5 7t69.5 15l25 -94q-59 -31 -123 -46t-125 -15q-109 0 -164 44t-55 122q0 41 15 97t60 120q-59 -6 -114 -6q-152 0 -250 42t-154.5 113.5t-78 164.5t-21.5 198zM381 616h387q-2 100 -40 165t-142 65q-55 0 -92 -18.5t-60.5 -50.5t-36 -73.5t-16.5 -87.5z" />
<glyph unicode="&#x11a;" horiz-adv-x="1241" d="M147 0v1409h971v-213h-665v-358h559v-201h-559v-422h694v-215h-1000zM221 1798l70 80l334 -188l338 190l71 -86l-319 -297h-178z" />
<glyph unicode="&#x11b;" horiz-adv-x="1114" d="M82 502q0 82 20.5 176t75.5 172t150 130t245 52q162 0 254.5 -51t138.5 -127t57 -161t11 -152v-105h-657q0 -117 58.5 -176t193.5 -59q82 0 163.5 17.5t159.5 45.5l60 -180q-100 -55 -211 -77.5t-215 -22.5q-152 0 -250 42t-154.5 113.5t-78 164.5t-21.5 198zM160 1430 l67 81l338 -198l336 198l74 -84l-320 -315h-178zM381 616h387q-2 100 -40 165t-142 65q-55 0 -92 -18.5t-60.5 -50.5t-36 -73.5t-16.5 -87.5z" />
<glyph unicode="&#x11c;" horiz-adv-x="1366" d="M106 700q0 123 31 254t110 237.5t217 175.5t353 69q106 0 206.5 -16.5t180.5 -41.5l-43 -217q-86 23 -164.5 32t-144.5 9q-217 0 -321.5 -128t-104.5 -390q0 -106 18.5 -192t60.5 -146.5t110.5 -93.5t168.5 -33q41 0 93.5 6t93.5 17v501h276v-686q-119 -41 -243.5 -59 t-235.5 -18q-193 0 -319.5 57t-202.5 155.5t-108 229.5t-32 278zM352 1587l316 301h180l317 -299l-71 -84l-338 187l-334 -189z" />
<glyph unicode="&#x11d;" horiz-adv-x="1222" d="M76 -160q0 76 38 133.5t89 85.5q-111 35 -111 148q0 76 45 119t105 65l4 8q-53 31 -90 94.5t-37 161.5q0 100 39 171t103.5 117t147.5 67.5t171 21.5q59 0 115.5 -6t97.5 -18h360v-148h-143l-6 -10q29 -37 41 -87t12 -97q0 -86 -36 -151.5t-99.5 -110t-147.5 -67 t-180 -22.5l-117 -2q-57 0 -91 -14t-34 -49q0 -23 21.5 -36t58.5 -13h295q190 0 296.5 -72t106.5 -227q0 -70 -32.5 -132.5t-102 -110.5t-181.5 -76.5t-267 -28.5q-150 0 -242 25.5t-143 66.5t-68.5 92t-17.5 102zM174 1167l315 316h181l319 -312l-74 -86l-337 195 l-336 -197zM358 -106q0 -29 9.5 -55.5t34 -46t69.5 -32t117 -12.5q123 0 184.5 40t61.5 106q0 25 -6.5 48t-25 41.5t-51 30t-83.5 11.5h-222q-35 -14 -61.5 -53.5t-26.5 -77.5zM406 666q0 -80 44 -125t123 -45q84 0 140.5 40t56.5 132q0 33 -9 64.5t-30.5 56t-57.5 40 t-87 15.5q-94 0 -137 -50.5t-43 -127.5z" />
<glyph unicode="&#x11e;" horiz-adv-x="1366" d="M106 700q0 123 31 254t110 237.5t217 175.5t353 69q106 0 206.5 -16.5t180.5 -41.5l-43 -217q-86 23 -164.5 32t-144.5 9q-217 0 -321.5 -128t-104.5 -390q0 -106 18.5 -192t60.5 -146.5t110.5 -93.5t168.5 -33q41 0 93.5 6t93.5 17v501h276v-686q-119 -41 -243.5 -59 t-235.5 -18q-193 0 -319.5 57t-202.5 155.5t-108 229.5t-32 278zM360 1769l119 91q63 -86 136 -130t130 -44q18 0 46 3t67 19t87 48t110 91l78 -78q-96 -150 -200 -207t-196 -57q-61 0 -114.5 21.5t-99.5 57.5t-87 84t-76 101z" />
<glyph unicode="&#x11f;" horiz-adv-x="1222" d="M76 -160q0 76 38 133.5t89 85.5q-111 35 -111 148q0 76 45 119t105 65l4 8q-53 31 -90 94.5t-37 161.5q0 100 39 171t103.5 117t147.5 67.5t171 21.5q59 0 115.5 -6t97.5 -18h360v-148h-143l-6 -10q29 -37 41 -87t12 -97q0 -86 -36 -151.5t-99.5 -110t-147.5 -67 t-180 -22.5l-117 -2q-57 0 -91 -14t-34 -49q0 -23 21.5 -36t58.5 -13h295q190 0 296.5 -72t106.5 -227q0 -70 -32.5 -132.5t-102 -110.5t-181.5 -76.5t-267 -28.5q-150 0 -242 25.5t-143 66.5t-68.5 92t-17.5 102zM199 1391l123 92q66 -88 137 -131t127 -43q18 0 45.5 2 t64.5 17t86 47t115 93l88 -79q-49 -76 -101.5 -127.5t-104.5 -83t-103 -45t-96 -13.5q-61 0 -115.5 22.5t-102 60.5t-88.5 86t-75 102zM358 -106q0 -29 9.5 -55.5t34 -46t69.5 -32t117 -12.5q123 0 184.5 40t61.5 106q0 25 -6.5 48t-25 41.5t-51 30t-83.5 11.5h-222 q-35 -14 -61.5 -53.5t-26.5 -77.5zM406 666q0 -80 44 -125t123 -45q84 0 140.5 40t56.5 132q0 33 -9 64.5t-30.5 56t-57.5 40t-87 15.5q-94 0 -137 -50.5t-43 -127.5z" />
<glyph unicode="&#x120;" horiz-adv-x="1366" d="M106 700q0 123 31 254t110 237.5t217 175.5t353 69q106 0 206.5 -16.5t180.5 -41.5l-43 -217q-86 23 -164.5 32t-144.5 9q-217 0 -321.5 -128t-104.5 -390q0 -106 18.5 -192t60.5 -146.5t110.5 -93.5t168.5 -33q41 0 93.5 6t93.5 17v501h276v-686q-119 -41 -243.5 -59 t-235.5 -18q-193 0 -319.5 57t-202.5 155.5t-108 229.5t-32 278zM600 1700q0 70 41 114t123 44q84 0 128 -44t44 -114q0 -66 -44 -111t-128 -45q-82 0 -123 45t-41 111z" />
<glyph unicode="&#x121;" horiz-adv-x="1222" d="M76 -160q0 76 38 133.5t89 85.5q-111 35 -111 148q0 76 45 119t105 65l4 8q-53 31 -90 94.5t-37 161.5q0 100 39 171t103.5 117t147.5 67.5t171 21.5q59 0 115.5 -6t97.5 -18h360v-148h-143l-6 -10q29 -37 41 -87t12 -97q0 -86 -36 -151.5t-99.5 -110t-147.5 -67 t-180 -22.5l-117 -2q-57 0 -91 -14t-34 -49q0 -23 21.5 -36t58.5 -13h295q190 0 296.5 -72t106.5 -227q0 -70 -32.5 -132.5t-102 -110.5t-181.5 -76.5t-267 -28.5q-150 0 -242 25.5t-143 66.5t-68.5 92t-17.5 102zM358 -106q0 -29 9.5 -55.5t34 -46t69.5 -32t117 -12.5 q123 0 184.5 40t61.5 106q0 25 -6.5 48t-25 41.5t-51 30t-83.5 11.5h-222q-35 -14 -61.5 -53.5t-26.5 -77.5zM406 666q0 -80 44 -125t123 -45q84 0 140.5 40t56.5 132q0 33 -9 64.5t-30.5 56t-57.5 40t-87 15.5q-94 0 -137 -50.5t-43 -127.5zM412 1313q0 70 41 113.5 t122 43.5q84 0 128.5 -43.5t44.5 -113.5q0 -66 -44.5 -111t-128.5 -45q-82 0 -122.5 45t-40.5 111z" />
<glyph unicode="&#x122;" horiz-adv-x="1366" d="M106 700q0 123 31 254t110 237.5t217 175.5t353 69q106 0 206.5 -16.5t180.5 -41.5l-43 -217q-86 23 -164.5 32t-144.5 9q-217 0 -321.5 -128t-104.5 -390q0 -106 18.5 -192t60.5 -146.5t110.5 -93.5t168.5 -33q41 0 93.5 6t93.5 17v501h276v-686q-119 -41 -243.5 -59 t-235.5 -18q-193 0 -319.5 57t-202.5 155.5t-108 229.5t-32 278zM631 -213q0 53 40 91t105 38q76 0 113 -48t37 -110q-4 -96 -68.5 -181t-157.5 -130l-63 80q39 33 61.5 66.5t26.5 74.5q-47 10 -70.5 41t-23.5 78z" />
<glyph unicode="&#x123;" horiz-adv-x="1222" d="M76 -160q0 76 38 133.5t89 85.5q-111 35 -111 148q0 76 45 119t105 65l4 8q-53 31 -90 94.5t-37 161.5q0 100 39 171t103.5 117t147.5 67.5t171 21.5q59 0 115.5 -6t97.5 -18h360v-148h-143l-6 -10q29 -37 41 -87t12 -97q0 -86 -36 -151.5t-99.5 -110t-147.5 -67 t-180 -22.5l-117 -2q-57 0 -91 -14t-34 -49q0 -23 21.5 -36t58.5 -13h295q190 0 296.5 -72t106.5 -227q0 -70 -32.5 -132.5t-102 -110.5t-181.5 -76.5t-267 -28.5q-150 0 -242 25.5t-143 66.5t-68.5 92t-17.5 102zM358 -106q0 -29 9.5 -55.5t34 -46t69.5 -32t117 -12.5 q123 0 184.5 40t61.5 106q0 25 -6.5 48t-25 41.5t-51 30t-83.5 11.5h-222q-35 -14 -61.5 -53.5t-26.5 -77.5zM406 666q0 -80 44 -125t123 -45q84 0 140.5 40t56.5 132q0 33 -9 64.5t-30.5 56t-57.5 40t-87 15.5q-94 0 -137 -50.5t-43 -127.5zM434 1284q2 102 70.5 187 t167.5 133l67 -84q-43 -35 -65.5 -68t-26.5 -76q47 -10 74 -43t27 -80q0 -55 -44.5 -95t-113.5 -40q-78 0 -117 49.5t-39 116.5z" />
<glyph unicode="&#x124;" horiz-adv-x="1454" d="M147 0v1407h306q0 -141 -1 -280.5t-1 -280.5h546v561h306v-1407h-306v627h-546q0 -158 1 -314.5t1 -312.5h-306zM309 1577l316 301h180l317 -299l-71 -84l-338 186l-334 -188z" />
<glyph unicode="&#x125;" horiz-adv-x="1165" d="M-154 1602l316 301h180l317 -299l-71 -84l-338 186l-334 -188zM100 0v1464h289v-325l-6 -215l16 -9q86 51 180.5 83t165.5 32q102 0 164 -27.5t95.5 -74.5t45 -110.5t11.5 -133.5v-684h-293v623q0 39 -4 71.5t-18.5 57t-43 38t-77.5 13.5q-51 0 -115 -22.5t-115 -53.5 v-727h-295z" />
<glyph unicode="&#x126;" horiz-adv-x="1454" d="M18 1047v116h132v246h303v-246h546v246h306v-246h125v-116h-125v-1047h-306v629h-546v-629h-303v1047h-132zM453 848h546v199h-546v-199z" />
<glyph unicode="&#x127;" horiz-adv-x="1202" d="M10 1120v125h129v219h289v-219h369v-125h-371q0 -66 -1 -129t-1 -129q55 29 101 49.5t87 32.5t82 18.5t88 6.5q100 0 163 -28t96.5 -75t45 -110.5t11.5 -132.5v-623h-293v561q0 39 -4 72t-18.5 57.5t-43 37.5t-75.5 13q-51 0 -116 -22.5t-116 -52.5v-666h-293v1120h-129z " />
<glyph unicode="&#x128;" horiz-adv-x="630" d="M-61 1602q35 98 89 143t122 45q43 0 89 -12.5t92 -26.5t90 -26.5t81 -12.5l114 84l84 -67q-31 -92 -83.5 -142.5t-124.5 -50.5q-51 0 -101.5 12.5t-96.5 27.5t-86 27.5t-71 12.5l-114 -80zM166 0v1409h299v-1409h-299z" />
<glyph unicode="&#x129;" horiz-adv-x="700" d="M-20 1237q35 98 89 143t121 45q43 0 89.5 -12t92.5 -26.5t90 -26.5t81 -12l114 84l84 -68q-31 -92 -84 -142.5t-125 -50.5q-51 0 -101 12.5t-96 28t-86 27.5t-71 12l-115 -80zM205 0v1006h293v-1006h-293z" />
<glyph unicode="&#x12a;" horiz-adv-x="630" d="M-43 1532v186h725v-186h-725zM166 0v1409h299v-1409h-299z" />
<glyph unicode="&#x12b;" horiz-adv-x="661" d="M-41 1194v186h743v-186h-743zM182 0v1006h293v-1006h-293z" />
<glyph unicode="&#x12c;" horiz-adv-x="630" d="M-63 1765l118 90q63 -86 136 -130t131 -44q18 0 45.5 3.5t66.5 19.5t87 48t110 91l78 -78q-96 -150 -200 -207t-196 -57q-61 0 -114.5 21.5t-99.5 57.5t-87 84t-75 101zM166 0v1409h299v-1409h-299z" />
<glyph unicode="&#x12d;" horiz-adv-x="704" d="M-41 1391l123 92q66 -88 137.5 -131t126.5 -43q18 0 46 2t65 17t86 47t114 93l88 -79q-49 -76 -101 -127.5t-104.5 -83t-103.5 -45t-96 -13.5q-61 0 -115.5 22.5t-101.5 60.5t-88 86t-76 102zM182 0v1006h293v-1006h-293z" />
<glyph unicode="&#x12e;" horiz-adv-x="630" d="M115 -287q0 53 26.5 129t106.5 158h-82v1409h299v-1409h-86q-37 -57 -56.5 -118.5t-19.5 -106.5q0 -51 27.5 -72.5t81.5 -21.5q41 0 75.5 7t69.5 15l25 -94q-59 -31 -123 -46.5t-125 -15.5q-109 0 -164 44t-55 122z" />
<glyph unicode="&#x12f;" horiz-adv-x="612" d="M98 -272q0 51 24.5 122.5t96.5 149.5h-61v1006h293v-1006h-97q-35 -55 -51 -112.5t-16 -98.5q0 -51 27.5 -72.5t80.5 -21.5q41 0 76 7t70 15l24 -94q-59 -31 -122.5 -46t-125.5 -15q-109 0 -164 44t-55 122zM135 1284q0 68 44 113t124 45q86 0 130 -45t44 -113 q0 -66 -44 -111t-130 -45q-82 0 -125 45.5t-43 110.5z" />
<glyph unicode="&#x130;" horiz-adv-x="630" d="M147 1706q0 70 41 114t123 44q84 0 128 -44t44 -114q0 -66 -44 -111t-128 -45q-82 0 -123 45t-41 111zM166 0v1409h299v-1409h-299z" />
<glyph unicode="&#x131;" horiz-adv-x="612" d="M158 0v1006h293v-1006h-293z" />
<glyph unicode="&#x132;" horiz-adv-x="1343" d="M166 0v1409h299v-1409h-299zM494 -184q109 57 178 108t110 108.5t57.5 126t16.5 160.5l2 1092h301l-2 -1102q0 -293 -149.5 -462t-442.5 -240z" />
<glyph unicode="&#x133;" horiz-adv-x="1193" d="M135 1284q0 68 44 113t124 45q86 0 130 -45t44 -113q0 -66 -44 -111t-130 -45q-82 0 -125 45.5t-43 110.5zM158 0v1006h293v-1006h-293zM487 -268q80 45 129.5 83t77 78.5t36.5 93t9 128.5v891h295v-648.5t-2 -263.5q-2 -121 -28.5 -211t-82 -156.5t-142.5 -113.5 t-212 -80q-4 8 -15 38t-23.5 62.5t-24.5 61.5t-17 37zM721 1284q0 68 43 113t125 45q84 0 128 -45t44 -113q0 -66 -44 -111t-128 -45t-126 45.5t-42 110.5z" />
<glyph unicode="&#x134;" horiz-adv-x="747" d="M-104 -182q109 57 178 108t110 108.5t57.5 126t16.5 161.5l2 1091h301l-2 -1102q0 -293 -149.5 -461.5t-442.5 -240.5zM6 1585l316 301h180l317 -299l-71 -84l-338 187l-334 -189z" />
<glyph unicode="&#x135;" horiz-adv-x="741" d="M-31 1165q78 80 156 159t158 157h180q78 -78 157.5 -157t161.5 -157q-18 -23 -37.5 -42t-35.5 -42l-338 195l-334 -195q-16 20 -32.5 41t-35.5 41zM-29 -266q78 45 126 82t76 77.5t37 93t9 126.5v891h293v-924q0 -111 -25.5 -198t-82 -153.5t-144.5 -113.5t-211 -78 q-23 47 -41 97.5t-37 99.5z" />
<glyph unicode="&#x136;" horiz-adv-x="1361" d="M147 0v1407h299v-549h15l86 98l416 451h350l-537 -551l567 -856h-356q-104 166 -207.5 327.5t-208.5 327.5l-125 -127v-528h-299zM528 -213q0 53 40 91t106 38q76 0 112.5 -48t36.5 -110q-4 -96 -68.5 -181t-156.5 -130l-63 80q39 33 61 66.5t27 74.5q-47 10 -71 41 t-24 78z" />
<glyph unicode="&#x137;" horiz-adv-x="1089" d="M100 0v1462h297l-2 -510q0 -66 -2 -145t-6 -145q4 -2 12 -3l324 347h328l-379 -394l73 -86q14 -25 41 -65.5t59 -92t66.5 -105.5t66.5 -105.5t58.5 -93t40.5 -64.5h-323q-68 111 -135.5 220.5t-133.5 221.5l-88 -90v-352h-297zM403 -213q0 53 40 91t106 38 q76 0 112.5 -48t36.5 -110q-4 -96 -68.5 -181t-156.5 -130l-63 80q39 33 61.5 66.5t26.5 74.5q-47 10 -71 41t-24 78z" />
<glyph unicode="&#x138;" horiz-adv-x="1087" d="M100 0v1004h297v-74t-2 -74l-8 -194q4 -2 12 -3q82 86 163 172.5t161 174.5h328l-379 -394l73 -86l332 -526h-323q-68 111 -135.5 220.5t-133.5 221.5l-88 -90v-352h-297z" />
<glyph unicode="&#x139;" horiz-adv-x="1185" d="M147 0v1409h304v-1198h714v-211h-1018zM219 1602l301 346l156 -162l-361 -285z" />
<glyph unicode="&#x13a;" horiz-adv-x="557" d="M131 0v1466h293l-2 -1466h-291zM158 1628l301 346l155 -162l-360 -284z" />
<glyph unicode="&#x13b;" horiz-adv-x="1185" d="M147 0v1409h304v-1198h714v-211h-1018zM506 -213q0 53 40 91t105 38q76 0 113 -48t37 -110q-4 -96 -68.5 -181t-157.5 -130l-63 80q39 33 61.5 66.5t26.5 74.5q-47 10 -70.5 41t-23.5 78z" />
<glyph unicode="&#x13c;" horiz-adv-x="557" d="M131 0v1466h293l-2 -1466h-291zM139 -213q0 53 40 91t106 38q76 0 112.5 -48t36.5 -110q-4 -96 -68.5 -181t-156.5 -130l-64 80q39 33 61.5 66.5t26.5 74.5q-47 10 -70.5 41t-23.5 78z" />
<glyph unicode="&#x13d;" horiz-adv-x="1185" d="M147 0v1409h304v-1198h714v-211h-1018zM797 1282q0 53 40 91t105 38q76 0 113 -48t37 -110q-4 -96 -69 -181t-157 -130l-63 80q39 33 61.5 66.5t26.5 74.5q-47 10 -70.5 41t-23.5 78z" />
<glyph unicode="&#x13e;" horiz-adv-x="847" d="M131 0v1466h293l-2 -1466h-291zM559 1354q0 53 40 91t106 38q76 0 112.5 -48.5t36.5 -109.5q-4 -96 -68.5 -181t-156.5 -130l-64 80q39 33 61.5 66.5t26.5 74.5q-47 10 -70.5 41t-23.5 78z" />
<glyph unicode="&#x13f;" horiz-adv-x="1185" d="M147 0v1409h304v-1198h714v-211h-1018zM768 815q0 70 41 114t123 44q84 0 128 -44t44 -114q0 -66 -44 -111t-128 -45q-82 0 -123 45.5t-41 110.5z" />
<glyph unicode="&#x140;" horiz-adv-x="888" d="M131 0v1466h293l-2 -1466h-291zM545 766q0 70 41 114t123 44q84 0 128 -44t44 -114q0 -66 -44 -111t-128 -45q-82 0 -123 45t-41 111z" />
<glyph unicode="&#x141;" horiz-adv-x="1185" d="M-53 510l200 113v786h304v-610l229 131l68 -123l-297 -172v-424h714v-211h-1018v457l-129 -76z" />
<glyph unicode="&#x142;" horiz-adv-x="653" d="M-41 590l213 125v749h293q0 -145 -1 -290.5t-1 -292.5l164 94l67 -115q-55 -35 -113.5 -67.5t-117.5 -67.5v-725h-291v557q-37 -23 -75 -44t-72 -44z" />
<glyph unicode="&#x143;" horiz-adv-x="1519" d="M147 0v1407h306q111 -172 218 -340t216 -342l178 -287h12v969h293v-1407h-303l-477 758q-35 59 -71 116.5t-70 116.5q-4 0 -5.5 -1t-5.5 -1v-989h-291zM657 1571l301 346l156 -162l-360 -285z" />
<glyph unicode="&#x144;" horiz-adv-x="1165" d="M100 0v1006h279l4 -93l8 -4q88 59 185.5 90t168.5 31q100 0 162 -27.5t95.5 -74.5t46 -110.5t12.5 -133.5v-684h-293v623q0 39 -4 71.5t-19.5 57t-44 38t-75.5 13.5q-51 0 -115 -22.5t-115 -53.5v-727h-295zM408 1196l303 348l155 -168l-356 -286z" />
<glyph unicode="&#x145;" horiz-adv-x="1519" d="M147 0v1407h306q111 -172 218 -340t216 -342l178 -287h12v969h293v-1407h-303l-477 758q-35 59 -71 116.5t-70 116.5q-4 0 -5.5 -1t-5.5 -1v-989h-291zM604 -213q0 53 40 91t106 38q76 0 112.5 -48t36.5 -110q-4 -96 -68.5 -181t-156.5 -130l-64 80q39 33 61.5 66.5 t26.5 74.5q-47 10 -70.5 41t-23.5 78z" />
<glyph unicode="&#x146;" horiz-adv-x="1165" d="M100 0v1006h279l4 -93l8 -4q88 59 185.5 90t168.5 31q100 0 162 -27.5t95.5 -74.5t46 -110.5t12.5 -133.5v-684h-293v623q0 39 -4 71.5t-19.5 57t-44 38t-75.5 13.5q-51 0 -115 -22.5t-115 -53.5v-727h-295zM453 -213q0 53 39.5 91t105.5 38q76 0 113 -48t37 -110 q-4 -96 -69 -181t-157 -130l-63 80q39 33 61.5 66.5t26.5 74.5q-47 10 -70.5 41t-23.5 78z" />
<glyph unicode="&#x147;" horiz-adv-x="1519" d="M147 0v1407h306q111 -172 218 -340t216 -342l178 -287h12v969h293v-1407h-303l-477 758q-35 59 -71 116.5t-70 116.5q-4 0 -5.5 -1t-5.5 -1v-989h-291zM381 1796l70 80l333 -188l338 190l72 -86l-320 -297h-178z" />
<glyph unicode="&#x148;" horiz-adv-x="1165" d="M100 0v1006h279l4 -93l8 -4q88 59 185.5 90t168.5 31q100 0 162 -27.5t95.5 -74.5t46 -110.5t12.5 -133.5v-684h-293v623q0 39 -4 71.5t-19.5 57t-44 38t-75.5 13.5q-51 0 -115 -22.5t-115 -53.5v-727h-295zM166 1430l67 81l338 -198l336 198l74 -84l-319 -315h-179z" />
<glyph unicode="&#x149;" horiz-adv-x="1382" d="M39 1327q0 53 40 91t105 38q76 0 113 -48t37 -110q-4 -96 -68.5 -181t-156.5 -130l-64 80q39 33 61.5 66.5t26.5 74.5q-47 10 -70.5 41t-23.5 78zM317 0v1006h279l4 -93l8 -4q88 59 185.5 90t169.5 31q100 0 161.5 -27.5t95 -74.5t46 -110.5t12.5 -133.5v-684h-293v623 q0 39 -4 71.5t-19.5 57t-44 38t-75.5 13.5q-51 0 -114.5 -22.5t-115.5 -53.5v-727h-295z" />
<glyph unicode="&#x14a;" horiz-adv-x="1519" d="M147 0v1407h306q111 -172 218 -340t216 -342l178 -287h12v969h293v-1448q-2 -84 -18.5 -155.5t-60.5 -125t-119.5 -84t-194.5 -30.5q-45 0 -107.5 7t-113.5 19l24 205q37 -4 71 -7t56 -3q35 0 68 5t57.5 20.5t38.5 41t14 66.5v66q-117 174 -238.5 366.5t-238.5 374.5 q-10 14 -32.5 52t-47 81t-48 81t-31.5 52q-4 0 -5.5 -1t-5.5 -1v-989h-291z" />
<glyph unicode="&#x14b;" horiz-adv-x="1165" d="M100 0v1006h279q0 -23 1 -45.5t3 -45.5l8 -4q88 59 184 89t168 30q98 0 161 -27.5t96.5 -74.5t46 -110.5t12.5 -133.5v-608v-56.5t-2 -54.5q-2 -61 -19.5 -121.5t-61.5 -108.5t-120 -79t-192 -31q-43 0 -106.5 7.5t-108.5 17.5q4 49 11 97t11 97q31 -4 69 -6t62 -2 q82 0 123 34t41 120v633q0 37 -5 69.5t-20.5 57t-44 39t-73.5 14.5q-51 0 -114 -22.5t-114 -53.5v-727h-295z" />
<glyph unicode="&#x14c;" horiz-adv-x="1527" d="M109 700q0 152 37.5 285t117.5 233.5t205 158t301 57.5t300 -58.5t202 -158t113.5 -231t35.5 -281.5q0 -156 -41 -288t-122.5 -229.5t-203.5 -152.5t-284 -55q-172 0 -297 52t-206 147t-119.5 227.5t-38.5 293.5zM401 1532v186h725v-186h-725zM426 698q0 -240 77 -369.5 t267 -129.5q88 0 151.5 37.5t102.5 105.5t57.5 158.5t18.5 199.5q0 96 -13.5 189.5t-49.5 166t-100.5 118t-166.5 45.5q-104 0 -171 -44.5t-105.5 -116t-53 -165.5t-14.5 -195z" />
<glyph unicode="&#x14d;" horiz-adv-x="1181" d="M82 502q0 106 28.5 201.5t90 167t159 114.5t236.5 43q141 0 237.5 -42t156 -114.5t85 -168t25.5 -199.5t-26.5 -199.5t-88 -168.5t-160 -114.5t-241.5 -41.5q-139 0 -235.5 40.5t-156 111.5t-85 166t-25.5 204zM219 1194v186h744v-186h-744zM383 502q0 -68 8 -125.5 t31.5 -99t64.5 -66.5t109 -25q61 0 101 26t61.5 70t30 101.5t8.5 118.5q0 59 -8.5 116.5t-30 102.5t-60.5 72.5t-102 27.5t-104 -27.5t-66 -72.5t-34 -102.5t-9 -116.5z" />
<glyph unicode="&#x14e;" horiz-adv-x="1527" d="M109 700q0 152 37.5 285t117.5 233.5t205 158t301 57.5t300 -58.5t202 -158t113.5 -231t35.5 -281.5q0 -156 -41 -288t-122.5 -229.5t-203.5 -152.5t-284 -55q-172 0 -297 52t-206 147t-119.5 227.5t-38.5 293.5zM379 1774l119 90q63 -86 136 -130t130 -44q18 0 46 3 t66.5 19.5t87 48t109.5 90.5l78 -77q-96 -150 -199.5 -207.5t-195.5 -57.5q-61 0 -114.5 21.5t-99.5 57.5t-87 84t-76 102zM426 698q0 -240 77 -369.5t267 -129.5q88 0 151.5 37.5t102.5 105.5t57.5 158.5t18.5 199.5q0 96 -13.5 189.5t-49.5 166t-100.5 118t-166.5 45.5 q-104 0 -171 -44.5t-105.5 -116t-53 -165.5t-14.5 -195z" />
<glyph unicode="&#x14f;" horiz-adv-x="1181" d="M82 502q0 106 28.5 201.5t90 167t159 114.5t236.5 43q141 0 237.5 -42t156 -114.5t85 -168t25.5 -199.5t-26.5 -199.5t-88 -168.5t-160 -114.5t-241.5 -41.5q-139 0 -235.5 40.5t-156 111.5t-85 166t-25.5 204zM205 1391l123 92q66 -88 137.5 -131t126.5 -43q18 0 46 2 t64.5 17t86 47t114.5 93l88 -79q-49 -76 -101 -127.5t-104.5 -83t-103.5 -45t-96 -13.5q-61 0 -115.5 22.5t-101.5 60.5t-88 86t-76 102zM383 502q0 -68 8 -125.5t31.5 -99t64.5 -66.5t109 -25q61 0 101 26t61.5 70t30 101.5t8.5 118.5q0 59 -8.5 116.5t-30 102.5 t-60.5 72.5t-102 27.5t-104 -27.5t-66 -72.5t-34 -102.5t-9 -116.5z" />
<glyph unicode="&#x150;" horiz-adv-x="1527" d="M109 700q0 152 37.5 285t117.5 233.5t205 158t301 57.5t300 -58.5t202 -158t113.5 -231t35.5 -281.5q0 -156 -41 -288t-122.5 -229.5t-203.5 -152.5t-284 -55q-172 0 -297 52t-206 147t-119.5 227.5t-38.5 293.5zM426 698q0 -240 77 -369.5t267 -129.5q88 0 151.5 37.5 t102.5 105.5t57.5 158.5t18.5 199.5q0 96 -13.5 189.5t-49.5 166t-100.5 118t-166.5 45.5q-104 0 -171 -44.5t-105.5 -116t-53 -165.5t-14.5 -195zM508 1591l266 379l176 -139l-329 -326zM829 1591l265 379l176 -139l-330 -326z" />
<glyph unicode="&#x151;" horiz-adv-x="1181" d="M82 502q0 106 28.5 201.5t90 167t159 114.5t236.5 43q141 0 237.5 -42t156 -114.5t85 -168t25.5 -199.5t-26.5 -199.5t-88 -168.5t-160 -114.5t-241.5 -41.5q-139 0 -235.5 40.5t-156 111.5t-85 166t-25.5 204zM283 1174l266 378l170 -137l-330 -330zM383 502 q0 -68 8 -125.5t31.5 -99t64.5 -66.5t109 -25q61 0 101 26t61.5 70t30 101.5t8.5 118.5q0 59 -8.5 116.5t-30 102.5t-60.5 72.5t-102 27.5t-104 -27.5t-66 -72.5t-34 -102.5t-9 -116.5zM608 1174l264 378l172 -137l-331 -330z" />
<glyph unicode="&#x152;" horiz-adv-x="1828" d="M92 700q0 152 38 285t118 233.5t205 158t301 57.5q125 0 217 -27h762v-209h-635v-362h530v-203h-530v-422h661v-211h-827q-84 -18 -178 -18q-172 0 -297 52t-206 146t-120 226.5t-39 293.5zM410 698q0 -242 79 -371.5t265 -129.5h19t22 2v1015q-8 0 -23.5 1.5t-23.5 1.5 q-98 -4 -164 -48.5t-105 -116t-54 -163.5t-15 -191z" />
<glyph unicode="&#x153;" horiz-adv-x="1796" d="M70 498q0 106 29.5 202.5t93 169t160 115.5t231.5 43q123 0 209 -43t139 -115q53 72 138 119t218 47q145 0 233.5 -51t134.5 -127t60.5 -160t14.5 -151v-107h-652q2 -119 60.5 -180t195.5 -61q80 0 157 16t155 47l59 -174q-100 -53 -206.5 -76.5t-209.5 -23.5 q-133 0 -218 39t-138 108q-57 -68 -145.5 -111.5t-217.5 -43.5q-135 0 -230 39.5t-155.5 110.5t-88 165t-27.5 203zM373 502q0 -63 8 -120.5t30.5 -100.5t63.5 -69t109 -26q63 0 102 27t61.5 71t30.5 101.5t8 116.5q0 57 -8 114.5t-29.5 102.5t-61.5 73.5t-103 28.5 t-104.5 -28.5t-65 -73.5t-32.5 -102.5t-9 -114.5zM1085 610h379q-2 104 -40 168t-134 64q-51 0 -88 -19.5t-61.5 -51.5t-37.5 -74t-18 -87z" />
<glyph unicode="&#x154;" horiz-adv-x="1320" d="M147 0v1407h572q121 0 208 -32t143 -87t83 -128.5t27 -155.5q0 -57 -14.5 -113.5t-44 -105t-75 -86t-106.5 -58.5v-2q88 -29 127 -96.5t61 -149.5l113 -393h-301q-27 92 -53.5 183t-52.5 186q-33 117 -91.5 157.5t-144.5 40.5h-152v-567h-299zM446 774h216 q37 0 73.5 10.5t67.5 35t50 65.5t19 102q0 106 -59 156.5t-154 50.5h-213v-420zM492 1593l301 346l155 -161l-360 -285z" />
<glyph unicode="&#x155;" horiz-adv-x="851" d="M125 0v1006h289q0 -35 -4 -86.5t-9 -85.5l11 -7q41 41 90 78t100 65.5t100.5 45t92.5 16.5q57 0 57 -67q0 -29 -8 -69t-21.5 -82t-30 -79t-32.5 -59l-342 4v-680h-293zM225 1196l303 348l156 -168l-356 -286z" />
<glyph unicode="&#x156;" horiz-adv-x="1320" d="M147 0v1407h572q121 0 208 -32t143 -87t83 -128.5t27 -155.5q0 -57 -14.5 -113.5t-44 -105t-75 -86t-106.5 -58.5v-2q88 -29 127 -96.5t61 -149.5l113 -393h-301q-27 92 -53.5 183t-52.5 186q-33 117 -91.5 157.5t-144.5 40.5h-152v-567h-299zM446 774h216 q37 0 73.5 10.5t67.5 35t50 65.5t19 102q0 106 -59 156.5t-154 50.5h-213v-420zM522 -213q0 53 40 91t106 38q76 0 112.5 -48t36.5 -110q-4 -96 -68.5 -181t-156.5 -130l-64 80q39 33 61.5 66.5t26.5 74.5q-47 10 -70.5 41t-23.5 78z" />
<glyph unicode="&#x157;" horiz-adv-x="851" d="M125 0v1006h289q0 -35 -4 -86.5t-9 -85.5l11 -7q41 41 90 78t100 65.5t100.5 45t92.5 16.5q57 0 57 -67q0 -29 -8 -69t-21.5 -82t-30 -79t-32.5 -59l-342 4v-680h-293zM137 -213q0 53 40 91t106 38q76 0 112.5 -48t36.5 -110q-4 -96 -68.5 -181t-156.5 -130l-64 80 q39 33 61.5 66.5t26.5 74.5q-47 10 -70.5 41t-23.5 78z" />
<glyph unicode="&#x158;" horiz-adv-x="1320" d="M147 0v1407h572q121 0 208 -32t143 -87t83 -128.5t27 -155.5q0 -57 -14.5 -113.5t-44 -105t-75 -86t-106.5 -58.5v-2q88 -29 127 -96.5t61 -149.5l113 -393h-301q-27 92 -53.5 183t-52.5 186q-33 117 -91.5 157.5t-144.5 40.5h-152v-567h-299zM211 1798l70 80l333 -188 l338 190l72 -86l-319 -297h-179zM446 774h216q37 0 73.5 10.5t67.5 35t50 65.5t19 102q0 106 -59 156.5t-154 50.5h-213v-420z" />
<glyph unicode="&#x159;" horiz-adv-x="851" d="M-12 1430l67 81l338 -198l336 198l74 -84l-320 -315h-178zM125 0v1006h289q0 -35 -4 -86.5t-9 -85.5l11 -7q41 41 90 78t100 65.5t100.5 45t92.5 16.5q57 0 57 -67q0 -29 -8 -69t-21.5 -82t-30 -79t-32.5 -59l-342 4v-680h-293z" />
<glyph unicode="&#x15a;" horiz-adv-x="1275" d="M84 92l78 213q150 -59 268.5 -75.5t190.5 -16.5q125 0 188 42t63 144q0 45 -16 75t-47 51.5t-74 35.5t-94 29q-104 27 -198.5 54.5t-166 72.5t-113.5 113.5t-42 177.5q0 193 134 310.5t400 117.5q104 0 223 -21.5t224 -79.5l-78 -205q-104 43 -203.5 56.5t-175.5 13.5 q-96 0 -151.5 -45t-55.5 -135q0 -41 23.5 -68.5t62.5 -48t89.5 -35t105.5 -26.5q72 -18 154.5 -43t153.5 -72t117 -125t46 -203q0 -201 -147.5 -310t-444.5 -109q-53 0 -117.5 6t-132 19t-135.5 34.5t-129 52.5zM508 1597l301 347l156 -162l-361 -285z" />
<glyph unicode="&#x15b;" horiz-adv-x="1005" d="M63 66l64 182q125 -45 215 -56.5t141 -11.5q72 0 121 23.5t49 87.5q0 31 -16 50t-44 33.5t-61.5 25t-66.5 20.5q-70 20 -135.5 43.5t-115.5 56.5t-81 82t-31 123q0 145 108.5 225t317.5 80q80 0 177.5 -17.5t177.5 -60.5q-4 -8 -13.5 -33.5t-18.5 -55t-18.5 -56.5 t-13.5 -35q-82 31 -151.5 42t-128.5 11q-55 0 -101.5 -17t-46.5 -75q0 -20 17.5 -35.5t43 -28t57.5 -20.5t60 -16q63 -18 129 -42t120 -63t89 -97t35 -146q0 -145 -116.5 -223t-352.5 -78q-43 0 -95 4t-107.5 14t-108.5 25.5t-99 38.5zM356 1196l303 348l156 -168l-356 -286 z" />
<glyph unicode="&#x15c;" horiz-adv-x="1275" d="M84 92l78 213q150 -59 268.5 -75.5t190.5 -16.5q125 0 188 42t63 144q0 45 -16 75t-47 51.5t-74 35.5t-94 29q-104 27 -198.5 54.5t-166 72.5t-113.5 113.5t-42 177.5q0 193 134 310.5t400 117.5q104 0 223 -21.5t224 -79.5l-78 -205q-104 43 -203.5 56.5t-175.5 13.5 q-96 0 -151.5 -45t-55.5 -135q0 -41 23.5 -68.5t62.5 -48t89.5 -35t105.5 -26.5q72 -18 154.5 -43t153.5 -72t117 -125t46 -203q0 -201 -147.5 -310t-444.5 -109q-53 0 -117.5 6t-132 19t-135.5 34.5t-129 52.5zM260 1581l315 301h181l317 -299l-72 -84l-337 187l-334 -189z " />
<glyph unicode="&#x15d;" horiz-adv-x="1005" d="M63 66l64 182q125 -45 215 -56.5t141 -11.5q72 0 121 23.5t49 87.5q0 31 -16 50t-44 33.5t-61.5 25t-66.5 20.5q-70 20 -135.5 43.5t-115.5 56.5t-81 82t-31 123q0 145 108.5 225t317.5 80q80 0 177.5 -17.5t177.5 -60.5q-4 -8 -13.5 -33.5t-18.5 -55t-18.5 -56.5 t-13.5 -35q-82 31 -151.5 42t-128.5 11q-55 0 -101.5 -17t-46.5 -75q0 -20 17.5 -35.5t43 -28t57.5 -20.5t60 -16q63 -18 129 -42t120 -63t89 -97t35 -146q0 -145 -116.5 -223t-352.5 -78q-43 0 -95 4t-107.5 14t-108.5 25.5t-99 38.5zM106 1167l316 316h180l320 -312 l-74 -86l-338 195l-336 -197z" />
<glyph unicode="&#x15e;" horiz-adv-x="1275" d="M84 92l78 213q150 -59 268.5 -75.5t190.5 -16.5q125 0 188 42t63 144q0 45 -16 75t-47 51.5t-74 35.5t-94 29q-104 27 -198.5 54.5t-166 72.5t-113.5 113.5t-42 177.5q0 193 134 310.5t400 117.5q104 0 223 -21.5t224 -79.5l-78 -205q-104 43 -203.5 56.5t-175.5 13.5 q-96 0 -151.5 -45t-55.5 -135q0 -41 23.5 -68.5t62.5 -48t89.5 -35t105.5 -26.5q72 -18 154.5 -43t153.5 -72t117 -125t46 -203q0 -184 -125 -291.5t-375 -123.5q-18 -27 -38.5 -52.5t-39.5 -54.5q100 -8 158.5 -51t58.5 -121q0 -98 -96 -162.5t-301 -66.5v98 q104 10 163.5 39t59.5 74q0 31 -19.5 45t-48 19t-59 5h-55.5l-35 54l131 170q-53 2 -113.5 8t-124 19t-127 33.5t-120.5 51.5z" />
<glyph unicode="&#x15f;" horiz-adv-x="1005" d="M63 66l64 182q125 -45 215 -56.5t141 -11.5q72 0 121 23.5t49 87.5q0 31 -16 50t-44 33.5t-61.5 25t-66.5 20.5q-70 20 -135.5 43.5t-115.5 56.5t-81 82t-31 123q0 145 108.5 225t317.5 80q80 0 177.5 -17.5t177.5 -60.5q-4 -8 -13.5 -33.5t-18.5 -55t-18.5 -56.5 t-13.5 -35q-82 31 -151.5 42t-128.5 11q-55 0 -101.5 -17t-46.5 -75q0 -20 17.5 -35.5t43 -28t57.5 -20.5t60 -16q63 -18 129 -42t120 -63t89 -97t35 -146q0 -129 -94 -206t-281 -91l-80 -107q100 -8 159 -51t59 -121q0 -98 -96.5 -162.5t-301.5 -66.5v98q104 10 163.5 39 t59.5 74q0 31 -19 45t-48 19t-59.5 5h-55.5l-35 54l131 170q-43 2 -92 7t-99 14t-99.5 24.5t-90.5 36.5z" />
<glyph unicode="&#x160;" horiz-adv-x="1275" d="M84 92l78 213q150 -59 268.5 -75.5t190.5 -16.5q125 0 188 42t63 144q0 45 -16 75t-47 51.5t-74 35.5t-94 29q-104 27 -198.5 54.5t-166 72.5t-113.5 113.5t-42 177.5q0 193 134 310.5t400 117.5q104 0 223 -21.5t224 -79.5l-78 -205q-104 43 -203.5 56.5t-175.5 13.5 q-96 0 -151.5 -45t-55.5 -135q0 -41 23.5 -68.5t62.5 -48t89.5 -35t105.5 -26.5q72 -18 154.5 -43t153.5 -72t117 -125t46 -203q0 -201 -147.5 -310t-444.5 -109q-53 0 -117.5 6t-132 19t-135.5 34.5t-129 52.5zM231 1808l70 80l334 -188l338 190l71 -86l-319 -297h-178z " />
<glyph unicode="&#x161;" horiz-adv-x="1005" d="M63 66l64 182q125 -45 215 -56.5t141 -11.5q72 0 121 23.5t49 87.5q0 31 -16 50t-44 33.5t-61.5 25t-66.5 20.5q-70 20 -135.5 43.5t-115.5 56.5t-81 82t-31 123q0 145 108.5 225t317.5 80q80 0 177.5 -17.5t177.5 -60.5q-4 -8 -13.5 -33.5t-18.5 -55t-18.5 -56.5 t-13.5 -35q-82 31 -151.5 42t-128.5 11q-55 0 -101.5 -17t-46.5 -75q0 -20 17.5 -35.5t43 -28t57.5 -20.5t60 -16q63 -18 129 -42t120 -63t89 -97t35 -146q0 -145 -116.5 -223t-352.5 -78q-43 0 -95 4t-107.5 14t-108.5 25.5t-99 38.5zM94 1434l68 82l338 -199l336 199 l73 -84l-319 -316h-178z" />
<glyph unicode="&#x162;" horiz-adv-x="1249" d="M29 1190v219h1192v-219h-445l-2 -1190h-299v1190h-446zM487 -213q0 53 40 91t106 38q76 0 112.5 -48t36.5 -110q-4 -96 -68.5 -181t-156.5 -130l-63 80q39 33 61.5 66.5t26.5 74.5q-47 10 -71 41t-24 78z" />
<glyph unicode="&#x163;" horiz-adv-x="829" d="M31 815v160l159 47q6 12 16.5 47t21 74t20.5 73.5t14 47.5l199 20v-276h293v-193h-293v-455q0 -80 28.5 -117.5t106.5 -37.5q29 0 74 7t100 19l37 -190q-66 -29 -143.5 -43t-143.5 -14q-104 0 -171.5 24.5t-106.5 65.5t-54.5 95t-15.5 114v532h-141zM291 -213q0 53 40 91 t105 38q76 0 113 -48t37 -110q-4 -96 -68.5 -181t-157.5 -130l-63 80q39 33 61.5 66.5t26.5 74.5q-47 10 -70.5 41t-23.5 78z" />
<glyph unicode="&#x164;" horiz-adv-x="1249" d="M29 1190v219h1192v-219h-445l-2 -1190h-299v1190h-446zM217 1800l70 80l334 -188l337 190l72 -86l-319 -297h-179z" />
<glyph unicode="&#x165;" horiz-adv-x="1067" d="M31 815v160l159 47q6 12 16.5 47t21 74t20.5 73.5t14 47.5l199 20v-276h293v-193h-293v-455q0 -80 28.5 -117.5t106.5 -37.5q29 0 74 7t100 19l37 -190q-66 -29 -143.5 -43t-143.5 -14q-104 0 -171.5 24.5t-106.5 65.5t-54.5 95t-15.5 114v532h-141zM748 1372 q0 53 39.5 91t105.5 38q76 0 112.5 -48t36.5 -110q-4 -96 -68.5 -181t-156.5 -130l-63 80q39 33 61.5 66.5t26.5 74.5q-47 10 -70.5 41t-23.5 78z" />
<glyph unicode="&#x166;" horiz-adv-x="1249" d="M29 1190v219h1192v-219h-445v-406h277v-139h-279v-645h-299v645h-293v139h293v406h-446z" />
<glyph unicode="&#x167;" horiz-adv-x="864" d="M29 819v152q41 10 81 23.5t80 23.5q16 61 36 121.5t36 122.5l195 18v-276h293v-185h-293v-139h278v-133h-278v-205q0 -74 30.5 -109.5t108.5 -35.5q35 0 76 6t94 18l37 -182q-66 -29 -142.5 -41t-140.5 -12q-102 0 -169.5 22.5t-107.5 64.5t-55.5 103.5t-15.5 138.5v232 h-131v133h131v139h-143z" />
<glyph unicode="&#x168;" horiz-adv-x="1452" d="M137 518v891h299v-901q0 -160 76 -234.5t219 -74.5q131 0 210 72.5t79 236.5l-2 901h297l-2 -891q0 -125 -35 -225t-106.5 -170t-182 -106.5t-262.5 -36.5q-158 0 -270.5 36.5t-183 106.5t-103.5 170t-33 225zM348 1612q35 98 89.5 143t121.5 45q43 0 89 -12t92 -26.5 t90 -27t81 -12.5l115 84l84 -67q-31 -92 -84 -142.5t-125 -50.5q-51 0 -101 12.5t-96.5 28t-86 27.5t-70.5 12l-115 -80z" />
<glyph unicode="&#x169;" horiz-adv-x="1142" d="M100 319v687h293v-623q0 -37 4 -69.5t18.5 -57.5t41 -39t73.5 -14q43 0 101.5 22.5t113.5 71.5v709q74 0 147 1t146 1v-1008h-272q-4 27 -4 53.5t-4 55.5l-8 4q-47 -41 -95.5 -67t-93.5 -41t-84.5 -21.5t-68.5 -6.5q-100 0 -161 27t-93.5 74t-43 108.5t-10.5 132.5z M193 1225q35 98 89 143t121 45q43 0 89.5 -12t92.5 -26.5t90 -27t81 -12.5l114 84l84 -67q-31 -92 -84 -142.5t-125 -50.5q-51 0 -101 12.5t-96 27.5t-86 27.5t-71 12.5l-115 -80z" />
<glyph unicode="&#x16a;" horiz-adv-x="1452" d="M137 518v891h299v-901q0 -160 76 -234.5t219 -74.5q131 0 210 72.5t79 236.5l-2 901h297l-2 -891q0 -125 -35 -225t-106.5 -170t-182 -106.5t-262.5 -36.5q-158 0 -270.5 36.5t-183 106.5t-103.5 170t-33 225zM365 1532v186h725v-186h-725z" />
<glyph unicode="&#x16b;" horiz-adv-x="1142" d="M100 319v687h293v-623q0 -37 4 -69.5t18.5 -57.5t41 -39t73.5 -14q43 0 101.5 22.5t113.5 71.5v709q74 0 147 1t146 1v-1008h-272q-4 27 -4 53.5t-4 55.5l-8 4q-47 -41 -95.5 -67t-93.5 -41t-84.5 -21.5t-68.5 -6.5q-100 0 -161 27t-93.5 74t-43 108.5t-10.5 132.5z M197 1194v186h743v-186h-743z" />
<glyph unicode="&#x16c;" horiz-adv-x="1452" d="M137 518v891h299v-901q0 -160 76 -234.5t219 -74.5q131 0 210 72.5t79 236.5l-2 901h297l-2 -891q0 -125 -35 -225t-106.5 -170t-182 -106.5t-262.5 -36.5q-158 0 -270.5 36.5t-183 106.5t-103.5 170t-33 225zM360 1761l123 92q66 -88 137.5 -131t127.5 -43q18 0 45.5 2 t64.5 17.5t86 47.5t115 93l88 -80q-49 -76 -101.5 -127t-104.5 -82.5t-103.5 -45t-96.5 -13.5q-61 0 -115.5 22.5t-101.5 60.5t-88 86t-76 101z" />
<glyph unicode="&#x16d;" horiz-adv-x="1142" d="M100 319v687h293v-623q0 -37 4 -69.5t18.5 -57.5t41 -39t73.5 -14q43 0 101.5 22.5t113.5 71.5v709q74 0 147 1t146 1v-1008h-272q-4 27 -4 53.5t-4 55.5l-8 4q-47 -41 -95.5 -67t-93.5 -41t-84.5 -21.5t-68.5 -6.5q-100 0 -161 27t-93.5 74t-43 108.5t-10.5 132.5z M176 1391l123 92q66 -88 137.5 -131t126.5 -43q18 0 46 2t65 17t86 47t114 93l89 -79q-49 -76 -101.5 -127.5t-104.5 -83t-103.5 -45t-96.5 -13.5q-61 0 -115.5 22.5t-101.5 60.5t-88 86t-76 102z" />
<glyph unicode="&#x16e;" horiz-adv-x="1452" d="M137 518v891h299v-901q0 -160 76 -234.5t219 -74.5q131 0 210 72.5t79 236.5l-2 901h297l-2 -891q0 -125 -35 -225t-106.5 -170t-182 -106.5t-262.5 -36.5q-158 0 -270.5 36.5t-183 106.5t-103.5 170t-33 225zM477 1706q0 49 19.5 93t54.5 78t82 54.5t100 20.5 t98.5 -19.5t78 -53.5t51 -79t18.5 -94q0 -51 -19.5 -96t-53.5 -78t-78 -52.5t-95 -19.5q-53 0 -100 19.5t-82 53.5t-54.5 78t-19.5 95zM612 1700q0 -47 32 -82t89 -35q51 0 82 35t31 82q0 51 -30 87t-83 36t-87 -36t-34 -87z" />
<glyph unicode="&#x16f;" horiz-adv-x="1142" d="M100 319v687h293v-623q0 -37 4 -69.5t18.5 -57.5t41 -39t73.5 -14q43 0 101.5 22.5t113.5 71.5v709q74 0 147 1t146 1v-1008h-272q-4 27 -4 53.5t-4 55.5l-8 4q-47 -41 -95.5 -67t-93.5 -41t-84.5 -21.5t-68.5 -6.5q-100 0 -161 27t-93.5 74t-43 108.5t-10.5 132.5z M326 1368q0 49 19.5 93t54 78t81.5 54.5t101 20.5q53 0 98 -19.5t78 -53.5t51 -79t18 -94q0 -51 -19.5 -96t-53 -78t-77.5 -52.5t-95 -19.5q-53 0 -100.5 19.5t-82 53.5t-54 78t-19.5 95zM461 1362q0 -47 31.5 -82t89.5 -35q51 0 81.5 35t30.5 82q0 51 -29.5 87t-82.5 36 t-87 -36t-34 -87z" />
<glyph unicode="&#x170;" horiz-adv-x="1452" d="M137 518v891h299v-901q0 -160 76 -234.5t219 -74.5q131 0 210 72.5t79 236.5l-2 901h297l-2 -891q0 -125 -35 -225t-106.5 -170t-182 -106.5t-262.5 -36.5q-158 0 -270.5 36.5t-183 106.5t-103.5 170t-33 225zM453 1597l266 379l176 -139l-330 -326zM774 1597l264 379 l176 -139l-329 -326z" />
<glyph unicode="&#x171;" horiz-adv-x="1142" d="M100 319v687h293v-623q0 -37 4 -69.5t18.5 -57.5t41 -39t73.5 -14q43 0 101.5 22.5t113.5 71.5v709q74 0 147 1t146 1v-1008h-272q-4 27 -4 53.5t-4 55.5l-8 4q-47 -41 -95.5 -67t-93.5 -41t-84.5 -21.5t-68.5 -6.5q-100 0 -161 27t-93.5 74t-43 108.5t-10.5 132.5z M270 1174l267 378l170 -137l-330 -330zM596 1174l264 378l172 -137l-332 -330z" />
<glyph unicode="&#x172;" horiz-adv-x="1452" d="M137 518v891h299v-901q0 -160 76 -234.5t219 -74.5q131 0 210 72.5t79 236.5l-2 901h297l-2 -891q0 -244 -132 -386t-415 -152q-33 -55 -50.5 -114t-17.5 -99q0 -51 28 -73t81 -22q41 0 76 7.5t69 15.5l25 -94q-59 -31 -122.5 -46.5t-125.5 -15.5q-109 0 -164 44t-55 122 q0 51 24.5 125t100.5 154q-133 10 -227.5 51t-154.5 109.5t-88 162.5t-28 211z" />
<glyph unicode="&#x173;" horiz-adv-x="1142" d="M100 319v687h293v-623q0 -37 4 -69.5t18.5 -57.5t41 -39t73.5 -14q43 0 101.5 22.5t113.5 71.5v709q74 0 147 1t146 1v-1008h-151q-33 -55 -50.5 -113.5t-17.5 -99.5q0 -51 27.5 -72.5t81.5 -21.5q41 0 75.5 7t69.5 15l25 -94q-59 -31 -123 -46t-125 -15q-109 0 -164 44 t-55 122q0 53 26.5 128.5t106.5 155.5q-4 25 -3 49.5t-3 49.5l-8 4q-47 -41 -95.5 -67t-93.5 -41t-84.5 -21.5t-68.5 -6.5q-100 0 -161 27t-93.5 74t-43 108.5t-10.5 132.5z" />
<glyph unicode="&#x174;" horiz-adv-x="1931" d="M16 1409h322q14 -66 34.5 -162t42 -199.5t42 -199.5t35.5 -160q8 -39 16 -83t15 -90t15.5 -91t16.5 -84h14q16 76 30.5 167t31.5 167q14 72 35.5 169t44 200.5t44 199.5t36.5 166h325q6 -20 20.5 -77.5t33 -132.5t39 -159t38 -156.5t31.5 -127t18 -70.5q2 -8 12.5 -56 t22.5 -106.5t23.5 -112t15.5 -69.5h16q16 82 32 180.5t32 177.5q14 63 33.5 158.5t40 196t41 196t34.5 158.5h316q-18 -78 -46 -194.5t-59.5 -251t-65.5 -277.5t-65.5 -273t-58.5 -238.5t-43 -174.5h-373q-18 68 -39.5 155t-44 178t-44 179t-40.5 156q-6 25 -16 74 t-21.5 102t-21.5 102t-16 74l-15 2q-16 -82 -32.5 -178t-32.5 -176l-146 -668h-379zM547 1591l315 301h180l318 -299l-72 -84l-338 187l-334 -189z" />
<glyph unicode="&#x175;" horiz-adv-x="1679" d="M33 1008h289l112 -465l62 -310h10l67 318l121 457h279l131 -471l70 -301h14l59 301l113 471h285l-273 -1008h-342l-119 430l-73 326h-15l-67 -326l-109 -430h-342zM420 1167l315 316h180l320 -312l-74 -86l-338 195l-336 -197z" />
<glyph unicode="&#x176;" horiz-adv-x="1282" d="M16 1407h316q43 -92 88 -181t86 -182l125 -280h12q35 68 66.5 146.5t66.5 146.5l176 350h310q-117 -213 -232 -433t-231 -433v-541h-324v506zM236 1581l315 301h180l318 -299l-72 -84l-338 187l-334 -189z" />
<glyph unicode="&#x177;" horiz-adv-x="1097" d="M29 1006h290q16 -55 38 -135t45.5 -165t46 -167t38.5 -142q16 -59 27.5 -119.5t20.5 -95.5h14q6 27 21.5 89.5t35.5 131.5q18 61 41 139.5t46.5 161t47 161.5t41.5 141h295q-25 -72 -56.5 -169.5t-68.5 -206t-75.5 -224t-75.5 -224t-70 -205t-57 -167.5 q-43 -129 -131 -191.5t-215 -62.5q-41 0 -98.5 7t-151.5 31l41 195q53 -8 85 -13t60 -5q70 0 107 26.5t59 98.5l41 127h-131zM150 1167l315 316h180l320 -312l-74 -86l-338 195l-336 -197z" />
<glyph unicode="&#x178;" horiz-adv-x="1282" d="M16 1407h316q43 -92 88 -181t86 -182l125 -280h12q35 68 66.5 146.5t66.5 146.5l176 350h310q-117 -213 -232 -433t-231 -433v-541h-324v506zM279 1606q0 55 35.5 91t103.5 36q72 0 108.5 -35t36.5 -92q0 -53 -37 -90t-108 -37q-70 0 -104.5 36.5t-34.5 90.5zM713 1606 q0 55 35.5 91t101.5 36q72 0 108.5 -35t36.5 -92q0 -53 -36.5 -90t-108.5 -37q-68 0 -102.5 36.5t-34.5 90.5z" />
<glyph unicode="&#x179;" horiz-adv-x="1216" d="M37 0v201l696 977l-6 14h-637v217h1055v-197l-705 -981l6 -12l736 -2v-217h-1145zM514 1593l301 346l156 -161l-361 -285z" />
<glyph unicode="&#x17a;" horiz-adv-x="956" d="M20 0v160l512 637l-4 12h-456v199h839v-160l-514 -637l6 -14h535v-197h-918zM344 1196l303 348l156 -168l-357 -286z" />
<glyph unicode="&#x17b;" horiz-adv-x="1216" d="M37 0v201l696 977l-6 14h-637v217h1055v-197l-705 -981l6 -12l736 -2v-217h-1145zM481 1702q0 70 41 114t123 44q84 0 128 -44t44 -114q0 -66 -44 -111t-128 -45q-82 0 -123 45t-41 111z" />
<glyph unicode="&#x17c;" horiz-adv-x="956" d="M20 0v160l512 637l-4 12h-456v199h839v-160l-514 -637l6 -14h535v-197h-918zM340 1313q0 70 41 113.5t123 43.5q84 0 128 -43.5t44 -113.5q0 -66 -44 -111t-128 -45q-82 0 -123 45t-41 111z" />
<glyph unicode="&#x17d;" horiz-adv-x="1216" d="M37 0v201l696 977l-6 14h-637v217h1055v-197l-705 -981l6 -12l736 -2v-217h-1145zM264 1808l70 80l334 -188l338 190l71 -86l-319 -297h-178z" />
<glyph unicode="&#x17e;" horiz-adv-x="956" d="M20 0v160l512 637l-4 12h-456v199h839v-160l-514 -637l6 -14h535v-197h-918zM102 1430l68 81l338 -198l336 198l74 -84l-320 -315h-178z" />
<glyph unicode="&#x192;" horiz-adv-x="1208" d="M47 -199l53 191q47 -10 75 -13.5t56 -3.5q88 0 128 52.5t63 175.5q8 45 16 103.5t14.5 118.5t12.5 115.5t12 96.5h-172v182l193 2l16 133q10 76 31.5 155t65.5 141.5t117 102.5t185 40q53 0 119 -7.5t131 -29.5l-51 -191q-49 10 -76.5 13.5t-60.5 3.5q-90 0 -129 -52.5 t-55 -173.5l-17 -137h203v-182h-221q-4 -35 -12.5 -95.5t-16.5 -127t-15 -127t-14 -92.5q-12 -80 -35.5 -158t-68.5 -138.5t-116.5 -98.5t-182.5 -38q-51 0 -116.5 8.5t-131.5 30.5z" />
<glyph unicode="&#x1a0;" horiz-adv-x="1579" d="M94 700q0 152 38 285t118 233.5t206 158t302 57.5q166 0 281.5 -51.5t193.5 -139.5h29q133 0 133 158v151h176v-172q0 -49 -10.5 -99t-36 -92t-70.5 -68.5t-115 -30.5q35 -86 52.5 -183.5t17.5 -201.5q0 -156 -41 -288t-123 -229.5t-203.5 -152.5t-283.5 -55 q-172 0 -298 52t-207 147t-120 227.5t-39 293.5zM414 698q0 -240 76.5 -369.5t267.5 -129.5q88 0 150.5 37.5t101.5 105.5t57 158.5t18 199.5q0 96 -13 189.5t-49 166t-99.5 118t-165.5 45.5q-104 0 -171 -44.5t-106 -116t-53 -165.5t-14 -195z" />
<glyph unicode="&#x1a1;" horiz-adv-x="1280" d="M78 500q0 106 28.5 201.5t90 168t160 115.5t237.5 43q137 0 233.5 -44t157.5 -120q59 4 85 43t26 115v152h178v-173q0 -53 -10.5 -99t-35 -85t-64.5 -65.5t-99 -38.5q31 -96 31 -211q0 -104 -29 -198.5t-90.5 -167.5t-158.5 -114.5t-236 -41.5t-234.5 40.5t-156 111.5 t-87 165t-26.5 203zM381 502q0 -68 8 -125.5t30.5 -99t64.5 -66.5t108 -25q61 0 101 26t63.5 70t32 101.5t8.5 118.5q0 59 -8.5 116.5t-31 102.5t-62.5 72.5t-103 27.5t-104.5 -27.5t-65 -72.5t-32.5 -102.5t-9 -116.5z" />
<glyph unicode="&#x1af;" horiz-adv-x="1646" d="M137 518v891h299v-901q0 -160 76 -234.5t219 -74.5q131 0 210 72.5t79 236.5v901h295v-190h43q70 0 104.5 28.5t34.5 108.5v188h182v-203q0 -53 -12 -104t-43 -91t-84 -65.5t-137 -25.5h-90v-537q0 -125 -35 -225t-106.5 -170t-182 -106.5t-262.5 -36.5 q-158 0 -270.5 36.5t-183 106.5t-103.5 170t-33 225z" />
<glyph unicode="&#x1b0;" horiz-adv-x="1359" d="M102 319v689h293v-625q0 -43 4 -77t18.5 -56.5t41 -33.5t71.5 -11q43 0 102.5 22.5t115.5 69.5v711h290v-134h17q68 0 95.5 33t27.5 113v160h182v-174q0 -53 -12.5 -105.5t-44 -93.5t-86 -66.5t-136.5 -25.5h-43v-715h-272l-4 109l-10 4q-47 -39 -95.5 -66t-93.5 -42 t-85 -21.5t-70 -6.5q-98 0 -159 28t-93.5 74t-43 108.5t-10.5 131.5z" />
<glyph unicode="&#x1fc;" horiz-adv-x="2127" d="M16 0l875 1407h1098v-209h-623v-364h518v-201h-518v-422h647v-211h-948v369h-500l-227 -369h-322zM682 573h383v617h-12q-10 -18 -29.5 -51t-44.5 -75t-54.5 -90t-58.5 -97zM1163 1608l301 346l156 -162l-360 -285z" />
<glyph unicode="&#x1fd;" horiz-adv-x="1703" d="M59 272q0 51 17.5 108.5t60.5 106t114 79t175 30.5h293v41q0 98 -46 137t-157 39q-86 0 -170 -14.5t-151 -36.5q-12 45 -24.5 90t-27.5 92q86 35 197 58.5t215 23.5q41 0 88 -6t92 -22.5t83 -43t63 -69.5q51 61 129.5 103t189.5 42q145 0 231.5 -51t132.5 -127t59 -161 t13 -152v-86h-632q2 -117 55 -187.5t188 -70.5q78 0 154 16t153 45q14 -43 29.5 -87t28.5 -89q-98 -53 -203.5 -74.5t-206.5 -21.5q-152 0 -240 36.5t-143 108.5q-66 -51 -127 -81t-116.5 -45t-102.5 -19t-84 -4q-100 0 -163.5 29.5t-100.5 73.5t-51.5 95t-14.5 94zM360 309 q1 -143 146 -143q20 0 51 6t64.5 18.5t66.5 30t57 39.5q-14 45 -20 92t-8 101h-103q-47 0 -92 -3.5t-80.5 -16.5t-58.5 -43t-23 -81zM780 1196l303 348l156 -168l-356 -286zM1008 598h368q0 45 -6 87t-25.5 72.5t-53.5 49t-89 18.5t-91 -20.5t-57.5 -52t-31.5 -72.5t-14 -82 z" />
<glyph unicode="&#x1fe;" horiz-adv-x="1503" d="M94 700q0 152 38 285t118 233.5t206 158t302 57.5q135 0 236.5 -34t179.5 -95l106 133h139l-170 -205q84 -100 122 -237t38 -291q0 -156 -41 -288t-123 -229.5t-203.5 -152.5t-283.5 -55q-141 0 -248 33.5t-186 97.5l-103 -127h-125l158 194q-82 96 -121 228.5t-39 293.5 zM414 698q0 -88 10 -158.5t35 -123.5l538 684q-37 53 -96 86t-143 33q-104 0 -171 -44.5t-106 -116t-53 -166t-14 -194.5zM500 311q82 -113 258 -112q88 0 150.5 37.5t101.5 105.5t57 158.5t18 199.5q0 74 -9 151t-38 142zM670 1595l301 347l155 -162l-360 -285z" />
<glyph unicode="&#x1ff;" horiz-adv-x="1159" d="M72 -14l118 133q-66 72 -92 170t-26 213q0 106 27.5 201.5t89 167t158.5 114.5t237 43q104 0 183 -24.5t138 -67.5q12 14 39 44t37 46h106q-8 -10 -25.5 -29.5t-35.5 -41t-34.5 -41t-24.5 -29.5q66 -74 93 -172t27 -209q0 -104 -26.5 -199.5t-87 -167t-159.5 -113.5 t-243 -42q-104 0 -183 22.5t-136 63.5l-68 -82h-112zM373 504q0 -39 5 -87t19 -79q33 43 76 96t89 109.5t89 110t76 96.5q-23 33 -56.5 51t-86.5 18q-63 0 -104.5 -26.5t-65 -70.5t-32.5 -101.5t-9 -116.5zM428 250q25 -29 62 -46.5t94 -17.5q63 0 102 26t61.5 70t30.5 101 t8 119q0 37 -6 83t-22 81q-33 -43 -76 -97.5t-89 -111t-89 -110.5t-76 -97zM481 1196l303 348l156 -168l-356 -286z" />
<glyph unicode="&#x218;" horiz-adv-x="1275" d="M84 92l78 213q150 -59 268.5 -75.5t190.5 -16.5q125 0 188 42t63 144q0 45 -16 75t-47 51.5t-74 35.5t-94 29q-104 27 -198.5 54.5t-166 72.5t-113.5 113.5t-42 177.5q0 193 134 310.5t400 117.5q104 0 223 -21.5t224 -79.5l-78 -205q-104 43 -203.5 56.5t-175.5 13.5 q-96 0 -151.5 -45t-55.5 -135q0 -41 23.5 -68.5t62.5 -48t89.5 -35t105.5 -26.5q72 -18 154.5 -43t153.5 -72t117 -125t46 -203q0 -201 -147.5 -310t-444.5 -109q-53 0 -117.5 6t-132 19t-135.5 34.5t-129 52.5zM471 -213q0 53 40 91t105 38q76 0 113 -48t37 -110 q-4 -96 -68.5 -181t-156.5 -130l-64 80q39 33 61.5 66.5t26.5 74.5q-47 10 -70.5 41t-23.5 78z" />
<glyph unicode="&#x219;" horiz-adv-x="1005" d="M63 66l64 182q125 -45 215 -56.5t141 -11.5q72 0 121 23.5t49 87.5q0 31 -16 50t-44 33.5t-61.5 25t-66.5 20.5q-70 20 -135.5 43.5t-115.5 56.5t-81 82t-31 123q0 145 108.5 225t317.5 80q80 0 177.5 -17.5t177.5 -60.5q-4 -8 -13.5 -33.5t-18.5 -55t-18.5 -56.5 t-13.5 -35q-82 31 -151.5 42t-128.5 11q-55 0 -101.5 -17t-46.5 -75q0 -20 17.5 -35.5t43 -28t57.5 -20.5t60 -16q63 -18 129 -42t120 -63t89 -97t35 -146q0 -145 -116.5 -223t-352.5 -78q-43 0 -95 4t-107.5 14t-108.5 25.5t-99 38.5zM346 -213q0 53 40 91t106 38 q76 0 112.5 -48t36.5 -110q-4 -96 -68.5 -181t-156.5 -130l-64 80q39 33 61.5 66.5t26.5 74.5q-47 10 -70.5 41t-23.5 78z" />
<glyph unicode="&#x259;" horiz-adv-x="1091" d="M88 473v92h643q0 55 -11 102.5t-40 82t-76 54t-115 19.5q-80 0 -155.5 -16t-153.5 -47l-55 172q102 53 204.5 75.5t207.5 22.5q150 0 243.5 -42t147 -113.5t73 -166t19.5 -196.5q0 -84 -21.5 -177t-76 -171t-150 -129t-242.5 -51t-234 51t-133 126t-60.5 160t-14.5 152z M350 389q4 -96 44 -152.5t134 -56.5t139.5 59.5t55.5 149.5h-373z" />
<glyph unicode="&#x2b9;" horiz-adv-x="479" d="M74 831l313 607l178 -101l-381 -569z" />
<glyph unicode="&#x2c6;" horiz-adv-x="1138" d="M164 1167l315 316h180l320 -312l-74 -86l-338 195l-336 -197z" />
<glyph unicode="&#x2c7;" horiz-adv-x="1138" d="M164 1430l67 81l338 -198l336 198l74 -84l-320 -315h-178z" />
<glyph unicode="&#x2d8;" horiz-adv-x="1169" d="M197 1391l122 92q66 -88 137.5 -131t127.5 -43q18 0 45.5 2t64.5 17t86 47t115 93l88 -79q-49 -76 -101.5 -127.5t-104.5 -83t-103 -45t-96 -13.5q-61 0 -115.5 22.5t-102 60.5t-88.5 86t-75 102z" />
<glyph unicode="&#x2d9;" horiz-adv-x="1144" d="M420 1313q0 70 41 113.5t123 43.5q84 0 128 -43.5t44 -113.5q0 -66 -44 -111t-128 -45q-82 0 -123 45t-41 111z" />
<glyph unicode="&#x2da;" horiz-adv-x="1144" d="M330 1368q0 49 19.5 93t54 78t81.5 54.5t101 20.5q53 0 98 -19.5t78 -53.5t51 -79t18 -94q0 -51 -19 -96t-53 -78t-78 -52.5t-95 -19.5q-53 0 -100.5 19.5t-82 53.5t-54 78t-19.5 95zM465 1362q0 -47 31.5 -82t89.5 -35q51 0 81.5 35t30.5 82q0 51 -29.5 87t-82.5 36 t-87 -36t-34 -87z" />
<glyph unicode="&#x2db;" horiz-adv-x="1173" d="M608 -303q0 33 10.5 78t38 95t75.5 103.5t126 104.5l51 -45q-27 -31 -48 -68t-35.5 -73.5t-21.5 -71.5t-7 -62q0 -51 27.5 -72.5t80.5 -21.5q41 0 76 7t70 16l24 -95q-59 -31 -122.5 -46t-125.5 -15q-109 0 -164 44t-55 122z" />
<glyph unicode="&#x2dc;" horiz-adv-x="1138" d="M199 1219q35 98 89 143t122 45q43 0 89 -12.5t92 -26.5t90 -26.5t81 -12.5l115 84l84 -67q-31 -92 -84 -142.5t-125 -50.5q-51 0 -101.5 12.5t-96.5 27.5t-86 27.5t-71 12.5l-114 -80z" />
<glyph unicode="&#x2dd;" horiz-adv-x="1144" d="M250 1174l266 378l170 -137l-330 -330zM575 1174l265 378l172 -137l-332 -330z" />
<glyph unicode="&#x384;" horiz-adv-x="1069" d="M391 1171l232 398l200 -129l-295 -357z" />
<glyph unicode="&#x385;" horiz-adv-x="1054" d="M92 1264q0 53 33 87.5t98 34.5q68 0 103.5 -33.5t35.5 -88.5q0 -53 -35.5 -88t-103.5 -35q-66 0 -98.5 34.5t-32.5 88.5zM373 1135l157 430l205 -88l-235 -394zM682 1264q0 53 34 87.5t99 34.5q66 0 101.5 -33.5t35.5 -88.5q0 -53 -36.5 -88t-102.5 -35t-98.5 34.5 t-32.5 88.5z" />
<glyph unicode="&#x386;" horiz-adv-x="1359" d="M-123 1128l232 398l200 -129l-295 -357zM16 0l480 1407h381l464 -1407h-311l-98 322h-514l-101 -322h-301zM483 526h387l-104 371l-82 305h-10l-86 -315z" />
<glyph unicode="&#x387;" horiz-adv-x="530" d="M109 752q0 63 39.5 104t117.5 41t120 -41t42 -104t-42 -105.5t-120 -42.5t-117.5 42t-39.5 106z" />
<glyph unicode="&#x388;" horiz-adv-x="1241" d="M-381 1130l231 398l201 -129l-295 -357zM147 0v1409h971v-213h-665v-358h559v-201h-559v-422h694v-215h-1000z" />
<glyph unicode="&#x389;" horiz-adv-x="1454" d="M-375 1124l232 398l200 -129l-295 -357zM147 0v1407h306q0 -141 -1 -280.5t-1 -280.5h546v561h306v-1407h-306v627h-546q0 -158 1 -314.5t1 -312.5h-306z" />
<glyph unicode="&#x38a;" horiz-adv-x="630" d="M-367 1124l232 398l201 -129l-295 -357zM166 0v1409h299v-1409h-299z" />
<glyph unicode="&#x38c;" horiz-adv-x="1527" d="M-285 1135l232 397l200 -129l-294 -356zM109 700q0 152 37.5 285t117.5 233.5t205 158t301 57.5t300 -58.5t202 -158t113.5 -231t35.5 -281.5q0 -156 -41 -288t-122.5 -229.5t-203.5 -152.5t-284 -55q-172 0 -297 52t-206 147t-119.5 227.5t-38.5 293.5zM426 698 q0 -240 77 -369.5t267 -129.5q88 0 151.5 37.5t102.5 105.5t57.5 158.5t18.5 199.5q0 96 -13.5 189.5t-49.5 166t-100.5 118t-166.5 45.5q-104 0 -171 -44.5t-105.5 -116t-53 -165.5t-14.5 -195z" />
<glyph unicode="&#x38e;" horiz-adv-x="1282" d="M-457 1133l232 397l200 -129l-294 -357zM16 1407h316q43 -92 88 -181t86 -182l125 -280h12q35 68 66.5 146.5t66.5 146.5l176 350h310q-117 -213 -232 -433t-231 -433v-541h-324v506z" />
<glyph unicode="&#x38f;" horiz-adv-x="1531" d="M-260 1135l231 397l201 -129l-295 -356zM59 0v201h203l6 12q-49 37 -79.5 92t-48 123t-23.5 144.5t-6 156.5q0 147 38.5 275.5t120.5 224.5t205 151.5t293 55.5q172 0 296 -55.5t205 -150.5t118.5 -222t37.5 -273q0 -158 -40 -299t-134 -227q2 -2 2 -4t4 -4h209v-201 h-598v205q135 39 186.5 170t51.5 346q0 106 -15.5 196.5t-54.5 156t-102.5 103t-161.5 37.5q-57 0 -94 -14q-133 -35 -191.5 -161t-58.5 -316q0 -219 49 -350t178 -166v-207h-596z" />
<glyph unicode="&#x390;" horiz-adv-x="616" d="M-131 1264q0 53 32.5 87.5t98.5 34.5q68 0 103.5 -33.5t35.5 -88.5q0 -53 -35.5 -88t-103.5 -35q-66 0 -98.5 34.5t-32.5 88.5zM131 178v828h293v-805h125l4 -176q-49 -20 -105.5 -30.5t-105.5 -10.5q-115 0 -163 47t-48 147zM150 1135l157 430l205 -88l-236 -394z M459 1264q0 53 33.5 87.5t99.5 34.5t101.5 -33.5t35.5 -88.5q0 -53 -37 -88t-102 -35q-66 0 -98.5 34.5t-32.5 88.5z" />
<glyph unicode="&#x391;" horiz-adv-x="1359" d="M16 0l480 1407h381l464 -1407h-311l-98 322h-514l-101 -322h-301zM483 526h387l-104 371l-82 305h-10l-86 -315z" />
<glyph unicode="&#x392;" horiz-adv-x="1347" d="M147 0v1407h615q219 0 326.5 -104.5t107.5 -272.5q0 -33 -8 -72.5t-28.5 -78.5t-55.5 -75t-88 -61v-10q72 -25 115 -65.5t65.5 -86.5t29.5 -92.5t7 -78.5q0 -92 -33 -168t-91 -130.5t-140 -83t-181 -28.5h-641zM449 213h256q119 0 170 60.5t51 148.5q0 84 -54.5 143.5 t-166.5 59.5h-256v-412zM449 829h227q104 0 157.5 45.5t53.5 131.5t-49.5 137t-161.5 51h-227v-365z" />
<glyph unicode="&#x393;" horiz-adv-x="1177" d="M156 0v1409h968v-217h-667v-1192h-301z" />
<glyph unicode="&#x394;" horiz-adv-x="1476" d="M78 0v117q115 328 237.5 647t243.5 643h363q119 -324 236.5 -642.5t234.5 -641.5v-123h-1315zM389 201h672q-57 160 -92 263t-59.5 179t-44 139.5t-48.5 141.5q-18 63 -37.5 125.5t-40.5 126.5h-14q-23 -63 -43 -126t-39 -128q-16 -45 -37.5 -111t-47.5 -138.5 t-52.5 -146t-50 -138t-41 -115t-25.5 -72.5z" />
<glyph unicode="&#x395;" horiz-adv-x="1241" d="M147 0v1409h971v-213h-665v-358h559v-201h-559v-422h694v-215h-1000z" />
<glyph unicode="&#x396;" horiz-adv-x="1216" d="M37 0v201l696 977l-6 14h-637v217h1055v-197l-705 -981l6 -12l736 -2v-217h-1145z" />
<glyph unicode="&#x397;" horiz-adv-x="1454" d="M147 0v1407h306q0 -141 -1 -280.5t-1 -280.5h546v561h306v-1407h-306v627h-546q0 -158 1 -314.5t1 -312.5h-306z" />
<glyph unicode="&#x398;" horiz-adv-x="1517" d="M94 700q0 152 39 285t121 233.5t208 158t302 57.5q178 0 303 -58.5t204 -158t115.5 -231t36.5 -281.5q0 -156 -42 -288t-124.5 -229.5t-206.5 -152.5t-286 -55q-172 0 -299 52t-209 147t-122 227.5t-40 293.5zM414 698q0 -240 79.5 -369.5t270.5 -129.5q88 0 152.5 37.5 t105.5 105.5t60.5 158.5t19.5 199.5q0 96 -13.5 189.5t-51.5 166t-103.5 118t-169.5 45.5t-172 -44.5t-108 -116t-55 -165.5t-15 -195zM514 631v192h485v-192h-485z" />
<glyph unicode="&#x399;" horiz-adv-x="630" d="M166 0v1409h299v-1409h-299z" />
<glyph unicode="&#x39a;" horiz-adv-x="1361" d="M147 0v1407h299v-549h15l86 98l416 451h350l-537 -551l567 -856h-356q-104 166 -207.5 327.5t-208.5 327.5l-125 -127v-528h-299z" />
<glyph unicode="&#x39b;" horiz-adv-x="1372" d="M25 0q20 68 60 183.5t87 253.5t99.5 286.5t98.5 283t81.5 241t52.5 161.5h381l465 -1409h-314l-291 987l-53 193h-8q-6 -23 -19.5 -76t-35.5 -119l-303 -985h-301z" />
<glyph unicode="&#x39c;" horiz-adv-x="1822" d="M147 0v1407h373l185 -457q20 -53 45.5 -117.5t52 -133t51.5 -134t47 -116.5h17q49 119 100 247.5t100 249.5q20 43 46 104.5t51.5 126t51 126t46.5 104.5h360v-1407h-295v950h-6l-102 -260q-27 -59 -58.5 -133t-63.5 -148.5t-62.5 -148.5t-57.5 -133h-248 q-27 61 -57.5 137t-62 153t-63.5 151.5t-60 136.5l-91 235h-6v-219t-1 -251t-1 -251v-219h-291z" />
<glyph unicode="&#x39d;" horiz-adv-x="1519" d="M147 0v1407h306q111 -172 218 -340t216 -342l178 -287h12v969h293v-1407h-303l-477 758q-35 59 -71 116.5t-70 116.5q-4 0 -5.5 -1t-5.5 -1v-989h-291z" />
<glyph unicode="&#x39e;" horiz-adv-x="1220" d="M53 0v244h1112v-244h-1112zM78 1163v246h1061v-246h-1061zM205 621v223h817v-223h-817z" />
<glyph unicode="&#x39f;" horiz-adv-x="1527" d="M109 700q0 152 37.5 285t117.5 233.5t205 158t301 57.5t300 -58.5t202 -158t113.5 -231t35.5 -281.5q0 -156 -41 -288t-122.5 -229.5t-203.5 -152.5t-284 -55q-172 0 -297 52t-206 147t-119.5 227.5t-38.5 293.5zM426 698q0 -240 77 -369.5t267 -129.5q88 0 151.5 37.5 t102.5 105.5t57.5 158.5t18.5 199.5q0 96 -13.5 189.5t-49.5 166t-100.5 118t-166.5 45.5q-104 0 -171 -44.5t-105.5 -116t-53 -165.5t-14.5 -195z" />
<glyph unicode="&#x3a0;" horiz-adv-x="1484" d="M164 0v1409h1157v-1409h-307v1188h-547l2 -1188h-305z" />
<glyph unicode="&#x3a1;" horiz-adv-x="1222" d="M147 0v1409h535q242 0 362.5 -116.5t120.5 -315.5q0 -76 -24.5 -154t-79.5 -140t-142.5 -102t-211.5 -40h-256l2 -541h-306zM451 748h198q41 0 79 11t66.5 37.5t46 69.5t17.5 105q0 121 -62.5 173t-156.5 52h-188v-448z" />
<glyph unicode="&#x3a3;" horiz-adv-x="1228" d="M61 0v180l379 553q-8 8 -35.5 47t-65.5 92.5t-82 112.5t-82 112.5t-66.5 91.5l-34.5 46v174h1073v-215h-666l-12 -14q6 -6 28.5 -38t55.5 -76t69.5 -94t68.5 -94t55.5 -76t27.5 -38v-57l-317 -476l12 -12h702v-219h-1110z" />
<glyph unicode="&#x3a4;" horiz-adv-x="1249" d="M29 1190v219h1192v-219h-445l-2 -1190h-299v1190h-446z" />
<glyph unicode="&#x3a5;" horiz-adv-x="1282" d="M16 1407h316q43 -92 88 -181t86 -182l125 -280h12q35 68 66.5 146.5t66.5 146.5l176 350h310q-117 -213 -232 -433t-231 -433v-541h-324v506z" />
<glyph unicode="&#x3a6;" horiz-adv-x="1775" d="M74 717q0 113 44 215t129 181t210 128t288 57v109h295v-109q172 -8 296 -56t205 -126t119 -180t38 -215q0 -123 -43 -226.5t-127 -179t-206 -122t-282 -56.5v-137h-295v137q-170 8 -295.5 52t-208.5 119t-125 178.5t-42 230.5zM375 713q0 -166 92 -258.5t278 -108.5v741 q-100 -8 -170.5 -40.5t-114.5 -83t-64.5 -115t-20.5 -135.5zM1042 346q170 16 262.5 116.5t92.5 252.5q0 68 -17.5 132t-58.5 115.5t-108.5 85t-170.5 39.5v-741z" />
<glyph unicode="&#x3a7;" horiz-adv-x="1323" d="M12 0q117 184 233.5 364.5t233.5 366.5q-104 166 -213.5 337t-216.5 339h344q70 -125 138.5 -247t140.5 -247q72 123 141.5 247t140.5 247h342q-115 -172 -226.5 -341t-223.5 -341l461 -725h-340q-78 131 -156 264l-156 266l-303 -530h-340z" />
<glyph unicode="&#x3a8;" horiz-adv-x="1765" d="M137 924v485h297v-516q0 -141 82 -218t223 -87v821h293v-821q143 8 222 81.5t79 229.5v510h293v-500q0 -240 -148.5 -380t-445.5 -150v-379h-293v377q-313 14 -457.5 153.5t-144.5 393.5z" />
<glyph unicode="&#x3a9;" horiz-adv-x="1531" d="M59 0v201h203l6 12q-49 37 -79.5 92t-48 123t-23.5 144.5t-6 156.5q0 147 38.5 275.5t120.5 224.5t205 151.5t293 55.5q172 0 296 -55.5t205 -150.5t118.5 -222t37.5 -273q0 -158 -40 -299t-134 -227q2 -2 2 -4t4 -4h209v-201h-598v205q135 39 186.5 170t51.5 346 q0 106 -15.5 196.5t-54.5 156t-102.5 103t-161.5 37.5q-57 0 -94 -14q-133 -35 -191.5 -161t-58.5 -316q0 -219 49 -350t178 -166v-207h-596z" />
<glyph unicode="&#x3aa;" horiz-adv-x="630" d="M-35 1612q0 55 36 91t103 36q72 0 109 -35t37 -92q0 -53 -37 -90t-109 -37q-70 0 -104.5 37t-34.5 90zM166 0v1409h299v-1409h-299zM399 1612q0 55 36 91t102 36q72 0 108.5 -35t36.5 -92q0 -53 -37 -90t-108 -37q-68 0 -103 37t-35 90z" />
<glyph unicode="&#x3ab;" horiz-adv-x="1282" d="M16 1407h316q43 -92 88 -181t86 -182l125 -280h12q35 68 66.5 146.5t66.5 146.5l176 350h310q-117 -213 -232 -433t-231 -433v-541h-324v506zM281 1610q0 55 35.5 91t103.5 36q72 0 108.5 -35t36.5 -92q0 -53 -36.5 -90t-108.5 -37q-70 0 -104.5 36.5t-34.5 90.5z M715 1610q0 55 35.5 91t101.5 36q72 0 108.5 -35t36.5 -92q0 -53 -36.5 -90t-108.5 -37q-68 0 -102.5 36.5t-34.5 90.5z" />
<glyph unicode="&#x3ac;" horiz-adv-x="1241" d="M68 498q0 98 24.5 191t76.5 167t135 118t200 44q72 0 146.5 -19.5t137.5 -66.5l11 2l32 72h226v-811h114q4 -43 4.5 -86t4.5 -89q-43 -16 -97.5 -25t-101.5 -11q-72 0 -120 19.5t-70 88.5q-53 -39 -103.5 -61.5t-95.5 -32.5t-80 -13t-53 -3q-117 0 -193 40.5t-120 111.5 t-61 165t-17 199zM360 510q0 -94 16.5 -154.5t42 -95.5t59.5 -48t71 -13q45 0 102.5 20.5t114.5 67.5v452q-35 29 -90 51.5t-103 22.5q-109 0 -161 -85t-52 -218zM399 1171l232 398l200 -129l-294 -357z" />
<glyph unicode="&#x3ad;" horiz-adv-x="954" d="M70 285q0 78 44 143.5t122 93.5v10q-63 23 -107.5 74t-44.5 123q0 66 28.5 121t82 96t132.5 64.5t181 23.5q111 0 206 -16.5t160 -42.5l-53 -191q-86 27 -148.5 37t-125.5 10q-82 0 -118 -28.5t-36 -77.5q0 -51 41 -72.5t98 -21.5h134v-193h-150q-53 0 -94 -25.5 t-41 -84.5q0 -74 52 -101.5t149 -27.5q25 0 57.5 4t71.5 11t78.5 18.5t78.5 27.5l60 -190q-66 -35 -174.5 -64t-237.5 -29q-209 0 -327.5 79t-118.5 229zM344 1178l231 397l201 -129l-295 -356z" />
<glyph unicode="&#x3ae;" horiz-adv-x="1165" d="M100 0v1006h279q0 -23 1 -46.5t3 -46.5l8 -4q88 59 185.5 90t168.5 31q100 0 162 -27.5t95.5 -74.5t46 -110.5t12.5 -133.5v-684h-293v623q0 39 -4 71.5t-19.5 57t-44 38t-75.5 13.5q-51 0 -115 -22.5t-115 -53.5v-727h-295zM389 1171l232 398l200 -129l-295 -357z" />
<glyph unicode="&#x3af;" horiz-adv-x="616" d="M131 178v828h293v-805h125l4 -176q-49 -20 -105.5 -30.5t-105.5 -10.5q-115 0 -163 47t-48 147zM137 1171l232 398l200 -129l-295 -357z" />
<glyph unicode="&#x3b0;" horiz-adv-x="1153" d="M104 387v621h293v-625q0 -84 39 -136t135 -52q80 0 131.5 52t51.5 148v613h297v-584q0 -106 -35 -189t-98.5 -139.5t-151.5 -85t-193 -28.5q-117 0 -203.5 29.5t-146 82.5t-89.5 128t-30 165zM160 1264q0 53 32.5 87.5t98.5 34.5q68 0 103.5 -33.5t35.5 -88.5 q0 -53 -36 -88t-103 -35q-66 0 -98.5 34.5t-32.5 88.5zM440 1135l158 430l205 -88l-236 -394zM750 1264q0 53 33.5 87.5t99.5 34.5t101.5 -33.5t35.5 -88.5q0 -53 -37 -88t-102 -35q-66 0 -98.5 34.5t-32.5 88.5z" />
<glyph unicode="&#x3b1;" horiz-adv-x="1241" d="M68 498q0 98 24.5 191t76.5 167t135 118t200 44q72 0 146.5 -19.5t137.5 -66.5l11 2l32 72h226v-811h114q4 -43 4.5 -86t4.5 -89q-43 -16 -97.5 -25t-101.5 -11q-72 0 -120 19.5t-70 88.5q-53 -39 -103.5 -61.5t-95.5 -32.5t-80 -13t-53 -3q-117 0 -193 40.5t-120 111.5 t-61 165t-17 199zM360 510q0 -94 16.5 -154.5t42 -95.5t59.5 -48t71 -13q45 0 102.5 20.5t114.5 67.5v452q-35 29 -90 51.5t-103 22.5q-109 0 -161 -85t-52 -218z" />
<glyph unicode="&#x3b2;" horiz-adv-x="1146" d="M84 -256q0 59 1 154.5t1 242v351v481.5q0 96 21.5 187t75 163t142.5 115t226 43q223 0 333.5 -102.5t110.5 -268.5q0 -29 -8 -65.5t-25.5 -73.5t-43 -71t-60.5 -56v-15q66 -25 108 -64.5t66.5 -88.5t33.5 -106.5t9 -116.5q0 -231 -117.5 -351t-310.5 -120 q-68 0 -141.5 17t-120.5 46q-4 -2 -8 -10v-422h-293v43v88zM379 248q51 -33 108.5 -44t90.5 -11q104 0 157 76.5t53 207.5q0 115 -54 181.5t-185 66.5h-74v176h62q86 0 136 51.5t50 145.5q0 74 -49 126t-121 52q-86 0 -130 -55.5t-44 -159.5v-813z" />
<glyph unicode="&#x3b3;" horiz-adv-x="1150" d="M0 946q59 35 126 58.5t126 23.5q66 0 97.5 -30.5t53.5 -86.5q8 -25 20.5 -60.5t24 -74.5t21.5 -76.5t16 -62.5q14 -49 24.5 -88l21 -78t22.5 -82t29 -100h8q23 86 39 146.5t39 131.5l139 441h299l-381 -1002v-432h-291l2 416l-297 817l-106 -12z" />
<glyph unicode="&#x3b4;" horiz-adv-x="1177" d="M84 465q0 66 16.5 134.5t51 131t89 113.5t132.5 82q-70 47 -111 104t-41 144q0 147 103.5 229t304.5 82q80 0 174 -12.5t180 -47.5l-59 -188q-66 23 -140.5 35t-132.5 12q-57 0 -100 -26.5t-43 -86.5q0 -35 26.5 -60.5t65.5 -49.5q86 -43 173 -90t157.5 -112.5t116 -156 t45.5 -219.5q0 -96 -28 -186t-89.5 -160.5t-158.5 -112.5t-234 -42q-133 0 -227.5 37.5t-155 103t-88 154t-27.5 188.5zM379 465q0 -55 8 -106.5t31.5 -89.5t63.5 -60.5t104 -22.5q63 0 104 27t64.5 68t33 93t9.5 103q0 125 -60.5 200t-150.5 122q-51 -12 -90 -45t-64.5 -78 t-39 -99.5t-13.5 -111.5z" />
<glyph unicode="&#x3b5;" horiz-adv-x="954" d="M70 285q0 78 44 143.5t122 93.5v10q-63 23 -107.5 74t-44.5 123q0 66 28.5 121t82 96t132.5 64.5t181 23.5q111 0 206 -16.5t160 -42.5l-53 -191q-86 27 -148.5 37t-125.5 10q-82 0 -118 -28.5t-36 -77.5q0 -51 41 -72.5t98 -21.5h134v-193h-150q-53 0 -94 -25.5 t-41 -84.5q0 -74 52 -101.5t149 -27.5q25 0 57.5 4t71.5 11t78.5 18.5t78.5 27.5l60 -190q-66 -35 -174.5 -64t-237.5 -29q-209 0 -327.5 79t-118.5 229z" />
<glyph unicode="&#x3b6;" horiz-adv-x="894" d="M70 422q0 76 36.5 175t105.5 206.5t169 217.5t227 208q-4 8 -4 12h-479v201h836v-176q-141 -115 -252 -226.5t-188 -215t-116.5 -194.5t-39.5 -165q0 -45 16 -77t50 -56.5t85 -47t123 -48.5q88 -35 146.5 -60.5t92 -50.5t47 -53.5t13.5 -69.5q0 -43 -25.5 -92 t-65.5 -101.5t-90 -101.5t-102 -92q-35 31 -66.5 62.5t-66.5 64.5q78 92 105.5 134t27.5 61q0 29 -22.5 42t-69.5 29q-109 41 -200 75t-156.5 77t-101 104.5t-35.5 157.5z" />
<glyph unicode="&#x3b7;" horiz-adv-x="1165" d="M100 0v1006h279q0 -23 1 -46.5t3 -46.5l8 -4q88 59 185.5 90t168.5 31q100 0 162 -27.5t95.5 -74.5t46 -110.5t12.5 -133.5v-684h-293v623q0 39 -4 71.5t-19.5 57t-44 38t-75.5 13.5q-51 0 -115 -22.5t-115 -53.5v-727h-295z" />
<glyph unicode="&#x3b8;" horiz-adv-x="1171" d="M76 725q0 152 24.5 289t84 241.5t157.5 166t248 61.5t247 -62.5t153.5 -166t79 -238t22.5 -277.5q0 -152 -25 -289t-84 -241.5t-157.5 -165.5t-247.5 -61q-152 0 -249.5 60t-153.5 161.5t-77.5 236.5t-21.5 285zM369 657q0 -119 7 -207t29.5 -147t65.5 -89t115 -30 q61 0 101 34t64.5 95.5t35 148.5t10.5 195h-428zM371 846h424q-2 86 -9.5 162.5t-30 135t-62.5 93.5t-105 35q-68 0 -110 -34t-65.5 -91t-31.5 -135t-10 -166z" />
<glyph unicode="&#x3b9;" horiz-adv-x="616" d="M131 178v828h293v-805h125l4 -176q-49 -20 -105.5 -30.5t-105.5 -10.5q-115 0 -163 47t-48 147z" />
<glyph unicode="&#x3ba;" horiz-adv-x="1087" d="M100 0v1004h297v-74t-2 -74l-8 -194q4 -2 12 -3q82 86 163 172.5t161 174.5h328l-379 -394l73 -86l332 -526h-323q-68 111 -135.5 220.5t-133.5 221.5l-88 -90v-352h-297z" />
<glyph unicode="&#x3bb;" horiz-adv-x="1185" d="M10 0q35 88 84 213t101.5 258t101.5 258t84 215h160l-74 242q-16 53 -36.5 77.5t-74.5 24.5q-14 0 -41.5 -2t-68.5 -10q-4 14 -8.5 39.5t-10.5 54.5t-11 54.5t-7 37.5q76 23 129 31t100 8q113 0 184.5 -48t112.5 -179l328 -1086h88l14 -168q-53 -23 -116.5 -29.5 t-98.5 -6.5q-84 0 -118.5 37.5t-55.5 105.5q-18 55 -42.5 141t-49.5 178.5t-48.5 178.5t-37.5 139h-10q-29 -78 -56.5 -160t-56.5 -160l-170 -444h-295z" />
<glyph unicode="&#x3bc;" horiz-adv-x="1142" d="M100 -426v1434h293v-639q0 -72 33 -118t121 -46q41 0 93 22.5t105 69.5v711h293v-1008h-280q-2 25 -2 40t-4 42l-9 6q-66 -59 -131 -78.5t-123 -19.5q-47 0 -86 16l-8 -10v-422h-295z" />
<glyph unicode="&#x3bd;" horiz-adv-x="1128" d="M18 1006h308l145 -467q8 -27 20.5 -74t25.5 -98.5t25.5 -98.5t22.5 -73h10q4 10 15.5 53t26 99t30 114.5t27.5 97.5q16 49 38.5 121t44 140.5t37 121.5t19.5 64h295q-18 -51 -46 -132t-60.5 -175.5t-66.5 -197t-66.5 -196.5t-60.5 -174t-46 -131h-400q-18 51 -45.5 131 t-59.5 174t-66.5 196.5t-66.5 197t-59.5 175t-46.5 132.5z" />
<glyph unicode="&#x3be;" horiz-adv-x="952" d="M63 403q0 121 50.5 226.5t169.5 165.5l2 16q-109 47 -151 130t-42 171q2 80 33 149.5t90 120t149.5 79t210.5 28.5q31 0 75 -3t92.5 -10.5t97.5 -19.5t88 -29q-4 -14 -10.5 -40.5t-13.5 -57.5t-13 -57.5t-10 -40.5q-92 27 -164 34t-121 7q-102 0 -158.5 -50.5 t-56.5 -140.5q0 -49 20.5 -83.5t55.5 -57t80 -33t94 -10.5h188v-199h-198q-70 0 -121 -20.5t-84 -54t-49.5 -78.5t-16.5 -94q0 -45 15.5 -78t52.5 -62.5t97 -56.5t151 -59q147 -53 219.5 -105.5t72.5 -134.5q0 -43 -20 -91t-53 -96.5t-76 -95.5t-86 -88l-152 117 q43 59 70 100t27 60q8 33 -13.5 53t-83.5 45q-98 41 -188 75t-159.5 80t-112.5 113.5t-48 175.5z" />
<glyph unicode="&#x3bf;" horiz-adv-x="1181" d="M82 502q0 106 28.5 201.5t90 167t159 114.5t236.5 43q141 0 237.5 -42t156 -114.5t85 -168t25.5 -199.5t-26.5 -199.5t-88 -168.5t-160 -114.5t-241.5 -41.5q-139 0 -235.5 40.5t-156 111.5t-85 166t-25.5 204zM383 502q0 -68 8 -125.5t31.5 -99t64.5 -66.5t109 -25 q61 0 101 26t61.5 70t30 101.5t8.5 118.5q0 59 -8.5 116.5t-30 102.5t-60.5 72.5t-102 27.5t-104 -27.5t-66 -72.5t-34 -102.5t-9 -116.5z" />
<glyph unicode="&#x3c0;" horiz-adv-x="1167" d="M102 0v1006h963v-132v-175.5t-1 -197t-1 -196.5v-174v-131h-293v813h-377v-813h-291z" />
<glyph unicode="&#x3c1;" horiz-adv-x="1169" d="M82 -420q2 125 2 246v225v402q2 266 130 419.5t392 153.5q127 0 219.5 -39t151.5 -108.5t88 -163.5t29 -205q0 -119 -27 -216t-82 -167t-140 -107.5t-204 -37.5q-49 0 -119 10t-131 41q-4 -4 -12 -8v-445h-297zM381 248q29 -20 86 -37.5t108 -17.5q45 0 86 13t72 49 t49.5 98.5t18.5 162.5q0 92 -17.5 149.5t-47 91.5t-68.5 46t-82 12q-55 0 -94 -20.5t-64 -57.5t-36 -86t-11 -106v-297z" />
<glyph unicode="&#x3c2;" horiz-adv-x="968" d="M68 502q0 109 27.5 205t88 167.5t159 112.5t239.5 41q96 0 176 -14.5t149 -36.5l-43 -199q-68 20 -133 26.5t-108 6.5q-127 0 -194 -80t-67 -217q0 -53 8.5 -91t38 -72t85 -68.5t149.5 -77.5q141 -66 198.5 -113t57.5 -110q0 -86 -63.5 -177.5t-161.5 -191.5l-164 121 q33 45 62.5 88t29.5 80q0 23 -27.5 44t-99.5 50q-117 45 -194.5 94t-124.5 108.5t-67.5 133.5t-20.5 170z" />
<glyph unicode="&#x3c3;" horiz-adv-x="1200" d="M68 489q0 104 30.5 198.5t94 165.5t162 112t231.5 41h571v-193h-186q-2 -2 -2 -5t-2 -7q33 -29 54 -69t33.5 -83t17.5 -87t5 -83q0 -109 -31.5 -199t-95 -155.5t-158 -102t-219.5 -36.5q-133 0 -228 36.5t-156.5 103.5t-91 159t-29.5 204zM362 487q0 -147 49.5 -225 t163.5 -78q106 0 156.5 86t50.5 219q0 57 -8 113.5t-30.5 101t-64 71t-104.5 26.5q-61 0 -102 -25.5t-65.5 -69.5t-35 -100.5t-10.5 -118.5z" />
<glyph unicode="&#x3c4;" horiz-adv-x="911" d="M10 815v193h828v-193h-318v-457q0 -84 34 -119.5t120 -35.5q29 0 74 6t98 20l37 -188q-66 -29 -148 -43t-145 -14q-104 0 -174 24.5t-111 65.5t-57.5 95t-16.5 114v532h-221z" />
<glyph unicode="&#x3c5;" horiz-adv-x="1153" d="M104 387v621h293v-625q0 -84 39 -136t135 -52q80 0 131.5 52t51.5 148v613h297v-584q0 -106 -35 -189t-98.5 -139.5t-151.5 -85t-193 -28.5q-117 0 -203.5 29.5t-146 82.5t-89.5 128t-30 165z" />
<glyph unicode="&#x3c6;" horiz-adv-x="1533" d="M70 502q0 84 21.5 162.5t67.5 146.5t118.5 120t177.5 81l84 -152q-96 -45 -138.5 -140t-42.5 -218q0 -70 12.5 -127.5t43 -99.5t83 -65.5t130.5 -27.5v846h327q123 0 217.5 -38t159 -106.5t98 -163.5t33.5 -208t-33.5 -207t-102.5 -164.5t-175.5 -111.5t-251.5 -47v-402 h-276v406q-168 8 -275.5 55t-169 118.5t-85 161t-23.5 181.5zM901 182q141 6 204.5 94.5t63.5 235.5q0 63 -12 119.5t-43 97.5t-83 66.5t-130 27.5v-641z" />
<glyph unicode="&#x3c7;" horiz-adv-x="1064" d="M8 0l346 524l-319 482h321l183 -340l184 340h313l-325 -480l342 -526h-320l-198 373l-213 -373h-314z" />
<glyph unicode="&#x3c8;" horiz-adv-x="1560" d="M100 422l2 584h287v-598q0 -84 57.5 -142.5t190.5 -66.5v977h289v-977q125 6 185 65.5t60 143.5v598h287v-584q0 -90 -36 -167t-104.5 -135.5t-167.5 -93t-224 -38.5v-418h-289v418q-127 4 -227.5 38.5t-169 93t-104.5 135.5t-36 167z" />
<glyph unicode="&#x3c9;" horiz-adv-x="1607" d="M70 496q0 96 21.5 185t70.5 159.5t127 120t192 65.5l49 -184q-98 -45 -134 -140.5t-36 -207.5q0 -63 7.5 -119t26 -96.5t52 -64.5t89.5 -24q76 0 111.5 49.5t35.5 116.5v324h250l2 -324q2 -68 34.5 -117t102.5 -49q94 0 134 77t40 227q0 113 -35.5 208t-134.5 140l51 184 q113 -16 191 -65.5t127 -120t70.5 -158.5t21.5 -186q0 -104 -23.5 -197.5t-77 -164.5t-137.5 -111.5t-204 -40.5q-92 0 -170 39.5t-119 125.5h-8q-47 -82 -125 -123.5t-170 -41.5q-129 0 -212 40.5t-132 111.5t-68.5 164t-19.5 198z" />
<glyph unicode="&#x3ca;" horiz-adv-x="616" d="M-74 1276q0 55 36 91t104 36q72 0 108.5 -35t36.5 -92q0 -53 -37 -90t-108 -37q-70 0 -105 37t-35 90zM131 178v828h293v-805h125l4 -176q-49 -20 -105.5 -30.5t-105.5 -10.5q-115 0 -163 47t-48 147zM360 1276q0 55 36 91t102 36q72 0 108.5 -35t36.5 -92q0 -53 -37 -90 t-108 -37q-68 0 -103 37t-35 90z" />
<glyph unicode="&#x3cb;" horiz-adv-x="1153" d="M104 387v621h293v-625q0 -84 39 -136t135 -52q80 0 131.5 52t51.5 148v613h297v-584q0 -106 -35 -189t-98.5 -139.5t-151.5 -85t-193 -28.5q-117 0 -203.5 29.5t-146 82.5t-89.5 128t-30 165zM215 1276q0 55 36 91t103 36q72 0 109 -35t37 -92q0 -53 -37 -90t-109 -37 q-70 0 -104.5 37t-34.5 90zM649 1276q0 55 36 91t101 36q72 0 109 -35t37 -92q0 -53 -37 -90t-109 -37q-68 0 -102.5 37t-34.5 90z" />
<glyph unicode="&#x3cc;" horiz-adv-x="1126" d="M82 502q0 106 28.5 201.5t90 167t159 114.5t236.5 43q141 0 237.5 -42t156 -114.5t85 -168t25.5 -199.5t-26.5 -199.5t-88 -168.5t-160 -114.5t-241.5 -41.5q-139 0 -235.5 40.5t-156 111.5t-85 166t-25.5 204zM383 502q0 -68 8 -125.5t31.5 -99t64.5 -66.5t109 -25 q61 0 101 26t61.5 70t30 101.5t8.5 118.5q0 59 -8.5 116.5t-30 102.5t-60.5 72.5t-102 27.5t-104 -27.5t-66 -72.5t-34 -102.5t-9 -116.5zM430 1171l232 398l200 -129l-295 -357z" />
<glyph unicode="&#x3cd;" horiz-adv-x="1153" d="M104 387v621h293v-625q0 -84 39 -136t135 -52q80 0 131.5 52t51.5 148v613h297v-584q0 -106 -35 -189t-98.5 -139.5t-151.5 -85t-193 -28.5q-117 0 -203.5 29.5t-146 82.5t-89.5 128t-30 165zM440 1171l232 398l200 -129l-294 -357z" />
<glyph unicode="&#x3ce;" horiz-adv-x="1607" d="M70 496q0 96 21.5 185t70.5 159.5t127 120t192 65.5l49 -184q-98 -45 -134 -140.5t-36 -207.5q0 -63 7.5 -119t26 -96.5t52 -64.5t89.5 -24q76 0 111.5 49.5t35.5 116.5v324h250l2 -324q2 -68 34.5 -117t102.5 -49q94 0 134 77t40 227q0 113 -35.5 208t-134.5 140l51 184 q113 -16 191 -65.5t127 -120t70.5 -158.5t21.5 -186q0 -104 -23.5 -197.5t-77 -164.5t-137.5 -111.5t-204 -40.5q-92 0 -170 39.5t-119 125.5h-8q-47 -82 -125 -123.5t-170 -41.5q-129 0 -212 40.5t-132 111.5t-68.5 164t-19.5 198zM662 1165l231 398l201 -129l-295 -357z " />
<glyph unicode="&#x3da;" horiz-adv-x="1427" d="M82 813q0 121 45 224.5t141.5 181t246 125t357.5 55.5q70 2 127.5 5t109.5 9t101.5 16.5t102.5 28.5l59 -213q-86 -37 -207 -56.5t-256 -23.5q-285 -8 -422 -103t-137 -251q0 -68 23.5 -126t81 -109.5t154 -95.5t243.5 -83q106 -29 192 -61.5t146.5 -73.5t93.5 -94 t33 -125q0 -51 -28.5 -99t-71.5 -91t-93.5 -79t-93.5 -63q-4 4 -22.5 25.5t-39 46t-38 45t-21.5 25.5q55 45 93 78.5t38 72.5q0 47 -43 76t-163 57q-211 49 -354.5 118t-231.5 154t-127 186t-39 218z" />
<glyph unicode="&#x3db;" horiz-adv-x="1198" d="M80 573q0 94 36 176t109.5 143.5t188 98.5t272.5 43q49 2 91 4t82 7.5t80 13.5t87 24l51 -186q-68 -31 -163 -44t-199 -17q-207 -6 -308.5 -76t-101.5 -187q0 -49 18.5 -92t61.5 -81t113.5 -71.5t177.5 -64.5q82 -23 148.5 -49.5t113.5 -59t73.5 -74.5t26.5 -97 q0 -41 -23.5 -81t-59 -75t-77.5 -64.5t-77 -50.5l-103 125q41 31 70 61.5t29 55.5q0 33 -30 50.5t-114 37.5q-160 39 -269.5 93t-177 121t-97 146.5t-29.5 169.5z" />
<glyph unicode="&#x3dc;" horiz-adv-x="1173" d="M154 0v184.5v245.5t1 275.5t1 275.5v245.5v186.5h927v-199h-645v-401l457 6v-198l-457 6v-138.5t1 -176.5t1 -176v-136h-286z" />
<glyph unicode="&#x3dd;" horiz-adv-x="1210" d="M154 30q0 132 1 274t1 274.5v245v186.5h927v-197l-645 -2v-399l457 6v-199l-457 6v-137t1 -175t1 -175v-137h-286v184.5v244.5z" />
<glyph unicode="&#x3de;" horiz-adv-x="1296" d="M137 1221q33 33 79 73.5t100.5 74.5t112.5 57.5t114 23.5q72 0 115.5 -35t43.5 -102q0 -16 -3 -37t-13 -43l-237 -598l473 147q37 14 71 15q47 0 69.5 -24.5t22.5 -63.5q0 -10 -1 -18.5t-3 -18.5l-202 -635l268 90l63 -111q-41 -41 -92 -76.5t-105.5 -62.5t-106.5 -41 t-93 -14q-78 0 -116 36t-38 91q0 16 2.5 33.5t6.5 33.5l178 559l-471 -149q-37 -12 -66 -12q-51 0 -78.5 27.5t-27.5 68.5q0 10 1 22.5t5 22.5l270 651l-258 -102z" />
<glyph unicode="&#x3df;" horiz-adv-x="991" d="M53 911q37 31 81 60.5t91 53.5t92 37t84 13q31 0 61 -6t52.5 -21.5t36.5 -40t14 -63.5q0 -43 -8 -84l-59 -258q74 0 146.5 -1t146.5 -1q61 0 83.5 -22.5t22.5 -57.5q0 -14 -3 -33.5t-7 -35.5l-264 -744l-256 29l290 680h-295q-55 0 -77.5 21.5t-22.5 60.5q0 8 2 18t2 21 q23 88 43.5 174t40.5 174l-233 -92q-16 31 -31.5 59.5t-32.5 58.5z" />
<glyph unicode="&#x3e0;" horiz-adv-x="1370" d="M78 1331l18 137q285 -16 497 -110t353 -251t212 -366t71 -452q0 -104 -16.5 -226t-51.5 -258l-143 27q31 217 31 369q0 92 -10.5 174t-32.5 168q-18 -12 -62.5 -39t-98.5 -61.5t-115.5 -72.5t-117 -73t-98.5 -62.5t-63 -39.5l-91 155l598 338q-23 53 -47 101.5t-59 95.5 q-20 -12 -64.5 -40t-100.5 -62.5t-118.5 -73.5t-118 -74t-100.5 -62.5t-63 -40.5l-99 158l568 316q-115 131 -277 215t-401 110z" />
<glyph unicode="&#x3e1;" horiz-adv-x="1228" d="M94 913l25 142q242 -12 420 -91t294.5 -208t174 -302t57.5 -372q0 -86 -13.5 -189.5t-41.5 -222.5l-148 27q14 96 20.5 177t6.5 138q0 137 -33 256q-14 -10 -49 -31.5t-79 -50t-92 -60.5t-92 -59.5t-79 -50t-49 -32.5l-86 149l483 270q-16 41 -34.5 75t-45.5 75 l-463 -291l-92 150l461 252q-92 96 -223 163.5t-322 85.5z" />
<glyph unicode="&#x401;" horiz-adv-x="1241" d="M147 0v1409h971v-213h-665v-358h559v-201h-559v-422h694v-215h-1000zM289 1608q0 55 35.5 91t103.5 36q72 0 108.5 -35t36.5 -92q0 -53 -36.5 -90t-108.5 -37q-70 0 -104.5 36.5t-34.5 90.5zM723 1608q0 55 36 91t101 36q72 0 109 -35t37 -92q0 -53 -37 -90t-109 -37 q-68 0 -102.5 36.5t-34.5 90.5z" />
<glyph unicode="&#x402;" horiz-adv-x="1730" d="M51 1190v219h1303v-219h-557v-369q92 35 185 50.5t175 15.5q106 0 194.5 -30t152 -87t98 -142t34.5 -194q0 -123 -38.5 -228.5t-100 -191.5t-138.5 -152.5t-153 -111.5l-127 156q102 88 171 204.5t69 274.5q0 147 -69.5 217t-184.5 70q-59 0 -130 -13.5t-138 -40.5v-618 h-301l2 1190h-447z" />
<glyph unicode="&#x403;" horiz-adv-x="1177" d="M156 0v1409h968v-217h-667v-1192h-301zM485 1610l301 346l156 -162l-360 -285z" />
<glyph unicode="&#x404;" horiz-adv-x="1284" d="M104 694q0 125 31 256t109 238.5t209.5 177.5t334.5 70q106 0 202.5 -17.5t174.5 -42.5l-47 -217q-82 23 -155.5 30t-139.5 7q-168 0 -274.5 -91t-114.5 -274q121 2 243 4.5t247 6.5v-217l-496 8q-2 -203 95.5 -308.5t312.5 -105.5q25 0 64.5 3t84.5 8.5t92 13.5t88 20 q10 -53 22.5 -105.5t24.5 -105.5q-90 -35 -212.5 -53t-231.5 -18q-193 0 -321 55t-203.5 150.5t-107.5 225.5t-32 281z" />
<glyph unicode="&#x405;" horiz-adv-x="1275" d="M84 92l78 213q150 -59 268.5 -75.5t190.5 -16.5q125 0 188 42t63 144q0 45 -16 75t-47 51.5t-74 35.5t-94 29q-104 27 -198.5 54.5t-166 72.5t-113.5 113.5t-42 177.5q0 193 134 310.5t400 117.5q104 0 223 -21.5t224 -79.5l-78 -205q-104 43 -203.5 56.5t-175.5 13.5 q-96 0 -151.5 -45t-55.5 -135q0 -41 23.5 -68.5t62.5 -48t89.5 -35t105.5 -26.5q72 -18 154.5 -43t153.5 -72t117 -125t46 -203q0 -201 -147.5 -310t-444.5 -109q-53 0 -117.5 6t-132 19t-135.5 34.5t-129 52.5z" />
<glyph unicode="&#x406;" horiz-adv-x="630" d="M166 0v1409h299v-1409h-299z" />
<glyph unicode="&#x407;" horiz-adv-x="630" d="M-39 1612q0 55 36 91t103 36q72 0 109 -35t37 -92q0 -53 -37 -90t-109 -37q-70 0 -104.5 37t-34.5 90zM166 0v1409h299v-1409h-299zM395 1612q0 55 36 91t101 36q72 0 109 -35t37 -92q0 -53 -37 -90t-109 -37q-68 0 -102.5 37t-34.5 90z" />
<glyph unicode="&#x408;" horiz-adv-x="747" d="M-104 -184q109 57 178 108t110 108.5t57.5 126t16.5 160.5l2 1092h301l-2 -1102q0 -293 -149.5 -462t-442.5 -240z" />
<glyph unicode="&#x409;" horiz-adv-x="2123" d="M29 145q115 43 176 100.5t92 153t42 241.5t23 366l25 403h862v-551h297q109 0 200 -28.5t156.5 -83t101.5 -134.5t36 -182t-33 -182t-93.5 -135.5t-144 -84t-186.5 -28.5h-635v1200h-305l-8 -133q-16 -260 -32.5 -455.5t-68 -334t-151.5 -222.5t-283 -121zM1249 207h258 q45 0 84 13t69 41t47 71t17 100t-19 99t-52 69t-74 40t-86 13h-244v-446z" />
<glyph unicode="&#x40a;" horiz-adv-x="2086" d="M150 0v1409h301v-553h460v553h303v-551h297q109 0 200 -28.5t156.5 -83t101.5 -134.5t36 -182t-33 -182t-93 -135.5t-144 -84t-187 -28.5h-637v651h-460v-651h-301zM1214 207h261q43 0 82.5 13t69.5 41t47.5 70t17.5 99t-19.5 99t-52.5 70t-74 40t-86 12h-246v-444z" />
<glyph unicode="&#x40b;" horiz-adv-x="1689" d="M33 1190v219h1272v-219h-545v-342q90 31 184 47t180 16q92 0 174 -19.5t143.5 -61.5t97.5 -108.5t36 -162.5v-559h-305v502q0 104 -64.5 145t-163.5 41q-76 0 -152.5 -18.5t-131.5 -42.5v-627h-301v1190h-424z" />
<glyph unicode="&#x40c;" horiz-adv-x="1341" d="M147 0v1405h297v-553h174q33 0 68 7t65.5 27.5t56.5 58.5t42 99l94 359h291l-102 -404q-23 -86 -69 -152.5t-112 -94.5l-2 -11q51 -12 88 -38.5t62.5 -60.5t41 -74t27.5 -81l131 -487h-303l-118 432q-27 96 -81.5 146.5t-162.5 50.5h-191v-629h-297zM553 1608l301 346 l156 -162l-361 -285z" />
<glyph unicode="&#x40e;" horiz-adv-x="1302" d="M31 1409h301l198 -516l123 -340h11l120 340l189 516h297l-482 -1212q-49 -125 -123.5 -176.5t-187.5 -51.5q-47 0 -115.5 6.5t-168.5 34.5l47 205q59 -12 97 -17t69 -5q41 0 69.5 16t48.5 70l33 86h-76zM285 1739l118 90q63 -86 136 -130t131 -44q18 0 45.5 3t66.5 19.5 t87.5 48t109.5 91.5l78 -78q-96 -150 -199.5 -207t-195.5 -57q-61 0 -114.5 21.5t-100 57t-87.5 84t-75 101.5z" />
<glyph unicode="&#x40f;" horiz-adv-x="1470" d="M150 0v1407h301v-1196h565l-2 1196h307v-1407h-463v-379h-240v379h-468z" />
<glyph unicode="&#x410;" horiz-adv-x="1359" d="M16 0l480 1407h381l464 -1407h-311l-98 322h-514l-101 -322h-301zM483 526h387l-104 371l-82 305h-10l-86 -315z" />
<glyph unicode="&#x411;" horiz-adv-x="1300" d="M121 0v1409h954v-207h-651v-344h297q111 0 202 -26.5t155.5 -79t100 -130t35.5 -182.5q0 -102 -32.5 -184t-92 -138.5t-143.5 -87t-188 -30.5h-637zM424 207h262q86 0 149.5 58.5t63.5 172.5q0 57 -18.5 98.5t-50 68t-73.5 37.5t-89 11h-244v-446z" />
<glyph unicode="&#x412;" horiz-adv-x="1347" d="M147 0v1407h615q219 0 326.5 -104.5t107.5 -272.5q0 -33 -8 -72.5t-28.5 -78.5t-55.5 -75t-88 -61v-10q72 -25 115 -65.5t65.5 -86.5t29.5 -92.5t7 -78.5q0 -92 -33 -168t-91 -130.5t-140 -83t-181 -28.5h-641zM449 213h256q119 0 170 60.5t51 148.5q0 84 -54.5 143.5 t-166.5 59.5h-256v-412zM449 829h227q104 0 157.5 45.5t53.5 131.5t-49.5 137t-161.5 51h-227v-365z" />
<glyph unicode="&#x413;" horiz-adv-x="1177" d="M156 0v1409h968v-217h-667v-1192h-301z" />
<glyph unicode="&#x414;" horiz-adv-x="1542" d="M31 207l135 4q68 72 109.5 166t67.5 208.5t39 250t24 288.5l20 285h909v-1198l146 -4v-567h-234v360h-983v-360h-233v567zM477 211h559v991h-352l-10 -137q-12 -164 -24.5 -294t-33 -233.5t-53.5 -183.5t-86 -143z" />
<glyph unicode="&#x415;" horiz-adv-x="1241" d="M147 0v1409h971v-213h-665v-358h559v-201h-559v-422h694v-215h-1000z" />
<glyph unicode="&#x416;" horiz-adv-x="2045" d="M53 0q35 123 66 244t65 243q12 41 28.5 81t42.5 74t62.5 59.5t90.5 37.5l2 6q-86 39 -125 98.5t-58 129.5l-110 430h289q25 -90 49 -179t47 -180q16 -61 41.5 -99t56.5 -58.5t63.5 -27.5t67.5 -7h139v553h299v-553h142q33 0 67.5 7t65.5 27.5t55.5 58.5t40.5 99 q23 90 47.5 179.5t48.5 179.5h287q-25 -102 -50.5 -202.5t-51.5 -201.5q-23 -86 -70 -152.5t-113 -94.5l-2 -11q53 -16 91 -44.5t64 -63.5t41 -74t26 -72l129 -487h-299l-117 432q-16 59 -43 97t-60.5 60.5t-71.5 31t-75 8.5h-152v-629h-299v629h-147q-37 0 -75 -8.5 t-71.5 -31t-60.5 -60t-43 -97.5l-119 -432h-301z" />
<glyph unicode="&#x417;" horiz-adv-x="1259" d="M55 76l64 198q111 -35 205 -50t182 -15q166 0 249 61.5t83 178.5q0 98 -77 150t-198 52h-180v191h168q57 0 103 18.5t78 47t48.5 63.5t16.5 67q0 92 -67.5 133t-197.5 41q-37 0 -81.5 -4t-93 -12t-96.5 -20.5t-89 -28.5q-12 49 -25.5 97t-27.5 97q92 39 221 66t258 27 q104 0 197.5 -18.5t164 -59.5t112.5 -110.5t42 -170.5q0 -39 -12 -82t-38 -83t-63.5 -75.5t-89.5 -60.5l4 -8q115 -39 176.5 -129t61.5 -197q0 -111 -46 -195.5t-126 -142t-189.5 -86t-236.5 -28.5q-47 0 -109.5 4t-131 14t-136 26.5t-123.5 43.5z" />
<glyph unicode="&#x418;" horiz-adv-x="1490" d="M147 0v1405h299q0 -244 -1 -486.5t-1 -486.5h9l168 273q43 76 103 174t121.5 197.5t116 187.5t85.5 143h147.5t144.5 -2v-1405h-295v958h-8q-100 -162 -198.5 -323.5t-196.5 -323.5l-195 -311h-299z" />
<glyph unicode="&#x419;" horiz-adv-x="1490" d="M147 0v1405h299q0 -244 -1 -486.5t-1 -486.5h9l168 273q43 76 103 174t121.5 197.5t116 187.5t85.5 143h147.5t144.5 -2v-1405h-295v958h-8q-100 -162 -198.5 -323.5t-196.5 -323.5l-195 -311h-299zM342 1800l123 92q66 -88 137.5 -131t126.5 -43q18 0 46 2t65 17.5 t86 47.5t114 93l88 -80q-49 -76 -101 -127t-104.5 -83t-103.5 -45t-96 -13q-61 0 -115.5 22.5t-101.5 60.5t-88 86t-76 101z" />
<glyph unicode="&#x41a;" horiz-adv-x="1341" d="M147 0v1405h297v-553h174q33 0 68 7t65.5 27.5t56.5 58.5t42 99l94 359h291l-102 -404q-23 -86 -69 -152.5t-112 -94.5l-2 -11q51 -12 88 -38.5t62.5 -60.5t41 -74t27.5 -81l131 -487h-303l-118 432q-27 96 -81.5 146.5t-162.5 50.5h-191v-629h-297z" />
<glyph unicode="&#x41b;" horiz-adv-x="1425" d="M31 145q115 43 176 99.5t92 150.5t42 239.5t24 366.5l24 408h889v-1409h-301l-2 1196h-330l-6 -129q-12 -260 -29.5 -455.5t-71 -334t-156.5 -222.5t-286 -121z" />
<glyph unicode="&#x41c;" horiz-adv-x="1822" d="M147 0v1407h373l185 -457q20 -53 45.5 -117.5t52 -133t51.5 -134t47 -116.5h17q49 119 100 247.5t100 249.5q20 43 46 104.5t51.5 126t51 126t46.5 104.5h360v-1407h-295v950h-6l-102 -260q-27 -59 -58.5 -133t-63.5 -148.5t-62.5 -148.5t-57.5 -133h-248 q-27 61 -57.5 137t-62 153t-63.5 151.5t-60 136.5l-91 235h-6v-219t-1 -251t-1 -251v-219h-291z" />
<glyph unicode="&#x41d;" horiz-adv-x="1454" d="M147 0v1407h306q0 -141 -1 -280.5t-1 -280.5h546v561h306v-1407h-306v627h-546q0 -158 1 -314.5t1 -312.5h-306z" />
<glyph unicode="&#x41e;" horiz-adv-x="1527" d="M109 700q0 152 37.5 285t117.5 233.5t205 158t301 57.5t300 -58.5t202 -158t113.5 -231t35.5 -281.5q0 -156 -41 -288t-122.5 -229.5t-203.5 -152.5t-284 -55q-172 0 -297 52t-206 147t-119.5 227.5t-38.5 293.5zM426 698q0 -240 77 -369.5t267 -129.5q88 0 151.5 37.5 t102.5 105.5t57.5 158.5t18.5 199.5q0 96 -13.5 189.5t-49.5 166t-100.5 118t-166.5 45.5q-104 0 -171 -44.5t-105.5 -116t-53 -165.5t-14.5 -195z" />
<glyph unicode="&#x41f;" horiz-adv-x="1484" d="M164 0v1409h1157v-1409h-307v1188h-547l2 -1188h-305z" />
<glyph unicode="&#x420;" horiz-adv-x="1222" d="M147 0v1409h535q242 0 362.5 -116.5t120.5 -315.5q0 -76 -24.5 -154t-79.5 -140t-142.5 -102t-211.5 -40h-256l2 -541h-306zM451 748h198q41 0 79 11t66.5 37.5t46 69.5t17.5 105q0 121 -62.5 173t-156.5 52h-188v-448z" />
<glyph unicode="&#x421;" horiz-adv-x="1284" d="M106 696q0 123 31 254t108 238.5t208.5 177.5t334.5 70q109 0 203 -16.5t172 -41.5l-43 -221q-82 23 -156.5 32t-136.5 9q-197 0 -299 -122t-102 -369q0 -121 20.5 -212.5t68.5 -152.5t127 -92t194 -31q25 0 64.5 3t85.5 9.5t92 14.5t87 18l49 -209q-45 -18 -99 -31.5 t-112.5 -23.5t-118 -15t-112.5 -5q-195 0 -322.5 55t-204.5 152.5t-108 227.5t-31 281z" />
<glyph unicode="&#x422;" horiz-adv-x="1249" d="M29 1190v219h1192v-219h-445l-2 -1190h-299v1190h-446z" />
<glyph unicode="&#x423;" horiz-adv-x="1302" d="M31 1409h301l198 -516l123 -340h11l120 340l189 516h297l-482 -1212q-49 -125 -123.5 -176.5t-187.5 -51.5q-47 0 -115.5 6.5t-168.5 34.5l47 205q59 -12 97 -17t69 -5q41 0 69.5 16t48.5 70l33 86h-76z" />
<glyph unicode="&#x424;" horiz-adv-x="1775" d="M74 717q0 113 44 215t129 181t210 128t288 57v109h295v-109q172 -8 296 -56t205 -126t119 -180t38 -215q0 -123 -43 -226.5t-127 -179t-206 -122t-282 -56.5v-137h-295v137q-170 8 -295.5 52t-208.5 119t-125 178.5t-42 230.5zM375 713q0 -166 92 -258.5t278 -108.5v741 q-100 -8 -170.5 -40.5t-114.5 -83t-64.5 -115t-20.5 -135.5zM1042 346q170 16 262.5 116.5t92.5 252.5q0 68 -17.5 132t-58.5 115.5t-108.5 85t-170.5 39.5v-741z" />
<glyph unicode="&#x425;" horiz-adv-x="1323" d="M12 0q117 184 233.5 364.5t233.5 366.5q-104 166 -213.5 337t-216.5 339h344q70 -125 138.5 -247t140.5 -247q72 123 141.5 247t140.5 247h342q-115 -172 -226.5 -341t-223.5 -341l461 -725h-340q-78 131 -156 264l-156 266l-303 -530h-340z" />
<glyph unicode="&#x426;" horiz-adv-x="1546" d="M150 0v1407h301v-1196h548v1196h306v-1196h180v-569h-225v358h-1110z" />
<glyph unicode="&#x427;" horiz-adv-x="1374" d="M94 887v518h305v-457q0 -115 63.5 -159t172.5 -44q70 0 149.5 14.5t139.5 37.5v608h301v-1405h-301v571q-80 -23 -171 -36t-169 -13q-98 0 -186.5 18.5t-156 61.5t-107.5 112.5t-40 172.5z" />
<glyph unicode="&#x428;" horiz-adv-x="2037" d="M150 0v1409h299v-1198h421v1198h293v-1198h420v1198h305v-1409h-1738z" />
<glyph unicode="&#x429;" horiz-adv-x="2127" d="M150 0v1409h299v-1198h421v1198h293v-1198h420v1198h305v-1198h178v-571h-223v360h-1693z" />
<glyph unicode="&#x42a;" horiz-adv-x="1685" d="M37 1196v213h776l-2 -551h283q109 0 202 -27.5t161.5 -81t107.5 -133t39 -186.5q0 -111 -35 -191.5t-96.5 -134t-146.5 -79t-187 -25.5h-629l2 1196h-475zM811 199h256q94 0 156.5 58t62.5 175q0 57 -18.5 100t-50 72t-74.5 43.5t-90 14.5h-242v-463z" />
<glyph unicode="&#x42b;" horiz-adv-x="1849" d="M150 0v1409h301l2 -551h297q109 0 199.5 -28.5t156 -83t101.5 -134.5t36 -182t-32.5 -182t-93 -135.5t-144.5 -84t-187 -28.5h-636zM453 207h258q88 0 152.5 55t64.5 170q0 57 -19.5 99t-52.5 69t-74 40t-86 13h-243v-446zM1403 0v1409h299v-1409h-299z" />
<glyph unicode="&#x42c;" horiz-adv-x="1325" d="M150 0v1409h303v-551h297q109 0 199.5 -28.5t156 -83t101.5 -134.5t36 -182t-32.5 -182t-93 -135.5t-144.5 -84t-187 -28.5h-636zM453 207h258q88 0 152.5 55t64.5 170q0 57 -19.5 99t-52.5 69t-74 40t-86 13h-243v-446z" />
<glyph unicode="&#x42d;" horiz-adv-x="1269" d="M53 51q10 53 22.5 105.5t24.5 105.5q39 -10 84 -18t88 -13.5t81 -8.5t65 -3q211 0 308 103.5t112 320.5l-496 -8v215l494 -10q-16 166 -108.5 261t-274.5 95q-57 0 -135 -7t-158 -30l-43 213q78 29 173 45.5t183 16.5q205 0 338 -56.5t211 -152t108.5 -220t30.5 -260.5 q0 -150 -33.5 -288t-113.5 -243t-211 -167.5t-326 -62.5q-106 0 -222 16t-202 51z" />
<glyph unicode="&#x42e;" horiz-adv-x="2076" d="M150 0v1409h299v-582h256q14 129 56 240t117.5 191.5t188.5 128t270 47.5q178 0 299 -58.5t195 -158t106.5 -232.5t32.5 -283q0 -156 -38 -287.5t-116.5 -228t-197.5 -150.5t-281 -54q-158 0 -274.5 46t-194 131t-118.5 205.5t-48 270.5h-253v-635h-299zM1012 698 q0 -121 16 -213t55 -156.5t101.5 -97t152.5 -32.5q86 0 146.5 37.5t97.5 104.5t54.5 158.5t17.5 200.5q0 94 -11.5 186.5t-45 165t-96 116.5t-163.5 44q-100 0 -163.5 -43t-99.5 -114.5t-49 -163.5t-13 -193z" />
<glyph unicode="&#x42f;" horiz-adv-x="1331" d="M66 0l112 393q29 98 72 157.5t123 88.5v8q-113 43 -171.5 138.5t-58.5 207.5q0 84 26 160t80 132t140 90t207 34h586v-1409h-303v567h-154q-96 0 -156.5 -42t-95.5 -156q-4 -12 -19.5 -66.5t-34 -118t-34.5 -118t-18 -66.5h-301zM449 981q0 -61 19 -100t51 -62.5t70 -33 t75 -9.5h215v418h-215q-94 0 -154.5 -53.5t-60.5 -159.5z" />
<glyph unicode="&#x430;" horiz-adv-x="1185" d="M66 272q0 78 28.5 136.5t78.5 98.5t117.5 62.5t147.5 26.5q59 4 137 8t138 8v25q0 86 -37 130t-150 44q-74 0 -160.5 -14.5t-158.5 -36.5q-10 47 -22.5 92t-24.5 90q90 39 208.5 61.5t227.5 22.5q90 0 164 -18.5t125 -59.5t78.5 -107.5t27.5 -164.5v-481h131l15 -164 q-49 -23 -115 -37t-131 -14q-66 0 -110 22.5t-52 97.5l-4 4q-53 -47 -106.5 -71.5t-99.5 -36.5t-84 -14t-58 -2q-94 0 -154.5 29.5t-95.5 73.5t-48 95t-13 94zM369 297q0 -63 32.5 -96t104.5 -33q47 0 102.5 23.5t104.5 66.5v193l-203 -17q-141 -12 -141 -137z" />
<glyph unicode="&#x431;" horiz-adv-x="1159" d="M74 510q0 92 2 159.5t7 117t11 84t12 59.5q41 158 154 269t289 183q33 14 85 34t106.5 41.5t103.5 42t78 36.5q23 -43 43 -85t39 -85q-63 -35 -122 -62.5t-100 -43.5q-92 -37 -166.5 -73t-133 -81t-97.5 -107.5t-59 -154.5q4 0 8 -4q53 68 136 107.5t181 39.5 q119 0 201 -38t133 -103.5t74.5 -156.5t23.5 -197q0 -98 -27.5 -190.5t-89 -163t-159.5 -112.5t-238 -42q-145 0 -240.5 43t-151.5 115.5t-79.5 168t-23.5 199.5zM369 477q0 -53 7 -105.5t30.5 -93t64.5 -66.5t109 -26q61 0 101 26t62.5 66.5t31.5 95t9 113.5t-8 114.5 t-29.5 97.5t-59.5 67t-99 25q-59 0 -101.5 -29t-68 -75t-37.5 -101.5t-12 -108.5z" />
<glyph unicode="&#x432;" horiz-adv-x="1138" d="M102 0v1006h598q154 0 241 -68t87 -190q0 -53 -26.5 -110.5t-102.5 -96.5v-4q51 -18 84 -48t51.5 -64t24.5 -68.5t6 -65.5q0 -68 -26.5 -122t-72.5 -91t-108.5 -57.5t-136.5 -20.5h-619zM393 193h240q68 0 99.5 34.5t31.5 87.5q0 49 -31 84t-100 35h-240v-241zM393 606 h230q47 0 79.5 26.5t32.5 80.5q0 51 -34.5 75.5t-86.5 24.5h-221v-207z" />
<glyph unicode="&#x433;" horiz-adv-x="923" d="M102 0v1008h807v-201h-516v-807h-291z" />
<glyph unicode="&#x434;" horiz-adv-x="1267" d="M41 193l98 4q41 35 67.5 89t43 127.5t26 167t17.5 210.5l14 217h791l-2 -811l104 -4v-498h-213v305h-725v-301h-221v494zM438 197h367v612h-248l-4 -74q-10 -207 -32.5 -335t-82.5 -203z" />
<glyph unicode="&#x435;" horiz-adv-x="1114" d="M82 502q0 82 20.5 176t75.5 172t150 130t245 52q162 0 254.5 -51t138.5 -127t57 -161t11 -152v-105h-657q0 -117 58.5 -176t193.5 -59q82 0 163.5 17.5t159.5 45.5l60 -180q-100 -55 -211 -77.5t-215 -22.5q-152 0 -250 42t-154.5 113.5t-78 164.5t-21.5 198zM381 616 h387q-2 100 -40 165t-142 65q-55 0 -92 -18.5t-60.5 -50.5t-36 -73.5t-16.5 -87.5z" />
<glyph unicode="&#x436;" horiz-adv-x="1738" d="M41 0q31 88 56.5 176t54.5 178q23 63 59.5 109.5t118.5 71.5v4q-55 23 -94 70.5t-58 111.5q-18 72 -37.5 142.5t-40.5 140.5h273l73 -248q12 -41 33 -67.5t44.5 -41t50 -19.5t53.5 -5h96v383h287v-383h100q59 0 106.5 27.5t69.5 105.5q18 63 37.5 124.5t38.5 123.5h272 l-78 -283q-18 -63 -56 -111.5t-95 -70.5v-4q82 -25 120 -71t58 -110l111 -354h-287q-25 76 -47.5 151.5t-48.5 153.5q-29 86 -79 111.5t-116 25.5h-106v-442h-287v442h-102q-68 0 -119 -27.5t-78 -109.5l-94 -305h-289z" />
<glyph unicode="&#x437;" horiz-adv-x="999" d="M41 51l55 182q84 -25 148.5 -37t128.5 -12q117 0 179 35t62 113q0 68 -44 92.5t-109 24.5h-154v169h131q66 0 109 27t43 80q0 49 -40 80t-130 31q-27 0 -54.5 -1t-61.5 -6.5t-76 -14.5t-97 -28l-45 172q86 35 192.5 54.5t210.5 19.5q211 0 306.5 -75.5t95.5 -192.5 q0 -70 -43 -128t-113 -83v-10q92 -27 138.5 -91.5t46.5 -142.5q0 -147 -122 -238t-356 -91q-121 0 -223 20t-178 51z" />
<glyph unicode="&#x438;" horiz-adv-x="1189" d="M100 0v1006h293v-611h10l113 176l289 435h280v-1006h-292v608h-11l-145 -225l-258 -383h-279z" />
<glyph unicode="&#x439;" horiz-adv-x="1189" d="M100 0v1006h293v-611h10l113 176l289 435h280v-1006h-292v608h-11l-145 -225l-258 -383h-279zM211 1389l123 92q66 -88 137.5 -131t126.5 -43q18 0 46 2t64.5 17t86 47t114.5 93l88 -80q-49 -76 -101 -127t-104.5 -82.5t-103.5 -45t-96 -13.5q-61 0 -115.5 22.5 t-101.5 60.5t-88 86t-76 102z" />
<glyph unicode="&#x43a;" horiz-adv-x="1155" d="M100 0v1006h287v-383h137q63 0 109.5 30.5t66.5 102.5q18 63 38 124.5t38 123.5h273q-18 -70 -38 -140.5t-42 -142.5q-16 -63 -54 -111.5t-96 -70.5v-4q80 -25 119 -71t59 -110l109 -354h-287q-23 76 -45 151.5t-49 153.5q-29 86 -79 111.5t-116 25.5h-143v-442h-287z " />
<glyph unicode="&#x43b;" horiz-adv-x="1122" d="M12 141q76 33 120 75t68.5 107.5t34 160t15.5 229.5l14 295h754v-1008h-293v809h-209l-4 -104q-6 -156 -21.5 -285t-57.5 -228.5t-121 -168t-212 -101.5z" />
<glyph unicode="&#x43c;" horiz-adv-x="1447" d="M100 1006h320l194 -367l111 -227h12l103 219l192 375h311v-1006h-278v569h-10l-90 -188l-148 -283h-168l-151 277l-103 203h-10v-578h-283z" />
<glyph unicode="&#x43d;" horiz-adv-x="1171" d="M100 0v1006h295v-379h379v379h293v-1006h-293v434h-379v-434h-295z" />
<glyph unicode="&#x43e;" horiz-adv-x="1181" d="M82 502q0 106 28.5 201.5t90 167t159 114.5t236.5 43q141 0 237.5 -42t156 -114.5t85 -168t25.5 -199.5t-26.5 -199.5t-88 -168.5t-160 -114.5t-241.5 -41.5q-139 0 -235.5 40.5t-156 111.5t-85 166t-25.5 204zM383 502q0 -68 8 -125.5t31.5 -99t64.5 -66.5t109 -25 q61 0 101 26t61.5 70t30 101.5t8.5 118.5q0 59 -8.5 116.5t-30 102.5t-60.5 72.5t-102 27.5t-104 -27.5t-66 -72.5t-34 -102.5t-9 -116.5z" />
<glyph unicode="&#x43f;" horiz-adv-x="1167" d="M102 0v1006h963v-132v-175.5t-1 -197t-1 -196.5v-174v-131h-293v813h-377v-813h-291z" />
<glyph unicode="&#x440;" horiz-adv-x="1177" d="M102 -428v1436h275l6 -90l10 -9q74 59 154 86t149 27q117 0 194 -41t122 -110.5t63.5 -163t18.5 -199.5q0 -111 -22.5 -207t-74 -167t-133.5 -111.5t-200 -40.5q-25 0 -59 3t-70.5 9t-73.5 17.5t-68 29.5v-469h-291zM395 244q35 -23 92.5 -39.5t108.5 -16.5q39 0 76 15.5 t65.5 52.5t46 101.5t17.5 162.5q0 88 -15.5 144.5t-42 88t-63.5 44t-78 12.5q-25 0 -53.5 -7t-57 -18.5t-54 -25t-42.5 -27.5v-487z" />
<glyph unicode="&#x441;" horiz-adv-x="993" d="M80 492q0 88 20.5 183t75.5 174t151.5 129t250.5 50q66 0 146.5 -9t166.5 -40q-10 -51 -21.5 -101.5t-23.5 -103.5q-66 18 -120 23.5t-99 5.5q-123 0 -186.5 -79t-63.5 -220q0 -139 52 -218t189 -79q72 0 137.5 14.5t133.5 36.5l55 -195q-76 -39 -175 -59t-204 -20 q-145 0 -238.5 39.5t-148.5 109.5t-76.5 162t-21.5 197z" />
<glyph unicode="&#x442;" horiz-adv-x="1017" d="M20 807v201h977v-201h-342v-807h-290l-3 807h-342z" />
<glyph unicode="&#x443;" horiz-adv-x="1097" d="M29 1006h288q16 -55 39 -135t45.5 -165t45 -167t38.5 -142q16 -59 27.5 -117.5t19.5 -93.5l15 -2l57 219q18 61 41 139.5t46.5 161t47 161.5t41.5 141h297l-403 -1196q-47 -133 -129 -193.5t-205 -60.5q-49 0 -107.5 7t-154.5 31l41 193q53 -8 85 -12t60 -4 q70 0 106 26.5t60 98.5q0 2 7 21.5t14.5 42t13.5 41.5t6 22h-131z" />
<glyph unicode="&#x444;" horiz-adv-x="1546" d="M78 504q0 113 33.5 207t102.5 162.5t172 109.5t245 45l-2 436h284v-436q143 -4 249 -42t173.5 -104.5t100 -158.5t32.5 -205t-30.5 -208t-96 -164.5t-172 -112.5t-256.5 -51v-410h-284l2 412q-164 6 -271.5 52t-170 117.5t-87 163t-24.5 187.5zM354 504 q0 -147 62.5 -235.5t214.5 -94.5v660q-82 -8 -135.5 -36t-85 -72t-44 -101.5t-12.5 -120.5zM913 174q150 10 213.5 98t63.5 232q0 66 -12.5 123t-43 102t-84 72.5t-137.5 32.5v-660z" />
<glyph unicode="&#x445;" horiz-adv-x="1064" d="M8 0l346 524l-319 482h321l183 -340l184 340h313l-325 -480l342 -526h-320l-198 373l-213 -373h-314z" />
<glyph unicode="&#x446;" horiz-adv-x="1243" d="M102 0v1006h293v-809h373v809h293v-809h125v-498h-225v301h-859z" />
<glyph unicode="&#x447;" horiz-adv-x="1114" d="M70 668v338h292v-285q0 -76 28 -123t114 -47q47 0 105.5 10t105.5 33v414h293v-1008h-293v395q-70 -33 -155 -48t-159 -15q-92 0 -155.5 24.5t-102.5 68.5t-56 105.5t-17 137.5z" />
<glyph unicode="&#x448;" horiz-adv-x="1648" d="M102 0v1008h293v-811h281v811h291v-811h286v811h293v-1008h-1444z" />
<glyph unicode="&#x449;" horiz-adv-x="1710" d="M102 0v1008h293v-811h281v811h291v-811h286v811h293v-811h123v-498h-223v301h-1344z" />
<glyph unicode="&#x44a;" horiz-adv-x="1427" d="M27 809v197h669v-336h305q80 0 148 -23.5t117 -67.5t76.5 -105.5t27.5 -137.5t-26.5 -138.5t-72.5 -106.5t-110.5 -67.5t-138.5 -23.5h-616v809h-379zM696 186h236q72 0 110.5 44t38.5 110q0 70 -45 113t-116 43h-224v-310z" />
<glyph unicode="&#x44b;" horiz-adv-x="1560" d="M100 0v1006h291v-336h307q76 0 143.5 -23.5t117 -67.5t78 -105.5t28.5 -137.5t-26.5 -138.5t-72.5 -106.5t-109.5 -67.5t-137.5 -23.5h-619zM391 188h238q72 0 110.5 43t38.5 109q0 70 -45 113t-117 43h-225v-308zM1163 0v1006h293v-1006h-293z" />
<glyph unicode="&#x44c;" horiz-adv-x="1128" d="M100 0v1006h291v-336h307q76 0 143.5 -23.5t117 -67.5t78 -105.5t28.5 -137.5t-26.5 -138.5t-72.5 -106.5t-109.5 -67.5t-137.5 -23.5h-619zM391 188h238q72 0 110.5 43t38.5 109q0 70 -45 113t-117 43h-225v-308z" />
<glyph unicode="&#x44d;" horiz-adv-x="991" d="M41 61l53 170q63 -20 128 -34.5t136 -14.5q123 0 186.5 76t67.5 197l-344 -6v155l344 -8q-8 115 -66.5 174t-174.5 59q-43 0 -97.5 -6t-140.5 -28l-45 174q72 29 155 45t167 16q152 0 248 -43t151 -112.5t76.5 -158.5t21.5 -184q0 -102 -22.5 -200.5t-79.5 -176 t-155.5 -125.5t-250.5 -48q-100 0 -192 20.5t-166 58.5z" />
<glyph unicode="&#x44e;" horiz-adv-x="1617" d="M102 0v1008h291v-402h166q12 88 47 165t95.5 134.5t146.5 91t201 33.5q129 0 221 -43t150.5 -114.5t86 -167t27.5 -201.5q0 -104 -27.5 -199.5t-88 -168.5t-156 -114.5t-228.5 -41.5q-121 0 -208 35.5t-144 98t-88 147.5t-39 181h-162v-442h-291zM846 502q0 -63 7 -120.5 t28.5 -100.5t61.5 -69t106 -26q57 0 95 27t59.5 72t29.5 101.5t8 117.5q0 57 -8 114.5t-29.5 102.5t-58.5 72.5t-96 27.5t-98.5 -27.5t-63 -73.5t-32.5 -103.5t-9 -114.5z" />
<glyph unicode="&#x44f;" horiz-adv-x="1155" d="M53 0l94 274q8 25 19.5 50.5t27 48t38 41t55.5 30.5l-2 5q-90 29 -127 98t-37 145q0 61 20.5 117.5t65.5 101.5t116.5 72t174.5 27h553v-1010h-289v393h-141q-70 0 -112 -25.5t-71 -103.5l-90 -264h-295zM414 700q0 -41 14 -67.5t36.5 -43t52.5 -22.5t58 -6h187v275h-187 q-72 0 -116.5 -32t-44.5 -104z" />
<glyph unicode="&#x451;" horiz-adv-x="1114" d="M82 502q0 82 20.5 176t75.5 172t150 130t245 52q162 0 254.5 -51t138.5 -127t57 -161t11 -152v-105h-657q0 -117 58.5 -176t193.5 -59q82 0 163.5 17.5t159.5 45.5l60 -180q-100 -55 -211 -77.5t-215 -22.5q-152 0 -250 42t-154.5 113.5t-78 164.5t-21.5 198zM203 1274 q0 55 35.5 91t103.5 36q72 0 108.5 -35t36.5 -92q0 -53 -36.5 -90t-108.5 -37q-70 0 -104.5 37t-34.5 90zM381 616h387q-2 100 -40 165t-142 65q-55 0 -92 -18.5t-60.5 -50.5t-36 -73.5t-16.5 -87.5zM637 1274q0 55 36 91t101 36q72 0 109 -35t37 -92q0 -53 -37 -90 t-109 -37q-68 0 -102.5 37t-34.5 90z" />
<glyph unicode="&#x452;" horiz-adv-x="1179" d="M10 1110v123h105v231h291v-231h411l-2 -123h-412q0 -61 -1 -123.5t-1 -124.5q76 33 149 52.5t150 19.5q211 0 306.5 -126t95.5 -386q0 -104 -22.5 -195.5t-78 -160t-149.5 -108.5t-240 -40q-10 0 -20 1t-21 1l4 199q61 2 105.5 17.5t74 49t44 92t14.5 150.5 q0 49 -7 101.5t-27.5 96.5t-58.5 71.5t-99 27.5q-49 0 -105.5 -17.5t-105.5 -39.5v-668h-295v1110h-105z" />
<glyph unicode="&#x453;" horiz-adv-x="923" d="M102 0v1008h807v-201h-516v-807h-291zM319 1233l304 348l155 -168l-356 -287z" />
<glyph unicode="&#x454;" horiz-adv-x="1003" d="M80 487q0 88 19.5 183.5t74.5 175.5t152.5 131t255.5 51q76 0 154.5 -11t158.5 -42q-10 -47 -21.5 -92t-21.5 -92q-66 18 -119 25t-98 7q-123 0 -186.5 -63.5t-73.5 -181.5q86 4 168 5t166 3v-152l-334 4q8 -123 67.5 -187.5t182.5 -64.5q72 0 138 14.5t130 37.5l55 -175 q-72 -39 -169 -59t-201 -20q-152 0 -248.5 39.5t-151.5 108.5t-76.5 160t-21.5 195z" />
<glyph unicode="&#x455;" horiz-adv-x="1005" d="M63 66l64 182q125 -45 215 -56.5t141 -11.5q72 0 121 23.5t49 87.5q0 31 -16 50t-44 33.5t-61.5 25t-66.5 20.5q-70 20 -135.5 43.5t-115.5 56.5t-81 82t-31 123q0 145 108.5 225t317.5 80q80 0 177.5 -17.5t177.5 -60.5q-4 -8 -13.5 -33.5t-18.5 -55t-18.5 -56.5 t-13.5 -35q-82 31 -151.5 42t-128.5 11q-55 0 -101.5 -17t-46.5 -75q0 -20 17.5 -35.5t43 -28t57.5 -20.5t60 -16q63 -18 129 -42t120 -63t89 -97t35 -146q0 -145 -116.5 -223t-352.5 -78q-43 0 -95 4t-107.5 14t-108.5 25.5t-99 38.5z" />
<glyph unicode="&#x456;" horiz-adv-x="612" d="M135 1284q0 68 44 113t124 45q86 0 130 -45t44 -113q0 -66 -44 -111t-130 -45q-82 0 -125 45.5t-43 110.5zM158 0v1006h293v-1006h-293z" />
<glyph unicode="&#x457;" horiz-adv-x="612" d="M-45 1276q0 55 36 91t103 36q72 0 109 -35t37 -92q0 -53 -37 -90t-109 -37q-70 0 -104.5 37t-34.5 90zM158 0v1006h293v-1006h-293zM389 1276q0 55 36 91t101 36q72 0 109 -35t37 -92q0 -53 -37 -90t-109 -37q-68 0 -102.5 37t-34.5 90z" />
<glyph unicode="&#x458;" horiz-adv-x="628" d="M-82 -268q80 45 129 83t77 78.5t37 93t9 128.5v891h295v-648.5t-2 -263.5q-2 -121 -28.5 -211t-82 -156.5t-142.5 -113.5t-212 -80q-4 8 -15.5 38t-23.5 62.5t-24.5 61.5t-16.5 37zM152 1284q0 68 43 113t124 45q84 0 128.5 -45t44.5 -113q0 -66 -44.5 -111t-128.5 -45 t-125.5 45.5t-41.5 110.5z" />
<glyph unicode="&#x459;" horiz-adv-x="1722" d="M4 115q76 33 118 74.5t63.5 109.5t28.5 167t15 247l17 295h751v-334h301q76 0 143.5 -24.5t117 -68.5t78 -105.5t28.5 -137.5t-26.5 -138.5t-72.5 -106.5t-109.5 -68.5t-137.5 -24.5h-612v809h-220l-6 -104q-10 -156 -23.5 -285t-53 -229.5t-115.5 -169t-211 -101.5z M997 190h230q72 0 110.5 43t38.5 109q0 70 -44 112t-118 42h-217v-306z" />
<glyph unicode="&#x45a;" horiz-adv-x="1732" d="M102 0v1008h293v-365h332l-2 365h291v-361h291q74 0 140 -19.5t116.5 -58.5t81 -98t30.5 -141q0 -76 -25.5 -136.5t-71.5 -103.5t-107.5 -66.5t-131.5 -23.5h-612v453h-332v-453h-293zM1016 190h229q63 0 103.5 36t40.5 102q0 72 -44.5 106.5t-111.5 34.5h-217v-279z" />
<glyph unicode="&#x45b;" horiz-adv-x="1202" d="M10 1120v125h129v219h289v-219h369v-125h-371q0 -66 -1 -133t-1 -133q104 59 185 87t173 28q100 0 163 -28t96.5 -75t45 -110.5t11.5 -132.5v-623h-293v561q0 43 -5 76t-19.5 56.5t-43 35.5t-73.5 12q-51 0 -116 -22.5t-116 -52.5v-666h-293v1120h-129z" />
<glyph unicode="&#x45c;" horiz-adv-x="1155" d="M100 0v1006h287v-383h137q63 0 109.5 30.5t66.5 102.5q18 63 38 124.5t38 123.5h273q-18 -70 -38 -140.5t-42 -142.5q-16 -63 -54 -111.5t-96 -70.5v-4q80 -25 119 -71t59 -110l109 -354h-287q-23 76 -45 151.5t-49 153.5q-29 86 -79 111.5t-116 25.5h-143v-442h-287z M399 1196l303 348l156 -168l-356 -286z" />
<glyph unicode="&#x45e;" horiz-adv-x="1097" d="M29 1006h290q16 -55 38 -135t45.5 -165t46 -167t38.5 -142q16 -59 27.5 -119.5t20.5 -95.5h14q6 27 21.5 89.5t35.5 131.5q18 61 41 139.5t46.5 161t47 161.5t41.5 141h295q-25 -72 -56.5 -169.5t-68.5 -206t-75.5 -224t-75.5 -224t-70 -205t-57 -167.5 q-43 -129 -131 -191.5t-215 -62.5q-41 0 -98.5 7t-151.5 31l41 195q53 -8 85 -13t60 -5q70 0 107 26.5t59 98.5l41 127h-131zM168 1391l123 92q66 -88 137.5 -131t126.5 -43q18 0 46 2t64.5 17t86 47t114.5 93l88 -79q-49 -76 -101 -127.5t-104.5 -83t-103.5 -45t-96 -13.5 q-61 0 -115.5 22.5t-101.5 60.5t-88 86t-76 102z" />
<glyph unicode="&#x45f;" horiz-adv-x="1173" d="M100 0v1006h293v-809h383v809h293v-1006h-364v-315h-232v315h-373z" />
<glyph unicode="&#x490;" horiz-adv-x="1179" d="M154 0v1407h768v266h208q0 -119 1.5 -236.5t1.5 -238.5h-676v-1198h-303z" />
<glyph unicode="&#x491;" horiz-adv-x="968" d="M102 0v1008h623v231h201v-426h-533v-813h-291z" />
<glyph unicode="&#x4d9;" horiz-adv-x="1091" d="M88 473v92h643q0 55 -11 102.5t-40 82t-76 54t-115 19.5q-80 0 -155.5 -16t-153.5 -47l-55 172q102 53 204.5 75.5t207.5 22.5q150 0 243.5 -42t147 -113.5t73 -166t19.5 -196.5q0 -84 -21.5 -177t-76 -171t-150 -129t-242.5 -51t-234 51t-133 126t-60.5 160t-14.5 152z M350 389q4 -96 44 -152.5t134 -56.5t139.5 59.5t55.5 149.5h-373z" />
<glyph unicode="&#x1e80;" horiz-adv-x="1931" d="M16 1409h322q14 -66 34.5 -162t42 -199.5t42 -199.5t35.5 -160q8 -39 16 -83t15 -90t15.5 -91t16.5 -84h14q16 76 30.5 167t31.5 167q14 72 35.5 169t44 200.5t44 199.5t36.5 166h325q6 -20 20.5 -77.5t33 -132.5t39 -159t38 -156.5t31.5 -127t18 -70.5q2 -8 12.5 -56 t22.5 -106.5t23.5 -112t15.5 -69.5h16q16 82 32 180.5t32 177.5q14 63 33.5 158.5t40 196t41 196t34.5 158.5h316q-18 -78 -46 -194.5t-59.5 -251t-65.5 -277.5t-65.5 -273t-58.5 -238.5t-43 -174.5h-373q-18 68 -39.5 155t-44 178t-44 179t-40.5 156q-6 25 -16 74 t-21.5 102t-21.5 102t-16 74l-15 2q-16 -82 -32.5 -178t-32.5 -176l-146 -668h-379zM649 1782l150 162l305 -345l-100 -102z" />
<glyph unicode="&#x1e81;" horiz-adv-x="1679" d="M33 1008h289l112 -465l62 -310h10l67 318l121 457h279l131 -471l70 -301h14l59 301l113 471h285l-273 -1008h-342l-119 430l-73 326h-15l-67 -326l-109 -430h-342zM520 1368q12 14 35 39t46.5 51.5t46 51t36.5 38.5q25 -31 66 -77t86 -94t86 -94t67 -77l-108 -119z" />
<glyph unicode="&#x1e82;" horiz-adv-x="1931" d="M16 1409h322q14 -66 34.5 -162t42 -199.5t42 -199.5t35.5 -160q8 -39 16 -83t15 -90t15.5 -91t16.5 -84h14q16 76 30.5 167t31.5 167q14 72 35.5 169t44 200.5t44 199.5t36.5 166h325q6 -20 20.5 -77.5t33 -132.5t39 -159t38 -156.5t31.5 -127t18 -70.5q2 -8 12.5 -56 t22.5 -106.5t23.5 -112t15.5 -69.5h16q16 82 32 180.5t32 177.5q14 63 33.5 158.5t40 196t41 196t34.5 158.5h316q-18 -78 -46 -194.5t-59.5 -251t-65.5 -277.5t-65.5 -273t-58.5 -238.5t-43 -174.5h-373q-18 68 -39.5 155t-44 178t-44 179t-40.5 156q-6 25 -16 74 t-21.5 102t-21.5 102t-16 74l-15 2q-16 -82 -32.5 -178t-32.5 -176l-146 -668h-379zM860 1591l301 346l156 -161l-361 -285z" />
<glyph unicode="&#x1e83;" horiz-adv-x="1679" d="M33 1008h289l112 -465l62 -310h10l67 318l121 457h279l131 -471l70 -301h14l59 301l113 471h285l-273 -1008h-342l-119 430l-73 326h-15l-67 -326l-109 -430h-342zM731 1196l303 348l156 -168l-356 -286z" />
<glyph unicode="&#x1e84;" horiz-adv-x="1931" d="M16 1409h322q14 -66 34.5 -162t42 -199.5t42 -199.5t35.5 -160q8 -39 16 -83t15 -90t15.5 -91t16.5 -84h14q16 76 30.5 167t31.5 167q14 72 35.5 169t44 200.5t44 199.5t36.5 166h325q6 -20 20.5 -77.5t33 -132.5t39 -159t38 -156.5t31.5 -127t18 -70.5q2 -8 12.5 -56 t22.5 -106.5t23.5 -112t15.5 -69.5h16q16 82 32 180.5t32 177.5q14 63 33.5 158.5t40 196t41 196t34.5 158.5h316q-18 -78 -46 -194.5t-59.5 -251t-65.5 -277.5t-65.5 -273t-58.5 -238.5t-43 -174.5h-373q-18 68 -39.5 155t-44 178t-44 179t-40.5 156q-6 25 -16 74 t-21.5 102t-21.5 102t-16 74l-15 2q-16 -82 -32.5 -178t-32.5 -176l-146 -668h-379zM592 1622q0 55 36 91t103 36q72 0 109 -35t37 -92q0 -53 -37 -90t-109 -37q-70 0 -104.5 37t-34.5 90zM1026 1622q0 55 36 91t101 36q72 0 109 -35t37 -92q0 -53 -37 -90t-109 -37 q-68 0 -102.5 37t-34.5 90z" />
<glyph unicode="&#x1e85;" horiz-adv-x="1679" d="M33 1008h289l112 -465l62 -310h10l67 318l121 457h279l131 -471l70 -301h14l59 301l113 471h285l-273 -1008h-342l-119 430l-73 326h-15l-67 -326l-109 -430h-342zM467 1257q0 55 36 91t103 36q72 0 109 -35t37 -92q0 -53 -37 -90t-109 -37q-70 0 -104.5 37t-34.5 90z M901 1257q0 55 36 91t101 36q72 0 109 -35t37 -92q0 -53 -37 -90t-109 -37q-68 0 -102.5 37t-34.5 90z" />
<glyph unicode="&#x1ef2;" horiz-adv-x="1282" d="M16 1407h316q43 -92 88 -181t86 -182l125 -280h12q35 68 66.5 146.5t66.5 146.5l176 350h310q-117 -213 -232 -433t-231 -433v-541h-324v506zM330 1767l149 162l305 -344l-100 -102z" />
<glyph unicode="&#x1ef3;" horiz-adv-x="1097" d="M29 1006h290q16 -55 38 -135t45.5 -165t46 -167t38.5 -142q16 -59 27.5 -119.5t20.5 -95.5h14q6 27 21.5 89.5t35.5 131.5q18 61 41 139.5t46.5 161t47 161.5t41.5 141h295q-25 -72 -56.5 -169.5t-68.5 -206t-75.5 -224t-75.5 -224t-70 -205t-57 -167.5 q-43 -129 -131 -191.5t-215 -62.5q-41 0 -98.5 7t-151.5 31l41 195q53 -8 85 -13t60 -5q70 0 107 26.5t59 98.5l41 127h-131zM233 1362q12 14 35 38.5t46.5 51.5t46 51.5t36.5 38.5q25 -31 66 -77t86 -94t86 -94t67 -77l-108 -119z" />
<glyph unicode="&#x1f00;" horiz-adv-x="1241" d="M68 498q0 98 24.5 191t76.5 167t135 118t200 44q72 0 146.5 -19.5t137.5 -66.5l11 2l32 72h226v-811h114q4 -43 4.5 -86t4.5 -89q-43 -16 -97.5 -25t-101.5 -11q-72 0 -120 19.5t-70 88.5q-53 -39 -103.5 -61.5t-95.5 -32.5t-80 -13t-53 -3q-117 0 -193 40.5t-120 111.5 t-61 165t-17 199zM360 510q0 -94 16.5 -154.5t42 -95.5t59.5 -48t71 -13q45 0 102.5 20.5t114.5 67.5v452q-35 29 -90 51.5t-103 22.5q-109 0 -161 -85t-52 -218zM461 1421l53 168l37 21q201 -55 201 -224q0 -57 -44 -130.5t-137 -137.5l-67 74q31 31 54.5 68.5t23.5 66.5 q0 27 -25 55.5t-96 38.5z" />
<glyph unicode="&#x1f01;" horiz-adv-x="1241" d="M68 498q0 98 24.5 191t76.5 167t135 118t200 44q72 0 146.5 -19.5t137.5 -66.5l11 2l32 72h226v-811h114q4 -43 4.5 -86t4.5 -89q-43 -16 -97.5 -25t-101.5 -11q-72 0 -120 19.5t-70 88.5q-53 -39 -103.5 -61.5t-95.5 -32.5t-80 -13t-53 -3q-117 0 -193 40.5t-120 111.5 t-61 165t-17 199zM360 510q0 -94 16.5 -154.5t42 -95.5t59.5 -48t71 -13q45 0 102.5 20.5t114.5 67.5v452q-35 29 -90 51.5t-103 22.5q-109 0 -161 -85t-52 -218zM451 1386q0 168 198 224l39 -21l53 -168q-72 -10 -95 -38.5t-23 -55.5q0 -29 22.5 -66.5t50.5 -68.5l-65 -74 q-92 63 -136 137t-44 131z" />
<glyph unicode="&#x1f02;" horiz-adv-x="1241" d="M68 498q0 98 24.5 191t76.5 167t135 118t200 44q72 0 146.5 -19.5t137.5 -66.5l11 2l32 72h226v-811h114q4 -43 4.5 -86t4.5 -89q-43 -16 -97.5 -25t-101.5 -11q-72 0 -120 19.5t-70 88.5q-53 -39 -103.5 -61.5t-95.5 -32.5t-80 -13t-53 -3q-117 0 -193 40.5t-120 111.5 t-61 165t-17 199zM248 1442l55 170l37 22q201 -55 201 -227q0 -53 -44 -127t-137 -139l-67 76q31 31 49 68.5t18 66.5q0 27 -19 55.5t-93 34.5zM360 510q0 -94 16.5 -154.5t42 -95.5t59.5 -48t71 -13q45 0 102.5 20.5t114.5 67.5v452q-35 29 -90 51.5t-103 22.5 q-109 0 -161 -85t-52 -218zM543 1561l209 86l161 -445l-118 -51z" />
<glyph unicode="&#x1f03;" horiz-adv-x="1241" d="M68 498q0 98 24.5 191t76.5 167t135 118t200 44q72 0 146.5 -19.5t137.5 -66.5l11 2l32 72h226v-811h114q4 -43 4.5 -86t4.5 -89q-43 -16 -97.5 -25t-101.5 -11q-72 0 -120 19.5t-70 88.5q-53 -39 -103.5 -61.5t-95.5 -32.5t-80 -13t-53 -3q-117 0 -193 40.5t-120 111.5 t-61 165t-17 199zM279 1407q-1 170 202 225q10 -4 18.5 -10t18.5 -10l53 -170q-72 -10 -92 -39t-20 -53q0 -31 19.5 -70t49.5 -68l-67 -71q-92 63 -137 138t-45 128zM360 510q0 -94 16.5 -154.5t42 -95.5t59.5 -48t71 -13q45 0 102.5 20.5t114.5 67.5v452q-35 29 -90 51.5 t-103 22.5q-109 0 -161 -85t-52 -218zM580 1575l213 78q35 -117 66.5 -229.5t66.5 -225.5q-31 -12 -61.5 -24.5t-61.5 -22.5q-53 106 -110.5 210.5t-112.5 213.5z" />
<glyph unicode="&#x1f04;" horiz-adv-x="1241" d="M68 498q0 98 24.5 191t76.5 167t135 118t200 44q72 0 146.5 -19.5t137.5 -66.5l11 2l32 72h226v-811h114q4 -43 4.5 -86t4.5 -89q-43 -16 -97.5 -25t-101.5 -11q-72 0 -120 19.5t-70 88.5q-53 -39 -103.5 -61.5t-95.5 -32.5t-80 -13t-53 -3q-117 0 -193 40.5t-120 111.5 t-61 165t-17 199zM305 1442l55 170l39 22q199 -53 199 -227q0 -53 -43 -127t-135 -139l-68 76q29 31 49.5 68.5t20.5 66.5q0 27 -20.5 55.5t-96.5 34.5zM360 510q0 -94 16.5 -154.5t42 -95.5t59.5 -48t71 -13q45 0 102.5 20.5t114.5 67.5v452q-35 29 -90 51.5t-103 22.5 q-109 0 -161 -85t-52 -218zM606 1188l162 446l207 -86l-250 -409z" />
<glyph unicode="&#x1f05;" horiz-adv-x="1241" d="M68 498q0 98 24.5 191t76.5 167t135 118t200 44q72 0 146.5 -19.5t137.5 -66.5l11 2l32 72h226v-811h114q4 -43 4.5 -86t4.5 -89q-43 -16 -97.5 -25t-101.5 -11q-72 0 -120 19.5t-70 88.5q-53 -39 -103.5 -61.5t-95.5 -32.5t-80 -13t-53 -3q-117 0 -193 40.5t-120 111.5 t-61 165t-17 199zM311 1407q0 170 201 225q10 -6 18.5 -11t18.5 -9l53 -170q-72 -10 -92.5 -39t-20.5 -53q0 -35 20.5 -71t49.5 -67l-67 -71q-92 63 -136.5 138t-44.5 128zM360 510q0 -94 16.5 -154.5t42 -95.5t59.5 -48t71 -13q45 0 102.5 20.5t114.5 67.5v452 q-35 29 -90 51.5t-103 22.5q-109 0 -161 -85t-52 -218zM610 1186q41 113 81 223.5t81 222.5l209 -88q-63 -104 -126.5 -204.5t-123.5 -204.5z" />
<glyph unicode="&#x1f06;" horiz-adv-x="1241" d="M68 498q0 98 24.5 191t76.5 167t135 118t200 44q72 0 146.5 -19.5t137.5 -66.5l11 2l32 72h226v-811h114q4 -43 4.5 -86t4.5 -89q-43 -16 -97.5 -25t-101.5 -11q-72 0 -120 19.5t-70 88.5q-53 -39 -103.5 -61.5t-95.5 -32.5t-80 -13t-53 -3q-117 0 -193 40.5t-120 111.5 t-61 165t-17 199zM197 1573q41 96 96 137t125 41q47 0 96 -12.5t98.5 -25.5t95.5 -25.5t85 -12.5l120 84l84 -61q-33 -92 -86 -141.5t-129 -49.5q-55 0 -108 12.5t-102.5 27t-93.5 26.5t-77 12l-118 -80zM360 510q0 -94 16.5 -154.5t42 -95.5t59.5 -48t71 -13 q45 0 102.5 20.5t114.5 67.5v452q-35 29 -90 51.5t-103 22.5q-109 0 -161 -85t-52 -218zM471 1341l51 136l35 16q106 -23 152.5 -70t46.5 -106q0 -47 -44 -98.5t-137 -98.5l-67 66q31 25 48 45t17 41q0 61 -102 69z" />
<glyph unicode="&#x1f07;" horiz-adv-x="1241" d="M68 498q0 98 24.5 191t76.5 167t135 118t200 44q72 0 146.5 -19.5t137.5 -66.5l11 2l32 72h226v-811h114q4 -43 4.5 -86t4.5 -89q-43 -16 -97.5 -25t-101.5 -11q-72 0 -120 19.5t-70 88.5q-53 -39 -103.5 -61.5t-95.5 -32.5t-80 -13t-53 -3q-117 0 -193 40.5t-120 111.5 t-61 165t-17 199zM217 1571q41 96 95.5 137t125.5 41q47 0 96.5 -12.5t98.5 -25.5t95 -25.5t85 -12.5l121 84l84 -61q-33 -92 -86 -141.5t-129 -49.5q-55 0 -108.5 12.5t-102.5 27t-93 26.5t-77 12l-119 -80zM360 510q0 -94 16.5 -154.5t42 -95.5t59.5 -48t71 -13 q45 0 102.5 20.5t114.5 67.5v452q-35 29 -90 51.5t-103 22.5q-109 0 -161 -85t-52 -218zM457 1315q0 59 46 105t159 69l34 -19l54 -131q-106 -12 -107 -69q0 -18 18.5 -40t49.5 -46l-70 -66q-92 47 -138 99.5t-46 97.5z" />
<glyph unicode="&#x1f08;" horiz-adv-x="1359" d="M-53 1280l53 168l37 20q201 -55 201 -223q0 -57 -44 -131t-137 -137l-67 74q31 31 54.5 68.5t23.5 66.5q0 27 -25 55.5t-96 38.5zM16 0l480 1407h381l464 -1407h-311l-98 322h-514l-101 -322h-301zM483 526h387l-104 371l-82 305h-10l-86 -315z" />
<glyph unicode="&#x1f09;" horiz-adv-x="1359" d="M-57 1235q0 168 198 223l39 -20l53 -168q-72 -10 -95 -39t-23 -55q0 -29 22.5 -67t50.5 -69l-65 -73q-92 63 -136 137t-44 131zM16 0l480 1407h381l464 -1407h-311l-98 322h-514l-101 -322h-301zM483 526h387l-104 371l-82 305h-10l-86 -315z" />
<glyph unicode="&#x1f0a;" horiz-adv-x="1359" d="M-377 1262l55 170l37 22q201 -55 201 -227q0 -53 -44 -127t-136 -139l-68 75q31 31 49.5 69t18.5 66q0 27 -19.5 55.5t-93.5 35.5zM-82 1380l209 86l162 -444l-119 -51zM16 0l480 1407h381l464 -1407h-311l-98 322h-514l-101 -322h-301zM483 526h387l-104 371l-82 305 h-10l-86 -315z" />
<glyph unicode="&#x1f0b;" horiz-adv-x="1359" d="M-371 1225q0 170 203 225q10 -4 18.5 -10t18.5 -10l53 -170q-72 -10 -92 -39t-20 -54q0 -31 19 -69.5t50 -67.5l-67 -72q-92 63 -137.5 138t-45.5 129zM-70 1393l213 77q35 -117 66.5 -229t66.5 -225q-31 -12 -61.5 -24.5t-60.5 -22.5q-53 106 -110.5 210.5t-113.5 213.5 zM16 0l480 1407h381l464 -1407h-311l-98 322h-514l-101 -322h-301zM483 526h387l-104 371l-82 305h-10l-86 -315z" />
<glyph unicode="&#x1f0c;" horiz-adv-x="1359" d="M-340 1260l55 170l39 22q199 -53 199 -227q0 -53 -43 -127t-135 -140l-68 76q29 31 49.5 69t20.5 66q0 27 -20.5 55.5t-96.5 35.5zM-39 1006l162 446l207 -86l-250 -410zM16 0l480 1407h381l464 -1407h-311l-98 322h-514l-101 -322h-301zM483 526h387l-104 371l-82 305 h-10l-86 -315z" />
<glyph unicode="&#x1f0d;" horiz-adv-x="1359" d="M-334 1227q0 170 201 225q10 -6 18.5 -11t18.5 -9l53 -170q-72 -10 -92.5 -39t-20.5 -54q0 -35 20.5 -70.5t49.5 -66.5l-68 -71q-92 63 -136 138t-44 128zM-35 1006q41 113 81 223t81 223l209 -88q-63 -104 -127 -204.5t-123 -205.5zM16 0l480 1407h381l464 -1407h-311 l-98 322h-514l-101 -322h-301zM483 526h387l-104 371l-82 305h-10l-86 -315z" />
<glyph unicode="&#x1f0e;" horiz-adv-x="1359" d="M-438 1266q41 96 96 137t125 41q47 0 96 -12.5t98.5 -25.5t95.5 -25.5t85 -12.5l121 84l83 -61q-33 -92 -86 -141.5t-129 -49.5q-55 0 -108 12.5t-102.5 26.5t-93.5 26.5t-76 12.5l-119 -80zM-164 1034l51 135l35 17q106 -23 152.5 -70t46.5 -106q0 -47 -44 -98.5 t-136 -98.5l-68 66q31 25 48.5 45t17.5 41q0 61 -103 69zM16 0l480 1407h381l464 -1407h-311l-98 322h-514l-101 -322h-301zM483 526h387l-104 371l-82 305h-10l-86 -315z" />
<glyph unicode="&#x1f0f;" horiz-adv-x="1359" d="M-430 1268q41 96 95 137t126 41q47 0 96.5 -12.5t98.5 -25.5t95 -25.5t85 -12.5l121 84l84 -61q-33 -92 -86 -141.5t-129 -49.5q-55 0 -108.5 12.5t-102.5 26.5t-93.5 26.5t-76.5 12.5l-119 -80zM-190 1012q0 59 46 105t158 69l35 -19l53 -131q-106 -12 -106 -69 q0 -18 18.5 -40t48.5 -46l-69 -66q-92 47 -138 99.5t-46 97.5zM16 0l480 1407h381l464 -1407h-311l-98 322h-514l-101 -322h-301zM483 526h387l-104 371l-82 305h-10l-86 -315z" />
<glyph unicode="&#x1f10;" horiz-adv-x="954" d="M70 285q0 78 44 143.5t122 93.5v10q-63 23 -107.5 74t-44.5 123q0 66 28.5 121t82 96t132.5 64.5t181 23.5q111 0 206 -16.5t160 -42.5l-53 -191q-86 27 -148.5 37t-125.5 10q-82 0 -118 -28.5t-36 -77.5q0 -51 41 -72.5t98 -21.5h134v-193h-150q-53 0 -94 -25.5 t-41 -84.5q0 -74 52 -101.5t149 -27.5q25 0 57.5 4t71.5 11t78.5 18.5t78.5 27.5l60 -190q-66 -35 -174.5 -64t-237.5 -29q-209 0 -327.5 79t-118.5 229zM371 1427l53 168l37 21q201 -55 201 -223q0 -57 -44.5 -131t-136.5 -138l-67 74q31 31 54.5 69t23.5 66q0 27 -25 55.5 t-96 38.5z" />
<glyph unicode="&#x1f11;" horiz-adv-x="954" d="M70 285q0 78 44 143.5t122 93.5v10q-63 23 -107.5 74t-44.5 123q0 66 28.5 121t82 96t132.5 64.5t181 23.5q111 0 206 -16.5t160 -42.5l-53 -191q-86 27 -148.5 37t-125.5 10q-82 0 -118 -28.5t-36 -77.5q0 -51 41 -72.5t98 -21.5h134v-193h-150q-53 0 -94 -25.5 t-41 -84.5q0 -74 52 -101.5t149 -27.5q25 0 57.5 4t71.5 11t78.5 18.5t78.5 27.5l60 -190q-66 -35 -174.5 -64t-237.5 -29q-209 0 -327.5 79t-118.5 229zM346 1389q0 168 199 223l39 -21l53 -168q-72 -10 -95.5 -38.5t-23.5 -55.5q0 -29 22.5 -66.5t51.5 -68.5l-66 -74 q-92 63 -136 137t-44 132z" />
<glyph unicode="&#x1f12;" horiz-adv-x="954" d="M70 285q0 78 44 143.5t122 93.5v10q-63 23 -107.5 74t-44.5 123q0 66 28.5 121t82 96t132.5 64.5t181 23.5q111 0 206 -16.5t160 -42.5l-53 -191q-86 27 -148.5 37t-125.5 10q-82 0 -118 -28.5t-36 -77.5q0 -51 41 -72.5t98 -21.5h134v-193h-150q-53 0 -94 -25.5 t-41 -84.5q0 -74 52 -101.5t149 -27.5q25 0 57.5 4t71.5 11t78.5 18.5t78.5 27.5l60 -190q-66 -35 -174.5 -64t-237.5 -29q-209 0 -327.5 79t-118.5 229zM186 1436l56 170l37 22q201 -55 200 -227q0 -53 -44 -127t-136 -139l-68 75q31 31 49.5 69t18.5 67q0 27 -19.5 55.5 t-93.5 34.5zM481 1554l209 86l162 -444l-119 -51z" />
<glyph unicode="&#x1f13;" horiz-adv-x="954" d="M70 285q0 78 44 143.5t122 93.5v10q-63 23 -107.5 74t-44.5 123q0 66 28.5 121t82 96t132.5 64.5t181 23.5q111 0 206 -16.5t160 -42.5l-53 -191q-86 27 -148.5 37t-125.5 10q-82 0 -118 -28.5t-36 -77.5q0 -51 41 -72.5t98 -21.5h134v-193h-150q-53 0 -94 -25.5 t-41 -84.5q0 -74 52 -101.5t149 -27.5q25 0 57.5 4t71.5 11t78.5 18.5t78.5 27.5l60 -190q-66 -35 -174.5 -64t-237.5 -29q-209 0 -327.5 79t-118.5 229zM184 1401q0 170 203 225q10 -4 18.5 -10t18.5 -10l53 -170q-72 -10 -92 -39t-20 -54q0 -31 19 -69.5t50 -67.5l-67 -71 q-92 63 -137.5 138t-45.5 128zM485 1569l213 78q35 -117 66.5 -229.5t66.5 -225.5q-31 -12 -61.5 -24.5t-60.5 -22.5q-53 106 -110.5 210.5t-113.5 213.5z" />
<glyph unicode="&#x1f14;" horiz-adv-x="954" d="M70 285q0 78 44 143.5t122 93.5v10q-63 23 -107.5 74t-44.5 123q0 66 28.5 121t82 96t132.5 64.5t181 23.5q111 0 206 -16.5t160 -42.5l-53 -191q-86 27 -148.5 37t-125.5 10q-82 0 -118 -28.5t-36 -77.5q0 -51 41 -72.5t98 -21.5h134v-193h-150q-53 0 -94 -25.5 t-41 -84.5q0 -74 52 -101.5t149 -27.5q25 0 57.5 4t71.5 11t78.5 18.5t78.5 27.5l60 -190q-66 -35 -174.5 -64t-237.5 -29q-209 0 -327.5 79t-118.5 229zM221 1438l55 170l39 22q199 -53 199 -227q0 -53 -43 -127t-135 -139l-68 75q29 31 49.5 69t20.5 67q0 27 -20.5 55.5 t-96.5 34.5zM522 1184l162 446l207 -86l-250 -409z" />
<glyph unicode="&#x1f15;" horiz-adv-x="954" d="M70 285q0 78 44 143.5t122 93.5v10q-63 23 -107.5 74t-44.5 123q0 66 28.5 121t82 96t132.5 64.5t181 23.5q111 0 206 -16.5t160 -42.5l-53 -191q-86 27 -148.5 37t-125.5 10q-82 0 -118 -28.5t-36 -77.5q0 -51 41 -72.5t98 -21.5h134v-193h-150q-53 0 -94 -25.5 t-41 -84.5q0 -74 52 -101.5t149 -27.5q25 0 57.5 4t71.5 11t78.5 18.5t78.5 27.5l60 -190q-66 -35 -174.5 -64t-237.5 -29q-209 0 -327.5 79t-118.5 229zM227 1401q0 170 201 225q10 -6 18.5 -11t18.5 -9l53 -170q-72 -10 -92 -39t-20 -54q0 -35 20 -70.5t49 -66.5l-67 -71 q-92 63 -136.5 138t-44.5 128zM526 1180q41 113 81 223t81 223l209 -88q-63 -104 -126.5 -204.5t-123.5 -205.5z" />
<glyph unicode="&#x1f18;" horiz-adv-x="1241" d="M-307 1276l53 168l37 20q201 -55 201 -223q0 -57 -44 -131t-137 -137l-67 74q31 31 54.5 68.5t23.5 66.5q0 27 -25 55.5t-96 38.5zM147 0v1409h971v-213h-665v-358h559v-201h-559v-422h694v-215h-1000z" />
<glyph unicode="&#x1f19;" horiz-adv-x="1241" d="M-291 1235q0 168 199 223l39 -20l53 -168q-72 -10 -95.5 -39t-23.5 -55q0 -29 22.5 -67t51.5 -69l-66 -73q-92 63 -136 137t-44 131zM147 0v1409h971v-213h-665v-358h559v-201h-559v-422h694v-215h-1000z" />
<glyph unicode="&#x1f1a;" horiz-adv-x="1241" d="M-618 1270l55 170l37 22q201 -55 200 -227q0 -53 -44 -127t-136 -139l-67 75q31 31 49 69t18 67q0 27 -19.5 55.5t-92.5 34.5zM-324 1389l209 86l162 -445l-119 -51zM147 0v1409h971v-213h-665v-358h559v-201h-559v-422h694v-215h-1000z" />
<glyph unicode="&#x1f1b;" horiz-adv-x="1241" d="M-604 1233q0 170 203 225q10 -4 18 -10t18 -10l54 -170q-72 -10 -92.5 -39t-20.5 -53q0 -31 19.5 -70t50.5 -68l-68 -71q-92 63 -137 138t-45 128zM-303 1401l213 78q35 -117 66.5 -229.5t66.5 -225.5q-31 -12 -61.5 -24.5t-61.5 -22.5q-53 106 -110.5 210.5 t-112.5 213.5zM147 0v1409h971v-213h-665v-358h559v-201h-559v-422h694v-215h-1000z" />
<glyph unicode="&#x1f1c;" horiz-adv-x="1241" d="M-651 1268l55 170l39 22q199 -53 199 -227q0 -53 -43 -127t-136 -139l-67 75q29 31 49 69t20 67q0 27 -20 55.5t-96 34.5zM-350 1014l162 446l206 -86l-249 -409zM147 0v1409h971v-213h-665v-358h559v-201h-559v-422h694v-215h-1000z" />
<glyph unicode="&#x1f1d;" horiz-adv-x="1241" d="M-649 1231q-1 170 200 225q10 -6 18.5 -11t18.5 -9l54 -170q-72 -10 -92.5 -39t-20.5 -53q0 -35 20.5 -71t49.5 -67l-68 -71q-92 63 -136 138t-44 128zM-350 1010q41 113 81 223t81 223l208 -88q-63 -104 -126.5 -204.5t-122.5 -205.5zM147 0v1409h971v-213h-665v-358 h559v-201h-559v-422h694v-215h-1000z" />
<glyph unicode="&#x1f20;" horiz-adv-x="1165" d="M100 0v1006h279q0 -23 1 -46.5t3 -46.5l8 -4q88 59 185.5 90t168.5 31q100 0 162 -27.5t95.5 -74.5t46 -110.5t12.5 -133.5v-684h-293v623q0 39 -4 71.5t-19.5 57t-44 38t-75.5 13.5q-51 0 -115 -22.5t-115 -53.5v-727h-295zM395 1421l54 168l36 21q201 -55 201 -224 q0 -57 -44 -130.5t-136 -137.5l-68 74q31 31 54.5 68.5t23.5 66.5q0 27 -24.5 55.5t-96.5 38.5z" />
<glyph unicode="&#x1f21;" horiz-adv-x="1165" d="M100 0v1006h279q0 -23 1 -46.5t3 -46.5l8 -4q88 59 185.5 90t168.5 31q100 0 162 -27.5t95.5 -74.5t46 -110.5t12.5 -133.5v-684h-293v623q0 39 -4 71.5t-19.5 57t-44 38t-75.5 13.5q-51 0 -115 -22.5t-115 -53.5v-727h-295zM395 1386q0 168 199 224l39 -21l53 -168 q-72 -10 -95.5 -38.5t-23.5 -55.5q0 -29 22.5 -66.5t51.5 -68.5l-66 -74q-92 63 -136 137t-44 131z" />
<glyph unicode="&#x1f22;" horiz-adv-x="1165" d="M100 0v1006h279q0 -23 1 -46.5t3 -46.5l8 -4q88 59 185.5 90t168.5 31q100 0 162 -27.5t95.5 -74.5t46 -110.5t12.5 -133.5v-684h-293v623q0 39 -4 71.5t-19.5 57t-44 38t-75.5 13.5q-51 0 -115 -22.5t-115 -53.5v-727h-295zM195 1442l55 170l37 22q201 -55 200 -227 q0 -53 -44 -127t-136 -139l-67 76q31 31 49 68.5t18 66.5q0 27 -19.5 55.5t-92.5 34.5zM489 1561l209 86l162 -445l-119 -51z" />
<glyph unicode="&#x1f23;" horiz-adv-x="1165" d="M100 0v1006h279q0 -23 1 -46.5t3 -46.5l8 -4q88 59 185.5 90t168.5 31q100 0 162 -27.5t95.5 -74.5t46 -110.5t12.5 -133.5v-684h-293v623q0 39 -4 71.5t-19.5 57t-44 38t-75.5 13.5q-51 0 -115 -22.5t-115 -53.5v-727h-295zM213 1407q0 170 203 225q10 -4 18 -10t19 -10 l53 -170q-72 -10 -92.5 -39t-20.5 -53q0 -31 19.5 -70t50.5 -68l-68 -71q-92 63 -137 138t-45 128zM514 1575l213 78q35 -117 66.5 -229.5t66.5 -225.5q-31 -12 -61.5 -24.5t-61.5 -22.5q-53 106 -110.5 210.5t-112.5 213.5z" />
<glyph unicode="&#x1f24;" horiz-adv-x="1165" d="M100 0v1006h279q0 -23 1 -46.5t3 -46.5l8 -4q88 59 185.5 90t168.5 31q100 0 162 -27.5t95.5 -74.5t46 -110.5t12.5 -133.5v-684h-293v623q0 39 -4 71.5t-19.5 57t-44 38t-75.5 13.5q-51 0 -115 -22.5t-115 -53.5v-727h-295zM246 1442l55 170l39 22q199 -53 199 -227 q0 -53 -43 -127t-136 -139l-67 76q29 31 49 68.5t20 66.5q0 27 -20 55.5t-96 34.5zM547 1188l162 446l206 -86l-249 -409z" />
<glyph unicode="&#x1f25;" horiz-adv-x="1165" d="M100 0v1006h279q0 -23 1 -46.5t3 -46.5l8 -4q88 59 185.5 90t168.5 31q100 0 162 -27.5t95.5 -74.5t46 -110.5t12.5 -133.5v-684h-293v623q0 39 -4 71.5t-19.5 57t-44 38t-75.5 13.5q-51 0 -115 -22.5t-115 -53.5v-727h-295zM246 1407q-1 170 200 225q10 -6 18.5 -11 t18.5 -9l54 -170q-72 -10 -92.5 -39t-20.5 -53q0 -35 20.5 -71t49.5 -67l-68 -71q-92 63 -136 138t-44 128zM545 1186q41 113 81 223.5t81 222.5l208 -88q-63 -104 -126.5 -204.5t-122.5 -204.5z" />
<glyph unicode="&#x1f26;" horiz-adv-x="1165" d="M100 0v1006h279q0 -23 1 -46.5t3 -46.5l8 -4q88 59 185.5 90t168.5 31q100 0 162 -27.5t95.5 -74.5t46 -110.5t12.5 -133.5v-684h-293v623q0 39 -4 71.5t-19.5 57t-44 38t-75.5 13.5q-51 0 -115 -22.5t-115 -53.5v-727h-295zM135 1569q41 96 96.5 137t124.5 41 q47 0 96.5 -12.5t98.5 -25.5t95 -25.5t85 -12.5l121 84l84 -61q-33 -92 -86 -141.5t-129 -49.5q-55 0 -108.5 12.5t-102.5 26.5t-93 26.5t-77 12.5l-119 -80zM410 1337l51 136l35 16q106 -23 152 -70t46 -106q0 -47 -44 -98.5t-136 -98.5l-68 66q31 25 48.5 45t17.5 41 q0 61 -102 69z" />
<glyph unicode="&#x1f27;" horiz-adv-x="1165" d="M100 0v1006h279q0 -23 1 -46.5t3 -46.5l8 -4q88 59 185.5 90t168.5 31q100 0 162 -27.5t95.5 -74.5t46 -110.5t12.5 -133.5v-684h-293v623q0 39 -4 71.5t-19.5 57t-44 38t-75.5 13.5q-51 0 -115 -22.5t-115 -53.5v-727h-295zM143 1567q41 96 95.5 137t126.5 41 q47 0 96 -12.5t98 -25.5t95 -25.5t85 -12.5l121 84l84 -61q-33 -92 -86 -141.5t-129 -49.5q-55 0 -108.5 12.5t-102.5 26.5t-93 26.5t-77 12.5l-119 -80zM383 1311q0 59 46 105t159 69l35 -19l53 -131q-106 -12 -107 -69q0 -18 18.5 -40t49.5 -46l-70 -66q-92 47 -138 99.5 t-46 97.5z" />
<glyph unicode="&#x1f28;" horiz-adv-x="1454" d="M-295 1278l53 168l37 20q201 -55 201 -223q0 -57 -44 -131t-136 -137l-68 74q31 31 54.5 68.5t23.5 66.5q0 27 -24.5 55.5t-96.5 38.5zM147 0v1407h306q0 -141 -1 -280.5t-1 -280.5h546v561h306v-1407h-306v627h-546q0 -158 1 -314.5t1 -312.5h-306z" />
<glyph unicode="&#x1f29;" horiz-adv-x="1454" d="M-291 1235q0 168 199 223l39 -20l53 -168q-72 -10 -95.5 -39t-23.5 -55q0 -29 22.5 -67t51.5 -69l-66 -73q-92 63 -136 137t-44 131zM147 0v1407h306q0 -141 -1 -280.5t-1 -280.5h546v561h306v-1407h-306v627h-546q0 -158 1 -314.5t1 -312.5h-306z" />
<glyph unicode="&#x1f2a;" horiz-adv-x="1454" d="M-618 1262l55 170l37 22q201 -55 200 -227q0 -53 -44 -127t-136 -139l-67 75q31 31 49 69t18 66q0 27 -19.5 55.5t-92.5 35.5zM-324 1380l209 86l162 -444l-119 -51zM147 0v1407h306q0 -141 -1 -280.5t-1 -280.5h546v561h306v-1407h-306v627h-546q0 -158 1 -314.5 t1 -312.5h-306z" />
<glyph unicode="&#x1f2b;" horiz-adv-x="1454" d="M-608 1229q-1 170 202 225q10 -4 18.5 -10t18.5 -10l54 -170q-72 -10 -92.5 -39t-20.5 -54q0 -31 19.5 -69.5t50.5 -67.5l-68 -71q-92 63 -137 138t-45 128zM-307 1397l213 78q35 -117 66.5 -229.5t66.5 -225.5q-31 -12 -61.5 -24.5t-61.5 -22.5q-53 106 -110.5 210.5 t-112.5 213.5zM147 0v1407h306q0 -141 -1 -280.5t-1 -280.5h546v561h306v-1407h-306v627h-546q0 -158 1 -314.5t1 -312.5h-306z" />
<glyph unicode="&#x1f2c;" horiz-adv-x="1454" d="M-621 1262l56 170l39 22q199 -53 198 -227q0 -53 -43 -127t-135 -139l-67 75q29 31 49 69t20 66q0 27 -20.5 55.5t-96.5 35.5zM-319 1008l161 446l207 -86l-250 -410zM147 0v1407h306q0 -141 -1 -280.5t-1 -280.5h546v561h306v-1407h-306v627h-546q0 -158 1 -314.5 t1 -312.5h-306z" />
<glyph unicode="&#x1f2d;" horiz-adv-x="1454" d="M-629 1227q0 170 201 225q10 -6 18.5 -11t18.5 -9l53 -170q-72 -10 -92.5 -39t-20.5 -54q0 -35 20.5 -70.5t49.5 -66.5l-68 -71q-92 63 -136 138t-44 128zM-330 1006q41 113 81 223t81 223l209 -88q-63 -104 -127 -204.5t-123 -205.5zM147 0v1407h306q0 -141 -1 -280.5 t-1 -280.5h546v561h306v-1407h-306v627h-546q0 -158 1 -314.5t1 -312.5h-306z" />
<glyph unicode="&#x1f2e;" horiz-adv-x="1454" d="M-739 1266q41 96 96 137t125 41q47 0 96 -12.5t98.5 -25.5t95.5 -25.5t85 -12.5l120 84l84 -61q-33 -92 -86 -141.5t-129 -49.5q-55 0 -108 12.5t-102.5 26.5t-93.5 26.5t-77 12.5l-118 -80zM-465 1034l51 135l35 17q106 -23 152.5 -70t46.5 -106q0 -47 -44 -98.5 t-136 -98.5l-68 66q31 25 48.5 45t17.5 41q0 61 -103 69zM147 0v1407h306q0 -141 -1 -280.5t-1 -280.5h546v561h306v-1407h-306v627h-546q0 -158 1 -314.5t1 -312.5h-306z" />
<glyph unicode="&#x1f2f;" horiz-adv-x="1454" d="M-727 1268q41 96 95 137t126 41q47 0 96.5 -12.5t98.5 -25.5t95 -25.5t85 -12.5l121 84l84 -61q-33 -92 -86 -141.5t-129 -49.5q-55 0 -108.5 12.5t-102.5 26.5t-93 26.5t-77 12.5l-119 -80zM-487 1012q0 59 46 105t158 69l35 -19l53 -131q-106 -12 -106 -69 q0 -18 18.5 -40t49.5 -46l-70 -66q-92 47 -138 99.5t-46 97.5zM147 0v1407h306q0 -141 -1 -280.5t-1 -280.5h546v561h306v-1407h-306v627h-546q0 -158 1 -314.5t1 -312.5h-306z" />
<glyph unicode="&#x1f30;" horiz-adv-x="616" d="M131 178v828h293v-805h125l4 -176q-49 -20 -105.5 -30.5t-105.5 -10.5q-115 0 -163 47t-48 147zM158 1421l53 168l37 21q201 -55 201 -224q0 -57 -44.5 -130.5t-136.5 -137.5l-67 74q31 31 54.5 68.5t23.5 66.5q0 27 -25 55.5t-96 38.5z" />
<glyph unicode="&#x1f31;" horiz-adv-x="616" d="M131 178v828h293v-805h125l4 -176q-49 -20 -105.5 -30.5t-105.5 -10.5q-115 0 -163 47t-48 147zM145 1386q0 168 199 224l39 -21l53 -168q-72 -10 -95.5 -38.5t-23.5 -55.5q0 -29 22.5 -66.5t51.5 -68.5l-65 -74q-92 63 -136.5 137t-44.5 131z" />
<glyph unicode="&#x1f32;" horiz-adv-x="616" d="M-82 1442l55 170l37 22q201 -55 201 -227q0 -53 -44 -127t-136 -139l-68 76q31 31 49.5 68.5t18.5 66.5q0 27 -19.5 55.5t-93.5 34.5zM131 178v828h293v-805h125l4 -176q-49 -20 -105.5 -30.5t-105.5 -10.5q-115 0 -163 47t-48 147zM213 1561l209 86l162 -445l-119 -51z " />
</font>
</defs>
</svg>
